<svg viewBox="0 0 22 22" xmlns="http://www.w3.org/2000/svg"><path d="M14.44 1.833H7.567a5.73 5.73 0 0 0-5.73 5.73v6.874a5.73 5.73 0 0 0 5.73 5.73h6.875a5.73 5.73 0 0 0 5.729-5.73V7.562a5.73 5.73 0 0 0-5.73-5.729Zm4.011 12.604a4.015 4.015 0 0 1-4.01 4.01H7.566a4.015 4.015 0 0 1-4.01-4.01V7.562a4.015 4.015 0 0 1 4.01-4.01h6.875a4.015 4.015 0 0 1 4.01 4.01v6.875Z" fill="url(#a)"/><path d="M11.003 6.417a4.584 4.584 0 1 0 0 9.167 4.584 4.584 0 0 0 0-9.167Zm0 7.448A2.869 2.869 0 0 1 8.138 11a2.868 2.868 0 0 1 2.865-2.864A2.868 2.868 0 0 1 13.867 11a2.869 2.869 0 0 1-2.864 2.865Z" fill="url(#b)"/><path d="M15.93 6.684a.61.61 0 1 0 0-1.222.61.61 0 0 0 0 1.222Z" fill="url(#c)"/><defs><linearGradient id="a" x1="3.515" y1="18.488" x2="18.491" y2="3.511" gradientUnits="userSpaceOnUse"><stop stop-color="#FFC107"/><stop offset=".507" stop-color="#F44336"/><stop offset=".99" stop-color="#9C27B0"/></linearGradient><linearGradient id="b" x1="7.762" y1="14.241" x2="14.244" y2="7.759" gradientUnits="userSpaceOnUse"><stop stop-color="#FFC107"/><stop offset=".507" stop-color="#F44336"/><stop offset=".99" stop-color="#9C27B0"/></linearGradient><linearGradient id="c" x1="15.498" y1="6.505" x2="16.362" y2="5.641" gradientUnits="userSpaceOnUse"><stop stop-color="#FFC107"/><stop offset=".507" stop-color="#F44336"/><stop offset=".99" stop-color="#9C27B0"/></linearGradient></defs></svg>
