<svg viewBox="0 0 25 24" xmlns="http://www.w3.org/2000/svg">
  <path d="M15.75 2h-7.5A6.25 6.25 0 0 0 2 8.25v7.5A6.25 6.25 0 0 0 8.25 22h7.5A6.25 6.25 0 0 0 22 15.75v-7.5A6.25 6.25 0 0 0 15.75 2zm4.38 13.75a4.38 4.38 0 0 1-4.38 4.38h-7.5a4.38 4.38 0 0 1-4.37-4.38v-7.5a4.38 4.38 0 0 1 4.37-4.38h7.5a4.38 4.38 0 0 1 4.38 4.38v7.5z" fill="url(#a)"/>
  <path d="M12 7a5 5 0 1 0 0 10 5 5 0 0 0 0-10zm0 8.13A3.13 3.13 0 0 1 8.88 12 3.13 3.13 0 0 1 12 8.87 3.13 3.13 0 0 1 15.13 12 3.13 3.13 0 0 1 12 15.13z" fill="url(#b)"/>
  <path d="M17.38 7.3a.67.67 0 1 0 0-1.34.67.67 0 0 0 0 1.33z" fill="url(#c)"/>
  <defs>
    <linearGradient id="a" x1="3.83" y1="20.17" x2="20.17" y2="3.83" gradientUnits="userSpaceOnUse">
      <stop stop-color="#FFC107"/>
      <stop offset=".51" stop-color="#F44336"/>
      <stop offset=".99" stop-color="#9C27B0"/>
    </linearGradient>
    <linearGradient id="b" x1="8.47" y1="15.54" x2="15.54" y2="8.46" gradientUnits="userSpaceOnUse">
      <stop stop-color="#FFC107"/>
      <stop offset=".51" stop-color="#F44336"/>
      <stop offset=".99" stop-color="#9C27B0"/>
    </linearGradient>
    <linearGradient id="c" x1="16.91" y1="7.1" x2="17.85" y2="6.15" gradientUnits="userSpaceOnUse">
      <stop stop-color="#FFC107"/>
      <stop offset=".51" stop-color="#F44336"/>
      <stop offset=".99" stop-color="#9C27B0"/>
    </linearGradient>
  </defs>
</svg>
