<svg viewBox="0 0 25 25" xmlns="http://www.w3.org/2000/svg">
  <path d="m7.79 10.24-4.02 4.01a4.76 4.76 0 0 0 0 6.73l.1.1a4.73 4.73 0 0 0 3.37 1.4 4.73 4.73 0 0 0 3.37-1.4l3.86-3.86a6.1 6.1 0 0 1-.86.06 5.92 5.92 0 0 1-2.3-.45l-2.43 2.43a2.3 2.3 0 0 1-1.64.68 2.3 2.3 0 0 1-1.64-.68 2.3 2.3 0 0 1-.68-1.64c0-.62.24-1.2.68-1.64l3.92-3.92a2.3 2.3 0 0 1 1.64-.68 2.3 2.3 0 0 1 1.6.64.57.57 0 0 1 .04.04 1.13 1.13 0 0 0 1.62 0l.88-.87a4.76 4.76 0 0 0-.68-.85l-.1-.1a4.73 4.73 0 0 0-3.36-1.4 4.73 4.73 0 0 0-3.37 1.4z"/>
  <path d="M20.99 10.7a4.73 4.73 0 0 0 1.4-3.36 4.73 4.73 0 0 0-1.4-3.37l-.1-.1a4.73 4.73 0 0 0-3.37-1.4 4.73 4.73 0 0 0-3.36 1.4l-3.87 3.86a5.93 5.93 0 0 1 3.16.4l2.43-2.43a2.3 2.3 0 0 1 1.64-.68 2.3 2.3 0 0 1 1.64.68 2.3 2.3 0 0 1 .68 1.64c0 .62-.24 1.2-.68 1.64l-3.91 3.91a2.3 2.3 0 0 1-1.64.68 2.3 2.3 0 0 1-1.6-.64.63.63 0 0 1-.04-.04 1.14 1.14 0 0 0-.81-.33c-.31 0-.6.12-.82.33l-.87.88c.19.3.41.59.67.85l.1.1a4.73 4.73 0 0 0 3.37 1.4 4.73 4.73 0 0 0 3.36-1.4L21 10.7z"/>
</svg>
