<svg viewBox="0 0 25 26" xmlns="http://www.w3.org/2000/svg">
  <path d="M14.67 0H9.34a9.46 9.46 0 0 0-6.6 2.67A8.99 8.99 0 0 0 0 9.1V13c0 1.72.5 3.41 1.45 4.87a9.26 9.26 0 0 0 3.89 3.36v4.34a.43.43 0 0 0 .08.24.45.45 0 0 0 .45.18.45.45 0 0 0 .22-.11l3.88-3.78h4.7a9.46 9.46 0 0 0 6.6-2.67A8.99 8.99 0 0 0 24 13V9.1a8.99 8.99 0 0 0-2.73-6.44A9.46 9.46 0 0 0 14.67 0zm3.5 17.06-1.34 1.3c-1.42 1.35-5.13-.2-8.4-3.45-3.26-3.25-4.7-6.9-3.33-8.26l1.34-1.3a1.42 1.42 0 0 1 1.9.02l1.94 1.95c.15.16.27.35.32.56a1.25 1.25 0 0 1-.3 1.2 1.31 1.31 0 0 1-.55.35A1.27 1.27 0 0 0 9 10c-.16.27-.2.6-.12.91.33 1.44 2.21 3.25 3.61 3.6.32.08.65.04.93-.11a1.31 1.31 0 0 0 .63-.7c.07-.2.2-.38.37-.53a1.34 1.34 0 0 1 1.25-.26c.21.07.4.19.56.34l1.94 1.95c.24.26.36.59.36.93a1.35 1.35 0 0 1-.38.92zM13.21 6.18c-.14 0-.27 0-.4.02a.46.46 0 0 1-.33-.1.44.44 0 0 1-.16-.28.42.42 0 0 1 .1-.32.44.44 0 0 1 .3-.16 4.5 4.5 0 0 1 3.63 1.24 4.29 4.29 0 0 1 1.28 3.54.42.42 0 0 1-.16.3.45.45 0 0 1-.5.04.44.44 0 0 1-.2-.26.42.42 0 0 1-.02-.17l.02-.39a3.43 3.43 0 0 0-1.04-2.45 3.61 3.61 0 0 0-2.52-1.01zm2.66 3.46a.43.43 0 0 1-.14.29.45.45 0 0 1-.6 0 .43.43 0 0 1-.15-.29c0-.46-.18-.9-.52-1.22a1.8 1.8 0 0 0-1.25-.5.46.46 0 0 1-.34-.12.44.44 0 0 1-.15-.32.43.43 0 0 1 .15-.32.45.45 0 0 1 .34-.12 2.7 2.7 0 0 1 1.88.77c.5.48.78 1.14.78 1.83zm3.4 1.41a.43.43 0 0 1-.2.3.45.45 0 0 1-.64-.15.43.43 0 0 1-.03-.35 4.99 4.99 0 0 0 .14-1.2 5.13 5.13 0 0 0-1.56-3.68 5.4 5.4 0 0 0-3.77-1.52h-.42a.46.46 0 0 1-.32-.1.43.43 0 0 1-.05-.61.45.45 0 0 1 .3-.15 6.32 6.32 0 0 1 4.89 1.76 6 6 0 0 1 1.65 5.7z"/>
</svg>
