<svg viewBox="0 0 12 16" xmlns="http://www.w3.org/2000/svg"><path fill-rule="evenodd" clip-rule="evenodd" d="M5.056 2.31c-.327.101-.693.19-1.056.19-.537 0-1.159-.044-1.739-.134-.17-.026-.591-.057-.761-.093v4.73c.206.058.706.111.989.155.503.077 1.048.116 1.511.116.137 0 .333-.036.615-.123.223-.068.456-.154.723-.252l.218-.08c.682-.248 1.546-.545 2.444-.545.835 0 1.776.166 2.307.299.067.016.131.033.193.05V1.776C10.018 1.62 9.1 1.5 8 1.5c-.602 0-1.238.203-1.931.455l-.195.071c-.27.1-.553.203-.817.285ZM1.5 8.548c.17.037.592.067.761.093.58.09 1.202.134 1.739.134.363 0 .73-.089 1.056-.19.265-.08.547-.184.818-.284l.195-.071c.693-.252 1.329-.455 1.931-.455.665 0 1.474.137 1.943.254l.34.089.024.006.292.077c.188.047.424.1.651.1a.75.75 0 0 0 .75-.75V1.276a.75.75 0 0 0-.415-.67C10.767.195 9.547 0 8 0c-.898 0-1.762.297-2.444.545l-.218.08c-.267.098-.5.184-.723.252C4.333.964 4.137 1 4 1 3.537 1 2.992.961 2.489.884 1.969.804 1.313.693 1.085.579A.75.75 0 0 0 0 1.25v14a.75.75 0 0 0 1.5 0V8.547Z"/></svg>