<svg viewBox="0 0 24 24" xmlns="http://www.w3.org/2000/svg"><path fill-rule="evenodd" clip-rule="evenodd" d="M21.077 4.894c-.583-.705-1.279-.934-2.083-.888-.857.049-1.831.419-2.8.96-.957.533-1.831 1.19-2.473 1.72a19.208 19.208 0 0 0-1 .889l-.011.01-.002.002-.705.701-.705-.7-.002-.002-.01-.011a7.364 7.364 0 0 0-.25-.235c-.175-.161-.432-.39-.751-.654-.642-.53-1.516-1.187-2.472-1.72-.97-.541-1.944-.911-2.801-.96-.804-.046-1.5.183-2.083.888-1.064 1.287-1.153 2.752-.566 4.393.602 1.686 1.894 3.457 3.427 5.105 1.52 1.635 3.214 3.081 4.536 4.123.659.52 1.22.936 1.617 1.221.02.015.04.03.06.043l.06-.043c.396-.285.958-.7 1.617-1.22 1.322-1.043 3.015-2.49 4.535-4.124 1.534-1.648 2.825-3.42 3.428-5.105.586-1.642.498-3.106-.566-4.393ZM12.003 21S-3.235 10.776 2.158 4.257c3.253-3.933 9.845 2.621 9.845 2.621s6.592-6.554 9.844-2.621C27.241 10.777 12.003 21 12.003 21Z"/></svg>
