<svg width="17" height="16" viewBox="0 0 17 16" fill="none" xmlns="http://www.w3.org/2000/svg">
<path fill-rule="evenodd" clip-rule="evenodd" d="M8.00293 1C4.13694 1 1.00293 4.13401 1.00293 8C1.00293 11.866 4.13694 15 8.00293 15C9.4123 15 10.723 14.584 11.8208 13.8683C12.0521 13.7174 12.3619 13.7827 12.5127 14.014C12.6635 14.2453 12.5982 14.5551 12.3669 14.7059C11.1116 15.5244 9.61207 16 8.00293 16C3.58465 16 0.00292969 12.4183 0.00292969 8C0.00292969 3.58172 3.58465 0 8.00293 0C12.4212 0 16.0029 3.58172 16.0029 8V9.36364C16.0029 10.7695 14.8633 11.9091 13.4575 11.9091C12.4069 11.9091 11.505 11.2727 11.1163 10.3643C10.4022 11.303 9.27336 11.9091 8.00293 11.9091C5.844 11.9091 4.09384 10.1589 4.09384 8C4.09384 5.84107 5.844 4.09091 8.00293 4.09091C9.15818 4.09091 10.1964 4.59204 10.912 5.38878V4.59091C10.912 4.31477 11.1359 4.09091 11.412 4.09091C11.6882 4.09091 11.912 4.31477 11.912 4.59091V9.36364C11.912 10.2172 12.6039 10.9091 13.4575 10.9091C14.311 10.9091 15.0029 10.2172 15.0029 9.36364V8C15.0029 4.13401 11.8689 1 8.00293 1ZM10.912 8C10.912 6.39335 9.60958 5.09091 8.00293 5.09091C6.39628 5.09091 5.09384 6.39335 5.09384 8C5.09384 9.60665 6.39628 10.9091 8.00293 10.9091C9.60958 10.9091 10.912 9.60665 10.912 8Z" fill="#1D2126"/>
</svg>
