<svg width="17" height="16" viewBox="0 0 17 16" fill="none" xmlns="http://www.w3.org/2000/svg">
<path fill-rule="evenodd" clip-rule="evenodd" d="M3.50293 1C2.12222 1 1.00293 2.11929 1.00293 3.5V12.5C1.00293 13.8807 2.12222 15 3.50293 15H12.5029C13.8836 15 15.0029 13.8807 15.0029 12.5V3.5C15.0029 2.11929 13.8836 1 12.5029 1H3.50293ZM0.00292969 3.5C0.00292969 1.567 1.56993 0 3.50293 0H12.5029C14.4359 0 16.0029 1.567 16.0029 3.5V12.5C16.0029 14.433 14.4359 16 12.5029 16H3.50293C1.56993 16 0.00292969 14.433 0.00292969 12.5V3.5ZM4.50293 4C4.77907 4 5.00293 4.22386 5.00293 4.5V11.5C5.00293 11.7761 4.77907 12 4.50293 12C4.22679 12 4.00293 11.7761 4.00293 11.5V4.5C4.00293 4.22386 4.22679 4 4.50293 4ZM7.00293 4.5C7.00293 4.22386 7.22679 4 7.50293 4H9.00293C11.2121 4 13.0029 5.79086 13.0029 8C13.0029 10.2091 11.2121 12 9.00293 12H7.50293C7.22679 12 7.00293 11.7761 7.00293 11.5V4.5ZM8.00293 5V11H9.00293C10.6598 11 12.0029 9.65685 12.0029 8C12.0029 6.34315 10.6598 5 9.00293 5H8.00293Z" fill="#1D2126"/>
</svg>
