<svg width="15" height="16" viewBox="0 0 15 16" fill="none" xmlns="http://www.w3.org/2000/svg">
<path fill-rule="evenodd" clip-rule="evenodd" d="M7.00293 1C5.59867 1 4.42398 2.19474 4.42398 3.71429C4.42398 5.23383 5.59867 6.42857 7.00293 6.42857C8.40719 6.42857 9.58188 5.23383 9.58188 3.71429C9.58188 2.19474 8.40719 1 7.00293 1ZM9.1763 6.66619C10.034 5.98397 10.5819 4.90927 10.5819 3.71429C10.5819 1.68343 8.99958 0 7.00293 0C5.00628 0 3.42398 1.68343 3.42398 3.71429C3.42398 4.90927 3.97182 5.98397 4.82956 6.66619C2.03758 7.45495 0.00292969 10.1147 0.00292969 13.2437C0.00292969 13.9003 0.299408 14.6039 0.977668 14.9265C1.93983 15.3842 3.82624 16 7.00293 16C10.1796 16 12.066 15.3842 13.0282 14.9265C13.7065 14.6039 14.0029 13.9003 14.0029 13.2437C14.0029 10.1147 11.9683 7.45495 9.1763 6.66619ZM6.55211 7.42857C3.50744 7.42857 1.00293 10.0116 1.00293 13.2437C1.00293 13.6334 1.17338 13.9122 1.40724 14.0235C2.22119 14.4107 3.95853 15 7.00293 15C10.0473 15 11.7847 14.4107 12.5986 14.0235C12.8325 13.9122 13.0029 13.6334 13.0029 13.2437C13.0029 10.0116 10.4984 7.42857 7.45375 7.42857H6.55211Z" fill="#1D2126"/>
</svg>
