<svg width="25" height="24" viewBox="0 0 25 24" fill="none" xmlns="http://www.w3.org/2000/svg">
<path fill-rule="evenodd" clip-rule="evenodd" d="M8.57436 0C7.7272 0 7.09564 0.294621 6.65871 0.740761C6.26849 1.13921 6.07933 1.61103 5.98542 1.96709C5.45646 2.02728 5.02977 2.42451 4.92538 2.93878H0.737624C0.331863 2.93878 0.00292969 3.26771 0.00292969 3.67347V20.3265C0.00292969 20.7323 0.331863 21.0612 0.737624 21.0612H10.5335C10.9393 21.0612 11.2682 20.7323 11.2682 20.3265C11.2682 19.9208 10.9393 19.5918 10.5335 19.5918H1.97232C1.69618 19.5918 1.47232 19.368 1.47232 19.0918V4.90816C1.47232 4.63202 1.69618 4.40816 1.97232 4.40816H4.90089V4.65306C4.90089 5.59984 5.6684 6.36735 6.61517 6.36735H10.5335C11.4803 6.36735 12.2478 5.59984 12.2478 4.65306V4.40816H15.1764C15.4525 4.40816 15.6764 4.63202 15.6764 4.90816V8.57143C15.6764 8.97719 16.0053 9.30612 16.4111 9.30612C16.8169 9.30612 17.1458 8.97719 17.1458 8.57143V3.67347C17.1458 3.26771 16.8169 2.93878 16.4111 2.93878H12.2233C12.1189 2.42451 11.6923 2.02728 11.1633 1.9671C11.0694 1.61103 10.8802 1.13921 10.49 0.740761C10.0531 0.294621 9.42151 0 8.57436 0ZM7.39629 2.38131C7.44844 2.16373 7.54514 1.93569 7.7085 1.76888C7.85199 1.62238 8.09716 1.46939 8.57436 1.46939C9.05155 1.46939 9.29673 1.62238 9.44021 1.76888C9.60358 1.93569 9.70028 2.16373 9.75243 2.38131C9.85925 2.82702 10.2247 3.29603 10.7784 3.40502V4.65306C10.7784 4.78831 10.6688 4.89796 10.5335 4.89796H6.61517C6.47992 4.89796 6.37028 4.78831 6.37028 4.65306V3.40502C6.924 3.29603 7.28946 2.82702 7.39629 2.38131Z" fill="black"/>
<path d="M16.4111 15.6735C16.0053 15.6735 15.6764 16.0024 15.6764 16.4082C15.6764 16.8139 16.0053 17.1429 16.4111 17.1429H20.3295C20.7352 17.1429 21.0642 16.8139 21.0642 16.4082C21.0642 16.0024 20.7352 15.6735 20.3295 15.6735H16.4111Z" fill="black"/>
<path d="M15.6764 19.3469C15.6764 18.9412 16.0053 18.6122 16.4111 18.6122H20.3295C20.7352 18.6122 21.0642 18.9412 21.0642 19.3469C21.0642 19.7527 20.7352 20.0816 20.3295 20.0816H16.4111C16.0053 20.0816 15.6764 19.7527 15.6764 19.3469Z" fill="black"/>
<path fill-rule="evenodd" clip-rule="evenodd" d="M14.4519 10.7755C13.5051 10.7755 12.7376 11.543 12.7376 12.4898V22.2857C12.7376 23.2325 13.5051 24 14.4519 24H22.2886C23.2354 24 24.0029 23.2325 24.0029 22.2857V15.7551C24.0029 15.3842 23.8826 15.0233 23.6601 14.7265L21.2111 11.4612C20.8873 11.0296 20.3792 10.7755 19.8397 10.7755H14.4519ZM14.207 12.4898C14.207 12.3545 14.3167 12.2449 14.4519 12.2449H19.8397C19.9167 12.2449 19.9893 12.2812 20.0356 12.3429L22.4846 15.6082C22.5164 15.6506 22.5335 15.7021 22.5335 15.7551V22.2857C22.5335 22.421 22.4239 22.5306 22.2886 22.5306H14.4519C14.3167 22.5306 14.207 22.421 14.207 22.2857V12.4898Z" fill="black"/>
</svg>
