<svg width="25" height="24" viewBox="0 0 25 24" fill="none" xmlns="http://www.w3.org/2000/svg">
<path fill-rule="evenodd" clip-rule="evenodd" d="M9.06302 2.93865C7.84589 2.93865 6.85921 3.92541 6.85921 5.14264C6.85921 6.35988 7.84589 7.34664 9.06302 7.34664C10.2801 7.34664 11.2668 6.35988 11.2668 5.14264C11.2668 3.92541 10.2801 2.93865 9.06302 2.93865ZM8.32842 5.14264C8.32842 4.7369 8.65731 4.40798 9.06302 4.40798C9.46873 4.40798 9.79762 4.7369 9.79762 5.14264C9.79762 5.54839 9.46873 5.87731 9.06302 5.87731C8.65731 5.87731 8.32842 5.54839 8.32842 5.14264Z" fill="black"/>
<path fill-rule="evenodd" clip-rule="evenodd" d="M6.61435 0C5.9961 0 5.48355 0.156676 5.07435 0.429496C4.66975 0.699254 4.40921 1.05366 4.24323 1.38566C4.07866 1.71482 4.00004 2.03509 3.96141 2.26688C3.94181 2.38451 3.93172 2.48414 3.9265 2.55724C3.92388 2.59392 3.92246 2.62428 3.92169 2.64729L3.92163 2.64926L3.92101 2.67406L3.92095 2.67725L3.92085 2.68546L3.92083 2.68698L3.92082 2.69001L3.92081 2.6915L3.92081 2.69259V15.4279C3.92081 16.0267 4.06903 16.7044 4.51959 17.2451C4.98984 17.8095 5.7033 18.1217 6.61435 18.1217H21.3064C21.9533 18.1217 22.486 17.9712 22.9084 17.6973C23.33 17.4239 23.5918 17.0598 23.7504 16.7133C23.9066 16.3721 23.9664 16.0416 23.9892 15.8045C24.0008 15.6839 24.0034 15.5819 24.0029 15.507C24.0026 15.4694 24.0016 15.4382 24.0004 15.4145L23.9999 15.4058V2.69377L23.9999 2.69272L23.9999 2.69074L23.9999 2.68695L23.9999 2.68545L23.9998 2.67724L23.9991 2.64925L23.999 2.64729C23.9983 2.62428 23.9968 2.59392 23.9942 2.55724C23.989 2.48414 23.9789 2.38451 23.9593 2.26688C23.9207 2.03509 23.8421 1.71482 23.6775 1.38566C23.5115 1.05366 23.251 0.699253 22.8464 0.429496C22.4372 0.156676 21.9246 0 21.3064 0H6.61435ZM5.88932 1.65205C6.03114 1.55749 6.25321 1.46933 6.61435 1.46933H21.3064C21.6675 1.46933 21.8896 1.55749 22.0314 1.65205C22.1778 1.74968 22.2846 1.8851 22.3634 2.04277C22.4437 2.20337 22.4875 2.37288 22.5101 2.50844C22.5211 2.57446 22.5263 2.62788 22.5288 2.66193C22.53 2.67883 22.5305 2.69057 22.5307 2.69624L22.5307 2.69914V11.4828L17.9463 6.13386C17.7993 5.96239 17.5816 5.86805 17.3561 5.87803C17.1305 5.888 16.922 6.00119 16.7907 6.18496L12.3974 12.3361L10.0722 10.0107C9.78532 9.72379 9.32019 9.72379 9.03331 10.0107L5.39001 13.6543V2.69914L5.39011 2.69547C5.39031 2.68953 5.39081 2.67809 5.39197 2.66193C5.3944 2.62789 5.39962 2.57447 5.41062 2.50843C5.43321 2.37288 5.47703 2.20337 5.55732 2.04277C5.63615 1.88511 5.74288 1.74968 5.88932 1.65205ZM13.0889 13.8958L17.4411 7.80225L22.5307 13.7406V15.4486L22.5308 15.4564C22.5309 15.4587 22.531 15.4611 22.5312 15.4635L22.5316 15.4694L22.5328 15.4838L22.5329 15.4854L22.5334 15.4973L22.5337 15.5172C22.5339 15.5495 22.5328 15.6005 22.5268 15.6636C22.5142 15.7939 22.4826 15.9531 22.4146 16.1017C22.3491 16.2448 22.2539 16.3705 22.109 16.4645C21.9648 16.558 21.7215 16.6524 21.3064 16.6524H6.61435C6.05677 16.6524 5.7905 16.4752 5.64826 16.3045C5.52957 16.1621 5.44572 15.9615 5.40968 15.7126L9.55275 11.5691L11.9717 13.9883C12.1244 14.141 12.3365 14.2188 12.5518 14.201C12.767 14.1832 12.9634 14.0716 13.0889 13.8958Z" fill="black"/>
<path d="M2.56009 10.565C2.1682 10.4599 1.76539 10.6925 1.66039 11.0844L0.088655 16.9507C-0.268363 18.2832 0.522347 19.6529 1.85476 20.01L16.4246 23.9143C17.757 24.2713 19.1266 23.4805 19.4836 22.148L20.0413 20.0664C20.1463 19.6745 19.9137 19.2717 19.5219 19.1667C19.13 19.0616 18.7272 19.2942 18.6222 19.6861L18.0645 21.7677C17.9174 22.3164 17.3535 22.642 16.8049 22.495L2.23501 18.5907C1.68638 18.4437 1.36079 17.8797 1.5078 17.331L3.07953 11.4647C3.18453 11.0728 2.95197 10.67 2.56009 10.565Z" fill="black"/>
</svg>
