<svg width="25" height="24" viewBox="0 0 25 24" fill="none" xmlns="http://www.w3.org/2000/svg">
<path d="M12.7322 9.55217C12.7322 9.1437 13.0633 8.81258 13.4718 8.81258C13.8803 8.81258 14.2114 9.1437 14.2114 9.55217V9.79175H14.451C14.8594 9.79175 15.1906 10.1229 15.1906 10.5313C15.1906 10.9398 14.8594 11.2709 14.451 11.2709H13.4718C12.9413 11.2709 12.6294 11.3798 12.4686 11.4967C12.3441 11.5872 12.253 11.7203 12.253 12.0001C12.253 12.2799 12.3441 12.413 12.4686 12.5035C12.6294 12.6205 12.9413 12.7293 13.4718 12.7293C14.1651 12.7293 14.8324 12.8652 15.345 13.2379C15.8942 13.6374 16.1697 14.239 16.1697 14.9376C16.1697 15.6362 15.8942 16.2379 15.345 16.6373C15.0181 16.8751 14.6285 17.0161 14.2114 17.0873V17.3856C14.2114 17.794 13.8803 18.1252 13.4718 18.1252C13.0633 18.1252 12.7322 17.794 12.7322 17.3856V17.146H11.5134C11.105 17.146 10.7739 16.8149 10.7739 16.4064C10.7739 15.9979 11.105 15.6668 11.5134 15.6668H13.4718C14.0023 15.6668 14.3142 15.558 14.475 15.4411C14.5995 15.3505 14.6906 15.2175 14.6906 14.9376C14.6906 14.6578 14.5995 14.5247 14.475 14.4342C14.3142 14.3173 14.0023 14.2085 13.4718 14.2085C12.7785 14.2085 12.1112 14.0726 11.5986 13.6998C11.0494 13.3004 10.7739 12.6987 10.7739 12.0001C10.7739 11.3015 11.0494 10.6998 11.5986 10.3004C11.9255 10.0627 12.3151 9.92164 12.7322 9.85047V9.55217Z" fill="black"/>
<path fill-rule="evenodd" clip-rule="evenodd" d="M8.00293 5.5C8.00293 6.88071 6.88364 8 5.50293 8C4.12222 8 3.00293 6.88071 3.00293 5.5C3.00293 4.11929 4.12222 3 5.50293 3C6.88364 3 8.00293 4.11929 8.00293 5.5ZM6.50293 5.5C6.50293 6.05228 6.05521 6.5 5.50293 6.5C4.95064 6.5 4.50293 6.05228 4.50293 5.5C4.50293 4.94772 4.95064 4.5 5.50293 4.5C6.05521 4.5 6.50293 4.94772 6.50293 5.5Z" fill="black"/>
<path fill-rule="evenodd" clip-rule="evenodd" d="M0.00292969 0.739588C0.00292969 0.331125 0.334054 0 0.742517 0H9.17058C9.60442 0 10.0222 0.164061 10.3401 0.459265L23.7668 12.9269C24.0628 13.2018 24.0835 13.6634 23.8133 13.9636L15.0007 23.7554C14.8682 23.9027 14.682 23.9906 14.4841 23.9995C14.2861 24.0083 14.0929 23.9374 13.9477 23.8026L0.552159 11.3639C0.201931 11.0386 0.00292969 10.5823 0.00292969 10.1044V0.739588ZM1.48211 1.47918V10.1044C1.48211 10.171 1.50984 10.2346 1.55867 10.2799L14.0316 21.8619C14.2362 22.0519 14.5567 22.0375 14.7435 21.83L21.8974 13.8813C22.0801 13.6783 22.0661 13.3662 21.866 13.1804L9.33361 1.54319C9.2893 1.50205 9.23106 1.47918 9.17058 1.47918H1.48211Z" fill="black"/>
</svg>
