<svg viewBox="0 0 17 14" xmlns="http://www.w3.org/2000/svg">
  <path d="m8 2.3.44-.35c.47-.36 1.12-.82 1.86-1.2A6.1 6.1 0 0 1 12.7 0c.86-.04 1.72.2 2.39.96 1.07 1.21 1.1 2.6.6 3.92a8.12 8.12 0 0 1-1.06 1.86 4.6 4.6 0 0 0-2.7-.74c-.85 0-1.87.14-2.68.78C8.35 7.48 8 8.52 8 9.65c0 .89.22 1.72.73 2.39a22.83 22.83 0 0 1-.34.22l-.09.06-.02.01h-.01L8 12.5l-.26-.16h-.01l-.02-.02-.1-.06-.32-.22A33.11 33.11 0 0 1 2.9 8.51 11.21 11.21 0 0 1 .32 4.88c-.5-1.32-.48-2.7.6-3.92.67-.75 1.53-1 2.38-.95a6.1 6.1 0 0 1 2.4.74A12.93 12.93 0 0 1 8 2.3z"/>
  <path fill-rule="evenodd" clip-rule="evenodd" d="M10.48 8.36c-.27.2-.48.58-.48 1.29 0 .71.21 1.12.5 1.36.3.25.76.39 1.43.39.5 0 .94-.08 1.26-.24.26-.13.45-.3.59-.53.13-.23.22-.54.22-.98 0-.7-.23-1.07-.53-1.29A2.66 2.66 0 0 0 11.93 8c-.68 0-1.15.13-1.45.36zm-.62-.8A3.3 3.3 0 0 1 11.93 7c.77 0 1.53.13 2.12.55.62.44.95 1.15.95 2.1 0 .58-.12 1.08-.36 1.5-.12.2-.26.36-.42.51l1.62 1.47a.5.5 0 1 1-.67.74L13.3 12.2c-.43.15-.9.21-1.38.21a3.2 3.2 0 0 1-2.08-.63c-.57-.48-.85-1.2-.85-2.12 0-.92.28-1.63.86-2.08z"/>
</svg>
