<svg width="20" height="20" xmlns="http://www.w3.org/2000/svg"><path d="M10.003 1.25a8.75 8.75 0 1 1 0 17.5 8.75 8.75 0 0 1 0-17.5Zm.464 3.74c-1.018 0-1.815.289-2.407.866-.605.578-.893 1.375-.893 2.393h1.567c0-.578.11-1.032.344-1.348.261-.385.687-.563 1.292-.563.468 0 .84.123 1.1.385.248.26.385.618.385 1.072 0 .344-.123.674-.37.976l-.166.193c-.894.797-1.43 1.375-1.609 1.746-.192.371-.275.825-.275 1.347v.193h1.582v-.193c0-.33.068-.618.206-.893.124-.248.302-.482.55-.688.66-.577 1.059-.949 1.182-1.086.33-.44.51-1.004.51-1.691 0-.839-.276-1.499-.826-1.98-.55-.495-1.279-.729-2.172-.729Zm-.248 7.934a1.06 1.06 0 0 0-.756.289.964.964 0 0 0-.303.742c0 .303.097.55.303.742.202.197.474.306.756.303.303 0 .55-.096.756-.289a1.007 1.007 0 0 0 .317-.756 1.016 1.016 0 0 0-.303-.742 1.092 1.092 0 0 0-.77-.29Z"/></svg>