<svg viewBox="0 0 21 16" xmlns="http://www.w3.org/2000/svg">
  <path d="M13.51 2.37a10.71 10.71 0 0 0-3.5-.57C6.9 1.8 4.1 3 1.7 5.67l-.6.58c-.23.2-.46.43-.63.6a1.89 1.89 0 0 0-.39.62A1.49 1.49 0 0 0 0 8c0 .15.02.33.1.53.07.2.2.4.39.61.16.18.4.4.61.6v.01c.24.22.45.42.6.58a12.92 12.92 0 0 0 2.01 1.84l.72-.72a11.87 11.87 0 0 1-1.99-1.79 14.22 14.22 0 0 0-.63-.62l-.02-.02a11.73 11.73 0 0 1-.57-.55.9.9 0 0 1-.19-.29A.5.5 0 0 1 1 8a.5.5 0 0 1 .03-.18.9.9 0 0 1 .2-.29c.13-.14.33-.34.56-.55l.02-.02c.21-.2.45-.42.63-.61v-.01A9.75 9.75 0 0 1 10 2.8c.94 0 1.84.12 2.72.37l.8-.8zm2.07 2.18.71-.72a12.92 12.92 0 0 1 2.01 1.84c.15.16.37.36.6.58.22.2.46.43.62.6.18.2.31.4.39.6.08.2.1.4.1.55a1.5 1.5 0 0 1-.1.55 1.9 1.9 0 0 1-.39.6c-.16.17-.4.4-.62.6-.23.22-.45.42-.6.58A10.75 10.75 0 0 1 10 14.2a10.78 10.78 0 0 1-3.5-.57l.8-.8a9.86 9.86 0 0 0 2.7.37 9.75 9.75 0 0 0 7.56-3.54c.18-.2.42-.42.64-.62l.01-.02c.23-.21.44-.4.57-.55a.93.93 0 0 0 .2-.28L19 8a.5.5 0 0 0-.02-.19.93.93 0 0 0-.2-.28 11.79 11.79 0 0 0-.57-.55l-.01-.02a13.96 13.96 0 0 1-.63-.61l-.01-.01a11.82 11.82 0 0 0-1.98-1.8z"/>
  <path d="M11.11 4.77a3.41 3.41 0 0 0-4.34 4.34l.84-.83a2.41 2.41 0 0 1 2.67-2.68l.83-.83zm1.29 2.95.83-.83a3.41 3.41 0 0 1-4.34 4.34l.84-.83a2.41 2.41 0 0 0 2.67-2.68zM17.86.85a.5.5 0 0 0-.71-.7l-15 15a.5.5 0 0 0 .7.7l15-15z"/>
</svg>
