<svg width="17" height="16" viewBox="0 0 17 16" fill="none" xmlns="http://www.w3.org/2000/svg">
<g clip-path="url(#clip0_5564:57778)">
<path d="M8.00293 13.75C9.20293 13.75 10.0029 12.5 12.0029 9.5L15.5029 12L8.00293 15.5L0.50293 12L4.00293 9.5C6.00293 12.5 6.80293 13.75 8.00293 13.75Z" fill="#1D2126"/>
<path d="M12.0029 9.5L12.2935 9.09313C12.1834 9.01443 12.046 8.98378 11.9128 9.00819C11.7796 9.0326 11.662 9.10999 11.5869 9.22265L12.0029 9.5ZM4.00293 9.5L4.41895 9.22265C4.34385 9.10999 4.22626 9.0326 4.09307 9.00819C3.95988 8.98378 3.82249 9.01443 3.71231 9.09313L4.00293 9.5ZM0.50293 12L0.212311 11.5931C0.0676543 11.6965 -0.0112627 11.8688 0.00503552 12.0458C0.0213338 12.2229 0.130396 12.3779 0.291487 12.4531L0.50293 12ZM8.00293 15.5L7.79149 15.9531C7.92551 16.0156 8.08035 16.0156 8.21437 15.9531L8.00293 15.5ZM15.5029 12L15.7144 12.4531C15.8755 12.3779 15.9845 12.2229 16.0008 12.0458C16.0171 11.8688 15.9382 11.6965 15.7935 11.5931L15.5029 12ZM11.5869 9.22265C10.5764 10.7383 9.89912 11.7648 9.32622 12.4212C8.76114 13.0687 8.38716 13.25 8.00293 13.25V14.25C8.8187 14.25 9.44472 13.8063 10.0796 13.0788C10.7067 12.3602 11.4294 11.2617 12.419 9.77735L11.5869 9.22265ZM8.00293 13.25C7.61869 13.25 7.24472 13.0687 6.67964 12.4212C6.10674 11.7648 5.42941 10.7383 4.41895 9.22265L3.5869 9.77735C4.57645 11.2617 5.29912 12.3602 5.92622 13.0788C6.56114 13.8063 7.18716 14.25 8.00293 14.25V13.25ZM3.71231 9.09313L0.212311 11.5931L0.793549 12.4069L4.29355 9.90687L3.71231 9.09313ZM0.291487 12.4531L7.79149 15.9531L8.21437 15.0469L0.714372 11.5469L0.291487 12.4531ZM8.21437 15.9531L15.7144 12.4531L15.2915 11.5469L7.79149 15.0469L8.21437 15.9531ZM15.7935 11.5931L12.2935 9.09313L11.7123 9.90687L15.2123 12.4069L15.7935 11.5931Z" fill="#1D2126"/>
<path fill-rule="evenodd" clip-rule="evenodd" d="M11.5029 4.5C11.5029 2.5 10.5029 0.5 8.00293 0.5C5.50293 0.5 4.50293 2.5 4.50293 4.5C4.50293 6.5 7.50293 11.5 8.00293 11.5C8.50293 11.5 11.5029 6.5 11.5029 4.5ZM8.00293 6C9.1075 6 10.0029 5.10457 10.0029 4C10.0029 2.89543 9.1075 2 8.00293 2C6.89836 2 6.00293 2.89543 6.00293 4C6.00293 5.10457 6.89836 6 8.00293 6Z" fill="#1D2126"/>
<path d="M8.00293 1C9.10084 1 9.82548 1.43007 10.2904 2.05C10.7701 2.68955 11.0029 3.57392 11.0029 4.5H12.0029C12.0029 3.42608 11.7358 2.31045 11.0904 1.45C10.4304 0.569928 9.40502 0 8.00293 0V1ZM5.00293 4.5C5.00293 3.57392 5.23577 2.68955 5.71543 2.05C6.18038 1.43007 6.90502 1 8.00293 1V0C6.60084 0 5.57548 0.569928 4.91543 1.45C4.27009 2.31045 4.00293 3.42608 4.00293 4.5H5.00293ZM8.00293 11C8.14705 11 8.22052 11.0729 8.18138 11.0435C8.16611 11.032 8.13144 11.0017 8.07629 10.942C7.96797 10.8247 7.82427 10.6419 7.65413 10.3999C7.31619 9.91928 6.90437 9.24902 6.50508 8.51186C6.10588 7.77487 5.72533 6.98233 5.44604 6.25768C5.16086 5.51776 5.00293 4.90268 5.00293 4.5H4.00293C4.00293 5.09732 4.22 5.85724 4.51294 6.61732C4.81178 7.39267 5.21248 8.22513 5.62578 8.98814C6.03899 9.75098 6.47092 10.4557 6.8361 10.9751C7.01753 11.2331 7.19023 11.4565 7.34168 11.6205C7.41641 11.7014 7.49746 11.7805 7.58107 11.8432C7.6408 11.8881 7.79631 12 8.00293 12V11ZM11.0029 4.5C11.0029 4.90268 10.845 5.51776 10.5598 6.25768C10.2805 6.98233 9.89998 7.77487 9.50078 8.51186C9.10149 9.24902 8.68967 9.91928 8.35173 10.3999C8.18159 10.6419 8.03789 10.8247 7.92957 10.942C7.87441 11.0017 7.83975 11.032 7.82448 11.0435C7.78534 11.0729 7.85881 11 8.00293 11V12C8.20955 12 8.36505 11.8881 8.42479 11.8432C8.5084 11.7805 8.58945 11.7014 8.66418 11.6205C8.81563 11.4565 8.98833 11.2331 9.16976 10.9751C9.53494 10.4557 9.96687 9.75098 10.3801 8.98814C10.7934 8.22513 11.1941 7.39267 11.4929 6.61732C11.7859 5.85724 12.0029 5.09732 12.0029 4.5H11.0029ZM9.50293 4C9.50293 4.82843 8.83136 5.5 8.00293 5.5V6.5C9.38364 6.5 10.5029 5.38071 10.5029 4H9.50293ZM8.00293 2.5C8.83136 2.5 9.50293 3.17157 9.50293 4H10.5029C10.5029 2.61929 9.38364 1.5 8.00293 1.5V2.5ZM6.50293 4C6.50293 3.17157 7.1745 2.5 8.00293 2.5V1.5C6.62222 1.5 5.50293 2.61929 5.50293 4H6.50293ZM8.00293 5.5C7.1745 5.5 6.50293 4.82843 6.50293 4H5.50293C5.50293 5.38071 6.62222 6.5 8.00293 6.5V5.5Z" fill="#1D2126"/>
</g>
<defs>
<clipPath id="clip0_5564:57778">
<rect width="16" height="16" fill="white" transform="translate(0.00292969)"/>
</clipPath>
</defs>
</svg>
