<svg viewBox="0 0 19 24" xmlns="http://www.w3.org/2000/svg">
  <path d="M8.5 9.5a.5.5 0 0 0 1 0h-1zm1-3a.5.5 0 0 0-1 0h1zM4.24 8.3a.5.5 0 0 0 .7.7l-.7-.7zm2.82-1.42a.5.5 0 0 0-.7-.7l.7.7zm6 2.24a.5.5 0 1 0 .71-.7l-.7.7zM11.65 6.3a.5.5 0 1 0-.7.71l.7-.7zm-.87 6.8a.5.5 0 1 0-.55.83l.55-.84zm-.55 6a.5.5 0 1 0 .55.83l-.55-.84zm3.05-6a.5.5 0 1 0-.55.83l.55-.84zm-.55 6a.5.5 0 1 0 .55.83l-.55-.84zM2.5 1h13V0h-13v1zM17 2.5v2h1v-2h-1zm0 2v17h1v-17h-1zM15.5 23h-13v1h13v-1zM1 21.5v-17H0v17h1zm0-17v-2H0v2h1zM2.5 23A1.5 1.5 0 0 1 1 21.5H0A2.5 2.5 0 0 0 2.5 24v-1zM17 21.5a1.5 1.5 0 0 1-1.5 1.5v1a2.5 2.5 0 0 0 2.5-2.5h-1zM15.5 1A1.5 1.5 0 0 1 17 2.5h1A2.5 2.5 0 0 0 15.5 0v1zm-13-1A2.5 2.5 0 0 0 0 2.5h1A1.5 1.5 0 0 1 2.5 1V0zm-2 5h17V4H.5v1zm9 4.5v-3h-1v3h1zM4.94 9l2.12-2.12-.7-.7-2.12 2.11.7.71zm8.83-.59L11.65 6.3l-.7.71 2.11 2.12.71-.7zM9 16.5A2.5 2.5 0 0 1 6.5 19v1a3.5 3.5 0 0 0 3.5-3.5H9zM6.5 19A2.5 2.5 0 0 1 4 16.5H3A3.5 3.5 0 0 0 6.5 20v-1zM4 16.5A2.5 2.5 0 0 1 6.5 14v-1A3.5 3.5 0 0 0 3 16.5h1zM6.5 14A2.5 2.5 0 0 1 9 16.5h1A3.5 3.5 0 0 0 6.5 13v1zm3.73-.08c.4.26 1.27 1.19 1.27 2.58h1a4.25 4.25 0 0 0-1.72-3.42l-.55.84zm1.27 2.58c0 1.39-.87 2.32-1.27 2.58l.55.84c.6-.4 1.72-1.61 1.72-3.42h-1zm1.23-2.58c.4.26 1.27 1.19 1.27 2.58h1a4.25 4.25 0 0 0-1.72-3.42l-.55.84zM14 16.5c0 1.39-.87 2.32-1.27 2.58l.55.84c.6-.4 1.72-1.61 1.72-3.42h-1z"/>
</svg>
