<svg viewBox="0 0 24 24" xmlns="http://www.w3.org/2000/svg">
  <path fill-rule="evenodd" clip-rule="evenodd" d="M2.71.87A3.7 3.7 0 0 1 5.31.3a6.2 6.2 0 0 1 3.26 1.9c.97.97 1.7 2.06 1.88 3.22.18 1.2-.23 2.4-1.4 3.58-.3.3-.62.57-.94.78a28.27 28.27 0 0 0 1.4 1.73 30.85 30.85 0 0 0 2.98 2.98c.58.5 1.16.97 1.74 1.4.2-.32.47-.63.77-.94a4.7 4.7 0 0 1 2.35-1.39 3.8 3.8 0 0 1 2.48.38 7.7 7.7 0 0 1 1.96 1.47c.62.63 1.15 1.3 1.5 2 .88 1.77.34 3.57-.95 4.86a4.36 4.36 0 0 1-3.43 1.47c-1.67.01-3.66-.64-5.7-1.76a28.5 28.5 0 0 1-6.33-4.83C3.18 13.46.75 9.29.33 6.1a5.26 5.26 0 0 1 .24-2.78A5.61 5.61 0 0 1 2.71.87zm2.37.9c-.48-.07-1 0-1.57.36a4.1 4.1 0 0 0-1.56 1.78 3.8 3.8 0 0 0-.13 2c.36 2.71 2.54 6.6 6.12 10.18a26.98 26.98 0 0 0 5.98 4.57c1.95 1.07 3.7 1.6 5 1.58H19c.67.05 1.44-.17 2.29-1.02.94-.95 1.2-2.07.66-3.15a6.28 6.28 0 0 0-1.21-1.6 6.24 6.24 0 0 0-1.56-1.19 2.75 2.75 0 0 0-.82-.27 1.92 1.92 0 0 0-.7.02c-.44.1-.97.36-1.58.98-.46.45-.74.88-.9 1.27a.75.75 0 0 1-1.12.33 29.56 29.56 0 0 1-2.54-1.99 32.35 32.35 0 0 1-3.14-3.13A29.62 29.62 0 0 1 6.4 9.96a.75.75 0 0 1 .33-1.12c.38-.16.81-.44 1.26-.9.92-.92 1.08-1.67.99-2.3-.1-.7-.59-1.5-1.47-2.38a4.76 4.76 0 0 0-2.43-1.48"/>
</svg>
