<svg viewBox="0 0 23 24" xmlns="http://www.w3.org/2000/svg">
  <path fill-rule="evenodd" clip-rule="evenodd" d="M2.78.58a.5.5 0 0 1 .14.7A12.9 12.9 0 0 0 1 8c0 2.74.97 5.3 1.92 6.72a.5.5 0 0 1-.83.56A13.72 13.72 0 0 1 2.1.72a.5.5 0 0 1 .69-.14zm16.45 0a.5.5 0 0 1 .69.14C20.97 2.3 22 5.05 22 8s-1.03 5.7-2.08 7.28a.5.5 0 1 1-.83-.56A12.9 12.9 0 0 0 21 8c0-2.74-.96-5.3-1.91-6.72a.5.5 0 0 1 .14-.7zM5.33 2.62a.5.5 0 0 1 .06.7C4.65 4.21 4 6.04 4 8c0 1.96.65 3.8 1.39 4.68a.5.5 0 1 1-.77.64C3.69 12.21 3 10.12 3 8s.7-4.2 1.62-5.32a.5.5 0 0 1 .7-.06zm11.35 0a.5.5 0 0 1 .7.06C18.33 3.79 19 5.88 19 8s-.68 4.2-1.61 5.32a.5.5 0 1 1-.77-.64C17.36 11.79 18 9.96 18 8c0-1.96-.64-3.8-1.38-4.68a.5.5 0 0 1 .06-.7zM7.86 4.65a.5.5 0 0 1 0 .7c-.18.18-.4.54-.57 1.04A4.97 4.97 0 0 0 7 8c0 .55.12 1.12.29 1.61.17.5.4.86.57 1.04a.5.5 0 1 1-.71.7c-.33-.32-.6-.84-.8-1.4A5.97 5.97 0 0 1 6 8c0-.68.14-1.36.34-1.94.2-.57.49-1.09.8-1.41a.5.5 0 0 1 .72 0zm6.29 0a.5.5 0 0 1 .7 0c.33.32.61.84.81 1.4.2.59.34 1.27.34 1.95a5.97 5.97 0 0 1-.34 1.94c-.2.57-.48 1.09-.8 1.41a.5.5 0 1 1-.71-.7c.18-.18.4-.54.57-1.04A4.97 4.97 0 0 0 15 8c0-.55-.11-1.12-.28-1.61-.18-.5-.4-.86-.57-1.04a.5.5 0 0 1 0-.7zM11 7a1 1 0 1 0 0 2 1 1 0 0 0 0-2zM9 8a2 2 0 1 1 2.5 1.94V18h7a3.5 3.5 0 0 1 3.5 3.5v2a.5.5 0 0 1-.5.5H.5a.5.5 0 0 1-.5-.5v-2A3.5 3.5 0 0 1 3.5 18h7V9.94A2 2 0 0 1 9 8zM3.5 19A2.5 2.5 0 0 0 1 21.5V23h20v-1.5a2.5 2.5 0 0 0-2.5-2.5h-15zM8 21a.5.5 0 0 1 .5-.5h.01a.5.5 0 1 1 0 1A.5.5 0 0 1 8 21zm2.5 0a.5.5 0 0 1 .5-.5h.01a.5.5 0 1 1 0 1 .5.5 0 0 1-.5-.5zm2.5 0a.5.5 0 0 1 .5-.5h.01a.5.5 0 1 1 0 1 .5.5 0 0 1-.5-.5z"/>
</svg>
