<svg width="17" height="16" viewBox="0 0 17 16" fill="none" xmlns="http://www.w3.org/2000/svg">
<path fill-rule="evenodd" clip-rule="evenodd" d="M3.33043 1C2.05407 1 1.00293 2.05114 1.00293 3.3275V12.6725C1.00293 13.9489 2.05407 15 3.33043 15H12.6754C13.9518 15 15.0029 13.9489 15.0029 12.6725V3.3275C15.0029 2.05114 13.9518 1 12.6754 1H3.33043ZM0.00292969 3.3275C0.00292969 1.49886 1.50179 0 3.33043 0H12.6754C14.5041 0 16.0029 1.49886 16.0029 3.3275V12.6725C16.0029 14.5011 14.5041 16 12.6754 16H3.33043C1.50179 16 0.00292969 14.5011 0.00292969 12.6725V3.3275ZM3.00293 4C3.00293 3.44772 3.45064 3 4.00293 3H6.00293C6.55521 3 7.00293 3.44772 7.00293 4V6C7.00293 6.55228 6.55521 7 6.00293 7H4.00293C3.45064 7 3.00293 6.55228 3.00293 6V4ZM6.00293 4H4.00293V6H6.00293V4ZM8.00293 5C8.00293 4.72386 8.22679 4.5 8.50293 4.5H12.5029C12.7791 4.5 13.0029 4.72386 13.0029 5C13.0029 5.27614 12.7791 5.5 12.5029 5.5H8.50293C8.22679 5.5 8.00293 5.27614 8.00293 5ZM3.00293 10C3.00293 9.44771 3.45064 9 4.00293 9H6.00293C6.55521 9 7.00293 9.44771 7.00293 10V12C7.00293 12.5523 6.55521 13 6.00293 13H4.00293C3.45064 13 3.00293 12.5523 3.00293 12V10ZM6.00293 10H4.00293V12H6.00293V10ZM8.00293 11C8.00293 10.7239 8.22679 10.5 8.50293 10.5H12.5029C12.7791 10.5 13.0029 10.7239 13.0029 11C13.0029 11.2761 12.7791 11.5 12.5029 11.5H8.50293C8.22679 11.5 8.00293 11.2761 8.00293 11Z" fill="#1D2126"/>
</svg>
