<svg width="17" height="16" viewBox="0 0 17 16" fill="none" xmlns="http://www.w3.org/2000/svg">
<path fill-rule="evenodd" clip-rule="evenodd" d="M3.33043 1C2.05407 1 1.00293 2.05114 1.00293 3.3275V12.6725C1.00293 13.9489 2.05407 15 3.33043 15H12.6754C13.9518 15 15.0029 13.9489 15.0029 12.6725V3.3275C15.0029 2.05114 13.9518 1 12.6754 1H3.33043ZM0.00292969 3.3275C0.00292969 1.49886 1.50179 0 3.33043 0H12.6754C14.5041 0 16.0029 1.49886 16.0029 3.3275V12.6725C16.0029 14.5011 14.5041 16 12.6754 16H3.33043C1.50179 16 0.00292969 14.5011 0.00292969 12.6725V3.3275ZM3.00293 4.5C3.00293 4.22386 3.22679 4 3.50293 4H7.50293C7.77907 4 8.00293 4.22386 8.00293 4.5C8.00293 4.77614 7.77907 5 7.50293 5H3.50293C3.22679 5 3.00293 4.77614 3.00293 4.5ZM3.00293 8C3.00293 7.72386 3.22679 7.5 3.50293 7.5H11.5029C11.7791 7.5 12.0029 7.72386 12.0029 8C12.0029 8.27614 11.7791 8.5 11.5029 8.5H3.50293C3.22679 8.5 3.00293 8.27614 3.00293 8ZM3.00293 11.5C3.00293 11.2239 3.22679 11 3.50293 11H9.50293C9.77907 11 10.0029 11.2239 10.0029 11.5C10.0029 11.7761 9.77907 12 9.50293 12H3.50293C3.22679 12 3.00293 11.7761 3.00293 11.5Z" fill="#1D2126"/>
</svg>
