<svg width="17" height="16" viewBox="0 0 17 16" fill="none" xmlns="http://www.w3.org/2000/svg">
<path fill-rule="evenodd" clip-rule="evenodd" d="M4.27932 0.052787C4.39121 -0.00315759 4.52001 -0.0151279 4.64029 0.0192386L11.4818 1.97394L15.3274 0.531836C15.4809 0.474255 15.6529 0.49563 15.7877 0.589038C15.9225 0.682445 16.0029 0.836011 16.0029 1V13.5C16.0029 13.6894 15.8959 13.8625 15.7265 13.9472L11.7265 15.9472C11.6146 16.0032 11.4859 16.0151 11.3656 15.9808L4.52411 14.0261L0.678491 15.4682C0.524943 15.5257 0.35292 15.5044 0.218132 15.411C0.0833449 15.3176 0.00292969 15.164 0.00292969 15V2.5C0.00292969 2.31061 0.109931 2.13748 0.279323 2.05279L4.27932 0.052787ZM5.00293 13.1229L11.4533 14.9658L15.0029 13.191V1.7215L12.0029 2.8465V11.5C12.0029 11.7761 11.7791 12 11.5029 12C11.2268 12 11.0029 11.7761 11.0029 11.5V2.87715L4.55258 1.03419L1.00293 2.80902V14.2785L4.00293 13.1535V4.5C4.00293 4.22386 4.22679 4 4.50293 4C4.77907 4 5.00293 4.22386 5.00293 4.5V13.1229Z" fill="black"/>
</svg>
