<svg width="17" height="14" viewBox="0 0 17 14" fill="none" xmlns="http://www.w3.org/2000/svg">
<path fill-rule="evenodd" clip-rule="evenodd" d="M7.96291 2.40067C7.95083 2.39007 7.93846 2.37926 7.92582 2.36825C7.90855 2.3532 7.89076 2.33778 7.87246 2.32201C7.77719 2.23988 7.66817 2.14818 7.54718 2.04999C7.08023 1.67104 6.4259 1.18805 5.68891 0.787157C4.95798 0.389552 4.10868 0.0521231 3.25938 0.00546924C2.38691 -0.0424577 1.5168 0.219237 0.819766 1.00304L0.803778 1.02102L0.789591 1.04045C-0.182277 2.37139 -0.161598 3.84477 0.356401 5.23162C0.867446 6.59986 1.87289 7.92513 2.95004 9.06751C4.03298 10.216 5.21938 11.2118 6.13119 11.9185C6.58798 12.2725 6.97792 12.5555 7.25438 12.7505C7.39266 12.848 7.50266 12.9236 7.57858 12.9751C7.61655 13.0009 7.646 13.0206 7.66622 13.0341L7.68953 13.0496C7.72714 13.0744 7.69899 13.0609 7.75816 13.0891C7.83534 13.1259 7.91851 13.1412 8 13.1367C8.15306 13.1282 8.30023 13.0497 8.39077 12.9116C8.5232 12.7097 8.4906 12.4474 8.32595 12.2834C8.31473 12.2723 8.30291 12.2615 8.29048 12.2513C8.2767 12.24 8.26218 12.2293 8.24693 12.2193M8.24693 12.2193L8.24586 12.2186C8.2105 12.1952 8.17526 12.1715 8.14015 12.1477C8.06884 12.0993 7.96379 12.0271 7.83075 11.9333C7.5646 11.7456 7.18693 11.4715 6.74375 11.128C5.8556 10.4398 4.71257 9.47911 3.67761 8.38148C2.63687 7.27772 1.73596 6.06716 1.29319 4.88172C0.860279 3.72268 0.876544 2.6314 1.58288 1.64992C2.04508 1.1403 2.59673 0.970576 3.20453 1.00396C3.84248 1.03901 4.54025 1.3007 5.21107 1.6656C5.87585 2.02722 6.47797 2.47014 6.91703 2.82646C7.13558 3.00383 7.31147 3.15789 7.43197 3.26689C7.49218 3.32134 7.53843 3.36444 7.56914 3.39344L7.6033 3.42598L7.61124 3.43365L7.61285 3.43522L7.96289 3.77837L8.31274 3.43542L8.3157 3.43255L8.32764 3.42104C8.3386 3.41053 8.35548 3.39447 8.37793 3.37345C8.42284 3.3314 8.48997 3.2696 8.57649 3.19289C8.74972 3.03929 8.99965 2.82683 9.30383 2.59379C10.016 2.04817 10.9846 1.42178 11.9432 1.14387C12.8871 0.870206 13.7237 0.953228 14.359 1.66758C14.8477 2.21709 15.0157 2.79261 14.9421 3.42462C14.8654 4.08269 14.521 4.84101 13.8969 5.70782C13.7356 5.93192 13.7864 6.24439 14.0105 6.40573C14.2346 6.56708 14.5471 6.51621 14.7085 6.29211C15.3796 5.35988 15.8307 4.43854 15.9353 3.54038C16.043 2.61616 15.7784 1.75887 15.1063 1.00304C14.1193 -0.106774 12.8176 -0.150817 11.6647 0.18342C10.5265 0.513411 9.4398 1.22989 8.69568 1.79997C8.41659 2.01379 8.17994 2.21151 8 2.36825C7.98735 2.37926 7.97499 2.39007 7.96291 2.40067M10.4802 8.35558C10.2107 8.56676 10.0027 8.93604 10.0027 9.64996C10.0027 10.3647 10.2118 10.7679 10.4939 11.0055C10.7923 11.2569 11.2623 11.4 11.9284 11.4C12.4388 11.4 12.8666 11.3179 13.1925 11.1586C13.4475 11.034 13.6418 10.8619 13.7759 10.634C13.9114 10.4039 14.0027 10.0874 14.0027 9.64996C14.0027 8.95168 13.7737 8.58156 13.4681 8.36265C13.1307 8.12082 12.6121 7.99996 11.9284 7.99996C11.2459 7.99996 10.775 8.12449 10.4802 8.35558ZM9.86334 7.56847C10.4188 7.13318 11.1608 6.99996 11.9284 6.99996C12.6949 6.99996 13.4635 7.1291 14.0506 7.54978C14.6697 7.99336 15.0027 8.69824 15.0027 9.64996C15.0027 10.2277 14.8812 10.7276 14.6377 11.1413C14.5201 11.3411 14.3781 11.5139 14.2168 11.6618L15.8382 13.1292C16.0429 13.3145 16.0587 13.6307 15.8734 13.8355C15.6881 14.0402 15.3719 14.056 15.1672 13.8707L13.3106 12.1904C12.8827 12.3395 12.41 12.4 11.9284 12.4C11.1444 12.4 10.4016 12.2353 9.8496 11.7703C9.28133 11.2915 9.00269 10.5698 9.00269 9.64996C9.00269 8.72939 9.28249 8.02367 9.86334 7.56847Z" fill="#1D2126"/>
</svg>
