<svg width="17" height="14" viewBox="0 0 17 14" fill="none" xmlns="http://www.w3.org/2000/svg">
<path d="M8.00303 2.29774C8.1209 2.19965 8.26659 2.08186 8.43521 1.9522C8.90504 1.59096 9.56175 1.13082 10.2972 0.749013C11.0267 0.370335 11.8697 0.0495525 12.7044 0.00519678C13.56 -0.0402636 14.4153 0.20704 15.0888 0.964403C16.163 2.17199 16.1902 3.56283 15.6845 4.87882C15.4416 5.511 15.0737 6.13604 14.6334 6.73707C13.7967 6.13753 12.7779 6 11.9287 6C11.0761 6 10.0629 6.14187 9.24676 6.78141C8.35362 7.48133 8.00293 8.5243 8.00293 9.65C8.00293 10.5356 8.21873 11.3698 8.72882 12.0363C8.726 12.0381 8.72318 12.04 8.72037 12.0419C8.57938 12.1363 8.46719 12.2095 8.38977 12.2594C8.35106 12.2844 8.32103 12.3035 8.30044 12.3166L8.27672 12.3316L8.27034 12.3356L8.2677 12.3372L8.00303 12.5023L7.73751 12.3367L7.73572 12.3356L7.72934 12.3316L7.70562 12.3166C7.68503 12.3035 7.655 12.2844 7.61629 12.2594C7.53887 12.2095 7.42667 12.1363 7.28569 12.0419C7.0038 11.8533 6.60635 11.5798 6.1414 11.2387C5.21347 10.558 4.00779 9.60183 2.91442 8.50865C1.82874 7.42315 0.816047 6.16579 0.321534 4.87882C-0.18413 3.56283 -0.156896 2.17194 0.917273 0.964352C1.59079 0.207029 2.4461 -0.0402626 3.30163 0.00519678C4.13639 0.0495525 4.9794 0.370335 5.70884 0.749013C6.4443 1.13082 7.10102 1.59096 7.57084 1.9522C7.73947 2.08186 7.88516 2.19965 8.00303 2.29774Z" fill="#1D2126"/>
<path fill-rule="evenodd" clip-rule="evenodd" d="M10.4804 8.35561C10.2109 8.5668 10.0029 8.93607 10.0029 9.65C10.0029 10.3647 10.2121 10.7679 10.4941 11.0056C10.7925 11.2569 11.2625 11.4 11.9287 11.4C12.439 11.4 12.8668 11.318 13.1928 11.1587C13.4477 11.0341 13.642 10.862 13.7762 10.6341C13.9116 10.4039 14.0029 10.0874 14.0029 9.65C14.0029 8.95172 13.7739 8.5816 13.4684 8.36268C13.1309 8.12086 12.6124 8 11.9287 8C11.2461 8 10.7753 8.12453 10.4804 8.35561ZM9.86358 7.56851C10.419 7.13322 11.1611 7 11.9287 7C12.6952 7 13.4637 7.12914 14.0508 7.54982C14.6699 7.9934 15.0029 8.69828 15.0029 9.65C15.0029 10.2277 14.8815 10.7276 14.6379 11.1414C14.5204 11.3411 14.3783 11.5139 14.217 11.6618L15.8384 13.1293C16.0432 13.3146 16.0589 13.6308 15.8736 13.8355C15.6883 14.0403 15.3722 14.056 15.1674 13.8707L13.3108 12.1904C12.883 12.3395 12.4102 12.4 11.9287 12.4C11.1447 12.4 10.4018 12.2353 9.84984 11.7703C9.28157 11.2916 9.00293 10.5698 9.00293 9.65C9.00293 8.72942 9.28273 8.0237 9.86358 7.56851Z" fill="#1D2126"/>
</svg>
