<svg width="17" height="12" viewBox="0 0 17 12" fill="none" xmlns="http://www.w3.org/2000/svg">
<path d="M0.50293 2C0.226787 2 0.00292969 2.22386 0.00292969 2.5C0.00292969 2.77614 0.226787 3 0.50293 3V2ZM15.5029 3C15.7791 3 16.0029 2.77614 16.0029 2.5C16.0029 2.22386 15.7791 2 15.5029 2V3ZM15.5029 10C15.7791 10 16.0029 9.77614 16.0029 9.5C16.0029 9.22386 15.7791 9 15.5029 9V10ZM0.50293 9C0.226787 9 0.00292969 9.22386 0.00292969 9.5C0.00292969 9.77614 0.226787 10 0.50293 10V9ZM4.00293 1H5.50293V0H4.00293V1ZM5.50293 4H4.00293V5H5.50293V4ZM4.00293 4C3.45064 4 3.00293 3.55228 3.00293 3H2.00293C2.00293 4.10457 2.89836 5 4.00293 5V4ZM6.50293 3C6.50293 3.55228 6.05521 4 5.50293 4V5C6.6075 5 7.50293 4.10457 7.50293 3H6.50293ZM5.50293 1C6.05521 1 6.50293 1.44772 6.50293 2H7.50293C7.50293 0.895431 6.6075 0 5.50293 0V1ZM4.00293 0C2.89836 0 2.00293 0.895431 2.00293 2H3.00293C3.00293 1.44772 3.45064 1 4.00293 1V0ZM6.50293 2V2.5H7.50293V2H6.50293ZM6.50293 2.5V3H7.50293V2.5H6.50293ZM7.00293 3H15.5029V2H7.00293V3ZM0.50293 3H2.50293V2H0.50293V3ZM3.00293 3V2.5H2.00293V3H3.00293ZM3.00293 2.5V2H2.00293V2.5H3.00293ZM10.5029 8H12.0029V7H10.5029V8ZM12.0029 11H10.5029V12H12.0029V11ZM10.5029 11C9.95064 11 9.50293 10.5523 9.50293 10H8.50293C8.50293 11.1046 9.39836 12 10.5029 12V11ZM13.0029 10C13.0029 10.5523 12.5552 11 12.0029 11V12C13.1075 12 14.0029 11.1046 14.0029 10H13.0029ZM12.0029 8C12.5552 8 13.0029 8.44772 13.0029 9H14.0029C14.0029 7.89543 13.1075 7 12.0029 7V8ZM10.5029 7C9.39836 7 8.50293 7.89543 8.50293 9H9.50293C9.50293 8.44772 9.95064 8 10.5029 8V7ZM13.0029 9V9.5H14.0029V9H13.0029ZM13.0029 9.5V10H14.0029V9.5H13.0029ZM13.5029 10H15.5029V9H13.5029V10ZM8.50293 9V9.5H9.50293V9H8.50293ZM8.50293 9.5V10H9.50293V9.5H8.50293ZM0.50293 10H9.00293V9H0.50293V10Z" fill="#1D2126"/>
</svg>
