<svg width="17" height="14" viewBox="0 0 17 14" fill="none" xmlns="http://www.w3.org/2000/svg">
<path fill-rule="evenodd" clip-rule="evenodd" d="M3.50293 2.23517e-08C3.77907 2.23517e-08 4.00293 0.223858 4.00293 0.5V12.2929L6.14938 10.1464C6.34464 9.95118 6.66122 9.95118 6.85648 10.1464C7.05175 10.3417 7.05175 10.6583 6.85648 10.8536L3.85648 13.8536C3.66122 14.0488 3.34464 14.0488 3.14938 13.8536L0.149376 10.8536C-0.0458859 10.6583 -0.0458859 10.3417 0.149376 10.1464C0.344638 9.95118 0.661221 9.95118 0.856483 10.1464L3.00293 12.2929V0.5C3.00293 0.223858 3.22679 2.23517e-08 3.50293 2.23517e-08ZM12.1494 0.146447C12.3446 -0.0488155 12.6612 -0.0488155 12.8565 0.146447L15.8565 3.14645C16.0517 3.34171 16.0517 3.65829 15.8565 3.85355C15.6612 4.04882 15.3446 4.04882 15.1494 3.85355L13.0029 1.70711V13.5C13.0029 13.7761 12.7791 14 12.5029 14C12.2268 14 12.0029 13.7761 12.0029 13.5V1.70711L9.85648 3.85355C9.66122 4.04882 9.34464 4.04882 9.14938 3.85355C8.95411 3.65829 8.95411 3.34171 9.14938 3.14645L12.1494 0.146447Z" fill="black"/>
</svg>
