<svg width="21" height="20" viewBox="0 0 21 20" fill="none" xmlns="http://www.w3.org/2000/svg">
<path fill-rule="evenodd" clip-rule="evenodd" d="M11.7373 0.718148C11.5097 0.490475 11.2395 0.309868 10.9422 0.186646C10.6448 0.0634231 10.326 0 10.0042 0C9.68226 0 9.36352 0.0634231 9.06615 0.186646C8.76877 0.309868 8.49859 0.490475 8.27104 0.718148L0.72169 8.26627C0.493834 8.49384 0.313072 8.76411 0.189741 9.06159C0.0664102 9.35908 0.00292969 9.67796 0.00292969 10C0.00292969 10.322 0.0664102 10.6409 0.189741 10.9384C0.313072 11.2359 0.493834 11.5062 0.72169 11.7337L8.27104 19.2819C8.49859 19.5095 8.76877 19.6901 9.06615 19.8134C9.36352 19.9366 9.68226 20 10.0042 20C10.326 20 10.6448 19.9366 10.9422 19.8134C11.2395 19.6901 11.5097 19.5095 11.7373 19.2819L19.2866 11.7337C19.5145 11.5062 19.6952 11.2359 19.8186 10.9384C19.9419 10.6409 20.0054 10.322 20.0054 10C20.0054 9.67796 19.9419 9.35908 19.8186 9.06159C19.6952 8.76411 19.5145 8.49384 19.2866 8.26627L11.7373 0.718148ZM10.0029 12C9.73771 12 9.48336 11.8946 9.29582 11.7071C9.10829 11.5196 9.00293 11.2652 9.00293 11V6C9.00293 5.73478 9.10829 5.48043 9.29582 5.29289C9.48336 5.10536 9.73771 5 10.0029 5C10.2681 5 10.5225 5.10536 10.71 5.29289C10.8976 5.48043 11.0029 5.73478 11.0029 6V11C11.0029 11.2652 10.8976 11.5196 10.71 11.7071C10.5225 11.8946 10.2681 12 10.0029 12ZM10.0029 15C9.73771 15 9.48336 14.8946 9.29582 14.7071C9.10829 14.5196 9.00293 14.2652 9.00293 14C9.00293 13.7348 9.10829 13.4804 9.29582 13.2929C9.48336 13.1054 9.73771 13 10.0029 13C10.2681 13 10.5225 13.1054 10.71 13.2929C10.8976 13.4804 11.0029 13.7348 11.0029 14C11.0029 14.2652 10.8976 14.5196 10.71 14.7071C10.5225 14.8946 10.2681 15 10.0029 15Z" fill="#E94649"/>
</svg>
