<svg width="21" height="20" viewBox="0 0 21 20" fill="none" xmlns="http://www.w3.org/2000/svg">
<path fill-rule="evenodd" clip-rule="evenodd" d="M10.0029 20C4.47993 20 0.00292969 15.523 0.00292969 10C0.00292969 4.477 4.47993 0 10.0029 0C15.5259 0 20.0029 4.477 20.0029 10C20.0029 15.523 15.5259 20 10.0029 20ZM11.0029 6C11.0029 6.55228 10.5552 7 10.0029 7C9.45064 7 9.00293 6.55228 9.00293 6C9.00293 5.44772 9.45064 5 10.0029 5C10.5552 5 11.0029 5.44772 11.0029 6ZM10.0029 8C10.5552 8 11.0029 8.44771 11.0029 9V14C11.0029 14.5523 10.5552 15 10.0029 15C9.45064 15 9.00293 14.5523 9.00293 14V9C9.00293 8.44771 9.45064 8 10.0029 8Z" fill="#1E62E7"/>
</svg>
