<svg width="21" height="20" viewBox="0 0 21 20" fill="none" xmlns="http://www.w3.org/2000/svg">
<path fill-rule="evenodd" clip-rule="evenodd" d="M20.0029 10C20.0029 15.5228 15.5258 20 10.0029 20C4.48008 20 0.00292969 15.5228 0.00292969 10C0.00292969 4.47715 4.48008 0 10.0029 0C15.5258 0 20.0029 4.47715 20.0029 10ZM7.38533 9.06892C7.50734 9.12133 7.61768 9.19751 7.70993 9.29302L9.00293 10.586L12.2959 7.29302C12.3882 7.19751 12.4985 7.12133 12.6205 7.06892C12.7425 7.01651 12.8737 6.98892 13.0065 6.98777C13.1393 6.98662 13.271 7.01192 13.3939 7.0622C13.5168 7.11248 13.6284 7.18673 13.7223 7.28063C13.8162 7.37452 13.8905 7.48617 13.9407 7.60907C13.991 7.73196 14.0163 7.86364 14.0152 7.99642C14.014 8.1292 13.9864 8.26042 13.934 8.38243C13.8816 8.50443 13.8054 8.61477 13.7099 8.70702L9.70993 12.707C9.5224 12.8945 9.26809 12.9998 9.00293 12.9998C8.73776 12.9998 8.48345 12.8945 8.29593 12.707L6.29593 10.707C6.20042 10.6148 6.12423 10.5044 6.07183 10.3824C6.01942 10.2604 5.99183 10.1292 5.99068 9.99642C5.98952 9.86364 6.01482 9.73196 6.06511 9.60907C6.11539 9.48617 6.18964 9.37452 6.28353 9.28063C6.37742 9.18673 6.48908 9.11248 6.61197 9.0622C6.73487 9.01192 6.86655 8.98662 6.99933 8.98777C7.13211 8.98892 7.26333 9.01651 7.38533 9.06892Z" fill="#2F9D5B"/>
</svg>
