<svg width="21" height="18" viewBox="0 0 21 18" fill="none" xmlns="http://www.w3.org/2000/svg">
<path fill-rule="evenodd" clip-rule="evenodd" d="M11.4926 0.895681L19.859 16.2647C19.9555 16.4423 20.0051 16.6427 20.0029 16.846C20.0007 17.0493 19.9467 17.2485 19.8465 17.4238C19.7462 17.5992 19.603 17.7446 19.4311 17.8457C19.2592 17.9467 19.0646 17.9999 18.8665 18H1.14C0.941752 18 0.746938 17.9468 0.574894 17.8457C0.40285 17.7446 0.259558 17.5991 0.159236 17.4236C0.0589142 17.248 0.00505097 17.0486 0.00299107 16.8452C0.000931178 16.6417 0.0507463 16.4412 0.147493 16.2635L8.51505 0.895681C8.66313 0.624055 8.87908 0.39787 9.14067 0.240432C9.40226 0.0829948 9.70001 0 10.0032 0C10.3065 0 10.6042 0.0829948 10.8658 0.240432C11.1274 0.39787 11.3434 0.624055 11.4914 0.895681H11.4926ZM10.0029 12C9.73771 12 9.48336 11.8946 9.29582 11.7071C9.10829 11.5196 9.00293 11.2652 9.00293 11V7C9.00293 6.73478 9.10829 6.48043 9.29582 6.29289C9.48336 6.10536 9.73771 6 10.0029 6C10.2681 6 10.5225 6.10536 10.71 6.29289C10.8976 6.48043 11.0029 6.73478 11.0029 7V11C11.0029 11.2652 10.8976 11.5196 10.71 11.7071C10.5225 11.8946 10.2681 12 10.0029 12ZM10.0029 15C9.73771 15 9.48336 14.8946 9.29582 14.7071C9.10829 14.5196 9.00293 14.2652 9.00293 14C9.00293 13.7348 9.10829 13.4804 9.29582 13.2929C9.48336 13.1054 9.73771 13 10.0029 13C10.2681 13 10.5225 13.1054 10.71 13.2929C10.8976 13.4804 11.0029 13.7348 11.0029 14C11.0029 14.2652 10.8976 14.5196 10.71 14.7071C10.5225 14.8946 10.2681 15 10.0029 15Z" fill="#FDAA08"/>
</svg>
