<svg viewBox="0 0 21 23" fill="none" xmlns="http://www.w3.org/2000/svg"><path clip-rule="evenodd" d="M1.852 4.943c2.22-1.666 5.21-2.728 8.169-2.838 2.958-.11 5.828.728 7.882 2.784a.593.593 0 1 0 .84-.841C16.398 1.7 13.174.797 9.977.916c-3.195.12-6.42 1.26-8.84 3.077a.595.595 0 1 0 .716.951h-.001Zm5.7 2.898a2.079 2.079 0 0 0-.885-.829c-.47-.223-1.058-.25-1.67.11-.61.358-.875.885-.92 1.401-.04.48.11.916.262 1.185l4.01 7.068-2.703-.067c-.627-.038-1.085.33-1.348.668a2.217 2.217 0 0 0-.313.55 1.44 1.44 0 0 0-.109.63c.007.19.022.635.4 1.093.385.466 1.08.88 2.283 1.227.603.173 2.097.547 3.565.915 1.484.372 2.943.737 3.509.9 2.276.656 4.52-.265 5.887-1.84 1.373-1.582 1.923-3.9.706-6.047h-.001l-1.585-2.79-1.747-3.074a2.078 2.078 0 0 0-.885-.828c-.47-.223-1.058-.25-1.669.109-.283.167-.493.37-.64.59a1.89 1.89 0 0 0-.301-.179c-.47-.223-1.058-.25-1.67.109-.283.167-.492.37-.64.59a1.89 1.89 0 0 0-.3-.179c-.47-.223-1.059-.25-1.67.109-.212.125-.383.27-.517.428L7.55 7.84Zm10.056 4.763 1.585 2.789c.923 1.627.538 3.403-.57 4.679-1.114 1.283-2.897 1.985-4.662 1.477-.586-.169-2.051-.536-3.506-.9l-.042-.01c-1.484-.372-2.948-.74-3.525-.906-1.112-.32-1.535-.646-1.696-.84-.117-.143-.122-.234-.129-.388l-.002-.046v-.003a.538.538 0 0 1 .03-.097c.03-.079.08-.169.143-.25.136-.175.258-.219.343-.213l.014.001 3.78.095a.594.594 0 0 0 .53-.889L5.372 9.121a.929.929 0 0 1-.11-.496c.012-.151.076-.324.337-.478.26-.153.433-.12.56-.06.162.077.296.23.36.341l3.666 6.462a.593.593 0 1 0 1.033-.588l-1.726-3.04a.929.929 0 0 1-.11-.496c.012-.152.076-.325.337-.478.26-.153.433-.12.56-.06.162.077.297.23.36.341l1.725 3.04a.594.594 0 1 0 1.033-.587l-1.294-2.28a.928.928 0 0 1-.111-.496c.013-.152.076-.324.338-.478.26-.153.432-.12.559-.06.163.077.297.23.36.341l1.294 2.28a.594.594 0 1 0 1.033-.587l-.863-1.52a.928.928 0 0 1-.11-.496c.012-.152.076-.324.337-.478.26-.153.433-.12.56-.06.162.077.297.23.36.341l1.748 3.075Z"/></svg>