<svg viewBox="0 0 16 16" fill="none" xmlns="http://www.w3.org/2000/svg"><path d="M9.467 1.537c0 .847-.657 1.537-1.464 1.537-.807 0-1.464-.69-1.464-1.537C6.54.689 7.196 0 8.003 0c.807 0 1.464.69 1.464 1.537ZM9.798 3.803l1.186 3.857c.035.115.02.23-.04.318a.328.328 0 0 1-.276.138h-.303a.535.535 0 0 1-.482-.368l-.338-1.1-.003 1.885c1.51.123 2.873.424 3.947.856.713.286 1.324.64 1.765 1.059.442.419.746.938.746 1.536 0 .994-.819 1.76-1.83 2.285-1.05.546-2.49.938-4.115 1.118-.655.072-1.344.11-2.055.11a.5.5 0 0 1 0-1.003c.675 0 1.327-.037 1.945-.105 1.546-.171 2.857-.54 3.764-1.011.945-.491 1.291-1.002 1.291-1.394 0-.233-.116-.506-.433-.807-.318-.302-.806-.598-1.45-.856-.947-.38-2.18-.66-3.575-.78v3.24c0 .391-.303.71-.676.71H8.82c-.372 0-.675-.319-.675-.71V9.475a18.519 18.519 0 0 0-.288 0v3.306c0 .391-.303.71-.675.71h-.048c-.372 0-.675-.319-.675-.71v-3.24c-1.394.12-2.628.4-3.576.78-.643.258-1.13.554-1.45.856-.316.301-.432.574-.432.807 0 .223.105.48.388.764.285.286.724.57 1.31.823.133.058.355.125.624.196l-.724-.982a.503.503 0 0 1 .105-.702.499.499 0 0 1 .699.105l1.543 2.093a.503.503 0 0 1-.233.77l-2.543.92a.502.502 0 0 1-.339-.944l.988-.358a4.5 4.5 0 0 1-.516-.176c-.656-.284-1.216-.63-1.62-1.035C.274 13.051 0 12.553 0 11.984c0-.598.304-1.117.746-1.537.44-.418 1.052-.772 1.765-1.058 1.074-.432 2.437-.733 3.947-.856l.003-1.885-.338 1.1a.535.535 0 0 1-.482.368h-.303a.328.328 0 0 1-.276-.138.366.366 0 0 1-.04-.318l1.185-3.857a.535.535 0 0 1 .482-.369h2.628c.206 0 .418.162.481.369Z"/></svg>