<svg viewBox="0 0 17 16" xmlns="http://www.w3.org/2000/svg">
  <path d="M9.47 1.53A1.5 1.5 0 0 1 8 3.06a1.5 1.5 0 0 1-1.46-1.53C6.54.7 7.2 0 8 0c.81 0 1.47.69 1.47 1.53zM9.8 3.8l1.18 3.84c.04.12.02.23-.04.32a.33.33 0 0 1-.27.13h-.3a.54.54 0 0 1-.49-.36l-.33-1.1v1.44c1.5.12 2.87.43 3.94.85.72.29 1.33.64 1.77 1.06.44.42.74.93.74 1.53 0 .99-.82 1.75-1.83 2.28-1.05.54-2.49.93-4.11 1.1A18.88 18.88 0 0 1 8 15a.5.5 0 0 1 0-1c.68 0 1.33-.04 1.95-.1 1.54-.18 2.86-.54 3.76-1.01.95-.5 1.3-1 1.3-1.39 0-.23-.12-.5-.44-.8-.32-.3-.8-.6-1.45-.86a12.8 12.8 0 0 0-3.58-.77v3.22c0 .4-.3.71-.67.71h-.05a.7.7 0 0 1-.67-.7V9a19.03 19.03 0 0 0-.3 0v3.3c0 .39-.3.7-.67.7h-.04a.7.7 0 0 1-.68-.7V9.06c-1.4.12-2.63.4-3.58.77-.64.26-1.13.56-1.45.86-.31.3-.43.57-.43.8 0 .22.1.48.4.76a4.2 4.2 0 0 0 1.92 1.02l-.72-.98a.5.5 0 1 1 .8-.6l1.55 2.09a.5.5 0 0 1-.24.77l-2.54.91a.5.5 0 0 1-.34-.94l1-.35A4.53 4.53 0 0 1 2.3 14a5.21 5.21 0 0 1-1.63-1.03c-.4-.4-.68-.9-.68-1.47 0-.6.3-1.11.75-1.53A5.58 5.58 0 0 1 2.5 8.92c1.08-.43 2.44-.73 3.95-.86V6.62l-.34 1.1a.54.54 0 0 1-.48.37h-.3a.33.33 0 0 1-.28-.14.36.36 0 0 1-.04-.32l1.2-3.83a.54.54 0 0 1 .48-.37h2.63c.2 0 .41.16.48.37z"/>
</svg>
