<svg width="17" height="16" viewBox="0 0 17 16" fill="none" xmlns="http://www.w3.org/2000/svg">
<path fill-rule="evenodd" clip-rule="evenodd" d="M2.00293 0C0.89836 0 0.00292969 0.895431 0.00292969 2V14C0.00292969 15.1046 0.89836 16 2.00293 16H14.0029C15.1075 16 16.0029 15.1046 16.0029 14V2C16.0029 0.895431 15.1075 0 14.0029 0H2.00293ZM8.50293 4.5C8.50293 4.22386 8.27907 4 8.00293 4C7.72679 4 7.50293 4.22386 7.50293 4.5V7.5H4.50293C4.22679 7.5 4.00293 7.72386 4.00293 8C4.00293 8.27614 4.22679 8.5 4.50293 8.5H7.50293V11.5C7.50293 11.7761 7.72679 12 8.00293 12C8.27907 12 8.50293 11.7761 8.50293 11.5V8.5H11.5029C11.7791 8.5 12.0029 8.27614 12.0029 8C12.0029 7.72386 11.7791 7.5 11.5029 7.5H8.50293V4.5Z" fill="black"/>
</svg>
