<svg width="21" height="18" viewBox="0 0 21 18" fill="none" xmlns="http://www.w3.org/2000/svg">
<path d="M0.00292969 0.5C0.00292969 0.223858 0.226787 0 0.50293 0H19.5029C19.7791 0 20.0029 0.223858 20.0029 0.5V1.5C20.0029 1.77614 19.7791 2 19.5029 2H0.502929C0.226787 2 0.00292969 1.77614 0.00292969 1.5V0.5Z" fill="black"/>
<path d="M0.00292969 8.5C0.00292969 8.22386 0.226787 8 0.50293 8H19.5029C19.7791 8 20.0029 8.22386 20.0029 8.5V9.5C20.0029 9.77614 19.7791 10 19.5029 10H0.502929C0.226787 10 0.00292969 9.77614 0.00292969 9.5V8.5Z" fill="black"/>
<path d="M0.00292969 16.5C0.00292969 16.2239 0.226787 16 0.50293 16H19.5029C19.7791 16 20.0029 16.2239 20.0029 16.5V17.5C20.0029 17.7761 19.7791 18 19.5029 18H0.502929C0.226787 18 0.00292969 17.7761 0.00292969 17.5V16.5Z" fill="black"/>
</svg>
