<svg width="17" height="12" viewBox="0 0 17 12" fill="none" xmlns="http://www.w3.org/2000/svg">
<path d="M2.00293 0C0.898376 0 0.00292969 0.895431 0.00292969 2V10.9893C0.00372314 10.6188 0.107666 10.2405 0.334167 9.89594L2.96399 5.89594C3.32965 5.33978 3.94983 5 4.62012 5H12.0029V4C12.0029 2.9 11.1029 2 10.0029 2H6.00293C6.00293 0.895431 5.10748 0 4.00293 0H2.00293Z" fill="black"/>
<path d="M4.62054 6C4.29083 6 3.98291 6.1671 3.80005 6.4453L1.17023 10.4453C0.733276 11.1099 1.20312 12 1.99078 12H12.3853C12.715 12 13.0229 11.8329 13.2058 11.5547L15.8357 7.5547C16.2726 6.89015 15.8027 6 15.0151 6H4.62054Z" fill="black"/>
</svg>
