<svg width="14" height="16" viewBox="0 0 14 16" fill="none" xmlns="http://www.w3.org/2000/svg">
<path fill-rule="evenodd" clip-rule="evenodd" d="M8.79179 6.81326C9.72044 6.22158 10.3364 5.18272 10.3364 3.99999C10.3364 2.15904 8.84404 0.666656 7.00309 0.666656C5.16214 0.666656 3.66976 2.15904 3.66976 3.99999C3.66976 5.18272 4.28574 6.22158 5.2144 6.81326C2.42386 7.42975 0.336426 9.91814 0.336426 12.8941C0.336426 13.4789 0.611991 14.0772 1.20339 14.3466C2.11691 14.7629 3.93024 15.3333 7.00309 15.3333C10.0759 15.3333 11.8893 14.7629 12.8028 14.3466C13.3942 14.0772 13.6698 13.4789 13.6698 12.8941C13.6698 9.91813 11.5823 7.42975 8.79179 6.81326Z" fill="black"/>
</svg>
