<svg viewBox="0 0 16 14" xmlns="http://www.w3.org/2000/svg">
  <path fill-rule="evenodd" clip-rule="evenodd" d="M8.98 1.01a22.84 22.84 0 0 0-1.96.02c-1.49.07-2.63.3-3.49.65-.8.34-1.37.79-1.75 1.33a4.4 4.4 0 0 0-.72 2.05c-.07.63-.1 1.27.01 1.85.3 1.64 1.56 2.42 2.87 2.8a8.44 8.44 0 0 0 1.76.28 8.37 8.37 0 0 0 .72.01h.05l.47-.03.24 1.91.7-.17c1.05-.27 2.6-.7 3.94-1.18a5.24 5.24 0 0 0 2.46-1.74c.49-.7.72-1.55.72-2.67a6.4 6.4 0 0 0-.48-2.73 3.37 3.37 0 0 0-1.73-1.65c-.88-.41-2.1-.66-3.81-.73zM6.87 13l.13-.04a121.92 121.92 0 0 0 1.12-.27 46.6 46.6 0 0 0 4.05-1.2v-.01h.02a6.23 6.23 0 0 0 2.9-2.1c.64-.9.91-1.99.91-3.25 0-1.18-.15-2.25-.58-3.16A4.37 4.37 0 0 0 13.2.83 11 11 0 0 0 9.01 0a23.83 23.83 0 0 0-2.04.02 11.7 11.7 0 0 0-3.82.74A4.9 4.9 0 0 0 .96 2.44C.46 3.15.2 4 .07 4.94A7.4 7.4 0 0 0 .1 7.09c.4 2.18 2.1 3.15 3.57 3.58a9.34 9.34 0 0 0 2.4.34l.13 1.05.05.38.01.12.07.56.55-.13zM3 4.49a.5.5 0 0 1 .5-.5h8.98a.5.5 0 0 1 0 1H3.5a.5.5 0 0 1-.5-.5zM3 6.5a.5.5 0 0 1 .5-.5h6a.5.5 0 0 1 0 1h-6a.5.5 0 0 1-.5-.5z"/>
</svg>
