<svg width="17" height="16" fill="none" xmlns="http://www.w3.org/2000/svg"><g clip-path="url(#a)"><path d="M16.003.496 15.507 0v10.28l.496-.312V.496ZM12.187 5.04l-.864-.12c.716-.32 1.399-.708 2.04-1.16v.68c-.37.241-.76.447-1.168.616l-.008-.016Z" fill="#000"/><path d="M13.723.24a4.306 4.306 0 0 1-2.4 2.592V4.92c.716-.32 1.399-.708 2.04-1.16v6.344l2.16.184V0L13.73.24h-.008Z" fill="url(#b)"/><path d="m8.987 14.768.92.312-.736-2.584-.832.048.648 2.224ZM7.635 10.16l-.832-3.168.464-1.52 1.296 4.688h-.928Z" fill="#790000"/><path d="m4.563 2.336 1.16-.616L.803 16l-.8-.56 4.56-13.096v-.008Z" fill="#B40302"/><path fill-rule="evenodd" clip-rule="evenodd" d="m.803 16 4.92-14.28 3.016.56 3.76 12.488-2.592.312-.736-2.584-4 .24-.864 2.896L.803 16ZM7.267 5.48l1.288 4.672H5.85L7.267 5.48Z" fill="url(#c)"/></g><defs><linearGradient id="b" x1="13.419" y1="0" x2="13.419" y2="10.28" gradientUnits="userSpaceOnUse"><stop stop-color="#5B5B5B"/><stop offset="1" stop-color="#141414"/></linearGradient><linearGradient id="c" x1="3.635" y1="5.416" x2="11.267" y2="15.2" gradientUnits="userSpaceOnUse"><stop stop-color="#FA0100"/><stop offset="1" stop-color="#9B0000"/></linearGradient><clipPath id="a"><path fill="#fff" transform="translate(.003)" d="M0 0h16v16H0z"/></clipPath></defs></svg>