<svg width="32" height="32" viewBox="0 0 32 32" fill="none" xmlns="http://www.w3.org/2000/svg">
<path fill-rule="evenodd" clip-rule="evenodd" d="M6 0C2.68629 0 0 2.68629 0 6V26C0 29.3137 2.68629 32 6 32H26C29.3137 32 32 29.3137 32 26V6C32 2.68629 29.3137 0 26 0H6ZM11.0029 16C11.0029 17.1046 10.1075 18 9.00293 18C7.89836 18 7.00293 17.1046 7.00293 16C7.00293 14.8954 7.89836 14 9.00293 14C10.1075 14 11.0029 14.8954 11.0029 16ZM18.0029 16C18.0029 17.1046 17.1075 18 16.0029 18C14.8984 18 14.0029 17.1046 14.0029 16C14.0029 14.8954 14.8984 14 16.0029 14C17.1075 14 18.0029 14.8954 18.0029 16ZM23.0029 18C24.1075 18 25.0029 17.1046 25.0029 16C25.0029 14.8954 24.1075 14 23.0029 14C21.8984 14 21.0029 14.8954 21.0029 16C21.0029 17.1046 21.8984 18 23.0029 18Z" fill="black"/>
</svg>
