<svg width="19" height="4" viewBox="0 0 19 4" fill="none" xmlns="http://www.w3.org/2000/svg">
<path d="M4.00293 2C4.00293 3.10457 3.1075 4 2.00293 4C0.89836 4 0.00292969 3.10457 0.00292969 2C0.00292969 0.89543 0.89836 0 2.00293 0C3.1075 0 4.00293 0.89543 4.00293 2Z" fill="#9BA8AC"/>
<path d="M11.0029 2C11.0029 3.10457 10.1075 4 9.00293 4C7.89836 4 7.00293 3.10457 7.00293 2C7.00293 0.89543 7.89836 0 9.00293 0C10.1075 0 11.0029 0.89543 11.0029 2Z" fill="#9BA8AC"/>
<path d="M18.0029 2C18.0029 3.10457 17.1075 4 16.0029 4C14.8984 4 14.0029 3.10457 14.0029 2C14.0029 0.89543 14.8984 0 16.0029 0C17.1075 0 18.0029 0.89543 18.0029 2Z" fill="#9BA8AC"/>
</svg>
