<svg width="17" height="14" viewBox="0 0 17 14" fill="none" xmlns="http://www.w3.org/2000/svg">
<path fill-rule="evenodd" clip-rule="evenodd" d="M4.77932 0.82918C5.03341 0.321004 5.55281 0 6.12096 0H9.8849C10.4531 0 10.9724 0.321003 11.2265 0.829179L11.8119 2H14.5029C15.3314 2 16.0029 2.67157 16.0029 3.5V12.5C16.0029 13.3284 15.3314 14 14.5029 14H1.50293C0.674503 14 0.00292969 13.3284 0.00292969 12.5V3.5C0.00292969 2.67157 0.674503 2 1.50293 2H4.19391L4.77932 0.82918ZM6.12096 1C5.93158 1 5.75845 1.107 5.67375 1.27639L4.95014 2.72361C4.86545 2.893 4.69232 3 4.50293 3H1.50293C1.22679 3 1.00293 3.22386 1.00293 3.5V12.5C1.00293 12.7761 1.22679 13 1.50293 13H14.5029C14.7791 13 15.0029 12.7761 15.0029 12.5V3.5C15.0029 3.22386 14.7791 3 14.5029 3H11.5029C11.3135 3 11.1404 2.893 11.0557 2.72361L10.3321 1.27639C10.2474 1.107 10.0743 1 9.8849 1H6.12096Z" fill="black"/>
<path fill-rule="evenodd" clip-rule="evenodd" d="M8.00293 5.5C6.62222 5.5 5.50293 6.61929 5.50293 8C5.50293 9.38071 6.62222 10.5 8.00293 10.5C9.38364 10.5 10.5029 9.38071 10.5029 8C10.5029 6.61929 9.38364 5.5 8.00293 5.5ZM4.50293 8C4.50293 6.067 6.06993 4.5 8.00293 4.5C9.93593 4.5 11.5029 6.067 11.5029 8C11.5029 9.933 9.93593 11.5 8.00293 11.5C6.06993 11.5 4.50293 9.933 4.50293 8Z" fill="black"/>
</svg>
