<svg width="17" height="14" viewBox="0 0 17 14" fill="none" xmlns="http://www.w3.org/2000/svg">
<path fill-rule="evenodd" clip-rule="evenodd" d="M6.12096 0C5.55281 0 5.03341 0.321004 4.77932 0.82918L4.19391 2H1.50293C0.674503 2 0.00292969 2.67157 0.00292969 3.5V12.5C0.00292969 13.3284 0.674503 14 1.50293 14H14.5029C15.3314 14 16.0029 13.3284 16.0029 12.5V3.5C16.0029 2.67157 15.3314 2 14.5029 2H11.8119L11.2265 0.829179C10.9724 0.321003 10.4531 0 9.8849 0H6.12096ZM8.00293 11C9.65978 11 11.0029 9.65685 11.0029 8C11.0029 6.34315 9.65978 5 8.00293 5C6.34608 5 5.00293 6.34315 5.00293 8C5.00293 9.65685 6.34608 11 8.00293 11Z" fill="black"/>
</svg>
