<svg width="12" height="16" viewBox="0 0 12 16" fill="none" xmlns="http://www.w3.org/2000/svg">
<path fill-rule="evenodd" clip-rule="evenodd" d="M5.05943 3.06058C4.73216 3.16128 4.36574 3.25 4.00293 3.25C3.46575 3.25 2.84427 3.20557 2.26389 3.11628C2.09454 3.09023 1.92257 3.05946 1.75293 3.02322V7.47971C1.95849 7.53722 2.2085 7.59011 2.49197 7.63372C2.99492 7.7111 3.54011 7.75 4.00293 7.75C4.14012 7.75 4.3362 7.71372 4.6183 7.62692C4.84049 7.55855 5.07426 7.47279 5.34061 7.37508C5.41104 7.34924 5.48375 7.32256 5.55912 7.29516C6.24124 7.04711 7.10529 6.75 8.00293 6.75C8.838 6.75 9.52891 6.88966 10.0598 7.02239C10.1267 7.03912 10.1913 7.05578 10.2529 7.07198V2.50123C9.77042 2.34384 9.1034 2.25 8.00293 2.25C7.40057 2.25 6.76462 2.45289 6.07174 2.70485C6.00781 2.72809 5.94275 2.75198 5.87698 2.77613C5.60627 2.87552 5.32367 2.97928 5.05943 3.06058ZM1.75293 9.02322C1.92257 9.05946 2.09454 9.09023 2.26389 9.11628C2.84427 9.20557 3.46575 9.25 4.00293 9.25C4.36574 9.25 4.73216 9.16128 5.05943 9.06058C5.32367 8.97928 5.60627 8.87552 5.87698 8.77613C5.94274 8.75198 6.00781 8.72809 6.07174 8.70484C6.76462 8.45289 7.40057 8.25 8.00293 8.25C8.66786 8.25 9.22695 8.36034 9.69603 8.47761C9.81436 8.50719 9.92621 8.537 10.0354 8.56626L10.0602 8.5729C10.1591 8.59939 10.2588 8.62612 10.3523 8.64948C10.5395 8.69628 10.776 8.75 11.0029 8.75C11.4171 8.75 11.7529 8.41421 11.7529 8V2C11.7529 1.71592 11.5924 1.45622 11.3383 1.32918C10.5197 0.91985 9.55039 0.75 8.00293 0.75C7.10529 0.75 6.24124 1.04711 5.55912 1.29515C5.48375 1.32256 5.41104 1.34924 5.3406 1.37508C5.07426 1.47279 4.84049 1.55855 4.6183 1.62692C4.3362 1.71372 4.14012 1.75 4.00293 1.75C3.54011 1.75 2.99492 1.7111 2.49197 1.63372C1.97255 1.55381 1.56549 1.44275 1.33834 1.32918C1.10585 1.21293 0.829744 1.22536 0.608631 1.36201C0.387519 1.49867 0.25293 1.74007 0.25293 2V15C0.25293 15.4142 0.588716 15.75 1.00293 15.75C1.41714 15.75 1.75293 15.4142 1.75293 15V9.02322Z" fill="black"/>
</svg>
