<svg width="17" height="16" viewBox="0 0 17 16" fill="none" xmlns="http://www.w3.org/2000/svg">
<path d="M5.00293 7.5C5.00293 7.22386 5.22679 7 5.50293 7C5.77907 7 6.00293 7.22386 6.00293 7.5V12.5C6.00293 12.7761 5.77907 13 5.50293 13C5.22679 13 5.00293 12.7761 5.00293 12.5V7.5Z" fill="black"/>
<path d="M7.50293 7.5C7.50293 7.22386 7.72679 7 8.00293 7C8.27907 7 8.50293 7.22386 8.50293 7.5V12.5C8.50293 12.7761 8.27907 13 8.00293 13C7.72679 13 7.50293 12.7761 7.50293 12.5V7.5Z" fill="black"/>
<path d="M10.5029 7C10.2268 7 10.0029 7.22386 10.0029 7.5V12.5C10.0029 12.7761 10.2268 13 10.5029 13C10.7791 13 11.0029 12.7761 11.0029 12.5V7.5C11.0029 7.22386 10.7791 7 10.5029 7Z" fill="black"/>
<path fill-rule="evenodd" clip-rule="evenodd" d="M6.00293 0C4.89836 0 4.00293 0.895431 4.00293 2H1.50293C0.674503 2 0.00292969 2.67157 0.00292969 3.5C0.00292969 4.32843 0.674503 5 1.50293 5H2.00293V14C2.00293 15.1046 2.89836 16 4.00293 16H12.0029C13.1075 16 14.0029 15.1046 14.0029 14V5H14.5029C15.3314 5 16.0029 4.32843 16.0029 3.5C16.0029 2.67157 15.3314 2 14.5029 2H12.0029C12.0029 0.895431 11.1075 0 10.0029 0H6.00293ZM11.0029 2H5.00293C5.00293 1.44772 5.45065 1 6.00293 1H10.0029C10.5552 1 11.0029 1.44772 11.0029 2ZM3.00293 14V5H13.0029V14C13.0029 14.5523 12.5552 15 12.0029 15H4.00293C3.45064 15 3.00293 14.5523 3.00293 14ZM14.5029 3H1.50293C1.22679 3 1.00293 3.22386 1.00293 3.5C1.00293 3.77614 1.22679 4 1.50293 4H14.5029C14.7791 4 15.0029 3.77614 15.0029 3.5C15.0029 3.22386 14.7791 3 14.5029 3Z" fill="black"/>
</svg>
