<svg width="17" height="16" viewBox="0 0 17 16" fill="none" xmlns="http://www.w3.org/2000/svg">
<path d="M13.8414 0.391394C13.3202 -0.129813 12.4751 -0.129814 11.9539 0.391394L10.6065 1.74642L14.2607 5.40064L15.6119 4.04939C16.1332 3.52818 16.1332 2.68314 15.6119 2.16193L13.8414 0.391394Z" fill="black"/>
<path fill-rule="evenodd" clip-rule="evenodd" d="M9.89938 2.45353L0.752879 11.592C0.673306 11.666 0.618428 11.7652 0.59992 11.8762L0.00973908 15.4173C-0.0168075 15.5766 0.035202 15.7389 0.149382 15.8531C0.263563 15.9672 0.425857 16.0192 0.585135 15.9927L4.12622 15.4025L4.13404 15.4012C4.2308 15.3837 4.32341 15.3375 4.39821 15.2627L13.5534 6.10756L9.89938 2.45353ZM1.42658 12.999L1.11121 14.8912L3.00344 14.5759L1.42658 12.999Z" fill="black"/>
</svg>
