<svg width="17" height="16" viewBox="0 0 17 16" fill="none" xmlns="http://www.w3.org/2000/svg">
<path fill-rule="evenodd" clip-rule="evenodd" d="M11.9539 0.391394C12.4751 -0.129814 13.3202 -0.129813 13.8414 0.391394L15.6119 2.16193C16.1332 2.68314 16.1332 3.52818 15.6119 4.04939L14.1365 5.52484L14.125 5.53594L4.39821 15.2627C4.32341 15.3375 4.2308 15.3837 4.13404 15.4012C4.13144 15.4016 4.12883 15.4021 4.12622 15.4025L0.585135 15.9927C0.425857 16.0192 0.263563 15.9672 0.149382 15.8531C0.035202 15.7389 -0.0168075 15.5766 0.00973908 15.4173L0.59992 11.8762C0.618428 11.7652 0.673306 11.666 0.752879 11.592L10.4782 1.86678L10.4897 1.85566L11.9539 0.391394ZM13.1343 1.0985C13.0036 0.967817 12.7917 0.967817 12.661 1.0985L11.5391 2.22039L13.7829 4.46418L14.9048 3.34228C15.0355 3.2116 15.0355 2.99972 14.9048 2.86904L13.1343 1.0985ZM1.80086 11.9583L4.04466 14.2021L13.0755 5.17123L10.8317 2.92744L1.80086 11.9583ZM1.11121 14.8912L1.42658 12.999L3.00344 14.5759L1.11121 14.8912Z" fill="black"/>
</svg>
