<svg width="13" height="16" viewBox="0 0 13 16" fill="none" xmlns="http://www.w3.org/2000/svg">
<path fill-rule="evenodd" clip-rule="evenodd" d="M0.00292969 2.5C0.00292969 1.11929 1.12222 0 2.50293 0H9.50293C10.8836 0 12.0029 1.11929 12.0029 2.5V13.5C12.0029 14.8807 10.8836 16 9.50293 16H2.50293C1.12222 16 0.00292969 14.8807 0.00292969 13.5V2.5ZM2.50293 1C1.6745 1 1.00293 1.67157 1.00293 2.5V13.5C1.00293 14.3284 1.6745 15 2.50293 15H9.50293C10.3314 15 11.0029 14.3284 11.0029 13.5V2.5C11.0029 1.67157 10.3314 1 9.50293 1H2.50293Z" fill="#1D2126"/>
<path fill-rule="evenodd" clip-rule="evenodd" d="M3.00293 4.5C3.00293 4.22386 3.22679 4 3.50293 4H8.50293C8.77907 4 9.00293 4.22386 9.00293 4.5C9.00293 4.77614 8.77907 5 8.50293 5H3.50293C3.22679 5 3.00293 4.77614 3.00293 4.5Z" fill="#1D2126"/>
<path fill-rule="evenodd" clip-rule="evenodd" d="M3.00293 8C3.00293 7.72386 3.22679 7.5 3.50293 7.5H8.50293C8.77907 7.5 9.00293 7.72386 9.00293 8C9.00293 8.27614 8.77907 8.5 8.50293 8.5H3.50293C3.22679 8.5 3.00293 8.27614 3.00293 8Z" fill="#1D2126"/>
<path fill-rule="evenodd" clip-rule="evenodd" d="M3.00293 11.5C3.00293 11.2239 3.22679 11 3.50293 11H6.50293C6.77907 11 7.00293 11.2239 7.00293 11.5C7.00293 11.7761 6.77907 12 6.50293 12H3.50293C3.22679 12 3.00293 11.7761 3.00293 11.5Z" fill="#1D2126"/>
</svg>
