<svg width="17" height="16" viewBox="0 0 17 16" fill="none" xmlns="http://www.w3.org/2000/svg">
<path fill-rule="evenodd" clip-rule="evenodd" d="M6.61384 1.61091C8.76173 -0.536971 12.2441 -0.536971 14.392 1.61091C16.5399 3.7588 16.5399 7.2412 14.392 9.38909C12.9147 10.8664 10.8068 11.327 8.93676 10.7733L7.85648 11.8536C7.76271 11.9473 7.63554 12 7.50293 12H6.00293V13.5C6.00293 13.7761 5.77907 14 5.50293 14H4.00293V15.5C4.00293 15.7761 3.77907 16 3.50293 16H0.50293C0.226787 16 0.00292969 15.7761 0.00292969 15.5V12.5C0.00292969 12.3674 0.0556081 12.2402 0.149376 12.1465L5.22965 7.06618C4.67597 5.19616 5.13655 3.0882 6.61384 1.61091ZM12.0029 5.5C12.8314 5.5 13.5029 4.82843 13.5029 4C13.5029 3.17157 12.8314 2.5 12.0029 2.5C11.1745 2.5 10.5029 3.17157 10.5029 4C10.5029 4.82843 11.1745 5.5 12.0029 5.5Z" fill="black"/>
</svg>
