<svg width="17" height="16" viewBox="0 0 17 16" fill="none" xmlns="http://www.w3.org/2000/svg">
<path d="M0.50293 12.5L0.149376 12.1465C0.0556081 12.2402 0.00292969 12.3674 0.00292969 12.5H0.50293ZM0.50293 15.5H0.00292969C0.00292969 15.7761 0.226787 16 0.50293 16L0.50293 15.5ZM3.50293 15.5V16C3.77907 16 4.00293 15.7761 4.00293 15.5H3.50293ZM3.50293 13.5V13C3.22679 13 3.00293 13.2239 3.00293 13.5H3.50293ZM5.50293 13.5V14C5.77907 14 6.00293 13.7761 6.00293 13.5H5.50293ZM5.50293 11.5V11C5.22679 11 5.00293 11.2239 5.00293 11.5H5.50293ZM7.50293 11.5V12C7.63554 12 7.76271 11.9473 7.85648 11.8536L7.50293 11.5ZM5.80044 7.20249L6.154 7.55605L6.37865 7.3314L6.27069 7.0326L5.80044 7.20249ZM8.80045 10.2025L8.97034 9.73224L8.67154 9.62429L8.44689 9.84894L8.80045 10.2025ZM0.00292969 12.5V15.5H1.00293V12.5H0.00292969ZM0.50293 16H3.50293V15H0.50293V16ZM4.00293 15.5V13.5H3.00293V15.5H4.00293ZM3.50293 14H5.50293V13H3.50293V14ZM6.00293 13.5V11.5H5.00293V13.5H6.00293ZM5.50293 12H7.50293V11H5.50293V12ZM7.32095 2.31802C9.07831 0.56066 11.9276 0.56066 13.6849 2.31802L14.392 1.61091C12.2441 -0.536971 8.76173 -0.536971 6.61384 1.61091L7.32095 2.31802ZM13.6849 2.31802C15.4423 4.07538 15.4423 6.92462 13.6849 8.68198L14.392 9.38909C16.5399 7.2412 16.5399 3.7588 14.392 1.61091L13.6849 2.31802ZM6.27069 7.0326C5.69571 5.44113 6.04676 3.59221 7.32095 2.31802L6.61384 1.61091C5.05531 3.16944 4.62839 5.42991 5.33019 7.37239L6.27069 7.0326ZM5.44689 6.84894L0.149376 12.1465L0.856483 12.8536L6.154 7.55605L5.44689 6.84894ZM13.6849 8.68198C12.4107 9.95617 10.5618 10.3072 8.97034 9.73224L8.63055 10.6727C10.573 11.3745 12.8335 10.9476 14.392 9.38909L13.6849 8.68198ZM7.85648 11.8536L9.154 10.556L8.44689 9.84894L7.14938 11.1465L7.85648 11.8536ZM13.0029 4C13.0029 4.55228 12.5552 5 12.0029 5V6C13.1075 6 14.0029 5.10457 14.0029 4H13.0029ZM12.0029 5C11.4506 5 11.0029 4.55228 11.0029 4H10.0029C10.0029 5.10457 10.8984 6 12.0029 6V5ZM11.0029 4C11.0029 3.44772 11.4506 3 12.0029 3V2C10.8984 2 10.0029 2.89543 10.0029 4H11.0029ZM12.0029 3C12.5552 3 13.0029 3.44772 13.0029 4H14.0029C14.0029 2.89543 13.1075 2 12.0029 2V3Z" fill="black"/>
</svg>
