<svg width="17" height="16" viewBox="0 0 17 16" fill="none" xmlns="http://www.w3.org/2000/svg">
<path fill-rule="evenodd" clip-rule="evenodd" d="M8.00293 4C8.00293 1.79086 9.79379 0 12.0029 0C14.2121 0 16.0029 1.79086 16.0029 4V7C16.0029 7.55228 15.5552 8 15.0029 8C14.4506 8 14.0029 7.55228 14.0029 7V4C14.0029 2.89543 13.1075 2 12.0029 2C10.8984 2 10.0029 2.89543 10.0029 4V7H10.5029C11.3314 7 12.0029 7.67157 12.0029 8.5V14.5C12.0029 15.3284 11.3314 16 10.5029 16H1.50293C0.674502 16 0.00292969 15.3284 0.00292969 14.5V8.5C0.00292969 7.67157 0.674503 7 1.50293 7H8.00293V4ZM4.50293 11.5C4.50293 10.6716 5.1745 10 6.00293 10C6.83136 10 7.50293 10.6716 7.50293 11.5C7.50293 12.3284 6.83136 13 6.00293 13C5.1745 13 4.50293 12.3284 4.50293 11.5Z" fill="black"/>
</svg>
