<svg width="15" height="16" viewBox="0 0 15 16" fill="none" xmlns="http://www.w3.org/2000/svg">
<path d="M2.50293 7.5H2.00293C2.00293 7.77614 2.22679 8 2.50293 8V7.5ZM4.50293 7.5V8C4.77907 8 5.00293 7.77614 5.00293 7.5H4.50293ZM11.2793 3.05279C11.0323 3.17628 10.9322 3.47662 11.0557 3.72361C11.1792 3.9706 11.4795 4.07071 11.7265 3.94721L11.2793 3.05279ZM13.7265 2.94721C13.9735 2.82372 14.0736 2.52338 13.9501 2.27639C13.8266 2.0294 13.5263 1.92929 13.2793 2.05279L13.7265 2.94721ZM13.2793 6.94721C13.5263 7.07071 13.8266 6.9706 13.9501 6.72361C14.0736 6.47662 13.9735 6.17628 13.7265 6.05279L13.2793 6.94721ZM11.7265 5.05279C11.4795 4.92929 11.1792 5.0294 11.0557 5.27639C10.9322 5.52338 11.0323 5.82372 11.2793 5.94721L11.7265 5.05279ZM6.50293 12.4979C6.50293 12.2217 6.27907 11.9979 6.00293 11.9979C5.72679 11.9979 5.50293 12.2217 5.50293 12.4979H6.50293ZM5.50293 13.4979C5.50293 13.774 5.72679 13.9979 6.00293 13.9979C6.27907 13.9979 6.50293 13.774 6.50293 13.4979H5.50293ZM1.50293 8H10.5029V7H1.50293V8ZM11.0029 8.5V14.5H12.0029V8.5H11.0029ZM10.5029 15H1.50293V16H10.5029V15ZM1.00293 14.5V8.5H0.00292969V14.5H1.00293ZM1.50293 15C1.22679 15 1.00293 14.7761 1.00293 14.5H0.00292969C0.00292969 15.3284 0.674502 16 1.50293 16V15ZM11.0029 14.5C11.0029 14.7761 10.7791 15 10.5029 15V16C11.3314 16 12.0029 15.3284 12.0029 14.5H11.0029ZM10.5029 8C10.7791 8 11.0029 8.22386 11.0029 8.5H12.0029C12.0029 7.67157 11.3314 7 10.5029 7V8ZM1.50293 7C0.674503 7 0.00292969 7.67157 0.00292969 8.5H1.00293C1.00293 8.22386 1.22679 8 1.50293 8V7ZM3.00293 7.5V4H2.00293V7.5H3.00293ZM9.00293 4V4.5H10.0029V4H9.00293ZM8.00293 4.5V4H7.00293V4.5H8.00293ZM4.00293 4V7.5H5.00293V4H4.00293ZM2.50293 8H4.50293V7H2.50293V8ZM6.00293 2C4.89836 2 4.00293 2.89543 4.00293 4H5.00293C5.00293 3.44772 5.45064 3 6.00293 3V2ZM8.00293 4C8.00293 2.89543 7.1075 2 6.00293 2V3C6.55521 3 7.00293 3.44772 7.00293 4H8.00293ZM8.50293 5C8.22679 5 8.00293 4.77614 8.00293 4.5H7.00293C7.00293 5.32843 7.6745 6 8.50293 6V5ZM9.00293 4.5C9.00293 4.77614 8.77907 5 8.50293 5V6C9.33136 6 10.0029 5.32843 10.0029 4.5H9.00293ZM6.00293 1C7.65978 1 9.00293 2.34315 9.00293 4H10.0029C10.0029 1.79086 8.21207 0 6.00293 0V1ZM3.00293 4C3.00293 2.34315 4.34608 1 6.00293 1V0C3.79379 0 2.00293 1.79086 2.00293 4H3.00293ZM11.7265 3.94721L13.7265 2.94721L13.2793 2.05279L11.2793 3.05279L11.7265 3.94721ZM13.7265 6.05279L11.7265 5.05279L11.2793 5.94721L13.2793 6.94721L13.7265 6.05279ZM7.00293 11C7.00293 11.5523 6.55521 12 6.00293 12V13C7.1075 13 8.00293 12.1046 8.00293 11H7.00293ZM6.00293 12C5.45064 12 5.00293 11.5523 5.00293 11H4.00293C4.00293 12.1046 4.89836 13 6.00293 13V12ZM5.00293 11C5.00293 10.4477 5.45064 10 6.00293 10V9C4.89836 9 4.00293 9.89543 4.00293 11H5.00293ZM6.00293 10C6.55521 10 7.00293 10.4477 7.00293 11H8.00293C8.00293 9.89543 7.1075 9 6.00293 9V10ZM5.50293 12.4979V13.4979H6.50293V12.4979H5.50293Z" fill="black"/>
</svg>
