<svg width="17" height="16" viewBox="0 0 17 16" fill="none" xmlns="http://www.w3.org/2000/svg">
<path d="M8.00497 0C6.65344 4.00395e-07 5.62814 0.429709 4.86901 1.19679C4.12609 1.9475 3.68008 2.97926 3.38602 4.11145C3.28309 4.50848 3.21076 4.96267 3.13842 5.41709L3.11695 5.55166C3.03535 6.06149 2.94741 6.58328 2.81045 7.09981C2.69646 7.52981 2.41275 7.99359 2.07866 8.48011C2.01811 8.56828 1.95384 8.66017 1.88943 8.75228C1.78795 8.89738 1.68607 9.04308 1.59781 9.17551C1.45158 9.39491 1.30848 9.62726 1.21594 9.85119C0.996769 10.3749 0.908416 11.0492 1.13483 11.7263C1.21322 11.9607 1.32708 12.1887 1.47957 12.4057L2.20392 11.6813C2.15245 11.5893 2.11295 11.4981 2.08321 11.4092C1.94624 10.9995 1.99613 10.5768 2.13876 10.2364L2.13984 10.2338C2.19274 10.1056 2.28946 9.94087 2.42993 9.73009C2.5143 9.6035 2.60238 9.47767 2.69689 9.34265C2.76217 9.24939 2.83069 9.1515 2.903 9.04619C3.23498 8.56275 3.61391 7.9715 3.77705 7.3561C3.92819 6.78607 4.02273 6.2199 4.10438 5.7097L4.12445 5.58407C4.19906 5.11622 4.26376 4.71054 4.35396 4.36262C4.62788 3.30806 5.01461 2.47131 5.5798 1.9002C6.12881 1.34543 6.88702 1 8.00497 1C9.16473 1 9.94826 1.37127 10.5123 1.98678C10.1924 2.40685 10.0024 2.93125 10.0024 3.5C10.0024 3.62136 10.0111 3.7407 10.0278 3.85744L11.3776 2.50766C11.419 2.46079 11.4632 2.41652 11.5101 2.37514L12.8599 1.02536C12.7431 1.00865 12.6238 1 12.5024 1C12.052 1 11.6294 1.11912 11.2644 1.32758C10.504 0.489063 9.44644 8.42937e-07 8.00497 0Z" fill="#1D2126"/>
<path d="M15.1893 0.110123L0.945839 14.3536C0.93287 14.3666 0.919365 14.3787 0.905397 14.3899L0.148888 15.1464C-0.0463741 15.3417 -0.0463742 15.6583 0.148888 15.8536C0.34415 16.0488 0.660733 16.0488 0.855995 15.8536L3.08135 13.6282C3.08133 13.6282 3.08137 13.6282 3.08135 13.6282L3.85613 12.8535C3.85615 12.8535 3.85611 12.8535 3.85613 12.8535L11.1237 5.5858C11.1237 5.58579 11.1238 5.58581 11.1237 5.5858L11.8558 4.85384C11.8558 4.85385 11.8558 4.85383 11.8558 4.85384L13.8563 2.85329C13.8562 2.85328 13.8563 2.85331 13.8563 2.85329L14.5883 2.12135C14.5883 2.12137 14.5883 2.12134 14.5883 2.12135L15.856 0.853554C16.0513 0.658292 16.0513 0.341709 15.856 0.146447C15.6737 -0.0358464 15.3857 -0.0479537 15.1893 0.110123Z" fill="#1D2126"/>
<path fill-rule="evenodd" clip-rule="evenodd" d="M14.9776 3.14623L11.9757 6.14814C12.0419 6.53596 12.1212 6.94536 12.2301 7.35608C12.3908 7.96218 12.7412 8.55327 13.0627 9.04574C13.1772 9.22112 13.2852 9.3804 13.3839 9.52612C13.5842 9.82165 13.7468 10.0615 13.8494 10.2668C14.0558 10.6796 14.049 11.057 13.8555 11.4199C13.6484 11.8081 13.2 12.2275 12.4269 12.6141C11.5182 13.0671 10.1541 13.3379 7.84857 13.3379C6.77042 13.3379 5.8071 13.2706 4.99352 13.1303L4.14777 13.9761C4.52602 14.0685 4.93257 14.1412 5.36206 14.1964C5.49384 14.7317 5.81265 15.1505 6.229 15.442C6.75345 15.8091 7.41789 15.9677 8.05099 15.958C8.68389 15.9483 9.33919 15.7695 9.84674 15.3974C10.2501 15.1017 10.5568 14.6834 10.6672 14.1577C11.563 14.0207 12.2796 13.805 12.8735 13.5089C13.7466 13.0723 14.3961 12.5311 14.7378 11.8905C15.093 11.2244 15.0862 10.5043 14.7439 9.81955C14.6106 9.55311 14.3864 9.22196 14.1634 8.89264C14.0734 8.75973 13.9836 8.62701 13.9001 8.49908C13.5843 8.01541 13.3132 7.53915 13.1967 7.09984C13.0959 6.71953 13.0222 6.33709 12.9579 5.95862C14.1211 5.74452 15.0024 4.72518 15.0024 3.5C15.0024 3.37991 14.994 3.2618 14.9776 3.14623ZM6.80253 14.6228C6.67455 14.5332 6.56561 14.4263 6.48192 14.2995C6.92238 14.3258 7.37946 14.3379 7.84857 14.3379C8.47102 14.3379 9.03714 14.319 9.55383 14.2808C9.47816 14.3988 9.37726 14.5016 9.25546 14.591C8.94836 14.8161 8.50648 14.9509 8.03561 14.9581C7.56495 14.9653 7.11904 14.8444 6.80253 14.6228Z" fill="#1D2126"/>
</svg>
