<svg width="15" height="16" viewBox="0 0 15 16" fill="none" xmlns="http://www.w3.org/2000/svg">
<path fill-rule="evenodd" clip-rule="evenodd" d="M3.86954 1.19679C4.62867 0.429709 5.65397 0 7.0055 0C8.44634 0 9.50358 0.488636 10.2639 1.32648C10.6285 1.1187 11.0504 1 11.5 1C12.8808 1 14 2.11929 14 3.5C14 4.72226 13.1229 5.73965 11.9638 5.95707C12.0266 6.33877 12.0978 6.72477 12.1973 7.09981C12.3137 7.53912 12.5848 8.01541 12.9006 8.49908C12.9841 8.62705 13.074 8.7597 13.164 8.89264C13.387 9.22196 13.6112 9.55311 13.7444 9.81955C14.0868 10.5043 14.0936 11.2244 13.7384 11.8905C13.3967 12.5311 12.7476 13.0721 11.8745 13.5086C11.2806 13.8048 10.5635 14.0207 9.66773 14.1577C9.55733 14.6834 9.25061 15.1017 8.84727 15.3974C8.33972 15.7695 7.68442 15.9482 7.05152 15.958C6.41842 15.9677 5.75399 15.8091 5.22953 15.4419C4.81319 15.1504 4.49438 14.7317 4.3626 14.1964C3.37249 14.0691 2.50425 13.8489 1.82373 13.5086C0.90155 13.0475 0.365567 12.4147 0.13536 11.7263C-0.0910521 11.0492 -0.00269856 10.3749 0.216472 9.85118C0.309019 9.62725 0.452112 9.39491 0.598337 9.17551C0.6866 9.04308 0.788446 8.89744 0.889925 8.75233C0.95435 8.66021 1.01863 8.5683 1.07919 8.48011C1.41328 7.99359 1.69699 7.52984 1.81098 7.09984C1.94794 6.58331 2.03589 6.06149 2.11749 5.55166C2.12466 5.50683 2.1318 5.46196 2.13895 5.41708C2.21129 4.96267 2.28357 4.50869 2.3865 4.11166C2.68056 2.97947 3.12663 1.9475 3.86954 1.19679ZM5.48246 14.2995C5.56615 14.4263 5.67509 14.5332 5.80307 14.6228C6.11957 14.8444 6.56548 14.9653 7.03615 14.9581C7.50701 14.9509 7.9489 14.8161 8.25599 14.5909C8.37779 14.5016 8.47868 14.3987 8.55435 14.2808C8.03767 14.319 7.47155 14.3379 6.8491 14.3379C6.38 14.3379 5.92292 14.3258 5.48246 14.2995ZM10.9477 5.93878C9.83276 5.68734 9.00004 4.69091 9.00004 3.5C9.00004 2.93046 9.1905 2.4054 9.51119 1.98503C8.94732 1.37057 8.16417 1 7.0055 1C5.88756 1 5.12934 1.34543 4.58033 1.9002C4.01515 2.47131 3.62841 3.30806 3.3545 4.36262C3.2643 4.71054 3.19959 5.11622 3.12498 5.58407C3.11838 5.62546 3.1117 5.66734 3.10492 5.70971C3.02326 6.2199 2.92873 6.78604 2.77759 7.35608M10.9477 5.93878C11.019 6.385 11.1037 6.87724 11.2307 7.35608C11.3913 7.96218 11.7417 8.55328 12.0632 9.04574C12.1778 9.22116 12.2857 9.38046 12.3845 9.5262C12.5848 9.82175 12.7473 10.0615 12.85 10.2668C13.0564 10.6796 13.0496 11.057 12.856 11.4199C12.6489 11.8081 12.2005 12.2275 11.4274 12.6141C10.5187 13.0671 9.1546 13.3379 6.8491 13.3379C4.85827 13.3379 3.25899 13.1082 2.27094 12.6142C1.54681 12.2521 1.2171 11.808 1.08374 11.4092C0.946776 10.9995 0.996663 10.5768 1.1393 10.2364L1.14038 10.2338C1.19327 10.1056 1.28999 9.94087 1.43046 9.73009C1.51487 9.60345 1.60298 9.47756 1.69754 9.34248C1.76283 9.2492 1.8312 9.15153 1.90354 9.04619C2.23551 8.56275 2.61445 7.97148 2.77759 7.35608M11.5 2C10.6716 2 10 2.67157 10 3.5C10 4.32843 10.6716 5 11.5 5C12.3285 5 13 4.32843 13 3.5C13 2.67157 12.3285 2 11.5 2Z" fill="#1D2126"/>
</svg>
