<svg width="14" height="16" viewBox="0 0 14 16" fill="none" xmlns="http://www.w3.org/2000/svg">
<path fill-rule="evenodd" clip-rule="evenodd" d="M11.0029 1.75C10.3126 1.75 9.75293 2.30964 9.75293 3C9.75293 3.69036 10.3126 4.25 11.0029 4.25C11.6933 4.25 12.2529 3.69036 12.2529 3C12.2529 2.30964 11.6933 1.75 11.0029 1.75ZM8.25293 3C8.25293 1.48122 9.48415 0.25 11.0029 0.25C12.5217 0.25 13.7529 1.48122 13.7529 3C13.7529 4.51878 12.5217 5.75 11.0029 5.75C10.2213 5.75 9.51588 5.42392 9.0152 4.90039L5.68842 7.40513C5.73066 7.59669 5.75293 7.79574 5.75293 8C5.75293 8.1964 5.73234 8.38799 5.69321 8.57273L9.02958 11.0847C9.52933 10.5699 10.2288 10.25 11.0029 10.25C12.5217 10.25 13.7529 11.4812 13.7529 13C13.7529 14.5188 12.5217 15.75 11.0029 15.75C9.48415 15.75 8.25293 14.5188 8.25293 13C8.25293 12.8022 8.27382 12.6092 8.31352 12.4232L4.97894 9.91257C4.479 10.429 3.77846 10.75 3.00293 10.75C1.48415 10.75 0.25293 9.51878 0.25293 8C0.25293 6.48122 1.48415 5.25 3.00293 5.25C3.771 5.25 4.46552 5.56488 4.96446 6.07259L8.30887 3.55457C8.27219 3.37544 8.25293 3.18997 8.25293 3ZM3.00293 6.75C2.31257 6.75 1.75293 7.30964 1.75293 8C1.75293 8.69036 2.31257 9.25 3.00293 9.25C3.69329 9.25 4.25293 8.69036 4.25293 8C4.25293 7.30964 3.69329 6.75 3.00293 6.75ZM11.0029 11.75C10.3126 11.75 9.75293 12.3096 9.75293 13C9.75293 13.6904 10.3126 14.25 11.0029 14.25C11.6933 14.25 12.2529 13.6904 12.2529 13C12.2529 12.3096 11.6933 11.75 11.0029 11.75Z" fill="black"/>
</svg>
