<svg width="16" height="13" viewBox="0 0 16 13" fill="none" xmlns="http://www.w3.org/2000/svg">
<path d="M10.5794 2.18093C9.75334 1.92352 8.89205 1.80005 8 1.80005C5.51996 1.80005 3.27766 2.75441 1.37003 4.88795C1.25314 5.01295 1.08693 5.16895 0.905762 5.33883L0.898747 5.3454C0.727662 5.50581 0.539469 5.68227 0.408043 5.82626C0.252585 5.99658 0.145138 6.16631 0.0796282 6.34151C0.0132475 6.51904 0 6.67558 0 6.80005C0 6.92452 0.0132475 7.08106 0.0796285 7.25859C0.145139 7.43379 0.252586 7.60352 0.408043 7.77384C0.539465 7.91783 0.727651 8.09427 0.898732 8.25468L0.905761 8.26127C1.08693 8.43115 1.25314 8.58715 1.37003 8.71216C1.81264 9.20718 2.27326 9.63872 2.75069 10.0096L3.46395 9.29634C2.99787 8.94541 2.54705 8.52873 2.11212 8.04184L2.10503 8.03406C1.96352 7.88221 1.77366 7.70421 1.60317 7.54436L1.58976 7.53178C1.40587 7.35937 1.24762 7.21033 1.14664 7.0997C1.0602 7.00499 1.02898 6.94229 1.01629 6.90836C1.00448 6.87676 1 6.84746 1 6.80005C1 6.75264 1.00448 6.72334 1.01629 6.69174C1.02898 6.6578 1.0602 6.59511 1.14664 6.5004C1.24762 6.38977 1.40587 6.24073 1.58976 6.06831L1.60319 6.05572C1.77367 5.89588 1.96353 5.71788 2.10503 5.56604L2.11212 5.55826C3.83761 3.62663 5.81317 2.80005 8 2.80005C8.60468 2.80005 9.1932 2.86325 9.76476 2.99553L10.5794 2.18093Z" fill="black"/>
<path d="M8.67768 4.08261C8.46068 4.02868 8.23368 4.00005 8 4.00005C6.4536 4.00005 5.2 5.25365 5.2 6.80005C5.2 7.03373 5.22863 7.26073 5.28257 7.47772L6.21837 6.54192C6.33146 5.75439 6.95435 5.13151 7.74187 5.01842L8.67768 4.08261Z" fill="black"/>
<path d="M9.7399 7.26303L10.7471 6.25579C10.7818 6.43185 10.8 6.61382 10.8 6.80005C10.8 8.34645 9.5464 9.60005 8 9.60005C7.81378 9.60005 7.6318 9.58187 7.45574 9.54719L8.46298 8.53995C9.08501 8.37486 9.57481 7.88506 9.7399 7.26303Z" fill="black"/>
<path d="M6.36878 10.6342C6.89835 10.7463 7.4423 10.8 8 10.8C10.1868 10.8 12.1624 9.97347 13.8879 8.04184L13.8949 8.03399C14.0364 7.88215 14.2263 7.70424 14.3968 7.5444L14.4102 7.53178C14.5941 7.35937 14.7524 7.21033 14.8534 7.0997C14.9457 6.9985 14.9748 6.94013 14.9853 6.91265C14.9943 6.88927 15 6.86366 15 6.80005C15 6.73644 14.9943 6.71083 14.9853 6.68745C14.9748 6.65997 14.9457 6.6016 14.8534 6.5004C14.7524 6.38977 14.5941 6.24073 14.4102 6.06831L14.3968 6.05573C14.2263 5.89589 14.0365 5.71786 13.895 5.56604L13.8878 5.55833C13.4817 5.10372 13.0618 4.71023 12.6285 4.37441L13.3406 3.66233C13.7855 4.01678 14.2156 4.42455 14.63 4.88796C14.7469 5.01296 14.9131 5.16896 15.0942 5.33883L15.1012 5.34539C15.2723 5.50581 15.4605 5.68226 15.592 5.82626C15.7415 5.99009 15.8511 6.15267 15.9187 6.3286C15.9879 6.50862 16 6.66886 16 6.80005C16 6.93124 15.9879 7.09148 15.9187 7.2715C15.8511 7.44743 15.7415 7.61001 15.592 7.77384C15.4605 7.91783 15.2723 8.09428 15.1013 8.25469L15.0942 8.26127C14.9131 8.43114 14.7469 8.58714 14.63 8.71214C12.7224 10.8457 10.48 11.8 8 11.8C7.15293 11.8 6.33359 11.6887 5.54585 11.4571L6.36878 10.6342Z" fill="black"/>
<path fill-rule="evenodd" clip-rule="evenodd" d="M14.1494 0.646447C14.3446 0.841709 14.3446 1.15829 14.1494 1.35355L2.85648 12.6464C2.66122 12.8417 2.34464 12.8417 2.14938 12.6464C1.95411 12.4512 1.95411 12.1346 2.14938 11.9393L13.4423 0.646447C13.6375 0.451184 13.9541 0.451184 14.1494 0.646447Z" fill="black"/>
</svg>
