<svg width="16" height="11" viewBox="0 0 16 11" fill="none" xmlns="http://www.w3.org/2000/svg">
<path fill-rule="evenodd" clip-rule="evenodd" d="M8 1.80005C5.81317 1.80005 3.83761 2.62663 2.11212 4.55826L2.10511 4.56611L2.10503 4.56604C1.96353 4.71788 1.77368 4.89588 1.60319 5.05572L1.58976 5.06831C1.40587 5.24073 1.24762 5.38977 1.14664 5.5004C1.0602 5.59511 1.02898 5.6578 1.01629 5.69174C1.00448 5.72334 1 5.75264 1 5.80005C1 5.84746 1.00448 5.87676 1.01629 5.90836C1.02898 5.94229 1.0602 6.00499 1.14664 6.0997C1.24762 6.21033 1.40587 6.35937 1.58976 6.53178L1.60317 6.54436C1.77366 6.70421 1.96352 6.88221 2.10503 7.03406L2.1122 7.04176L2.11212 7.04184C3.83761 8.97347 5.81317 9.80005 8 9.80005C10.1868 9.80005 12.1624 8.97347 13.8879 7.04184L13.8949 7.03399L13.895 7.03406C14.0365 6.88223 14.2263 6.70424 14.3968 6.5444L14.4102 6.53178C14.5941 6.35937 14.7524 6.21033 14.8534 6.0997C14.9457 5.9985 14.9748 5.94013 14.9853 5.91265C14.9943 5.88927 15 5.86366 15 5.80005C15 5.73644 14.9943 5.71083 14.9853 5.68745C14.9748 5.65997 14.9457 5.6016 14.8534 5.5004C14.7524 5.38977 14.5941 5.24073 14.4102 5.06831L14.3968 5.05573C14.2263 4.89588 14.0365 4.71788 13.895 4.56604L13.8878 4.55833L13.8879 4.55826C12.1624 2.62663 10.1868 1.80005 8 1.80005ZM1.37003 3.88795C3.27766 1.75441 5.51996 0.800049 8 0.800049C10.48 0.800049 12.7224 1.75442 14.63 3.88796C14.7469 4.01296 14.9131 4.16896 15.0942 4.33883L15.1012 4.34539C15.2723 4.50581 15.4605 4.68226 15.592 4.82626C15.7415 4.99009 15.8511 5.15267 15.9187 5.3286C15.9879 5.50862 16 5.66886 16 5.80005C16 5.93124 15.9879 6.09148 15.9187 6.2715C15.8511 6.44743 15.7415 6.61001 15.592 6.77384C15.4605 6.91783 15.2723 7.09428 15.1013 7.25469L15.0942 7.26127C14.9131 7.43114 14.7469 7.58714 14.63 7.71214C12.7224 9.84568 10.48 10.8 8 10.8C5.51997 10.8 3.27766 9.84569 1.37003 7.71216C1.25314 7.58715 1.08693 7.43115 0.905761 7.26127L0.898749 7.2547C0.727664 7.09428 0.53947 6.91783 0.408043 6.77384C0.252586 6.60352 0.145139 6.43379 0.0796285 6.25859C0.0132475 6.08106 0 5.92452 0 5.80005C0 5.67558 0.0132475 5.51904 0.0796282 5.34151C0.145138 5.16631 0.252585 4.99658 0.408043 4.82626C0.539469 4.68227 0.727662 4.50581 0.898747 4.3454L0.905762 4.33883C1.08693 4.16896 1.25314 4.01295 1.37003 3.88795ZM8 4.00005C7.00589 4.00005 6.2 4.80594 6.2 5.80005C6.2 6.79416 7.00589 7.60005 8 7.60005C8.99411 7.60005 9.8 6.79416 9.8 5.80005C9.8 4.80594 8.99411 4.00005 8 4.00005ZM5.2 5.80005C5.2 4.25365 6.4536 3.00005 8 3.00005C9.5464 3.00005 10.8 4.25365 10.8 5.80005C10.8 7.34645 9.5464 8.60005 8 8.60005C6.4536 8.60005 5.2 7.34645 5.2 5.80005Z" fill="black"/>
</svg>
