<svg width="25" height="22" viewBox="0 0 25 22" fill="none" xmlns="http://www.w3.org/2000/svg">
<path d="M3.44298 16.9667L3.831 17.282L3.83394 17.2784L3.44298 16.9667ZM13 13.6313L13.0703 13.1363L13 13.6313ZM13 19.4234L13.0407 19.9217L13 19.4234ZM13.5 19.3762L13.5535 19.8733C13.5591 19.8727 13.5648 19.872 13.5704 19.8712L13.5 19.3762ZM13.8218 14.2918C14.0905 14.3551 14.3598 14.1886 14.4232 13.9199C14.4866 13.6511 14.3201 13.3818 14.0513 13.3185L13.8218 14.2918ZM20.9405 11.9163C20.916 12.1913 21.1192 12.4342 21.3942 12.4586C21.6693 12.4831 21.9121 12.2799 21.9366 12.0049L20.9405 11.9163ZM14.0531 19.8025C14.3265 19.7637 14.5166 19.5105 14.4777 19.2371C14.4389 18.9637 14.1857 18.7736 13.9123 18.8125L14.0531 19.8025ZM14.7529 20.3707L14.4132 20.7375L14.7529 20.3707ZM22.2664 20.4032L22.6045 20.7715L22.2664 20.4032ZM16.8536 14.1464C16.6583 13.9512 16.3417 13.9512 16.1464 14.1464C15.9512 14.3417 15.9512 14.6583 16.1464 14.8536L16.8536 14.1464ZM20.1464 18.8536C20.3417 19.0488 20.6583 19.0488 20.8536 18.8536C21.0488 18.6583 21.0488 18.3417 20.8536 18.1464L20.1464 18.8536ZM16.1464 18.1464C15.9512 18.3417 15.9512 18.6583 16.1464 18.8536C16.3417 19.0488 16.6583 19.0488 16.8536 18.8536L16.1464 18.1464ZM20.8536 14.8536C21.0488 14.6583 21.0488 14.3417 20.8536 14.1464C20.6583 13.9512 20.3417 13.9512 20.1464 14.1464L20.8536 14.8536ZM13.6529 7.36111C13.6529 8.46312 12.553 9.5 11.0029 9.5V10.5C12.9322 10.5 14.6529 9.17394 14.6529 7.36111H13.6529ZM11.0029 9.5C9.4528 9.5 8.35293 8.46312 8.35293 7.36111H7.35293C7.35293 9.17393 9.07366 10.5 11.0029 10.5V9.5ZM8.35293 7.36111C8.35293 6.2591 9.4528 5.22222 11.0029 5.22222V4.22222C9.07366 4.22222 7.35293 5.54828 7.35293 7.36111H8.35293ZM11.0029 5.22222C12.5531 5.22222 13.6529 6.2591 13.6529 7.36111H14.6529C14.6529 5.54828 12.9322 4.22222 11.0029 4.22222V5.22222ZM3.83394 17.2784C4.48606 16.4604 5.17112 15.6581 6.23129 15.0477C7.28701 14.4399 8.75672 14 10.9988 14V13C8.62087 13 6.97058 13.4682 5.73234 14.1811C4.49854 14.8914 3.71569 15.8225 3.05202 16.655L3.83394 17.2784ZM1.00293 10.5027C1.00293 6.97371 1.65049 4.64868 3.16372 3.18502C4.68243 1.71605 7.19034 1 11.2093 1V0C7.12152 0 4.27627 0.717665 2.46848 2.46624C0.655204 4.22012 0.00292969 6.89646 0.00292969 10.5027H1.00293ZM11.2093 1C15.2306 1 17.6246 1.71817 19.0371 3.17521C20.4523 4.63507 21.0029 6.95899 21.0029 10.5027H22.0029C22.0029 6.91532 21.46 4.23787 19.7551 2.47916C18.0474 0.717618 15.2946 0 11.2093 0V1ZM10.9988 19C7.58291 19 5.08351 18.3405 3.44904 16.971L2.80681 17.7375C4.70476 19.3277 7.48669 20 10.9988 20V19ZM3.44904 16.971C1.86387 15.6429 1.00293 13.5697 1.00293 10.5027H0.00292969C0.00292969 13.759 0.924243 16.1602 2.80681 17.7375L3.44904 16.971ZM3.05498 16.6513L2.73993 17.0389L3.51593 17.6696L3.83098 17.282L3.05498 16.6513ZM10.9988 14C11.7187 14 12.3583 14.0452 12.9297 14.1263L13.0703 13.1363C12.4473 13.0478 11.7603 13 10.9988 13V14ZM12.9593 18.925C12.3421 18.9755 11.6887 19 10.9988 19V20C11.7121 20 12.393 19.9746 13.0407 19.9217L12.9593 18.925ZM13.4465 18.8791C13.2867 18.8962 13.1243 18.9116 12.9593 18.925L13.0407 19.9217C13.214 19.9076 13.3849 19.8915 13.5535 19.8733L13.4465 18.8791ZM12.9297 14.1263C13.2442 14.171 13.5489 14.2274 13.8218 14.2918L14.0513 13.3185C13.7452 13.2463 13.4105 13.1846 13.0703 13.1363L12.9297 14.1263ZM21.0029 10.5027C21.0029 10.9753 20.9786 11.4877 20.9405 11.9163L21.9366 12.0049C21.9772 11.5477 22.0029 11.0057 22.0029 10.5027H21.0029ZM13.5704 19.8712L14.0531 19.8025L13.9123 18.8125L13.4296 18.8812L13.5704 19.8712ZM14.0029 16.7646C14.0029 14.9163 14.3134 13.7671 14.9696 13.0656C15.6179 12.3725 16.7155 12 18.6012 12V11C16.6266 11 15.1751 11.382 14.2393 12.3825C13.3114 13.3744 13.0029 14.8575 13.0029 16.7646H14.0029ZM18.6012 12C20.4887 12 21.5267 12.3738 22.1238 13.0545C22.7368 13.7535 23.0029 14.9026 23.0029 16.7646H24.0029C24.0029 14.8734 23.7483 13.3902 22.8756 12.3951C21.9868 11.3819 20.574 11 18.6012 11V12ZM18.501 21C16.9091 21 15.8011 20.6599 15.0927 20.0038L14.4132 20.7375C15.3869 21.6392 16.7938 22 18.501 22V21ZM15.0927 20.0038C14.4058 19.3678 14.0029 18.3487 14.0029 16.7646H13.0029C13.0029 18.5085 13.4487 19.8444 14.4132 20.7375L15.0927 20.0038ZM23.0029 16.7646C23.0029 18.3989 22.6053 19.4132 21.9282 20.0349L22.6045 20.7715C23.5688 19.8861 24.0029 18.5459 24.0029 16.7646H23.0029ZM21.9282 20.0349C21.2269 20.6789 20.1208 21 18.501 21V22C20.2188 22 21.6309 21.6656 22.6045 20.7715L21.9282 20.0349ZM16.1464 14.8536L18.1464 16.8536L18.8536 16.1464L16.8536 14.1464L16.1464 14.8536ZM18.1464 16.8536L20.1464 18.8536L20.8536 18.1464L18.8536 16.1464L18.1464 16.8536ZM16.8536 18.8536L18.8536 16.8536L18.1464 16.1464L16.1464 18.1464L16.8536 18.8536ZM18.8536 16.8536L20.8536 14.8536L20.1464 14.1464L18.1464 16.1464L18.8536 16.8536Z" fill="black"/>
</svg>
