<svg width="24" height="23" viewBox="0 0 24 23" fill="none" xmlns="http://www.w3.org/2000/svg">
<path fill-rule="evenodd" clip-rule="evenodd" d="M6.00293 2C6.00293 0.895431 6.89836 0 8.00293 0C9.1075 0 10.0029 0.895431 10.0029 2H11.5029C11.7791 2 12.0029 2.22386 12.0029 2.5V3H14.5029C15.3314 3 16.0029 3.67157 16.0029 4.5V10.253C17.0944 9.64761 18.7511 10.1287 18.9442 11.6962C19.0188 12.3015 19.6742 12.6889 20.2711 12.4389C21.3254 11.9974 22.2834 12.4923 22.727 13.2465C23.1719 14.0031 23.1308 15.0781 22.2059 15.7597C21.7015 16.1315 21.7015 16.8685 22.2059 17.2403C23.1308 17.9219 23.1719 18.9969 22.727 19.7535C22.2834 20.5077 21.3254 21.0026 20.2711 20.5611C19.6742 20.3111 19.0188 20.6985 18.9442 21.3038C18.6656 23.5654 15.3403 23.5654 15.0616 21.3038C14.987 20.6985 14.3316 20.3111 13.7348 20.5611C12.8005 20.9523 11.9419 20.6082 11.4498 20H1.50293C0.674502 20 0.00292969 19.3284 0.00292969 18.5V4.5C0.00292969 3.67157 0.674503 3 1.50293 3H4.00293V2.5C4.00293 2.22386 4.22679 2 4.50293 2H6.00293ZM4.00293 4H1.50293C1.22679 4 1.00293 4.22386 1.00293 4.5V18.5C1.00293 18.7761 1.22679 19 1.50293 19H11.0197C10.9395 18.3831 11.1546 17.7159 11.7999 17.2403C12.3044 16.8685 12.3044 16.1315 11.7999 15.7597C10.8751 15.0781 10.834 14.0031 11.2789 13.2465C11.7225 12.4923 12.6805 11.9974 13.7348 12.4389C14.2526 12.6558 14.8145 12.3929 15.0029 11.9242V4.5C15.0029 4.22386 14.7791 4 14.5029 4H12.0029V5.5C12.0029 5.77614 11.7791 6 11.5029 6H4.50293C4.22679 6 4.00293 5.77614 4.00293 5.5V4ZM11.0029 3H9.50293C9.22679 3 9.00293 2.77614 9.00293 2.5V2C9.00293 1.44772 8.55521 1 8.00293 1C7.45064 1 7.00293 1.44772 7.00293 2V2.5C7.00293 2.77614 6.77907 3 6.50293 3H5.00293V5H11.0029V3ZM3.00293 9.5C3.00293 9.22386 3.22679 9 3.50293 9H12.5029C12.7791 9 13.0029 9.22386 13.0029 9.5C13.0029 9.77614 12.7791 10 12.5029 10H3.50293C3.22679 10 3.00293 9.77614 3.00293 9.5ZM17.9517 11.8185C17.8173 10.7272 16.1886 10.7272 16.0541 11.8185C15.8958 13.1036 14.5357 13.8585 13.3485 13.3613C12.8205 13.1402 12.3682 13.3669 12.1409 13.7535C11.9149 14.1377 11.9424 14.6225 12.3932 14.9547C13.44 15.7262 13.44 17.2738 12.3932 18.0453C11.9424 18.3775 11.9149 18.8623 12.1409 19.2465C12.3682 19.6331 12.8205 19.8598 13.3485 19.6387C14.5357 19.1415 15.8958 19.8964 16.0541 21.1815C16.1886 22.2728 17.8173 22.2728 17.9517 21.1815C18.1101 19.8964 19.4701 19.1415 20.6574 19.6387C21.1853 19.8598 21.6377 19.6331 21.865 19.2465C22.091 18.8623 22.0635 18.3775 21.6127 18.0453C20.5659 17.2738 20.5659 15.7262 21.6127 14.9547C22.0635 14.6225 22.091 14.1377 21.865 13.7535C21.6377 13.3669 21.1853 13.1402 20.6574 13.3613C19.4701 13.8585 18.1101 13.1036 17.9517 11.8185ZM3.00293 12.5C3.00293 12.2239 3.22679 12 3.50293 12H10.5029C10.7791 12 11.0029 12.2239 11.0029 12.5C11.0029 12.7761 10.7791 13 10.5029 13H3.50293C3.22679 13 3.00293 12.7761 3.00293 12.5ZM3.00293 15.5C3.00293 15.2239 3.22679 15 3.50293 15H8.50293C8.77907 15 9.00293 15.2239 9.00293 15.5C9.00293 15.7761 8.77907 16 8.50293 16H3.50293C3.22679 16 3.00293 15.7761 3.00293 15.5ZM17.0029 16C16.7268 16 16.5029 16.2239 16.5029 16.5C16.5029 16.7761 16.7268 17 17.0029 17C17.2791 17 17.5029 16.7761 17.5029 16.5C17.5029 16.2239 17.2791 16 17.0029 16ZM15.5029 16.5C15.5029 15.6716 16.1745 15 17.0029 15C17.8314 15 18.5029 15.6716 18.5029 16.5C18.5029 17.3284 17.8314 18 17.0029 18C16.1745 18 15.5029 17.3284 15.5029 16.5Z" fill="black"/>
</svg>
