<svg width="24" height="22" viewBox="0 0 24 22" fill="none" xmlns="http://www.w3.org/2000/svg">
<path fill-rule="evenodd" clip-rule="evenodd" d="M0.00292969 1.5C0.00292969 0.671573 0.674503 0 1.50293 0H16.5029C17.3314 0 18.0029 0.671573 18.0029 1.5V4.5C18.0029 4.77614 17.7791 5 17.5029 5C17.2268 5 17.0029 4.77614 17.0029 4.5V1.5C17.0029 1.22386 16.7791 1 16.5029 1H1.50293C1.22679 1 1.00293 1.22386 1.00293 1.5V20.5C1.00293 20.7761 1.22679 21 1.50293 21H16.5029C16.7791 21 17.0029 20.7761 17.0029 20.5V16.5C17.0029 16.2239 17.2268 16 17.5029 16C17.7791 16 18.0029 16.2239 18.0029 16.5V20.5C18.0029 21.3284 17.3314 22 16.5029 22H1.50293C0.674502 22 0.00292969 21.3284 0.00292969 20.5V1.5ZM19.1494 7.14645C19.3446 6.95118 19.6612 6.95118 19.8565 7.14645L22.8565 10.1464C23.0517 10.3417 23.0517 10.6583 22.8565 10.8536L19.8565 13.8536C19.6612 14.0488 19.3446 14.0488 19.1494 13.8536C18.9541 13.6583 18.9541 13.3417 19.1494 13.1464L21.2958 11H9.50293C9.22679 11 9.00293 10.7761 9.00293 10.5C9.00293 10.2239 9.22679 10 9.50293 10H21.2958L19.1494 7.85355C18.9541 7.65829 18.9541 7.34171 19.1494 7.14645Z" fill="black"/>
</svg>
