<svg width="25" height="16" viewBox="0 0 25 16" fill="none" xmlns="http://www.w3.org/2000/svg">
<path fill-rule="evenodd" clip-rule="evenodd" d="M21.1494 2.14645C21.3446 1.95118 21.6612 1.95118 21.8565 2.14645L23.8565 4.14645C24.0517 4.34171 24.0517 4.65829 23.8565 4.85355L21.8565 6.85355C21.6612 7.04882 21.3446 7.04882 21.1494 6.85355C20.9541 6.65829 20.9541 6.34171 21.1494 6.14645L22.2958 5H18.5029C18.2268 5 18.0029 4.77614 18.0029 4.5C18.0029 4.22386 18.2268 4 18.5029 4H22.2958L21.1494 2.85355C20.9541 2.65829 20.9541 2.34171 21.1494 2.14645Z" fill="black"/>
<path fill-rule="evenodd" clip-rule="evenodd" d="M0.00292969 1.5C0.00292969 0.671573 0.674503 0 1.50293 0H15.5029C16.3314 0 17.0029 0.671573 17.0029 1.5V5.5C17.0029 5.77614 16.7791 6 16.5029 6C16.2268 6 16.0029 5.77614 16.0029 5.5V1.5C16.0029 1.22386 15.7791 1 15.5029 1H1.50293C1.22679 1 1.00293 1.22386 1.00293 1.5V11.5C1.00293 11.7761 1.22679 12 1.50293 12H12.5029C12.7791 12 13.0029 12.2239 13.0029 12.5C13.0029 12.7761 12.7791 13 12.5029 13H11.0029V15H12.5029C12.7791 15 13.0029 15.2239 13.0029 15.5C13.0029 15.7761 12.7791 16 12.5029 16H5.50293C5.22679 16 5.00293 15.7761 5.00293 15.5C5.00293 15.2239 5.22679 15 5.50293 15H7.00293V13H1.50293C0.674503 13 0.00292969 12.3284 0.00292969 11.5V1.5ZM8.00293 13V15H10.0029V13H8.00293ZM14.0029 8.5C14.0029 7.67157 14.6745 7 15.5029 7H18.5029C19.3314 7 20.0029 7.67157 20.0029 8.5V14.5C20.0029 15.3284 19.3314 16 18.5029 16H15.5029C14.6745 16 14.0029 15.3284 14.0029 14.5V8.5ZM15.5029 8C15.2268 8 15.0029 8.22386 15.0029 8.5V14.5C15.0029 14.7761 15.2268 15 15.5029 15H18.5029C18.7791 15 19.0029 14.7761 19.0029 14.5V8.5C19.0029 8.22386 18.7791 8 18.5029 8H15.5029ZM2.00293 10.5C2.00293 10.2239 2.22679 10 2.50293 10H12.5029C12.7791 10 13.0029 10.2239 13.0029 10.5C13.0029 10.7761 12.7791 11 12.5029 11H2.50293C2.22679 11 2.00293 10.7761 2.00293 10.5ZM16.0029 13.5C16.0029 13.2239 16.2268 13 16.5029 13H17.5029C17.7791 13 18.0029 13.2239 18.0029 13.5C18.0029 13.7761 17.7791 14 17.5029 14H16.5029C16.2268 14 16.0029 13.7761 16.0029 13.5Z" fill="black"/>
</svg>
