<svg width="25" height="19" viewBox="0 0 25 19" fill="none" xmlns="http://www.w3.org/2000/svg">
<path fill-rule="evenodd" clip-rule="evenodd" d="M12.003 3.6052C12.2026 3.43521 12.4837 3.20311 12.8283 2.93819C13.5413 2.38995 14.5346 1.69432 15.6437 1.11858C16.7467 0.545967 18.0002 0.0728095 19.226 0.00767526C20.4726 -0.0585636 21.6995 0.299558 22.6687 1.38938C24.2331 3.14816 24.2818 5.16847 23.5324 7.11862C22.7942 9.03976 21.2728 10.936 19.617 12.5914C17.9536 14.2546 16.1166 15.7118 14.6998 16.7511C13.9905 17.2714 13.3842 17.6886 12.9546 17.9761C12.7398 18.1198 12.5691 18.2313 12.4515 18.3071C12.3928 18.345 12.3473 18.3739 12.3163 18.3936L12.2807 18.4161L12.2714 18.4219L12.2688 18.4235C12.2688 18.4235 12.2677 18.4242 12.003 18C11.7384 18.4242 11.738 18.424 11.738 18.424L11.7347 18.4219L11.7253 18.4161L11.6898 18.3936C11.6588 18.3739 11.6133 18.345 11.5546 18.3071C11.437 18.2313 11.2663 18.1198 11.0514 17.9761C10.6219 17.6886 10.0156 17.2714 9.30627 16.7511C7.8895 15.7118 6.05248 14.2546 4.38906 12.5914C2.73332 10.936 1.21186 9.03976 0.473675 7.11862C-0.275664 5.16847 -0.22706 3.14816 1.33742 1.38938M12.003 18L11.738 18.424L12.003 18.5894L12.2677 18.4242L12.003 18ZM12.003 17.4061C11.8986 17.3382 11.7655 17.2507 11.6076 17.145C11.188 16.8642 10.5938 16.4553 9.89773 15.9447C8.50372 14.9222 6.71051 13.4984 5.09611 11.8843C3.47403 10.2625 2.07008 8.48526 1.40714 6.75994C0.755348 5.06367 0.829875 3.46452 2.08463 2.05396C2.81546 1.23216 3.72511 0.953029 4.72702 1.00627C5.74971 1.06061 6.85667 1.46361 7.90167 2.00611C8.94064 2.54548 9.88281 3.20391 10.5683 3.73095C10.9101 3.99374 11.1858 4.22216 11.3754 4.3842C11.4701 4.46518 11.5432 4.52948 11.5921 4.57307C11.6166 4.59487 11.635 4.61148 11.647 4.6224L11.6602 4.63446L11.6631 4.63716L12.003 4.95142L12.3424 4.6377L12.3459 4.63446L12.3591 4.6224C12.3711 4.61148 12.3895 4.59487 12.414 4.57307C12.4629 4.52948 12.536 4.46518 12.6307 4.3842C12.8203 4.22216 13.096 3.99374 13.4378 3.73095C14.1233 3.20391 15.0654 2.54548 16.1044 2.00611C17.1494 1.46361 18.2564 1.06061 19.2791 1.00627C20.281 0.953029 21.1906 1.23211 21.9214 2.05391C23.1762 3.46447 23.2507 5.06367 22.599 6.75994C21.936 8.48526 20.5321 10.2625 18.91 11.8843C17.2956 13.4984 15.5024 14.9222 14.1084 15.9447C13.4123 16.4553 12.8181 16.8642 12.3984 17.145C12.2405 17.2507 12.1074 17.3382 12.003 17.4061ZM12.003 3.6052C11.9645 3.57238 11.923 3.53724 11.8785 3.5C11.6926 3.34436 11.4558 3.15196 11.1778 2.93819C10.4648 2.38995 9.47145 1.69432 8.36242 1.11858C7.25942 0.545967 6.00588 0.0728094 4.78008 0.00767526C3.53351 -0.0585625 2.30659 0.299598 1.33742 1.38938" fill="black"/>
</svg>
