<svg width="23" height="22" viewBox="0 0 23 22" fill="none" xmlns="http://www.w3.org/2000/svg">
<path fill-rule="evenodd" clip-rule="evenodd" d="M6.00293 2C6.00293 0.895431 6.89836 0 8.00293 0C9.1075 0 10.0029 0.895431 10.0029 2H11.5029C11.7791 2 12.0029 2.22386 12.0029 2.5V3H14.5029C15.3314 3 16.0029 3.67157 16.0029 4.5V11.0224C16.1676 11.0076 16.3344 11 16.5029 11C19.5405 11 22.0029 13.4624 22.0029 16.5C22.0029 19.5376 19.5405 22 16.5029 22C14.795 22 13.2689 21.2215 12.2601 20H1.50293C0.674502 20 0.00292969 19.3284 0.00292969 18.5V4.5C0.00292969 3.67157 0.674503 3 1.50293 3H4.00293V2.5C4.00293 2.22386 4.22679 2 4.50293 2H6.00293ZM4.00293 4H1.50293C1.22679 4 1.00293 4.22386 1.00293 4.5V18.5C1.00293 18.7761 1.22679 19 1.50293 19H11.6026C11.2192 18.2499 11.0029 17.4002 11.0029 16.5C11.0029 13.9824 12.6944 11.86 15.0029 11.207V4.5C15.0029 4.22386 14.7791 4 14.5029 4H12.0029V5.5C12.0029 5.77614 11.7791 6 11.5029 6H4.50293C4.22679 6 4.00293 5.77614 4.00293 5.5V4ZM11.0029 3H9.50293C9.22679 3 9.00293 2.77614 9.00293 2.5V2C9.00293 1.44772 8.55521 1 8.00293 1C7.45064 1 7.00293 1.44772 7.00293 2V2.5C7.00293 2.77614 6.77907 3 6.50293 3H5.00293V5H11.0029V3ZM3.00293 9.5C3.00293 9.22386 3.22679 9 3.50293 9H12.5029C12.7791 9 13.0029 9.22386 13.0029 9.5C13.0029 9.77614 12.7791 10 12.5029 10H3.50293C3.22679 10 3.00293 9.77614 3.00293 9.5ZM16.5029 12C14.0176 12 12.0029 14.0147 12.0029 16.5C12.0029 18.9853 14.0176 21 16.5029 21C18.9882 21 21.0029 18.9853 21.0029 16.5C21.0029 14.0147 18.9882 12 16.5029 12ZM3.00293 12.5C3.00293 12.2239 3.22679 12 3.50293 12H10.5029C10.7791 12 11.0029 12.2239 11.0029 12.5C11.0029 12.7761 10.7791 13 10.5029 13H3.50293C3.22679 13 3.00293 12.7761 3.00293 12.5ZM16.5029 13.9902C16.7791 13.9902 17.0029 14.2141 17.0029 14.4902V14.5002C17.0029 14.7764 16.7791 15.0002 16.5029 15.0002C16.2268 15.0002 16.0029 14.7764 16.0029 14.5002V14.4902C16.0029 14.2141 16.2268 13.9902 16.5029 13.9902ZM3.00293 15.5C3.00293 15.2239 3.22679 15 3.50293 15H8.50293C8.77907 15 9.00293 15.2239 9.00293 15.5C9.00293 15.7761 8.77907 16 8.50293 16H3.50293C3.22679 16 3.00293 15.7761 3.00293 15.5ZM16.5029 16.0002C16.7791 16.0002 17.0029 16.2241 17.0029 16.5002V18.5002C17.0029 18.7764 16.7791 19.0002 16.5029 19.0002C16.2268 19.0002 16.0029 18.7764 16.0029 18.5002V16.5002C16.0029 16.2241 16.2268 16.0002 16.5029 16.0002Z" fill="black"/>
</svg>
