<svg width="24" height="24" viewBox="0 0 24 24" fill="none" xmlns="http://www.w3.org/2000/svg">
<path fill-rule="evenodd" clip-rule="evenodd" d="M0.50293 1.5C0.50293 0.671573 1.1745 0 2.00293 0H14.0029C14.1355 0 14.2627 0.0526784 14.3565 0.146447L18.3565 4.14645C18.4503 4.24021 18.5029 4.36739 18.5029 4.5V13.1823C18.5407 13.196 18.5781 13.2112 18.615 13.2281C19.1698 13.4816 20.2038 13.9636 21.102 14.4353C21.5493 14.6702 21.9753 14.909 22.2943 15.12C22.4518 15.2242 22.5997 15.3323 22.7136 15.4387C22.7701 15.4915 22.8321 15.5566 22.8833 15.6323C22.9291 15.7 23.0029 15.8295 23.0029 16C23.0029 18.1403 22.0704 20.1167 21.0323 21.5441C20.5111 22.2607 19.9523 22.8545 19.448 23.2747C19.1964 23.4844 18.95 23.6579 18.7213 23.7816C18.5058 23.8981 18.253 24 18.0029 24C17.7529 24 17.5 23.8981 17.2846 23.7816C17.0559 23.6579 16.8095 23.4844 16.5578 23.2747C16.1649 22.9473 15.7387 22.5143 15.3231 22H2.00293C1.1745 22 0.50293 21.3284 0.50293 20.5V1.5ZM14.6012 21C13.7226 19.6339 13.0029 17.8802 13.0029 16C13.0029 15.8295 13.0768 15.7 13.1226 15.6323C13.1737 15.5566 13.2357 15.4915 13.2923 15.4387C13.4062 15.3323 13.5541 15.2242 13.7116 15.12C14.0305 14.909 14.4566 14.6702 14.9038 14.4353C15.8021 13.9636 16.836 13.4816 17.3908 13.2281C17.4277 13.2112 17.4651 13.1959 17.5029 13.1823V5H14.0029C13.7268 5 13.5029 4.77614 13.5029 4.5V1H2.00293C1.72679 1 1.50293 1.22386 1.50293 1.5V20.5C1.50293 20.7761 1.72679 21 2.00293 21H14.6012ZM14.5029 1.70711L16.7958 4H14.5029V1.70711ZM4.50293 4.5C4.50293 4.22386 4.72679 4 5.00293 4H10.0029C10.2791 4 10.5029 4.22386 10.5029 4.5C10.5029 4.77614 10.2791 5 10.0029 5H5.00293C4.72679 5 4.50293 4.77614 4.50293 4.5ZM4.50293 7.5C4.50293 7.22386 4.72679 7 5.00293 7H14.0029C14.2791 7 14.5029 7.22386 14.5029 7.5C14.5029 7.77614 14.2791 8 14.0029 8H5.00293C4.72679 8 4.50293 7.77614 4.50293 7.5ZM4.50293 10.5C4.50293 10.2239 4.72679 10 5.00293 10H8.00293C8.27907 10 8.50293 10.2239 8.50293 10.5C8.50293 10.7761 8.27907 11 8.00293 11H5.00293C4.72679 11 4.50293 10.7761 4.50293 10.5ZM10.5029 10.5C10.5029 10.2239 10.7268 10 11.0029 10H14.0029C14.2791 10 14.5029 10.2239 14.5029 10.5C14.5029 10.7761 14.2791 11 14.0029 11H11.0029C10.7268 11 10.5029 10.7761 10.5029 10.5ZM4.50293 13.5C4.50293 13.2239 4.72679 13 5.00293 13H14.0029C14.2791 13 14.5029 13.2239 14.5029 13.5C14.5029 13.7761 14.2791 14 14.0029 14H5.00293C4.72679 14 4.50293 13.7761 4.50293 13.5ZM14.0045 16.1431C14.045 17.9505 14.8451 19.6672 15.7823 20.9559C16.2611 21.6143 16.7648 22.1455 17.198 22.5065C17.4151 22.6874 17.6062 22.8187 17.7603 22.902C17.9261 22.9917 18.0016 22.9999 18.0029 23L18.0029 23L18.0029 23C18.0043 22.9999 18.0797 22.9917 18.2455 22.902C18.3997 22.8187 18.5907 22.6874 18.8078 22.5065C19.2411 22.1455 19.7447 21.6143 20.2236 20.9559C21.1608 19.6672 21.9608 17.9505 22.0013 16.1431C21.945 16.095 21.8598 16.0316 21.7426 15.954C21.4662 15.7713 21.0756 15.551 20.6371 15.3207C19.7638 14.862 18.7499 14.3892 18.1994 14.1376C18.074 14.0803 17.9318 14.0803 17.8065 14.1376C17.2559 14.3892 16.2421 14.862 15.3688 15.3207C14.9302 15.551 14.5396 15.7713 14.2633 15.954C14.1461 16.0316 14.0608 16.095 14.0045 16.1431ZM4.50293 16.5C4.50293 16.2239 4.72679 16 5.00293 16H10.0029C10.2791 16 10.5029 16.2239 10.5029 16.5C10.5029 16.7761 10.2791 17 10.0029 17H5.00293C4.72679 17 4.50293 16.7761 4.50293 16.5ZM19.8029 17.1C20.0238 17.2657 20.0686 17.5791 19.9029 17.8L18.4029 19.8C18.316 19.916 18.183 19.9885 18.0384 19.9987C17.8938 20.009 17.7519 19.956 17.6494 19.8536L16.6494 18.8536C16.4541 18.6583 16.4541 18.3417 16.6494 18.1464C16.8446 17.9512 17.1612 17.9512 17.3565 18.1464L17.9488 18.7388L19.1029 17.2C19.2686 16.9791 19.582 16.9343 19.8029 17.1Z" fill="black"/>
</svg>
