<svg width="25" height="19" viewBox="0 0 25 19" fill="none" xmlns="http://www.w3.org/2000/svg">
<path d="M7.10548 16L7.13704 15.501L6.66641 15.4712L6.60918 15.9393L7.10548 16ZM11.5029 12.717L12.0029 12.717V12.717L11.5029 12.717ZM3.07055 16.375L2.8813 16.8378L2.88909 16.841L2.89698 16.8439L3.07055 16.375ZM6.92208 17.5L6.80985 17.9872L7.35099 18.1119L7.41838 17.5607L6.92208 17.5ZM1.88768 9.34261L1.60949 8.92715H1.60949L1.88768 9.34261ZM7.92774 8.62966L8.36979 8.39601L8.251 8.17128L7.99943 8.13483L7.92774 8.62966ZM13.8992 11.3333L14.3955 11.2722L14.3379 10.8048L13.8679 10.8343L13.8992 11.3333ZM7.50293 6.59127L7.00293 6.59126V6.59128L7.50293 6.59127ZM19.7682 11.875L19.9407 12.3443L19.9486 12.3414L19.9563 12.3383L19.7682 11.875ZM14.166 13.5L13.6697 13.5611L13.7374 14.1109L14.2775 13.9874L14.166 13.5ZM11.5029 4C11.2268 4 11.0029 4.22386 11.0029 4.5C11.0029 4.77614 11.2268 5 11.5029 5V4ZM19.5029 5C19.7791 5 20.0029 4.77614 20.0029 4.5C20.0029 4.22386 19.7791 4 19.5029 4V5ZM11.5029 7C11.2268 7 11.0029 7.22386 11.0029 7.5C11.0029 7.77614 11.2268 8 11.5029 8V7ZM17.5029 8C17.7791 8 18.0029 7.77614 18.0029 7.5C18.0029 7.22386 17.7791 7 17.5029 7V8ZM8.07349 8.9054L7.64128 9.1568L8.07349 8.9054ZM7.10548 16C7.07393 16.499 7.07414 16.499 7.07437 16.499C7.07447 16.499 7.07472 16.4991 7.07492 16.4991C7.07531 16.4991 7.07578 16.4991 7.07631 16.4992C7.07738 16.4992 7.07871 16.4993 7.08031 16.4994C7.08351 16.4996 7.08776 16.4998 7.09304 16.5001C7.1036 16.5006 7.11826 16.5013 7.13676 16.5019C7.17374 16.5033 7.22613 16.5046 7.29174 16.505C7.4228 16.5057 7.60755 16.5024 7.82835 16.4865C8.26701 16.4551 8.86235 16.3732 9.46585 16.1671C10.0683 15.9612 10.7051 15.6224 11.1933 15.0602C11.6897 14.4886 12.0029 13.7197 12.0029 12.717L11.0029 12.717C11.0029 13.4949 10.7664 14.0267 10.4383 14.4045C10.102 14.7917 9.63944 15.051 9.14253 15.2208C8.64667 15.3902 8.14266 15.4614 7.75681 15.4891C7.56535 15.5028 7.40656 15.5056 7.29713 15.505C7.2425 15.5047 7.20041 15.5036 7.17298 15.5026C7.15927 15.5021 7.14924 15.5016 7.14316 15.5013C7.14011 15.5012 7.13806 15.5011 7.13703 15.501C7.13652 15.501 7.13626 15.5009 7.13626 15.5009C7.13626 15.5009 7.13632 15.501 7.13645 15.501C7.13652 15.501 7.13666 15.501 7.1367 15.501C7.13686 15.501 7.13704 15.501 7.10548 16ZM0.00292969 12.717C0.00292969 13.6777 0.201228 14.5129 0.687439 15.2174C1.17207 15.9196 1.90643 16.4392 2.8813 16.8378L3.2598 15.9122C2.40055 15.5608 1.8511 15.1429 1.51045 14.6494C1.17138 14.1581 1.00293 13.5393 1.00293 12.717H0.00292969ZM2.89698 16.8439C3.76834 17.1664 4.74787 17.4522 5.50399 17.6564C5.88326 17.7588 6.2088 17.8413 6.4398 17.8982C6.55534 17.9267 6.64733 17.9489 6.71068 17.9639C6.74236 17.9715 6.76689 17.9772 6.78363 17.9811C6.792 17.9831 6.79842 17.9846 6.80282 17.9856C6.80502 17.9861 6.80671 17.9865 6.80788 17.9868C6.80847 17.9869 6.80893 17.987 6.80926 17.9871C6.80942 17.9871 6.80955 17.9872 6.80965 17.9872C6.8097 17.9872 6.80975 17.9872 6.80978 17.9872C6.80982 17.9872 6.80985 17.9872 6.92208 17.5C7.0343 17.0128 7.03432 17.0128 7.03433 17.0128C7.03432 17.0128 7.03432 17.0128 7.03431 17.0128C7.03427 17.0128 7.03421 17.0127 7.03411 17.0127C7.03392 17.0127 7.03359 17.0126 7.03314 17.0125C7.03224 17.0123 7.03082 17.012 7.0289 17.0115C7.02505 17.0106 7.0192 17.0093 7.0114 17.0074C6.99581 17.0038 6.97248 16.9983 6.94204 16.9911C6.88116 16.9766 6.79187 16.9551 6.67925 16.9273C6.45392 16.8718 6.13558 16.7911 5.76462 16.6909C5.02032 16.49 4.07408 16.2133 3.24412 15.9061L2.89698 16.8439ZM7.41838 17.5607L7.60179 16.0607L6.60918 15.9393L6.42577 17.4393L7.41838 17.5607ZM5.90187 8C3.95626 8 2.56085 8.29012 1.60949 8.92715L2.16588 9.75807C2.8687 9.28746 4.02087 9 5.90187 9V8ZM1.60949 8.92715C0.342831 9.7753 0.00292969 11.1333 0.00292969 12.717H1.00293C1.00293 11.2508 1.31752 10.3261 2.16588 9.75807L1.60949 8.92715ZM7.99943 8.13483C7.41116 8.0496 6.6429 8 5.90187 8V9C6.60573 9 7.32487 9.04754 7.85605 9.1245L7.99943 8.13483ZM12.0029 12.717C12.0029 12.0461 11.9448 11.478 11.7597 10.9081L10.8086 11.2171C10.9496 11.6513 11.0029 12.1052 11.0029 12.717L12.0029 12.717ZM8.00293 6.59128C8.00297 4.69852 8.43765 3.3549 9.51776 2.4587C10.6244 1.54049 12.5135 1 15.6499 1V0C12.4451 0 10.2607 0.542843 8.87922 1.68912C7.47117 2.85741 7.00298 4.55942 7.00293 6.59126L8.00293 6.59128ZM15.6499 1C18.7892 1 20.5949 1.5415 21.6237 2.44862C22.6316 3.33727 23.0029 4.67708 23.0029 6.59127H24.0029C24.0029 4.57997 23.6184 2.87415 22.2851 1.69854C20.9727 0.541389 18.8519 0 15.6499 0V1ZM23.0029 6.59127C23.0029 7.80913 22.7514 8.7505 22.2254 9.50731C21.6976 10.2667 20.8566 10.8934 19.5801 11.4117L19.9563 12.3383C21.3476 11.7733 22.374 11.0458 23.0466 10.078C23.721 9.10764 24.0029 7.94881 24.0029 6.59127H23.0029ZM19.5957 11.4057C18.379 11.8529 16.995 12.2547 15.9096 12.5457C15.3682 12.6908 14.9035 12.8078 14.5744 12.8884C14.4099 12.9286 14.2794 12.9598 14.1903 12.9809C14.1457 12.9914 14.1115 12.9994 14.0886 13.0047C14.0771 13.0074 14.0685 13.0094 14.0627 13.0107C14.0599 13.0114 14.0578 13.0118 14.0564 13.0122C14.0557 13.0123 14.0552 13.0124 14.0549 13.0125C14.0547 13.0125 14.0546 13.0126 14.0545 13.0126C14.0545 13.0126 14.0545 13.0126 14.0545 13.0126C14.0545 13.0126 14.0545 13.0126 14.166 13.5C14.2775 13.9874 14.2775 13.9874 14.2776 13.9874C14.2776 13.9874 14.2777 13.9874 14.2777 13.9874C14.2778 13.9873 14.278 13.9873 14.2782 13.9872C14.2787 13.9871 14.2793 13.987 14.2802 13.9868C14.2818 13.9864 14.2842 13.9859 14.2873 13.9851C14.2936 13.9837 14.3028 13.9816 14.3149 13.9788C14.3389 13.9732 14.3743 13.9649 14.4201 13.9541C14.5117 13.9325 14.6449 13.9007 14.8123 13.8597C15.147 13.7777 15.6188 13.6589 16.1686 13.5116C17.2657 13.2174 18.6828 12.8067 19.9407 12.3443L19.5957 11.4057ZM14.6622 13.4389L14.3955 11.2722L13.403 11.3944L13.6697 13.5611L14.6622 13.4389ZM11.5029 5H19.5029V4H11.5029V5ZM11.5029 8C11.508 8 11.513 8 11.518 8C11.5231 8 11.5281 8 11.5332 8C11.5382 8 11.5433 8 11.5483 8C11.5534 8 11.5584 8 11.5635 8C11.5685 8 11.5736 8 11.5787 8C11.5837 8 11.5888 8 11.5939 8C11.5989 8 11.604 8 11.6091 8C11.6141 8 11.6192 8 11.6243 8C11.6294 8 11.6345 8 11.6396 8C11.6446 8 11.6497 8 11.6548 8C11.6599 8 11.665 8 11.6701 8C11.6752 8 11.6803 8 11.6854 8C11.6905 8 11.6956 8 11.7008 8C11.7059 8 11.711 8 11.7161 8C11.7212 8 11.7263 8 11.7315 8C11.7366 8 11.7417 8 11.7468 8C11.752 8 11.7571 8 11.7622 8C11.7673 8 11.7725 8 11.7776 8C11.7828 8 11.7879 8 11.793 8C11.7982 8 11.8033 8 11.8085 8C11.8136 8 11.8188 8 11.8239 8C11.8291 8 11.8342 8 11.8394 8C11.8446 8 11.8497 8 11.8549 8C11.8601 8 11.8652 8 11.8704 8C11.8756 8 11.8807 8 11.8859 8C11.8911 8 11.8963 8 11.9014 8C11.9066 8 11.9118 8 11.917 8C11.9222 8 11.9273 8 11.9325 8C11.9377 8 11.9429 8 11.9481 8C11.9533 8 11.9585 8 11.9637 8C11.9689 8 11.9741 8 11.9793 8C11.9845 8 11.9897 8 11.9949 8C12.0001 8 12.0053 8 12.0105 8C12.0157 8 12.0209 8 12.0262 8C12.0314 8 12.0366 8 12.0418 8C12.047 8 12.0523 8 12.0575 8C12.0627 8 12.0679 8 12.0732 8C12.0784 8 12.0836 8 12.0888 8C12.0941 8 12.0993 8 12.1045 8C12.1098 8 12.115 8 12.1203 8C12.1255 8 12.1307 8 12.136 8C12.1412 8 12.1465 8 12.1517 8C12.157 8 12.1622 8 12.1675 8C12.1727 8 12.178 8 12.1832 8C12.1885 8 12.1937 8 12.199 8C12.2043 8 12.2095 8 12.2148 8C12.22 8 12.2253 8 12.2306 8C12.2358 8 12.2411 8 12.2464 8C12.2516 8 12.2569 8 12.2622 8C12.2675 8 12.2727 8 12.278 8C12.2833 8 12.2886 8 12.2938 8C12.2991 8 12.3044 8 12.3097 8C12.315 8 12.3202 8 12.3255 8C12.3308 8 12.3361 8 12.3414 8C12.3467 8 12.352 8 12.3573 8C12.3626 8 12.3678 8 12.3731 8C12.3784 8 12.3837 8 12.389 8C12.3943 8 12.3996 8 12.4049 8C12.4102 8 12.4155 8 12.4208 8C12.4261 8 12.4314 8 12.4367 8C12.442 8 12.4474 8 12.4527 8C12.458 8 12.4633 8 12.4686 8C12.4739 8 12.4792 8 12.4845 8C12.4898 8 12.4952 8 12.5005 8C12.5058 8 12.5111 8 12.5164 8C12.5217 8 12.5271 8 12.5324 8C12.5377 8 12.543 8 12.5483 8C12.5537 8 12.559 8 12.5643 8C12.5696 8 12.575 8 12.5803 8C12.5856 8 12.5909 8 12.5963 8C12.6016 8 12.6069 8 12.6123 8C12.6176 8 12.6229 8 12.6283 8C12.6336 8 12.6389 8 12.6443 8C12.6496 8 12.6549 8 12.6603 8C12.6656 8 12.6709 8 12.6763 8C12.6816 8 12.6869 8 12.6923 8C12.6976 8 12.703 8 12.7083 8C12.7136 8 12.719 8 12.7243 8C12.7297 8 12.735 8 12.7404 8C12.7457 8 12.751 8 12.7564 8C12.7617 8 12.7671 8 12.7724 8C12.7778 8 12.7831 8 12.7885 8C12.7938 8 12.7992 8 12.8045 8C12.8099 8 12.8152 8 12.8206 8C12.8259 8 12.8313 8 12.8366 8C12.842 8 12.8473 8 12.8527 8C12.858 8 12.8634 8 12.8687 8C12.8741 8 12.8794 8 12.8848 8C12.8902 8 12.8955 8 12.9009 8C12.9062 8 12.9116 8 12.9169 8C12.9223 8 12.9276 8 12.933 8C12.9384 8 12.9437 8 12.9491 8C12.9544 8 12.9598 8 12.9651 8C12.9705 8 12.9759 8 12.9812 8C12.9866 8 12.9919 8 12.9973 8C13.0027 8 13.008 8 13.0134 8C13.0187 8 13.0241 8 13.0295 8C13.0348 8 13.0402 8 13.0455 8C13.0509 8 13.0563 8 13.0616 8C13.067 8 13.0723 8 13.0777 8C13.0831 8 13.0884 8 13.0938 8C13.0991 8 13.1045 8 13.1099 8C13.1152 8 13.1206 8 13.1259 8C13.1313 8 13.1367 8 13.142 8C13.1474 8 13.1527 8 13.1581 8C13.1635 8 13.1688 8 13.1742 8C13.1795 8 13.1849 8 13.1903 8C13.1956 8 13.201 8 13.2063 8C13.2117 8 13.2171 8 13.2224 8C13.2278 8 13.2331 8 13.2385 8C13.2438 8 13.2492 8 13.2546 8C13.2599 8 13.2653 8 13.2706 8C13.276 8 13.2813 8 13.2867 8C13.2921 8 13.2974 8 13.3028 8C13.3081 8 13.3135 8 13.3188 8C13.3242 8 13.3295 8 13.3349 8C13.3402 8 13.3456 8 13.351 8C13.3563 8 13.3617 8 13.367 8C13.3724 8 13.3777 8 13.3831 8C13.3884 8 13.3938 8 13.3991 8C13.4045 8 13.4098 8 13.4152 8C13.4205 8 13.4259 8 13.4312 8C13.4366 8 13.4419 8 13.4472 8C13.4526 8 13.4579 8 13.4633 8C13.4686 8 13.474 8 13.4793 8C13.4847 8 13.49 8 13.4953 8C13.5007 8 13.506 8 13.5114 8C13.5167 8 13.522 8 13.5274 8C13.5327 8 13.538 8 13.5434 8C13.5487 8 13.5541 8 13.5594 8C13.5647 8 13.5701 8 13.5754 8C13.5807 8 13.5861 8 13.5914 8C13.5967 8 13.602 8 13.6074 8C13.6127 8 13.618 8 13.6234 8C13.6287 8 13.634 8 13.6393 8C13.6447 8 13.65 8 13.6553 8C13.6606 8 13.666 8 13.6713 8C13.6766 8 13.6819 8 13.6872 8C13.6925 8 13.6979 8 13.7032 8C13.7085 8 13.7138 8 13.7191 8C13.7244 8 13.7297 8 13.7351 8C13.7404 8 13.7457 8 13.751 8C13.7563 8 13.7616 8 13.7669 8C13.7722 8 13.7775 8 13.7828 8C13.7881 8 13.7934 8 13.7987 8C13.804 8 13.8093 8 13.8146 8C13.8199 8 13.8252 8 13.8305 8C13.8358 8 13.8411 8 13.8464 8C13.8517 8 13.857 8 13.8623 8C13.8675 8 13.8728 8 13.8781 8C13.8834 8 13.8887 8 13.894 8C13.8993 8 13.9045 8 13.9098 8C13.9151 8 13.9204 8 13.9257 8C13.9309 8 13.9362 8 13.9415 8C13.9467 8 13.952 8 13.9573 8C13.9626 8 13.9678 8 13.9731 8C13.9784 8 13.9836 8 13.9889 8C13.9941 8 13.9994 8 14.0047 8C14.0099 8 14.0152 8 14.0204 8C14.0257 8 14.0309 8 14.0362 8C14.0414 8 14.0467 8 14.0519 8C14.0572 8 14.0624 8 14.0677 8C14.0729 8 14.0782 8 14.0834 8C14.0887 8 14.0939 8 14.0991 8C14.1044 8 14.1096 8 14.1148 8C14.1201 8 14.1253 8 14.1305 8C14.1357 8 14.141 8 14.1462 8C14.1514 8 14.1566 8 14.1619 8C14.1671 8 14.1723 8 14.1775 8C14.1827 8 14.1879 8 14.1932 8C14.1984 8 14.2036 8 14.2088 8C14.214 8 14.2192 8 14.2244 8C14.2296 8 14.2348 8 14.24 8C14.2452 8 14.2504 8 14.2556 8C14.2608 8 14.266 8 14.2712 8C14.2763 8 14.2815 8 14.2867 8C14.2919 8 14.2971 8 14.3023 8C14.3074 8 14.3126 8 14.3178 8C14.323 8 14.3281 8 14.3333 8C14.3385 8 14.3436 8 14.3488 8C14.354 8 14.3591 8 14.3643 8C14.3695 8 14.3746 8 14.3798 8C14.3849 8 14.3901 8 14.3952 8C14.4004 8 14.4055 8 14.4107 8C14.4158 8 14.4209 8 14.4261 8C14.4312 8 14.4364 8 14.4415 8C14.4466 8 14.4518 8 14.4569 8C14.462 8 14.4671 8 14.4723 8C14.4774 8 14.4825 8 14.4876 8C14.4927 8 14.4979 8 14.503 8C14.5081 8 14.5132 8 14.5183 8C14.5234 8 14.5285 8 14.5336 8C14.5387 8 14.5438 8 14.5489 8C14.554 8 14.5591 8 14.5642 8C14.5693 8 14.5743 8 14.5794 8C14.5845 8 14.5896 8 14.5947 8C14.5997 8 14.6048 8 14.6099 8C14.615 8 14.62 8 14.6251 8C14.6301 8 14.6352 8 14.6403 8C14.6453 8 14.6504 8 14.6554 8C14.6605 8 14.6655 8 14.6706 8C14.6756 8 14.6807 8 14.6857 8C14.6907 8 14.6958 8 14.7008 8C14.7058 8 14.7109 8 14.7159 8C14.7209 8 14.726 8 14.731 8C14.736 8 14.741 8 14.746 8C14.751 8 14.756 8 14.7611 8C14.7661 8 14.7711 8 14.7761 8C14.7811 8 14.7861 8 14.791 8C14.796 8 14.801 8 14.806 8C14.811 8 14.816 8 14.821 8C14.8259 8 14.8309 8 14.8359 8C14.8409 8 14.8458 8 14.8508 8C14.8558 8 14.8607 8 14.8657 8C14.8706 8 14.8756 8 14.8805 8C14.8855 8 14.8904 8 14.8954 8C14.9003 8 14.9053 8 14.9102 8C14.9151 8 14.9201 8 14.925 8C14.9299 8 14.9349 8 14.9398 8C14.9447 8 14.9496 8 14.9545 8C14.9594 8 14.9644 8 14.9693 8C14.9742 8 14.9791 8 14.984 8C14.9889 8 14.9938 8 14.9987 8C15.0035 8 15.0084 8 15.0133 8C15.0182 8 15.0231 8 15.028 8C15.0328 8 15.0377 8 15.0426 8C15.0474 8 15.0523 8 15.0572 8C15.062 8 15.0669 8 15.0717 8C15.0766 8 15.0814 8 15.0863 8C15.0911 8 15.096 8 15.1008 8C15.1056 8 15.1105 8 15.1153 8C15.1201 8 15.1249 8 15.1298 8C15.1346 8 15.1394 8 15.1442 8C15.149 8 15.1538 8 15.1586 8C15.1634 8 15.1682 8 15.173 8C15.1778 8 15.1826 8 15.1874 8C15.1922 8 15.1969 8 15.2017 8C15.2065 8 15.2113 8 15.216 8C15.2208 8 15.2256 8 15.2303 8C15.2351 8 15.2398 8 15.2446 8C15.2493 8 15.2541 8 15.2588 8C15.2636 8 15.2683 8 15.273 8C15.2778 8 15.2825 8 15.2872 8C15.292 8 15.2967 8 15.3014 8C15.3061 8 15.3108 8 15.3155 8C15.3202 8 15.3249 8 15.3296 8C15.3343 8 15.339 8 15.3437 8C15.3484 8 15.3531 8 15.3577 8C15.3624 8 15.3671 8 15.3718 8C15.3764 8 15.3811 8 15.3858 8C15.3904 8 15.3951 8 15.3997 8C15.4044 8 15.409 8 15.4137 8C15.4183 8 15.4229 8 15.4276 8C15.4322 8 15.4368 8 15.4414 8C15.4461 8 15.4507 8 15.4553 8C15.4599 8 15.4645 8 15.4691 8C15.4737 8 15.4783 8 15.4829 8C15.4875 8 15.4921 8 15.4966 8C15.5012 8 15.5058 8 15.5104 8C15.515 8 15.5195 8 15.5241 8C15.5286 8 15.5332 8 15.5377 8C15.5423 8 15.5468 8 15.5514 8C15.5559 8 15.5605 8 15.565 8C15.5695 8 15.5741 8 15.5786 8C15.5831 8 15.5876 8 15.5921 8C15.5966 8 15.6011 8 15.6056 8C15.6101 8 15.6146 8 15.6191 8C15.6236 8 15.6281 8 15.6326 8C15.637 8 15.6415 8 15.646 8C15.6505 8 15.6549 8 15.6594 8C15.6638 8 15.6683 8 15.6727 8C15.6772 8 15.6816 8 15.6861 8C15.6905 8 15.6949 8 15.6994 8C15.7038 8 15.7082 8 15.7126 8C15.717 8 15.7214 8 15.7258 8C15.7302 8 15.7346 8 15.739 8C15.7434 8 15.7478 8 15.7522 8C15.7566 8 15.7609 8 15.7653 8C15.7697 8 15.774 8 15.7784 8C15.7828 8 15.7871 8 15.7915 8C15.7958 8 15.8002 8 15.8045 8C15.8088 8 15.8132 8 15.8175 8C15.8218 8 15.8261 8 15.8304 8C15.8347 8 15.8391 8 15.8434 8C15.8477 8 15.852 8 15.8562 8C15.8605 8 15.8648 8 15.8691 8C15.8734 8 15.8776 8 15.8819 8C15.8862 8 15.8904 8 15.8947 8C15.8989 8 15.9032 8 15.9074 8C15.9117 8 15.9159 8 15.9201 8C15.9244 8 15.9286 8 15.9328 8C15.937 8 15.9412 8 15.9455 8C15.9497 8 15.9539 8 15.9581 8C15.9622 8 15.9664 8 15.9706 8C15.9748 8 15.979 8 15.9831 8C15.9873 8 15.9915 8 15.9956 8C15.9998 8 16.0039 8 16.0081 8C16.0122 8 16.0164 8 16.0205 8C16.0246 8 16.0288 8 16.0329 8C16.037 8 16.0411 8 16.0452 8C16.0493 8 16.0534 8 16.0575 8C16.0616 8 16.0657 8 16.0698 8C16.0739 8 16.078 8 16.082 8C16.0861 8 16.0902 8 16.0942 8C16.0983 8 16.1023 8 16.1064 8C16.1104 8 16.1144 8 16.1185 8C16.1225 8 16.1265 8 16.1305 8C16.1346 8 16.1386 8 16.1426 8C16.1466 8 16.1506 8 16.1546 8C16.1586 8 16.1625 8 16.1665 8C16.1705 8 16.1745 8 16.1784 8C16.1824 8 16.1864 8 16.1903 8C16.1943 8 16.1982 8 16.2021 8C16.2061 8 16.21 8 16.2139 8C16.2179 8 16.2218 8 16.2257 8C16.2296 8 16.2335 8 16.2374 8C16.2413 8 16.2452 8 16.2491 8C16.2529 8 16.2568 8 16.2607 8C16.2646 8 16.2684 8 16.2723 8C16.2761 8 16.28 8 16.2838 8C16.2877 8 16.2915 8 16.2953 8C16.2992 8 16.303 8 16.3068 8C16.3106 8 16.3144 8 16.3182 8C16.322 8 16.3258 8 16.3296 8C16.3334 8 16.3372 8 16.3409 8C16.3447 8 16.3485 8 16.3522 8C16.356 8 16.3597 8 16.3635 8C16.3672 8 16.371 8 16.3747 8C16.3784 8 16.3821 8 16.3859 8C16.3896 8 16.3933 8 16.397 8C16.4007 8 16.4044 8 16.4081 8C16.4117 8 16.4154 8 16.4191 8C16.4228 8 16.4264 8 16.4301 8C16.4337 8 16.4374 8 16.441 8C16.4447 8 16.4483 8 16.4519 8C16.4555 8 16.4592 8 16.4628 8C16.4664 8 16.47 8 16.4736 8C16.4772 8 16.4808 8 16.4844 8C16.4879 8 16.4915 8 16.4951 8C16.4986 8 16.5022 8 16.5058 8C16.5093 8 16.5128 8 16.5164 8C16.5199 8 16.5235 8 16.527 8C16.5305 8 16.534 8 16.5375 8C16.541 8 16.5445 8 16.548 8C16.5515 8 16.555 8 16.5585 8C16.5619 8 16.5654 8 16.5689 8C16.5723 8 16.5758 8 16.5792 8C16.5826 8 16.5861 8 16.5895 8C16.5929 8 16.5964 8 16.5998 8C16.6032 8 16.6066 8 16.61 8C16.6134 8 16.6168 8 16.6201 8C16.6235 8 16.6269 8 16.6303 8C16.6336 8 16.637 8 16.6403 8C16.6437 8 16.647 8 16.6504 8C16.6537 8 16.657 8 16.6603 8C16.6636 8 16.667 8 16.6703 8C16.6736 8 16.6769 8 16.6801 8C16.6834 8 16.6867 8 16.69 8C16.6932 8 16.6965 8 16.6997 8C16.703 8 16.7062 8 16.7095 8C16.7127 8 16.7159 8 16.7192 8C16.7224 8 16.7256 8 16.7288 8C16.732 8 16.7352 8 16.7384 8C16.7415 8 16.7447 8 16.7479 8C16.7511 8 16.7542 8 16.7574 8C16.7605 8 16.7637 8 16.7668 8C16.7699 8 16.7731 8 16.7762 8C16.7793 8 16.7824 8 16.7855 8C16.7886 8 16.7917 8 16.7948 8C16.7979 8 16.801 8 16.804 8C16.8071 8 16.8102 8 16.8132 8C16.8162 8 16.8193 8 16.8223 8C16.8254 8 16.8284 8 16.8314 8C16.8344 8 16.8374 8 16.8404 8C16.8434 8 16.8464 8 16.8494 8C16.8524 8 16.8553 8 16.8583 8C16.8613 8 16.8642 8 16.8672 8C16.8701 8 16.8731 8 16.876 8C16.8789 8 16.8818 8 16.8847 8C16.8877 8 16.8906 8 16.8934 8C16.8963 8 16.8992 8 16.9021 8C16.905 8 16.9078 8 16.9107 8C16.9136 8 16.9164 8 16.9193 8C16.9221 8 16.9249 8 16.9277 8C16.9306 8 16.9334 8 16.9362 8C16.939 8 16.9418 8 16.9446 8C16.9474 8 16.9501 8 16.9529 8C16.9557 8 16.9584 8 16.9612 8C16.9639 8 16.9667 8 16.9694 8C16.9721 8 16.9748 8 16.9776 8C16.9803 8 16.983 8 16.9857 8C16.9884 8 16.9911 8 16.9937 8C16.9964 8 16.9991 8 17.0017 8C17.0044 8 17.007 8 17.0097 8C17.0123 8 17.0149 8 17.0176 8C17.0202 8 17.0228 8 17.0254 8C17.028 8 17.0306 8 17.0332 8C17.0358 8 17.0383 8 17.0409 8C17.0435 8 17.046 8 17.0486 8C17.0511 8 17.0536 8 17.0562 8C17.0587 8 17.0612 8 17.0637 8C17.0662 8 17.0687 8 17.0712 8C17.0737 8 17.0762 8 17.0786 8C17.0811 8 17.0836 8 17.086 8C17.0885 8 17.0909 8 17.0933 8C17.0958 8 17.0982 8 17.1006 8C17.103 8 17.1054 8 17.1078 8C17.1102 8 17.1126 8 17.115 8C17.1173 8 17.1197 8 17.122 8C17.1244 8 17.1267 8 17.1291 8C17.1314 8 17.1337 8 17.136 8C17.1384 8 17.1407 8 17.143 8C17.1452 8 17.1475 8 17.1498 8C17.1521 8 17.1543 8 17.1566 8C17.1589 8 17.1611 8 17.1633 8C17.1656 8 17.1678 8 17.17 8C17.1722 8 17.1744 8 17.1766 8C17.1788 8 17.181 8 17.1832 8C17.1853 8 17.1875 8 17.1897 8C17.1918 8 17.194 8 17.1961 8C17.1982 8 17.2003 8 17.2025 8C17.2046 8 17.2067 8 17.2088 8C17.2109 8 17.2129 8 17.215 8C17.2171 8 17.2192 8 17.2212 8C17.2233 8 17.2253 8 17.2273 8C17.2294 8 17.2314 8 17.2334 8C17.2354 8 17.2374 8 17.2394 8C17.2414 8 17.2434 8 17.2453 8C17.2473 8 17.2493 8 17.2512 8C17.2532 8 17.2551 8 17.257 8C17.259 8 17.2609 8 17.2628 8C17.2647 8 17.2666 8 17.2685 8C17.2704 8 17.2722 8 17.2741 8C17.276 8 17.2778 8 17.2797 8C17.2815 8 17.2833 8 17.2852 8C17.287 8 17.2888 8 17.2906 8C17.2924 8 17.2942 8 17.296 8C17.2977 8 17.2995 8 17.3013 8C17.303 8 17.3048 8 17.3065 8C17.3083 8 17.31 8 17.3117 8C17.3134 8 17.3151 8 17.3168 8C17.3185 8 17.3202 8 17.3219 8C17.3235 8 17.3252 8 17.3268 8C17.3285 8 17.3301 8 17.3318 8C17.3334 8 17.335 8 17.3366 8C17.3382 8 17.3398 8 17.3414 8C17.343 8 17.3446 8 17.3461 8C17.3477 8 17.3493 8 17.3508 8C17.3523 8 17.3539 8 17.3554 8C17.3569 8 17.3584 8 17.3599 8C17.3614 8 17.3629 8 17.3644 8C17.3658 8 17.3673 8 17.3688 8C17.3702 8 17.3717 8 17.3731 8C17.3745 8 17.3759 8 17.3773 8C17.3787 8 17.3801 8 17.3815 8C17.3829 8 17.3843 8 17.3857 8C17.387 8 17.3884 8 17.3897 8C17.391 8 17.3924 8 17.3937 8C17.395 8 17.3963 8 17.3976 8C17.3989 8 17.4002 8 17.4015 8C17.4027 8 17.404 8 17.4052 8C17.4065 8 17.4077 8 17.409 8C17.4102 8 17.4114 8 17.4126 8C17.4138 8 17.415 8 17.4162 8C17.4174 8 17.4185 8 17.4197 8C17.4208 8 17.422 8 17.4231 8C17.4243 8 17.4254 8 17.4265 8C17.4276 8 17.4287 8 17.4298 8C17.4309 8 17.432 8 17.433 8C17.4341 8 17.4351 8 17.4362 8C17.4372 8 17.4382 8 17.4393 8C17.4403 8 17.4413 8 17.4423 8C17.4433 8 17.4443 8 17.4452 8C17.4462 8 17.4472 8 17.4481 8C17.449 8 17.45 8 17.4509 8C17.4518 8 17.4527 8 17.4536 8C17.4545 8 17.4554 8 17.4563 8C17.4572 8 17.458 8 17.4589 8C17.4597 8 17.4606 8 17.4614 8C17.4622 8 17.463 8 17.4639 8C17.4647 8 17.4654 8 17.4662 8C17.467 8 17.4678 8 17.4685 8C17.4693 8 17.47 8 17.4708 8C17.4715 8 17.4722 8 17.4729 8C17.4736 8 17.4743 8 17.475 8C17.4757 8 17.4763 8 17.477 8C17.4777 8 17.4783 8 17.4789 8C17.4796 8 17.4802 8 17.4808 8C17.4814 8 17.482 8 17.4826 8C17.4832 8 17.4837 8 17.4843 8C17.4849 8 17.4854 8 17.4859 8C17.4865 8 17.487 8 17.4875 8C17.488 8 17.4885 8 17.489 8C17.4895 8 17.49 8 17.4904 8C17.4909 8 17.4913 8 17.4918 8C17.4922 8 17.4926 8 17.493 8C17.4934 8 17.4938 8 17.4942 8C17.4946 8 17.495 8 17.4953 8C17.4957 8 17.496 8 17.4964 8C17.4967 8 17.497 8 17.4973 8C17.4977 8 17.4979 8 17.4982 8C17.4985 8 17.4988 8 17.499 8C17.4993 8 17.4995 8 17.4998 8C17.5 8 17.5002 8 17.5004 8C17.5006 8 17.5008 8 17.501 8C17.5012 8 17.5014 8 17.5015 8C17.5017 8 17.5018 8 17.502 8C17.5021 8 17.5022 8 17.5023 8C17.5024 8 17.5025 8 17.5026 8C17.5027 8 17.5027 8 17.5028 8C17.5028 8 17.5029 8 17.5029 8C17.5029 8 17.5029 8 17.5029 7.5C17.5029 7 17.5029 7 17.5029 7C17.5029 7 17.5028 7 17.5028 7C17.5027 7 17.5027 7 17.5026 7C17.5025 7 17.5024 7 17.5023 7C17.5022 7 17.5021 7 17.502 7C17.5018 7 17.5017 7 17.5015 7C17.5014 7 17.5012 7 17.501 7C17.5008 7 17.5006 7 17.5004 7C17.5002 7 17.5 7 17.4998 7C17.4995 7 17.4993 7 17.499 7C17.4988 7 17.4985 7 17.4982 7C17.4979 7 17.4977 7 17.4973 7C17.497 7 17.4967 7 17.4964 7C17.496 7 17.4957 7 17.4953 7C17.495 7 17.4946 7 17.4942 7C17.4938 7 17.4934 7 17.493 7C17.4926 7 17.4922 7 17.4918 7C17.4913 7 17.4909 7 17.4904 7C17.49 7 17.4895 7 17.489 7C17.4885 7 17.488 7 17.4875 7C17.487 7 17.4865 7 17.4859 7C17.4854 7 17.4849 7 17.4843 7C17.4837 7 17.4832 7 17.4826 7C17.482 7 17.4814 7 17.4808 7C17.4802 7 17.4796 7 17.4789 7C17.4783 7 17.4777 7 17.477 7C17.4763 7 17.4757 7 17.475 7C17.4743 7 17.4736 7 17.4729 7C17.4722 7 17.4715 7 17.4708 7C17.47 7 17.4693 7 17.4685 7C17.4678 7 17.467 7 17.4662 7C17.4654 7 17.4647 7 17.4639 7C17.463 7 17.4622 7 17.4614 7C17.4606 7 17.4597 7 17.4589 7C17.458 7 17.4572 7 17.4563 7C17.4554 7 17.4545 7 17.4536 7C17.4527 7 17.4518 7 17.4509 7C17.45 7 17.449 7 17.4481 7C17.4472 7 17.4462 7 17.4452 7C17.4443 7 17.4433 7 17.4423 7C17.4413 7 17.4403 7 17.4393 7C17.4382 7 17.4372 7 17.4362 7C17.4351 7 17.4341 7 17.433 7C17.432 7 17.4309 7 17.4298 7C17.4287 7 17.4276 7 17.4265 7C17.4254 7 17.4243 7 17.4231 7C17.422 7 17.4208 7 17.4197 7C17.4185 7 17.4174 7 17.4162 7C17.415 7 17.4138 7 17.4126 7C17.4114 7 17.4102 7 17.409 7C17.4077 7 17.4065 7 17.4052 7C17.404 7 17.4027 7 17.4015 7C17.4002 7 17.3989 7 17.3976 7C17.3963 7 17.395 7 17.3937 7C17.3924 7 17.391 7 17.3897 7C17.3884 7 17.387 7 17.3857 7C17.3843 7 17.3829 7 17.3815 7C17.3801 7 17.3787 7 17.3773 7C17.3759 7 17.3745 7 17.3731 7C17.3717 7 17.3702 7 17.3688 7C17.3673 7 17.3658 7 17.3644 7C17.3629 7 17.3614 7 17.3599 7C17.3584 7 17.3569 7 17.3554 7C17.3539 7 17.3523 7 17.3508 7C17.3493 7 17.3477 7 17.3461 7C17.3446 7 17.343 7 17.3414 7C17.3398 7 17.3382 7 17.3366 7C17.335 7 17.3334 7 17.3318 7C17.3301 7 17.3285 7 17.3268 7C17.3252 7 17.3235 7 17.3219 7C17.3202 7 17.3185 7 17.3168 7C17.3151 7 17.3134 7 17.3117 7C17.31 7 17.3083 7 17.3065 7C17.3048 7 17.303 7 17.3013 7C17.2995 7 17.2977 7 17.296 7C17.2942 7 17.2924 7 17.2906 7C17.2888 7 17.287 7 17.2852 7C17.2833 7 17.2815 7 17.2797 7C17.2778 7 17.276 7 17.2741 7C17.2722 7 17.2704 7 17.2685 7C17.2666 7 17.2647 7 17.2628 7C17.2609 7 17.259 7 17.257 7C17.2551 7 17.2532 7 17.2512 7C17.2493 7 17.2473 7 17.2453 7C17.2434 7 17.2414 7 17.2394 7C17.2374 7 17.2354 7 17.2334 7C17.2314 7 17.2294 7 17.2273 7C17.2253 7 17.2233 7 17.2212 7C17.2192 7 17.2171 7 17.215 7C17.2129 7 17.2109 7 17.2088 7C17.2067 7 17.2046 7 17.2025 7C17.2003 7 17.1982 7 17.1961 7C17.194 7 17.1918 7 17.1897 7C17.1875 7 17.1853 7 17.1832 7C17.181 7 17.1788 7 17.1766 7C17.1744 7 17.1722 7 17.17 7C17.1678 7 17.1656 7 17.1633 7C17.1611 7 17.1589 7 17.1566 7C17.1543 7 17.1521 7 17.1498 7C17.1475 7 17.1452 7 17.143 7C17.1407 7 17.1384 7 17.136 7C17.1337 7 17.1314 7 17.1291 7C17.1267 7 17.1244 7 17.122 7C17.1197 7 17.1173 7 17.115 7C17.1126 7 17.1102 7 17.1078 7C17.1054 7 17.103 7 17.1006 7C17.0982 7 17.0958 7 17.0933 7C17.0909 7 17.0885 7 17.086 7C17.0836 7 17.0811 7 17.0786 7C17.0762 7 17.0737 7 17.0712 7C17.0687 7 17.0662 7 17.0637 7C17.0612 7 17.0587 7 17.0562 7C17.0536 7 17.0511 7 17.0486 7C17.046 7 17.0435 7 17.0409 7C17.0383 7 17.0358 7 17.0332 7C17.0306 7 17.028 7 17.0254 7C17.0228 7 17.0202 7 17.0176 7C17.0149 7 17.0123 7 17.0097 7C17.007 7 17.0044 7 17.0017 7C16.9991 7 16.9964 7 16.9937 7C16.9911 7 16.9884 7 16.9857 7C16.983 7 16.9803 7 16.9776 7C16.9748 7 16.9721 7 16.9694 7C16.9667 7 16.9639 7 16.9612 7C16.9584 7 16.9557 7 16.9529 7C16.9501 7 16.9474 7 16.9446 7C16.9418 7 16.939 7 16.9362 7C16.9334 7 16.9306 7 16.9277 7C16.9249 7 16.9221 7 16.9193 7C16.9164 7 16.9136 7 16.9107 7C16.9078 7 16.905 7 16.9021 7C16.8992 7 16.8963 7 16.8934 7C16.8906 7 16.8877 7 16.8847 7C16.8818 7 16.8789 7 16.876 7C16.8731 7 16.8701 7 16.8672 7C16.8642 7 16.8613 7 16.8583 7C16.8553 7 16.8524 7 16.8494 7C16.8464 7 16.8434 7 16.8404 7C16.8374 7 16.8344 7 16.8314 7C16.8284 7 16.8254 7 16.8223 7C16.8193 7 16.8162 7 16.8132 7C16.8102 7 16.8071 7 16.804 7C16.801 7 16.7979 7 16.7948 7C16.7917 7 16.7886 7 16.7855 7C16.7824 7 16.7793 7 16.7762 7C16.7731 7 16.7699 7 16.7668 7C16.7637 7 16.7605 7 16.7574 7C16.7542 7 16.7511 7 16.7479 7C16.7447 7 16.7415 7 16.7384 7C16.7352 7 16.732 7 16.7288 7C16.7256 7 16.7224 7 16.7192 7C16.7159 7 16.7127 7 16.7095 7C16.7062 7 16.703 7 16.6997 7C16.6965 7 16.6932 7 16.69 7C16.6867 7 16.6834 7 16.6801 7C16.6769 7 16.6736 7 16.6703 7C16.667 7 16.6636 7 16.6603 7C16.657 7 16.6537 7 16.6504 7C16.647 7 16.6437 7 16.6403 7C16.637 7 16.6336 7 16.6303 7C16.6269 7 16.6235 7 16.6201 7C16.6168 7 16.6134 7 16.61 7C16.6066 7 16.6032 7 16.5998 7C16.5964 7 16.5929 7 16.5895 7C16.5861 7 16.5826 7 16.5792 7C16.5758 7 16.5723 7 16.5689 7C16.5654 7 16.5619 7 16.5585 7C16.555 7 16.5515 7 16.548 7C16.5445 7 16.541 7 16.5375 7C16.534 7 16.5305 7 16.527 7C16.5235 7 16.5199 7 16.5164 7C16.5128 7 16.5093 7 16.5058 7C16.5022 7 16.4986 7 16.4951 7C16.4915 7 16.4879 7 16.4844 7C16.4808 7 16.4772 7 16.4736 7C16.47 7 16.4664 7 16.4628 7C16.4592 7 16.4555 7 16.4519 7C16.4483 7 16.4447 7 16.441 7C16.4374 7 16.4337 7 16.4301 7C16.4264 7 16.4228 7 16.4191 7C16.4154 7 16.4117 7 16.4081 7C16.4044 7 16.4007 7 16.397 7C16.3933 7 16.3896 7 16.3859 7C16.3821 7 16.3784 7 16.3747 7C16.371 7 16.3672 7 16.3635 7C16.3597 7 16.356 7 16.3522 7C16.3485 7 16.3447 7 16.3409 7C16.3372 7 16.3334 7 16.3296 7C16.3258 7 16.322 7 16.3182 7C16.3144 7 16.3106 7 16.3068 7C16.303 7 16.2992 7 16.2953 7C16.2915 7 16.2877 7 16.2838 7C16.28 7 16.2761 7 16.2723 7C16.2684 7 16.2646 7 16.2607 7C16.2568 7 16.2529 7 16.2491 7C16.2452 7 16.2413 7 16.2374 7C16.2335 7 16.2296 7 16.2257 7C16.2218 7 16.2179 7 16.2139 7C16.21 7 16.2061 7 16.2021 7C16.1982 7 16.1943 7 16.1903 7C16.1864 7 16.1824 7 16.1784 7C16.1745 7 16.1705 7 16.1665 7C16.1625 7 16.1586 7 16.1546 7C16.1506 7 16.1466 7 16.1426 7C16.1386 7 16.1346 7 16.1305 7C16.1265 7 16.1225 7 16.1185 7C16.1144 7 16.1104 7 16.1064 7C16.1023 7 16.0983 7 16.0942 7C16.0902 7 16.0861 7 16.082 7C16.078 7 16.0739 7 16.0698 7C16.0657 7 16.0616 7 16.0575 7C16.0534 7 16.0493 7 16.0452 7C16.0411 7 16.037 7 16.0329 7C16.0288 7 16.0246 7 16.0205 7C16.0164 7 16.0122 7 16.0081 7C16.0039 7 15.9998 7 15.9956 7C15.9915 7 15.9873 7 15.9831 7C15.979 7 15.9748 7 15.9706 7C15.9664 7 15.9622 7 15.9581 7C15.9539 7 15.9497 7 15.9455 7C15.9412 7 15.937 7 15.9328 7C15.9286 7 15.9244 7 15.9201 7C15.9159 7 15.9117 7 15.9074 7C15.9032 7 15.8989 7 15.8947 7C15.8904 7 15.8862 7 15.8819 7C15.8776 7 15.8734 7 15.8691 7C15.8648 7 15.8605 7 15.8562 7C15.852 7 15.8477 7 15.8434 7C15.8391 7 15.8347 7 15.8304 7C15.8261 7 15.8218 7 15.8175 7C15.8132 7 15.8088 7 15.8045 7C15.8002 7 15.7958 7 15.7915 7C15.7871 7 15.7828 7 15.7784 7C15.774 7 15.7697 7 15.7653 7C15.7609 7 15.7566 7 15.7522 7C15.7478 7 15.7434 7 15.739 7C15.7346 7 15.7302 7 15.7258 7C15.7214 7 15.717 7 15.7126 7C15.7082 7 15.7038 7 15.6994 7C15.6949 7 15.6905 7 15.6861 7C15.6816 7 15.6772 7 15.6727 7C15.6683 7 15.6638 7 15.6594 7C15.6549 7 15.6505 7 15.646 7C15.6415 7 15.637 7 15.6326 7C15.6281 7 15.6236 7 15.6191 7C15.6146 7 15.6101 7 15.6056 7C15.6011 7 15.5966 7 15.5921 7C15.5876 7 15.5831 7 15.5786 7C15.5741 7 15.5695 7 15.565 7C15.5605 7 15.5559 7 15.5514 7C15.5468 7 15.5423 7 15.5377 7C15.5332 7 15.5286 7 15.5241 7C15.5195 7 15.515 7 15.5104 7C15.5058 7 15.5012 7 15.4966 7C15.4921 7 15.4875 7 15.4829 7C15.4783 7 15.4737 7 15.4691 7C15.4645 7 15.4599 7 15.4553 7C15.4507 7 15.4461 7 15.4414 7C15.4368 7 15.4322 7 15.4276 7C15.4229 7 15.4183 7 15.4137 7C15.409 7 15.4044 7 15.3997 7C15.3951 7 15.3904 7 15.3858 7C15.3811 7 15.3764 7 15.3718 7C15.3671 7 15.3624 7 15.3577 7C15.3531 7 15.3484 7 15.3437 7C15.339 7 15.3343 7 15.3296 7C15.3249 7 15.3202 7 15.3155 7C15.3108 7 15.3061 7 15.3014 7C15.2967 7 15.292 7 15.2872 7C15.2825 7 15.2778 7 15.273 7C15.2683 7 15.2636 7 15.2588 7C15.2541 7 15.2493 7 15.2446 7C15.2398 7 15.2351 7 15.2303 7C15.2256 7 15.2208 7 15.216 7C15.2113 7 15.2065 7 15.2017 7C15.1969 7 15.1922 7 15.1874 7C15.1826 7 15.1778 7 15.173 7C15.1682 7 15.1634 7 15.1586 7C15.1538 7 15.149 7 15.1442 7C15.1394 7 15.1346 7 15.1298 7C15.1249 7 15.1201 7 15.1153 7C15.1105 7 15.1056 7 15.1008 7C15.096 7 15.0911 7 15.0863 7C15.0814 7 15.0766 7 15.0717 7C15.0669 7 15.062 7 15.0572 7C15.0523 7 15.0474 7 15.0426 7C15.0377 7 15.0328 7 15.028 7C15.0231 7 15.0182 7 15.0133 7C15.0084 7 15.0035 7 14.9987 7C14.9938 7 14.9889 7 14.984 7C14.9791 7 14.9742 7 14.9693 7C14.9644 7 14.9594 7 14.9545 7C14.9496 7 14.9447 7 14.9398 7C14.9349 7 14.9299 7 14.925 7C14.9201 7 14.9151 7 14.9102 7C14.9053 7 14.9003 7 14.8954 7C14.8904 7 14.8855 7 14.8805 7C14.8756 7 14.8706 7 14.8657 7C14.8607 7 14.8558 7 14.8508 7C14.8458 7 14.8409 7 14.8359 7C14.8309 7 14.8259 7 14.821 7C14.816 7 14.811 7 14.806 7C14.801 7 14.796 7 14.791 7C14.7861 7 14.7811 7 14.7761 7C14.7711 7 14.7661 7 14.7611 7C14.756 7 14.751 7 14.746 7C14.741 7 14.736 7 14.731 7C14.726 7 14.7209 7 14.7159 7C14.7109 7 14.7058 7 14.7008 7C14.6958 7 14.6907 7 14.6857 7C14.6807 7 14.6756 7 14.6706 7C14.6655 7 14.6605 7 14.6554 7C14.6504 7 14.6453 7 14.6403 7C14.6352 7 14.6301 7 14.6251 7C14.62 7 14.615 7 14.6099 7C14.6048 7 14.5997 7 14.5947 7C14.5896 7 14.5845 7 14.5794 7C14.5743 7 14.5693 7 14.5642 7C14.5591 7 14.554 7 14.5489 7C14.5438 7 14.5387 7 14.5336 7C14.5285 7 14.5234 7 14.5183 7C14.5132 7 14.5081 7 14.503 7C14.4979 7 14.4927 7 14.4876 7C14.4825 7 14.4774 7 14.4723 7C14.4671 7 14.462 7 14.4569 7C14.4518 7 14.4466 7 14.4415 7C14.4364 7 14.4312 7 14.4261 7C14.4209 7 14.4158 7 14.4107 7C14.4055 7 14.4004 7 14.3952 7C14.3901 7 14.3849 7 14.3798 7C14.3746 7 14.3695 7 14.3643 7C14.3591 7 14.354 7 14.3488 7C14.3436 7 14.3385 7 14.3333 7C14.3281 7 14.323 7 14.3178 7C14.3126 7 14.3074 7 14.3023 7C14.2971 7 14.2919 7 14.2867 7C14.2815 7 14.2763 7 14.2712 7C14.266 7 14.2608 7 14.2556 7C14.2504 7 14.2452 7 14.24 7C14.2348 7 14.2296 7 14.2244 7C14.2192 7 14.214 7 14.2088 7C14.2036 7 14.1984 7 14.1932 7C14.1879 7 14.1827 7 14.1775 7C14.1723 7 14.1671 7 14.1619 7C14.1566 7 14.1514 7 14.1462 7C14.141 7 14.1357 7 14.1305 7C14.1253 7 14.1201 7 14.1148 7C14.1096 7 14.1044 7 14.0991 7C14.0939 7 14.0887 7 14.0834 7C14.0782 7 14.0729 7 14.0677 7C14.0624 7 14.0572 7 14.0519 7C14.0467 7 14.0414 7 14.0362 7C14.0309 7 14.0257 7 14.0204 7C14.0152 7 14.0099 7 14.0047 7C13.9994 7 13.9941 7 13.9889 7C13.9836 7 13.9784 7 13.9731 7C13.9678 7 13.9626 7 13.9573 7C13.952 7 13.9467 7 13.9415 7C13.9362 7 13.9309 7 13.9257 7C13.9204 7 13.9151 7 13.9098 7C13.9045 7 13.8993 7 13.894 7C13.8887 7 13.8834 7 13.8781 7C13.8728 7 13.8675 7 13.8623 7C13.857 7 13.8517 7 13.8464 7C13.8411 7 13.8358 7 13.8305 7C13.8252 7 13.8199 7 13.8146 7C13.8093 7 13.804 7 13.7987 7C13.7934 7 13.7881 7 13.7828 7C13.7775 7 13.7722 7 13.7669 7C13.7616 7 13.7563 7 13.751 7C13.7457 7 13.7404 7 13.7351 7C13.7297 7 13.7244 7 13.7191 7C13.7138 7 13.7085 7 13.7032 7C13.6979 7 13.6925 7 13.6872 7C13.6819 7 13.6766 7 13.6713 7C13.666 7 13.6606 7 13.6553 7C13.65 7 13.6447 7 13.6393 7C13.634 7 13.6287 7 13.6234 7C13.618 7 13.6127 7 13.6074 7C13.602 7 13.5967 7 13.5914 7C13.5861 7 13.5807 7 13.5754 7C13.5701 7 13.5647 7 13.5594 7C13.5541 7 13.5487 7 13.5434 7C13.538 7 13.5327 7 13.5274 7C13.522 7 13.5167 7 13.5114 7C13.506 7 13.5007 7 13.4953 7C13.49 7 13.4847 7 13.4793 7C13.474 7 13.4686 7 13.4633 7C13.4579 7 13.4526 7 13.4472 7C13.4419 7 13.4366 7 13.4312 7C13.4259 7 13.4205 7 13.4152 7C13.4098 7 13.4045 7 13.3991 7C13.3938 7 13.3884 7 13.3831 7C13.3777 7 13.3724 7 13.367 7C13.3617 7 13.3563 7 13.351 7C13.3456 7 13.3402 7 13.3349 7C13.3295 7 13.3242 7 13.3188 7C13.3135 7 13.3081 7 13.3028 7C13.2974 7 13.2921 7 13.2867 7C13.2813 7 13.276 7 13.2706 7C13.2653 7 13.2599 7 13.2546 7C13.2492 7 13.2438 7 13.2385 7C13.2331 7 13.2278 7 13.2224 7C13.2171 7 13.2117 7 13.2063 7C13.201 7 13.1956 7 13.1903 7C13.1849 7 13.1795 7 13.1742 7C13.1688 7 13.1635 7 13.1581 7C13.1527 7 13.1474 7 13.142 7C13.1367 7 13.1313 7 13.1259 7C13.1206 7 13.1152 7 13.1099 7C13.1045 7 13.0991 7 13.0938 7C13.0884 7 13.0831 7 13.0777 7C13.0723 7 13.067 7 13.0616 7C13.0563 7 13.0509 7 13.0455 7C13.0402 7 13.0348 7 13.0295 7C13.0241 7 13.0187 7 13.0134 7C13.008 7 13.0027 7 12.9973 7C12.9919 7 12.9866 7 12.9812 7C12.9759 7 12.9705 7 12.9651 7C12.9598 7 12.9544 7 12.9491 7C12.9437 7 12.9384 7 12.933 7C12.9276 7 12.9223 7 12.9169 7C12.9116 7 12.9062 7 12.9009 7C12.8955 7 12.8902 7 12.8848 7C12.8794 7 12.8741 7 12.8687 7C12.8634 7 12.858 7 12.8527 7C12.8473 7 12.842 7 12.8366 7C12.8313 7 12.8259 7 12.8206 7C12.8152 7 12.8099 7 12.8045 7C12.7992 7 12.7938 7 12.7885 7C12.7831 7 12.7778 7 12.7724 7C12.7671 7 12.7617 7 12.7564 7C12.751 7 12.7457 7 12.7404 7C12.735 7 12.7297 7 12.7243 7C12.719 7 12.7136 7 12.7083 7C12.703 7 12.6976 7 12.6923 7C12.6869 7 12.6816 7 12.6763 7C12.6709 7 12.6656 7 12.6603 7C12.6549 7 12.6496 7 12.6443 7C12.6389 7 12.6336 7 12.6283 7C12.6229 7 12.6176 7 12.6123 7C12.6069 7 12.6016 7 12.5963 7C12.5909 7 12.5856 7 12.5803 7C12.575 7 12.5696 7 12.5643 7C12.559 7 12.5537 7 12.5483 7C12.543 7 12.5377 7 12.5324 7C12.5271 7 12.5217 7 12.5164 7C12.5111 7 12.5058 7 12.5005 7C12.4952 7 12.4898 7 12.4845 7C12.4792 7 12.4739 7 12.4686 7C12.4633 7 12.458 7 12.4527 7C12.4474 7 12.442 7 12.4367 7C12.4314 7 12.4261 7 12.4208 7C12.4155 7 12.4102 7 12.4049 7C12.3996 7 12.3943 7 12.389 7C12.3837 7 12.3784 7 12.3731 7C12.3678 7 12.3626 7 12.3573 7C12.352 7 12.3467 7 12.3414 7C12.3361 7 12.3308 7 12.3255 7C12.3202 7 12.315 7 12.3097 7C12.3044 7 12.2991 7 12.2938 7C12.2886 7 12.2833 7 12.278 7C12.2727 7 12.2675 7 12.2622 7C12.2569 7 12.2516 7 12.2464 7C12.2411 7 12.2358 7 12.2306 7C12.2253 7 12.22 7 12.2148 7C12.2095 7 12.2043 7 12.199 7C12.1937 7 12.1885 7 12.1832 7C12.178 7 12.1727 7 12.1675 7C12.1622 7 12.157 7 12.1517 7C12.1465 7 12.1412 7 12.136 7C12.1307 7 12.1255 7 12.1203 7C12.115 7 12.1098 7 12.1045 7C12.0993 7 12.0941 7 12.0888 7C12.0836 7 12.0784 7 12.0732 7C12.0679 7 12.0627 7 12.0575 7C12.0523 7 12.047 7 12.0418 7C12.0366 7 12.0314 7 12.0262 7C12.0209 7 12.0157 7 12.0105 7C12.0053 7 12.0001 7 11.9949 7C11.9897 7 11.9845 7 11.9793 7C11.9741 7 11.9689 7 11.9637 7C11.9585 7 11.9533 7 11.9481 7C11.9429 7 11.9377 7 11.9325 7C11.9273 7 11.9222 7 11.917 7C11.9118 7 11.9066 7 11.9014 7C11.8963 7 11.8911 7 11.8859 7C11.8807 7 11.8756 7 11.8704 7C11.8652 7 11.8601 7 11.8549 7C11.8497 7 11.8446 7 11.8394 7C11.8342 7 11.8291 7 11.8239 7C11.8188 7 11.8136 7 11.8085 7C11.8033 7 11.7982 7 11.793 7C11.7879 7 11.7828 7 11.7776 7C11.7725 7 11.7673 7 11.7622 7C11.7571 7 11.752 7 11.7468 7C11.7417 7 11.7366 7 11.7315 7C11.7263 7 11.7212 7 11.7161 7C11.711 7 11.7059 7 11.7008 7C11.6956 7 11.6905 7 11.6854 7C11.6803 7 11.6752 7 11.6701 7C11.665 7 11.6599 7 11.6548 7C11.6497 7 11.6446 7 11.6396 7C11.6345 7 11.6294 7 11.6243 7C11.6192 7 11.6141 7 11.6091 7C11.604 7 11.5989 7 11.5939 7C11.5888 7 11.5837 7 11.5787 7C11.5736 7 11.5685 7 11.5635 7C11.5584 7 11.5534 7 11.5483 7C11.5433 7 11.5382 7 11.5332 7C11.5281 7 11.5231 7 11.518 7C11.513 7 11.508 7 11.5029 7V8ZM13.8992 11.3333C13.8679 10.8343 13.868 10.8343 13.8681 10.8343C13.8682 10.8343 13.8683 10.8343 13.8683 10.8343C13.8684 10.8343 13.8684 10.8343 13.8684 10.8343C13.8683 10.8343 13.868 10.8343 13.8674 10.8343C13.8662 10.8344 13.864 10.8345 13.8608 10.8347C13.8545 10.835 13.8443 10.8355 13.8304 10.8361C13.8026 10.8372 13.7601 10.8387 13.7046 10.8396C13.5935 10.8415 13.4307 10.8415 13.2295 10.8334C12.826 10.8172 12.2743 10.7688 11.679 10.6412C10.4696 10.3821 9.18394 9.82004 8.50569 8.654L7.64128 9.1568C8.53083 10.6861 10.158 11.338 11.4695 11.619C12.1347 11.7615 12.7455 11.8147 13.1893 11.8326C13.4118 11.8415 13.5939 11.8417 13.7218 11.8395C13.7857 11.8384 13.8362 11.8367 13.8716 11.8353C13.8893 11.8345 13.9032 11.8339 13.9131 11.8333C13.918 11.8331 13.922 11.8329 13.9249 11.8327C13.9263 11.8326 13.9275 11.8325 13.9285 11.8325C13.929 11.8324 13.9294 11.8324 13.9297 11.8324C13.9299 11.8324 13.9301 11.8324 13.9302 11.8324C13.9304 11.8324 13.9306 11.8324 13.8992 11.3333ZM8.50569 8.654C8.20062 8.12953 8.00294 7.45882 8.00293 6.59127L7.00293 6.59128C7.00294 7.61763 7.23885 8.46494 7.64128 9.1568L8.50569 8.654ZM7.48569 8.86332L7.63144 9.13905L8.51553 8.67175L8.36979 8.39601L7.48569 8.86332Z" fill="black"/>
</svg>
