<svg width="25" height="24" viewBox="0 0 25 24" fill="none" xmlns="http://www.w3.org/2000/svg">
<path fill-rule="evenodd" clip-rule="evenodd" d="M4.83843 1C2.73407 1 1.00293 2.73114 1.00293 4.8355V19.1645C1.00293 21.2689 2.73407 23 4.83843 23H19.1674C21.2718 23 23.0029 21.2689 23.0029 19.1645V4.8355C23.0029 2.73114 21.2718 1 19.1674 1H4.83843ZM0.00292969 4.8355C0.00292969 2.17886 2.18179 0 4.83843 0H19.1674C21.8241 0 24.0029 2.17886 24.0029 4.8355V19.1645C24.0029 21.8211 21.8241 24 19.1674 24H4.83843C2.18179 24 0.00292969 21.8211 0.00292969 19.1645V4.8355ZM4.00293 6.5C4.00293 6.22386 4.22679 6 4.50293 6H16.5029C16.7791 6 17.0029 6.22386 17.0029 6.5C17.0029 6.77614 16.7791 7 16.5029 7H4.50293C4.22679 7 4.00293 6.77614 4.00293 6.5ZM4.00293 11.5C4.00293 11.2239 4.22679 11 4.50293 11H13.5029C13.7791 11 14.0029 11.2239 14.0029 11.5C14.0029 11.7761 13.7791 12 13.5029 12H4.50293C4.22679 12 4.00293 11.7761 4.00293 11.5ZM17.5029 13C17.7791 13 18.0029 13.2239 18.0029 13.5V16.0134L20.5048 16.0229C20.781 16.024 21.004 16.2487 21.0029 16.5248C21.0019 16.801 20.7772 17.024 20.501 17.0229L18.0029 17.0134V19.5C18.0029 19.7761 17.7791 20 17.5029 20C17.2268 20 17.0029 19.7761 17.0029 19.5V17.0095L14.501 17C14.2249 16.9989 14.0019 16.7742 14.0029 16.4981C14.004 16.222 14.2287 15.9989 14.5048 16L17.0029 16.0095V13.5C17.0029 13.2239 17.2268 13 17.5029 13ZM3.98096 16.5C3.98096 16.2239 4.20481 16 4.48096 16H10.481C10.7571 16 10.981 16.2239 10.981 16.5C10.981 16.7761 10.7571 17 10.481 17H4.48096C4.20481 17 3.98096 16.7761 3.98096 16.5Z" fill="black"/>
</svg>
