<svg width="23" height="22" viewBox="0 0 23 22" fill="none" xmlns="http://www.w3.org/2000/svg">
<path fill-rule="evenodd" clip-rule="evenodd" d="M3.00293 3.5C3.00293 1.567 4.56993 0 6.50293 0C8.43593 0 10.0029 1.567 10.0029 3.5V7H11.5029C12.3314 7 13.0029 7.67157 13.0029 8.5V9.5C13.0029 9.77614 12.7791 10 12.5029 10C12.2268 10 12.0029 9.77614 12.0029 9.5V8.5C12.0029 8.22386 11.7791 8 11.5029 8H1.50293C1.22679 8 1.00293 8.22386 1.00293 8.5V17.5C1.00293 17.7761 1.22679 18 1.50293 18H9.50293C9.77907 18 10.0029 18.2239 10.0029 18.5C10.0029 18.7761 9.77907 19 9.50293 19H1.50293C0.674503 19 0.00292969 18.3284 0.00292969 17.5V8.5C0.00292969 7.67157 0.674503 7 1.50293 7H3.00293V3.5ZM4.00293 7H9.00293V3.5C9.00293 2.11929 7.88364 1 6.50293 1C5.12222 1 4.00293 2.11929 4.00293 3.5V7ZM17.5029 13C15.4245 13 14.0029 14.5538 14.0029 16.5C14.0029 16.7761 13.7791 17 13.5029 17C13.2268 17 13.0029 16.7761 13.0029 16.5C13.0029 14.0279 14.8463 12 17.5029 12C18.7423 12 20.0501 12.4479 21.0029 13.2114V12.5C21.0029 12.2239 21.2268 12 21.5029 12C21.7791 12 22.0029 12.2239 22.0029 12.5V14.5C22.0029 14.7761 21.7791 15 21.5029 15H19.5029C19.2268 15 19.0029 14.7761 19.0029 14.5C19.0029 14.2239 19.2268 14 19.5029 14H20.3868C19.6352 13.3938 18.5588 13 17.5029 13ZM21.5029 17C21.7791 17 22.0029 17.2239 22.0029 17.5C22.0029 19.9721 20.1596 22 17.5029 22C16.2635 22 14.9557 21.5521 14.0029 20.7886V21.5C14.0029 21.7761 13.7791 22 13.5029 22C13.2268 22 13.0029 21.7761 13.0029 21.5V19.5C13.0029 19.2239 13.2268 19 13.5029 19H15.5029C15.7791 19 16.0029 19.2239 16.0029 19.5C16.0029 19.7761 15.7791 20 15.5029 20H14.6191C15.3707 20.6062 16.4471 21 17.5029 21C19.5813 21 21.0029 19.4462 21.0029 17.5C21.0029 17.2239 21.2268 17 21.5029 17Z" fill="black"/>
</svg>
