<svg width="23" height="23" viewBox="0 0 23 23" fill="none" xmlns="http://www.w3.org/2000/svg">
<path fill-rule="evenodd" clip-rule="evenodd" d="M3.25323 3.06294C3.49299 1.7032 4.78963 0.795284 6.14937 1.03504L19.9367 3.46612C21.2964 3.70587 22.2043 5.00252 21.9646 6.36226L20.2706 15.9692C20.2363 16.1635 20.1408 16.3375 20.0029 16.469V20.5C20.0029 21.8807 18.8836 23 17.5029 23H2.50293C1.12222 23 0.00292969 21.8807 0.00292969 20.5V11.5C0.00292969 10.2207 0.96382 9.16582 2.20324 9.01775L3.25323 3.06294ZM3.2218 8.99997H17.5029C18.8836 8.99997 20.0029 10.1193 20.0029 11.5V11.7285L20.5456 8.65063L3.80392 5.69861L3.2218 8.99997ZM3.97757 4.7138L20.7193 7.66582L20.9798 6.18861C21.1236 5.37277 20.5789 4.59478 19.763 4.45092L5.97572 2.01985C5.15988 1.87599 4.38189 2.42075 4.23804 3.23659L3.97757 4.7138ZM2.50293 9.99997C1.6745 9.99997 1.00293 10.6715 1.00293 11.5V20.5C1.00293 21.3284 1.6745 22 2.50293 22H17.5029C18.3314 22 19.0029 21.3284 19.0029 20.5V11.5C19.0029 10.6715 18.3314 9.99997 17.5029 9.99997H2.50293ZM3.00293 19.5C3.00293 19.2238 3.22679 19 3.50293 19H4.50293C4.77907 19 5.00293 19.2238 5.00293 19.5C5.00293 19.7761 4.77907 20 4.50293 20H3.50293C3.22679 20 3.00293 19.7761 3.00293 19.5ZM7.00293 19.5C7.00293 19.2238 7.22679 19 7.50293 19H8.50293C8.77907 19 9.00293 19.2238 9.00293 19.5C9.00293 19.7761 8.77907 20 8.50293 20H7.50293C7.22679 20 7.00293 19.7761 7.00293 19.5ZM11.0029 19.5C11.0029 19.2238 11.2268 19 11.5029 19H12.5029C12.7791 19 13.0029 19.2238 13.0029 19.5C13.0029 19.7761 12.7791 20 12.5029 20H11.5029C11.2268 20 11.0029 19.7761 11.0029 19.5ZM15.0029 19.5C15.0029 19.2238 15.2268 19 15.5029 19H16.5029C16.7791 19 17.0029 19.2238 17.0029 19.5C17.0029 19.7761 16.7791 20 16.5029 20H15.5029C15.2268 20 15.0029 19.7761 15.0029 19.5Z" fill="black"/>
</svg>
