<svg width="23" height="20" viewBox="0 0 23 20" fill="none" xmlns="http://www.w3.org/2000/svg">
<path d="M3.44298 16.9667L3.831 17.282L3.83394 17.2784L3.44298 16.9667ZM18.563 16.9667L18.9605 16.6632L18.9525 16.6531L18.563 16.9667ZM18.9061 17.4162L19.2256 17.8007L18.9061 17.4162ZM13.6529 7.36111C13.6529 8.46312 12.553 9.5 11.0029 9.5V10.5C12.9322 10.5 14.6529 9.17394 14.6529 7.36111H13.6529ZM11.0029 9.5C9.4528 9.5 8.35293 8.46312 8.35293 7.36111H7.35293C7.35293 9.17393 9.07366 10.5 11.0029 10.5V9.5ZM8.35293 7.36111C8.35293 6.2591 9.4528 5.22222 11.0029 5.22222V4.22222C9.07366 4.22222 7.35293 5.54828 7.35293 7.36111H8.35293ZM11.0029 5.22222C12.5531 5.22222 13.6529 6.2591 13.6529 7.36111H14.6529C14.6529 5.54828 12.9322 4.22222 11.0029 4.22222V5.22222ZM3.83394 17.2784C4.48606 16.4604 5.17112 15.6581 6.23129 15.0477C7.28701 14.4399 8.75672 14 10.9988 14V13C8.62087 13 6.97058 13.4682 5.73234 14.1811C4.49854 14.8914 3.71569 15.8225 3.05202 16.655L3.83394 17.2784ZM10.9988 14C13.2412 14 14.708 14.4378 15.7632 15.0445C16.8232 15.6539 17.5102 16.4563 18.1735 17.2802L18.9525 16.6531C18.2798 15.8175 17.4947 14.8865 16.2616 14.1776C15.0237 13.4658 13.3764 13 10.9988 13V14ZM1.00293 10.5027C1.00293 6.97371 1.65049 4.64868 3.16372 3.18502C4.68243 1.71605 7.19034 1 11.2093 1V0C7.12152 0 4.27627 0.717665 2.46848 2.46624C0.655204 4.22012 0.00292969 6.89646 0.00292969 10.5027H1.00293ZM11.2093 1C15.2306 1 17.6246 1.71817 19.0371 3.17521C20.4523 4.63507 21.0029 6.95899 21.0029 10.5027H22.0029C22.0029 6.91532 21.46 4.23787 19.7551 2.47916C18.0474 0.717618 15.2946 0 11.2093 0V1ZM10.9988 19C7.58291 19 5.08351 18.3405 3.44904 16.971L2.80681 17.7375C4.70476 19.3277 7.48669 20 10.9988 20V19ZM3.44904 16.971C1.86387 15.6429 1.00293 13.5697 1.00293 10.5027H0.00292969C0.00292969 13.759 0.924243 16.1602 2.80681 17.7375L3.44904 16.971ZM3.05498 16.6513L2.73993 17.0389L3.51593 17.6696L3.83098 17.282L3.05498 16.6513ZM21.0029 10.5027C21.0029 13.6596 20.1561 15.7277 18.5866 17.0316L19.2256 17.8007C21.1031 16.241 22.0029 13.8355 22.0029 10.5027H21.0029ZM18.5866 17.0316C16.9628 18.3806 14.4632 19 10.9988 19V20C14.5436 20 17.332 19.3739 19.2256 17.8007L18.5866 17.0316ZM18.1656 17.2701L18.5087 17.7196L19.3036 17.1127L18.9604 16.6633L18.1656 17.2701Z" fill="black"/>
</svg>
