<svg width="25" height="21" viewBox="0 0 25 21" fill="none" xmlns="http://www.w3.org/2000/svg">
<path fill-rule="evenodd" clip-rule="evenodd" d="M11.9418 3.78332C11.745 3.60565 11.4712 3.3664 11.137 3.09425C10.4284 2.51731 9.43902 1.78497 8.3282 1.1787C7.22347 0.575752 5.96143 0.0767818 4.71519 0.00809423C3.44551 -0.0618854 2.19456 0.317543 1.1877 1.45352L1.17176 1.47151L1.15761 1.49095C-0.264938 3.4456 -0.241471 5.60051 0.536108 7.65993C1.30639 9.70004 2.82671 11.6865 4.4746 13.412C6.12836 15.1436 7.94194 16.6445 9.33816 17.7104C10.0372 18.244 10.6337 18.6703 11.0561 18.9635C11.2674 19.1102 11.4353 19.2237 11.5508 19.3009C11.6086 19.3394 11.6533 19.3689 11.6838 19.3889L11.7188 19.4118L11.7281 19.4178L11.7306 19.4195C11.7306 19.4195 11.7317 19.4202 12.0027 19L11.7317 19.4202C11.9637 19.5699 12.2732 19.5031 12.4229 19.2711C12.5726 19.039 12.5059 18.7296 12.2738 18.5799L12.2717 18.5785L12.2641 18.5736L12.2323 18.5528C12.204 18.5342 12.1616 18.5062 12.1061 18.4692C11.9953 18.3952 11.8324 18.2851 11.6264 18.1421C11.2143 17.856 10.6302 17.4387 9.94497 16.9156C8.57264 15.8679 6.80294 14.4021 5.19778 12.7213C3.58674 11.0344 2.17249 9.16289 1.47164 7.3067C0.780908 5.47728 0.79375 3.70462 1.95193 2.09903C2.72441 1.23783 3.65628 0.951249 4.66016 1.00658C5.69436 1.06358 6.80449 1.48633 7.84913 2.05647C8.88768 2.6233 9.82485 3.31543 10.5055 3.86969C10.8449 4.14602 11.1182 4.38621 11.306 4.5566C11.3998 4.64176 11.4721 4.70936 11.5205 4.7552C11.5447 4.77811 11.5629 4.79557 11.5748 4.80705L11.5878 4.81971L11.5907 4.82255L11.9418 5.16786L12.2923 4.82312L12.2958 4.81972L12.3088 4.80706C12.3207 4.79558 12.3389 4.77812 12.3631 4.7552C12.4115 4.70937 12.4838 4.64177 12.5776 4.55661C12.7654 4.38622 13.0387 4.14603 13.3781 3.8697C14.0588 3.31544 14.996 2.62331 16.0346 2.05648C17.0793 1.48633 18.1895 1.06358 19.2237 1.00658C20.2345 0.950869 21.1723 1.24178 21.9479 2.11682C22.7463 3.0177 23.0302 3.97927 22.908 5.03086C22.7829 6.10827 22.2261 7.31896 21.2566 8.67006C21.0956 8.89441 21.1469 9.2068 21.3713 9.36779C21.5956 9.52879 21.908 9.47742 22.069 9.25307C23.0856 7.83642 23.7484 6.46302 23.9013 5.14623C24.0573 3.80362 23.6777 2.56086 22.6962 1.45352C21.6894 0.31754 20.4384 -0.0618849 19.1687 0.0080942C17.9224 0.0767814 16.6603 0.575749 15.5556 1.1787C14.4447 1.78496 13.4553 2.5173 12.7467 3.09424C12.4124 3.3664 12.1387 3.60565 11.9418 3.78332ZM16.0321 12.6115C15.418 13.0134 15.0028 13.6575 15.0028 14.725C15.0028 15.7958 15.4216 16.4837 16.046 16.923C16.6958 17.3801 17.6171 17.6 18.6453 17.6C19.4347 17.6 20.1173 17.4736 20.6512 17.2126C21.0725 17.0068 21.4031 16.7168 21.632 16.328C21.8622 15.9368 22.0067 15.4162 22.0067 14.725C22.0067 13.6142 21.6372 12.9754 21.1005 12.5908C20.5319 12.1834 19.6915 12 18.6453 12C17.6027 12 16.6797 12.1877 16.0321 12.6115ZM15.4846 11.7747C16.3645 11.1989 17.5127 11 18.6453 11C19.7743 11 20.8647 11.1917 21.6829 11.778C22.5332 12.3872 23.0067 13.3608 23.0067 14.725C23.0067 15.5565 22.8321 16.2606 22.4938 16.8353C22.2714 17.2131 21.9856 17.5224 21.653 17.77L23.8694 20.16C24.0572 20.3625 24.0453 20.6789 23.8428 20.8666C23.6403 21.0544 23.324 21.0425 23.1362 20.84L20.744 18.2605C20.1091 18.5006 19.3908 18.6 18.6453 18.6C17.4983 18.6 16.3483 18.3583 15.4707 17.7409C14.5677 17.1056 14.0028 16.106 14.0028 14.725C14.0028 13.3408 14.5713 12.3724 15.4846 11.7747Z" fill="black"/>
</svg>
