<svg width="19" height="22" viewBox="0 0 19 22" fill="none" xmlns="http://www.w3.org/2000/svg">
<path fill-rule="evenodd" clip-rule="evenodd" d="M8.46979 8.28548C8.32454 8.33528 8.12414 8.46958 7.91895 8.77738C7.76578 9.00715 7.45534 9.06924 7.22558 8.91607C6.99581 8.7629 6.93372 8.45246 7.08689 8.2227C7.3817 7.78047 7.7438 7.47726 8.14543 7.33954C8.5527 7.19989 8.96798 7.24343 9.31348 7.44086C10.007 7.83712 10.2832 8.74023 9.97727 9.65813C9.80386 10.1784 9.54969 10.6675 9.30592 11.106C9.23595 11.2318 9.16788 11.3518 9.10242 11.4671C8.93149 11.7684 8.77841 12.0382 8.65579 12.2992C8.48544 12.6617 8.42077 12.916 8.43579 13.1014C8.44737 13.2443 8.50988 13.4037 8.78027 13.584C8.90639 13.6681 9.10821 13.696 9.3912 13.6086C9.67017 13.5225 9.95202 13.3438 10.1494 13.1464C10.3446 12.9512 10.6612 12.9512 10.8565 13.1464C11.0517 13.3417 11.0517 13.6583 10.8565 13.8535C10.5538 14.1562 10.1334 14.426 9.6863 14.5641C9.24317 14.701 8.69499 14.729 8.22557 14.416C7.74597 14.0963 7.47942 13.6803 7.43906 13.1822C7.40214 12.7266 7.56264 12.2742 7.75073 11.8739C7.89102 11.5753 8.07268 11.2552 8.25046 10.9419C8.31205 10.8334 8.37316 10.7257 8.43194 10.62C8.66934 10.193 8.88577 9.77036 9.02858 9.34192C9.22263 8.75974 8.99888 8.41283 8.81736 8.30911C8.72537 8.25655 8.60939 8.23761 8.46979 8.28548Z" fill="black"/>
<path fill-rule="evenodd" clip-rule="evenodd" d="M0.00292969 1.5C0.00292969 0.671573 0.674503 0 1.50293 0H16.5029C17.3314 0 18.0029 0.671573 18.0029 1.5V16.5C18.0029 17.3284 17.3314 18 16.5029 18H2.50293C1.6745 18 1.00293 18.6716 1.00293 19.5C1.00293 20.3284 1.6745 21 2.50293 21H15.5029C16.3314 21 17.0029 20.3284 17.0029 19.5C17.0029 19.5 17.0029 19 17.5029 19C18.0029 19 18.0029 19.5 18.0029 19.5C18.0029 20.8807 16.8836 22 15.5029 22H2.50293C1.12222 22 0.00292969 20.8807 0.00292969 19.5V1.5ZM1.00293 17.4998C1.42076 17.186 1.94013 17 2.50293 17H16.5029C16.7791 17 17.0029 16.7761 17.0029 16.5V1.5C17.0029 1.22386 16.7791 1 16.5029 1H1.50293C1.22679 1 1.00293 1.22386 1.00293 1.5V17.4998Z" fill="black"/>
<path d="M10.5029 5C10.5029 5.55228 10.0552 6 9.50293 6C8.95064 6 8.50293 5.55228 8.50293 5C8.50293 4.44772 8.95064 4 9.50293 4C10.0552 4 10.5029 4.44772 10.5029 5Z" fill="black"/>
</svg>
