<svg width="19" height="22" viewBox="0 0 19 22" fill="none" xmlns="http://www.w3.org/2000/svg">
<path fill-rule="evenodd" clip-rule="evenodd" d="M14.6696 1C13.3859 1 12.3363 2.05321 12.3363 3.36364C12.3363 3.64142 12.3834 3.90694 12.4695 4.15313C12.7914 5.07369 13.6578 5.72727 14.6696 5.72727C15.9533 5.72727 17.0029 4.67406 17.0029 3.36364C17.0029 2.05321 15.9533 1 14.6696 1ZM11.3363 3.36364C11.3363 1.51098 12.8236 0 14.6696 0C16.5155 0 18.0029 1.51098 18.0029 3.36364C18.0029 5.21629 16.5155 6.72727 14.6696 6.72727C13.4472 6.72727 12.382 6.06413 11.802 5.07929L6.15095 9.19743C6.47939 9.71874 6.6696 10.3375 6.6696 11C6.6696 11.6625 6.47939 12.2813 6.15095 12.8026L11.802 16.9207C12.382 15.9359 13.4472 15.2727 14.6696 15.2727C16.5155 15.2727 18.0029 16.7837 18.0029 18.6364C18.0029 20.489 16.5155 22 14.6696 22C12.8236 22 11.3363 20.489 11.3363 18.6364C11.3363 18.3768 11.3655 18.1237 11.4209 17.8803L5.49569 13.5624C4.91478 14.0613 4.16067 14.3636 3.33626 14.3636C1.49031 14.3636 0.00292969 12.8527 0.00292969 11C0.00292969 9.14734 1.49031 7.63636 3.33626 7.63636C4.16067 7.63636 4.91478 7.93873 5.49569 8.43758L11.4209 4.11967C11.3655 3.8763 11.3363 3.62316 11.3363 3.36364ZM3.33626 8.63636C2.0526 8.63636 1.00293 9.68957 1.00293 11C1.00293 12.3104 2.0526 13.3636 3.33626 13.3636C4.02534 13.3636 4.64523 13.0616 5.07382 12.5776C5.4442 12.1594 5.6696 11.6073 5.6696 11C5.6696 10.3927 5.4442 9.84065 5.07382 9.42239C4.64523 8.93842 4.02534 8.63636 3.33626 8.63636ZM14.6696 16.2727C13.6578 16.2727 12.7914 16.9263 12.4695 17.8469C12.3834 18.0931 12.3363 18.3586 12.3363 18.6364C12.3363 19.9468 13.3859 21 14.6696 21C15.9533 21 17.0029 19.9468 17.0029 18.6364C17.0029 17.3259 15.9533 16.2727 14.6696 16.2727Z" fill="black"/>
</svg>
