<svg width="24" height="22" viewBox="0 0 24 22" fill="none" xmlns="http://www.w3.org/2000/svg">
<path fill-rule="evenodd" clip-rule="evenodd" d="M17.0029 0.5C17.0029 0.223858 17.2268 0 17.5029 0H20.5029C20.7791 0 21.0029 0.223858 21.0029 0.5V3.5C21.0029 3.77614 20.7791 4 20.5029 4C20.2268 4 20.0029 3.77614 20.0029 3.5V1.56752L14.823 5.88411C14.6529 6.02587 14.4098 6.03885 14.2256 5.91603L11.5666 4.1434L2.85648 12.8536C2.66122 13.0488 2.34464 13.0488 2.14938 12.8536C1.95411 12.6583 1.95411 12.3417 2.14938 12.1464L11.1494 3.14645C11.3179 2.97791 11.582 2.95177 11.7803 3.08397L14.4696 4.87688L19.1219 1H17.5029C17.2268 1 17.0029 0.776142 17.0029 0.5ZM16.0029 7.5C16.0029 7.22386 16.2268 7 16.5029 7H20.5029C20.7791 7 21.0029 7.22386 21.0029 7.5V21H22.5029C22.7791 21 23.0029 21.2239 23.0029 21.5C23.0029 21.7761 22.7791 22 22.5029 22H0.50293C0.226787 22 0.00292969 21.7761 0.00292969 21.5C0.00292969 21.2239 0.226787 21 0.50293 21H2.00293V17.5C2.00293 17.2239 2.22679 17 2.50293 17H6.50293C6.77907 17 7.00293 17.2239 7.00293 17.5V21H9.00293V13.5C9.00293 13.2239 9.22679 13 9.50293 13H13.5029C13.7791 13 14.0029 13.2239 14.0029 13.5V21H16.0029V7.5ZM17.0029 21H20.0029V8H17.0029V21ZM13.0029 21V14H10.0029V21H13.0029ZM6.00293 21V18H3.00293V21H6.00293Z" fill="black"/>
</svg>
