<svg width="40" height="40" xmlns="http://www.w3.org/2000/svg"><path fill-rule="evenodd" clip-rule="evenodd" d="M6.003 30a1 1 0 0 1 1-1h5a1 1 0 0 1 1 1v3a1 1 0 0 1-1 1h-5a1 1 0 0 1-1-1v-3Zm1 0v3h5v-3h-5ZM6.003 7a1 1 0 0 1 1-1h13a1 1 0 0 1 1 1v3a1 1 0 0 1-1 1h-13a1 1 0 0 1-1-1V7Zm1 0v3h13V7h-13Z"/><path fill-rule="evenodd" clip-rule="evenodd" d="M1.003 2.5a1.5 1.5 0 0 1 1.5-1.5h22a.5.5 0 0 1 .354.146l5 5a.5.5 0 0 1 .146.354v15.94a.5.5 0 1 1-1 0V7h-3.5c-.597 0-1.051-.177-1.302-.578-.201-.32-.2-.7-.198-.888V2h-21.5a.5.5 0 0 0-.5.5v35a.5.5 0 0 0 .5.5h26a.5.5 0 0 0 .5-.5v-3.203a.5.5 0 1 1 1 0V37.5a1.5 1.5 0 0 1-1.5 1.5h-26a1.5 1.5 0 0 1-1.5-1.5v-35Zm24 .207L28.296 6h-2.793a.99.99 0 0 1-.383-.056c-.052-.023-.065-.043-.072-.053a.314.314 0 0 1-.035-.124 2.11 2.11 0 0 1-.01-.267V2.707Zm-19 12.793a.5.5 0 0 1 .5-.5h14.5a.5.5 0 1 1 0 1h-14.5a.5.5 0 0 1-.5-.5Z"/><path fill-rule="evenodd" clip-rule="evenodd" d="M15.444 18.976c-.564-.288-1.393-.462-2.248.108-.447.299-.735.654-.895 1.036a2.083 2.083 0 0 0-.136 1.067 2.72 2.72 0 0 0 .373 1.06l.011.018c.517.86 1.963 2.98 3.571 4.589.1.099.205.21.32.33C17.448 28.247 19.116 30 22.474 30h5c.46 0 .9.193 1.282.468.219.158.405.333.55.493l-.685.685c-.599.599-.583 1.625 0 2.207l1.5 1.5c.304.305.674.522 1.103.522.43 0 .8-.217 1.104-.522l.008-.008.008-.009c1.67-1.838 5.666-6.164 5.983-6.483.323-.322.513-.71.502-1.135-.01-.418-.214-.784-.501-1.071l-1.5-1.5c-.29-.29-.593-.486-.92-.551-.343-.069-.64.02-.879.163-.184.11-.34.257-.466.392a8.099 8.099 0 0 0-1.393-1.648C32.27 22.698 31.033 22 29.474 22h-8c-.584 0-1.198.16-1.68.528-.22.169-.405.377-.544.622a113.677 113.677 0 0 0-1.518-1.846 214.045 214.045 0 0 0-1.269-1.5l-.11-.129-.38.325.38-.325v-.001l-.377.325.377-.325-.002-.002-.001-.002-.005-.005-.015-.017a2.514 2.514 0 0 0-.232-.225 3.232 3.232 0 0 0-.654-.447Zm3.536 5.45c.046.672.357 1.195.814 1.546.482.369 1.096.528 1.68.528h4a.5.5 0 0 0 0-1h-4c-.416 0-.802-.116-1.071-.322-.253-.194-.43-.486-.43-.928 0-.443.177-.734.43-.928.269-.206.654-.322 1.07-.322h8c1.242 0 2.253.552 3.03 1.247a7.14 7.14 0 0 1 1.363 1.68l-3.873 4.304c-.18-.192-.4-.392-.652-.574-.485-.35-1.128-.657-1.867-.657h-5m12.363-2.656c.091-.093.193-.21.28-.312l.112-.128c.127-.142.226-.235.315-.288.074-.044.12-.05.168-.04.063.013.198.067.408.277l1.5 1.5c.16.161.207.296.21.39.001.089-.032.226-.21.404-.338.338-4.34 4.673-6.007 6.507-.191.189-.32.221-.389.221-.07 0-.2-.033-.396-.229l-1.5-1.5c-.198-.198-.202-.59 0-.793l.999-.999-.353-.354.353.354.01-.01 4.5-5ZM18.98 24.426a81.676 81.676 0 0 0-2.015-2.48 213.135 213.135 0 0 0-1.262-1.493l-.107-.125v-.001l-.005-.005a2.162 2.162 0 0 0-.152-.147 2.228 2.228 0 0 0-.449-.308c-.356-.182-.778-.258-1.239.05-.302.2-.451.408-.527.588-.076.184-.09.374-.067.558a1.72 1.72 0 0 0 .231.657l.003.004v.001l.005.008.006.01c.488.812 1.89 2.868 3.425 4.404.11.109.222.227.34.35C18.165 27.541 19.56 29 22.474 29"/></svg>