<svg width="40" height="40" xmlns="http://www.w3.org/2000/svg"><path fill-rule="evenodd" clip-rule="evenodd" d="M18.001 8a.5.5 0 0 0-.5.5V10h5V8.5a.5.5 0 0 0-.5-.5h-4Zm5.5 2V8.5a1.5 1.5 0 0 0-1.5-1.5h-4a1.5 1.5 0 0 0-1.5 1.5V10h-4.5a.5.5 0 0 0-.5.5v3a.5.5 0 0 0 .5.5h.5v7.5a.5.5 0 0 0 .5.5h14a.5.5 0 0 0 .5-.5V14h.5a.5.5 0 0 0 .5-.5v-3a.5.5 0 0 0-.5-.5h-4.5Zm3 4h-5v.5a.5.5 0 0 1-.5.5h-2a.5.5 0 0 1-.5-.5V14h-5v7h13v-7Zm-14-1h6v-.5a.5.5 0 0 1 .5-.5h2a.5.5 0 0 1 .5.5v.5h6v-2h-15v2Zm8 1v-1h-1v1h1Z"/><path fill-rule="evenodd" clip-rule="evenodd" d="M6 15C6 6.858 12.486 1 20.003 1S34 6.858 34 15c0 1.668-.569 3.58-1.44 5.542-.875 1.97-2.073 4.032-3.372 6.013-2.6 3.96-5.632 7.633-7.375 9.653a2.376 2.376 0 0 1-3.62 0c-1.744-2.02-4.778-5.692-7.378-9.653-1.3-1.98-2.5-4.042-3.374-6.013C6.569 18.58 6 16.668 6 15ZM20.003 2C13.009 2 7 7.44 7 15c0 1.464.506 3.225 1.354 5.137.846 1.903 2.013 3.915 3.296 5.87 2.567 3.907 5.568 7.542 7.3 9.548a1.376 1.376 0 0 0 2.106 0c1.73-2.006 4.73-5.641 7.296-9.55 1.282-1.953 2.45-3.965 3.294-5.868C32.495 18.225 33 16.464 33 15c0-7.56-6.003-13-12.997-13Z"/><path fill-rule="evenodd" clip-rule="evenodd" d="M15.999 32.435a.5.5 0 0 1-.431.56c-1.642.215-3.086.618-4.104 1.114-.51.249-.89.51-1.136.764-.246.254-.325.464-.325.627 0 .266.145.562.58.88.44.321 1.118.616 2.023.863 1.805.491 4.38.757 7.397.757 3.016 0 5.591-.266 7.397-.757.905-.247 1.582-.542 2.022-.863.436-.318.58-.614.58-.88 0-.163-.078-.373-.324-.627s-.626-.515-1.136-.764c-1.018-.496-2.462-.899-4.104-1.113a.5.5 0 1 1 .13-.992c1.712.224 3.269.649 4.412 1.206.57.279 1.061.6 1.416.967s.607.813.607 1.323c0 .701-.409 1.263-.992 1.688-.58.423-1.389.758-2.348 1.02-1.927.524-4.601.792-7.66.792s-5.734-.268-7.66-.793c-.96-.261-1.769-.596-2.348-1.019-.584-.425-.992-.987-.992-1.688 0-.51.252-.956.607-1.323.355-.366.845-.688 1.416-.967 1.143-.557 2.7-.982 4.412-1.206a.5.5 0 0 1 .56.431Z"/></svg>