<svg width="40" height="40" xmlns="http://www.w3.org/2000/svg"><path fill-rule="evenodd" clip-rule="evenodd" d="M23.423 16.55c-.373.182-.754.49-1.066.804l-.01.01-.01.008c-.827.744-1.985 1.854-2.782 2.77a7.855 7.855 0 0 0-.67.858h9.077a10.036 10.036 0 0 0-.433-1.842c-.2-.6-.724-1.15-1.383-1.629-.65-.472-1.364-.83-1.867-1.082-.196-.098-.475-.085-.856.102ZM28.97 21h6.034v-2.372l-.013-.013a3.45 3.45 0 0 0-.4-.302c-.361-.244-.86-.531-1.384-.809a23.637 23.637 0 0 0-1.49-.726 8.462 8.462 0 0 0-.543-.22l-.123-.04c-.059.039-.14.1-.24.188-.217.188-.489.456-.783.764a39.477 39.477 0 0 0-1.464 1.64c.235.766.354 1.43.406 1.89Zm-.856-2.901c-.363-.553-.873-1.01-1.378-1.378-.723-.526-1.505-.917-2.003-1.165l-.006-.003c-.603-.302-1.241-.148-1.743.098a4.873 4.873 0 0 0-1.076.751c-1.61-.718-3.384-.902-3.904-.902-.107 0-.215.028-.282.047a3.852 3.852 0 0 0-.272.091c-.198.073-.445.175-.719.294-.549.238-1.23.553-1.89.866a161.804 161.804 0 0 0-2.11 1.02 9.105 9.105 0 0 0-.612-1.147c-.303-.47-.695-.941-1.18-1.135-.25-.1-.546-.122-.83-.113-.295.01-.624.056-.967.126-.686.14-1.471.384-2.223.672-.752.288-1.488.627-2.074.962-.292.168-.557.34-.77.511-.203.162-.406.358-.518.582-.261.523-.295 1.217-.265 1.8.017.324.055.643.101.924h-.89a1.5 1.5 0 0 0-1.5 1.5v15a1.5 1.5 0 0 0 1.5 1.5h35a1.5 1.5 0 0 0 1.5-1.5v-15a1.5 1.5 0 0 0-1.5-1.5h-1.5v-2.5a.698.698 0 0 0-.134-.397 1.417 1.417 0 0 0-.198-.22 4.394 4.394 0 0 0-.52-.4 17.166 17.166 0 0 0-1.476-.862 24.614 24.614 0 0 0-1.556-.758 9.342 9.342 0 0 0-.611-.247 3.035 3.035 0 0 0-.245-.077 1.054 1.054 0 0 0-.26-.039.735.735 0 0 0-.285.063c-.07.03-.135.067-.194.104a3.348 3.348 0 0 0-.367.283c-.253.219-.55.514-.852.83-.403.422-.828.899-1.191 1.319ZM4.407 21h8.096v-.929a14.8 14.8 0 0 0-.486-1.382c-.216-.528-.469-1.056-.74-1.477-.285-.442-.534-.677-.71-.748-.062-.024-.196-.05-.425-.041-.221.007-.492.043-.801.106a13.65 13.65 0 0 0-2.065.625c-.717.275-1.403.593-1.934.897a5.212 5.212 0 0 0-.645.425c-.171.137-.234.222-.247.248-.139.278-.189.75-.16 1.3.018.35.065.694.117.976Zm9.096 0h4.274c.021-.07.05-.14.079-.203.174-.375.536-.844.945-1.313.66-.758 1.543-1.629 2.299-2.334-1.308-.5-2.658-.644-3.071-.65a2.97 2.97 0 0 0-.233.076c-.173.064-.4.158-.668.273-.534.231-1.202.541-1.86.853a161.379 161.379 0 0 0-2.155 1.043c.156.419.283.81.37 1.118l.02.067V21Zm4.988 0h.002-.002ZM2.503 22a.5.5 0 0 0-.5.5V26h36v-3.5a.5.5 0 0 0-.5-.5h-35Zm35.5 5h-8.25v11h7.75a.5.5 0 0 0 .5-.5V27Zm-9.25 11V27h-8.25v11h8.25Zm-9.25 0V27h-8.25v11h8.25Zm-9.25 0V27h-8.25v10.5a.5.5 0 0 0 .5.5h7.75ZM13.011 1.402a.5.5 0 0 1 .588-.392c1.003.2 2.404 1.191 2.404 2.99 0 .67-.328 1.278-.726 1.806-.387.514-.893 1.02-1.37 1.496l-.052.052c-.4.4-.719 1.134-.667 1.86.049.68.423 1.391 1.498 1.822a.5.5 0 1 1-.372.928c-1.422-.57-2.047-1.608-2.123-2.679-.073-1.024.358-2.04.957-2.639l.026-.025c.498-.498.96-.96 1.304-1.417.353-.468.525-.86.525-1.204 0-1.201-.935-1.877-1.6-2.01a.5.5 0 0 1-.392-.588ZM18.831 1.402a.5.5 0 0 1 .589-.392c1.002.2 2.403 1.191 2.403 2.99 0 .67-.328 1.278-.726 1.806-.387.514-.893 1.02-1.37 1.496l-.052.052c-.4.4-.718 1.134-.666 1.86.048.68.422 1.391 1.497 1.822a.5.5 0 1 1-.372.928c-1.422-.57-2.047-1.608-2.123-2.679-.073-1.024.358-2.04.957-2.639l.026-.025c.498-.498.96-.96 1.304-1.417.353-.468.525-.86.525-1.204 0-1.201-.935-1.877-1.6-2.01a.5.5 0 0 1-.392-.588ZM24.831 1.402a.5.5 0 0 1 .589-.392c1.002.2 2.403 1.191 2.403 2.99 0 .67-.328 1.278-.726 1.806-.387.514-.893 1.02-1.37 1.496l-.052.052c-.4.4-.718 1.134-.666 1.86.048.68.422 1.391 1.497 1.822a.5.5 0 1 1-.372.928c-1.422-.57-2.047-1.608-2.123-2.679-.073-1.024.358-2.04.957-2.639l.026-.025c.498-.498.96-.96 1.304-1.417.353-.468.525-.86.525-1.204 0-1.201-.935-1.877-1.6-2.01a.5.5 0 0 1-.392-.588Z"/></svg>