<svg width="40" height="40" xmlns="http://www.w3.org/2000/svg"><path fill-rule="evenodd" clip-rule="evenodd" d="M8.003 14.5a.5.5 0 0 1 .5.5v23.5a.5.5 0 0 1-1 0V15a.5.5 0 0 1 .5-.5ZM5.003 5.5a1.5 1.5 0 0 1 1.5-1.5h2c.413 0 1.022.12 1.542.494.546.393.958 1.043.958 2.006 0 .963-.412 1.613-.958 2.006A2.734 2.734 0 0 1 8.503 9h-2.5v3.5a.5.5 0 0 1-1 0v-7Zm1 2.5h2.5c.253 0 .644-.08.958-.306.288-.207.542-.557.542-1.194 0-.637-.254-.987-.542-1.194A1.736 1.736 0 0 0 8.503 5h-2a.5.5 0 0 0-.5.5V8Z"/><path fill-rule="evenodd" clip-rule="evenodd" d="M1 3.5A2.5 2.5 0 0 1 3.5 1h9A2.5 2.5 0 0 1 15 3.5v9a2.5 2.5 0 0 1-2.5 2.5h-9A2.5 2.5 0 0 1 1 12.5v-9ZM3.5 2A1.5 1.5 0 0 0 2 3.5v9A1.5 1.5 0 0 0 3.5 14h9a1.5 1.5 0 0 0 1.5-1.5v-9A1.5 1.5 0 0 0 12.5 2h-9ZM16.9 17.146c.554-.554 1.424-1.146 2.603-1.146h11c1.18 0 2.049.592 2.603 1.146a5.068 5.068 0 0 1 .784 1.02l.06.11-.006-.011.004.007.001.003-.001-.003.002.004c.065.13.254.438.54.887l.45.705.404.632h1.659c.163 0 .397.045.605.194a.962.962 0 0 1 .395.806.962.962 0 0 1-.395.806c-.208.15-.442.194-.605.194h-.41c.296.492.573.97.799 1.393.17.32.317.617.423.873.096.235.188.503.188.734v6c0 .91-.289 1.55-.716 1.96-.415.4-.919.54-1.284.54v2.5c0 .776-.724 2-2.5 2s-2.5-1.224-2.5-2V34h-12v2.5c0 .776-.724 2-2.5 2s-2.5-1.224-2.5-2V34c-.831 0-1.353-.48-1.64-1.012-.275-.51-.36-1.099-.36-1.488v-6c0-.233.092-.501.19-.738.105-.256.252-.554.424-.874.227-.422.505-.897.803-1.388h-.417c-.163 0-.397-.045-.605-.194a.962.962 0 0 1-.395-.806c0-.363.162-.638.395-.806.208-.15.442-.194.605-.194h1.67l.235-.366c.558-.873 1.001-1.565 1.148-1.858l.447.224-.447-.224v-.001l.002-.003.003-.007.012-.023.043-.076a5.068 5.068 0 0 1 .784-1.02Zm.05 1.578.006-.011.028-.05a4.054 4.054 0 0 1 .623-.808c.445-.447 1.075-.855 1.896-.855h11c.82 0 1.45.408 1.896.854a4.054 4.054 0 0 1 .651.859l.006.01v.002c.094.188.317.546.59.974.132.21.287.45.453.71a310.274 310.274 0 0 1 .626.981c-.47-.269-.894-.39-1.222-.39h-17c-.46 0-.912.242-1.296.524a220.885 220.885 0 0 1 .527-.826c.558-.871 1.043-1.63 1.216-1.974Zm-3.947 6.92a19.066 19.066 0 0 1 1.735-2.31c.362-.404.72-.752 1.048-.994.345-.255.583-.34.717-.34h17c.171 0 .66.124 1.329.683.64.536 1.412 1.447 2.17 2.936V30h-24v-4.355Zm0 5.356v.5c0 .277.065.69.24 1.012.163.302.391.488.76.488h22c.135 0 .381-.06.591-.26.197-.19.409-.55.409-1.24V31h-24Zm2 3v2.5c0 .224.276 1 1.5 1s1.5-.776 1.5-1V34h-3Zm17 0v2.5c0 .224.276 1 1.5 1s1.5-.776 1.5-1V34h-3Zm-13.995-8.5c.028.072.218.5 1.495.5 1.277 0 1.467-.428 1.495-.5-.028-.072-.218-.5-1.495-.5-1.277 0-1.467.428-1.495.5Zm-1.005 0c0-.762.806-1.5 2.5-1.5s2.5.738 2.5 1.5-.806 1.5-2.5 1.5-2.5-.738-2.5-1.5Zm11 0c0-.762.806-1.5 2.5-1.5s2.5.738 2.5 1.5-.806 1.5-2.5 1.5-2.5-.738-2.5-1.5Zm1.005 0c.028.072.218.5 1.495.5 1.277 0 1.467-.428 1.495-.5-.028-.072-.218-.5-1.495-.5-1.277 0-1.467.428-1.495.5Z"/></svg>