<svg width="40" height="40" xmlns="http://www.w3.org/2000/svg"><path fill-rule="evenodd" clip-rule="evenodd" d="M15.012 6.608c-.884-3.977-6.14-3.977-7.024 0a.5.5 0 0 1-.406.385c-2.58.43-3.932 3.898-1.262 6.123a.5.5 0 0 1-.238.877c-.422.07-1.08.31-1.625.794-.53.47-.957 1.17-.957 2.213 0 1.011.482 1.708 1.115 2.19a4.48 4.48 0 0 0 1.922.81H16.5c.549 0 1.313-.233 1.935-.738C19.04 18.769 19.5 18.03 19.5 17c0-1.052-.393-1.709-.893-2.15-.52-.459-1.183-.709-1.744-.87a.5.5 0 0 1-.183-.864c2.67-2.225 1.318-5.693-1.262-6.123a.5.5 0 0 1-.406-.385Zm.896-.534a4.542 4.542 0 0 0-8.816 0c-2.96.735-4.413 4.504-2.05 7.19-.412.17-.852.423-1.249.774-.72.64-1.293 1.604-1.293 2.962 0 1.389.685 2.358 1.51 2.986a5.47 5.47 0 0 0 2.42 1.009.492.492 0 0 0 .07.005H11v16H2.5a.5.5 0 0 0 0 1h35a.5.5 0 0 0 .5-.5V24.49a.5.5 0 0 0-.139-.346l-2-2.088a.5.5 0 0 0-.722 0l-2 2.088a.5.5 0 0 0-.139.346V27h-2V24.49a.5.5 0 0 0-.139-.346l-2-2.088a.5.5 0 0 0-.722 0l-2 2.088a.5.5 0 0 0-.139.346V27h-2V24.49a.5.5 0 0 0-.146-.353l-2.089-2.089a.5.5 0 0 0-.707 0l-2.088 2.089a.5.5 0 0 0-.147.353V37H12V21h4.5c.785 0 1.77-.317 2.565-.962A3.811 3.811 0 0 0 20.5 17c0-1.348-.523-2.275-1.232-2.9a4.73 4.73 0 0 0-1.334-.808c2.397-2.687.944-6.48-2.026-7.218ZM19.823 37H23V24.698l-1.588-1.588-1.589 1.588V37ZM24 28v5h2v-5h-2Zm2 6h-2v3h2v-3Zm1 3h3V24.692l-1.5-1.566-1.5 1.566V37Zm4 0h2v-3h-2v3Zm0-4h2v-5h-2v5Zm3 4h3V24.692l-1.5-1.566-1.5 1.566V37Z"/></svg>