<svg width="40" height="40" xmlns="http://www.w3.org/2000/svg"><path fill-rule="evenodd" clip-rule="evenodd" d="M19.79 2.046a.5.5 0 0 1 .534.073L27 7.784v-.117C27 6.747 27.746 6 28.667 6h2.666C32.253 6 33 6.746 33 7.667v5.208l3.412 2.894c.373.317.588.782.588 1.271V37.5a.5.5 0 0 1-.5.5h-12a.5.5 0 0 1-.5-.5V26h-4a.5.5 0 0 1-.5-.5v-23a.5.5 0 0 1 .29-.454ZM32 12.026v-4.36A.667.667 0 0 0 31.333 7h-2.666a.667.667 0 0 0-.667.667v.965l4 3.394ZM20.5 3.58V25h4a.5.5 0 0 1 .5.5V37h11V17.04a.667.667 0 0 0-.235-.508L20.5 3.58Z"/><path fill-rule="evenodd" clip-rule="evenodd" d="M20.21 2.046a.5.5 0 0 0-.534.073l-.804.682a.5.5 0 0 0 .64.768.5.5 0 0 0 .988-.11V2.5a.5.5 0 0 0-.29-.454Zm-2.242 2.178a.5.5 0 0 0-.704-.058l-1.609 1.365a.5.5 0 0 0 .647.763l1.609-1.365a.5.5 0 0 0 .057-.705ZM20 4.875a.5.5 0 0 0-.5.5v1.917a.5.5 0 0 0 1 0V5.375a.5.5 0 0 0-.5-.5Zm-5.249 2.08a.5.5 0 0 0-.704-.059l-1.609 1.366a.5.5 0 1 0 .647.762l1.609-1.365a.5.5 0 0 0 .057-.705ZM20 8.707a.5.5 0 0 0-.5.5v1.917a.5.5 0 0 0 1 0V9.208a.5.5 0 0 0-.5-.5Zm-8.466.976a.5.5 0 0 0-.705-.057l-1.608 1.365a.5.5 0 0 0 .647.762l1.609-1.365a.5.5 0 0 0 .057-.705Zm-3.217 2.73a.5.5 0 0 0-.705-.057l-1.608 1.365a.5.5 0 0 0 .647.762L8.26 13.12a.5.5 0 0 0 .057-.705ZM20 12.542a.5.5 0 0 0-.5.5v1.916a.5.5 0 1 0 1 0v-1.916a.5.5 0 0 0-.5-.5ZM5.1 15.145a.5.5 0 0 0-.705-.058l-.804.682a1.667 1.667 0 0 0-.588 1.271v1.023a.5.5 0 0 0 1 0V17.04c0-.196.086-.382.235-.508l.804-.683a.5.5 0 0 0 .058-.704Zm14.9 1.23a.5.5 0 0 0-.5.5v1.917a.5.5 0 0 0 1 0v-1.917a.5.5 0 0 0-.5-.5ZM3.503 19.609a.5.5 0 0 0-.5.5v2.046a.5.5 0 0 0 1 0V20.11a.5.5 0 0 0-.5-.5Zm16.497.6a.5.5 0 0 0-.5.5v1.916a.5.5 0 0 0 1 0v-1.917a.5.5 0 0 0-.5-.5ZM3.503 23.7a.5.5 0 0 0-.5.5v2.046a.5.5 0 1 0 1 0v-2.046a.5.5 0 0 0-.5-.5Zm16.497.34a.5.5 0 0 0-.5.5V25h-.624a.5.5 0 0 0 0 1H20a.5.5 0 0 0 .5-.5v-.958a.5.5 0 0 0-.5-.5ZM17.127 25.5a.5.5 0 0 0-.5-.5h-1.124a.5.5 0 0 0-.5.5v1a.5.5 0 1 0 1 0V26h.624a.5.5 0 0 0 .5-.5ZM3.503 27.793a.5.5 0 0 0-.5.5v2.046a.5.5 0 1 0 1 0v-2.046a.5.5 0 0 0-.5-.5Zm12 .207a.5.5 0 0 0-.5.5v2a.5.5 0 1 0 1 0v-2a.5.5 0 0 0-.5-.5Zm-12 3.885a.5.5 0 0 0-.5.5v2.046a.5.5 0 1 0 1 0v-2.046a.5.5 0 0 0-.5-.5Zm12 .115a.5.5 0 0 0-.5.5v2a.5.5 0 1 0 1 0v-2a.5.5 0 0 0-.5-.5Zm-12 3.977a.5.5 0 0 0-.5.5V37.5a.5.5 0 0 0 .5.5h1a.5.5 0 0 0 0-1h-.5v-.523a.5.5 0 0 0-.5-.5Zm12 .023a.5.5 0 0 0-.5.5v.5h-.5a.5.5 0 1 0 0 1h1a.5.5 0 0 0 .5-.5v-1a.5.5 0 0 0-.5-.5Zm-2.5 1.5a.5.5 0 0 0-.5-.5h-2a.5.5 0 1 0 0 1h2a.5.5 0 0 0 .5-.5Zm-4 0a.5.5 0 0 0-.5-.5h-2a.5.5 0 0 0 0 1h2a.5.5 0 0 0 .5-.5Z"/></svg>