<svg width="40" height="40" xmlns="http://www.w3.org/2000/svg"><path fill-rule="evenodd" clip-rule="evenodd" d="M2 2.5a.5.5 0 0 1 .5-.5h.9a.5.5 0 0 1 0 1H3v.4a.5.5 0 0 1-1 0v-.9Zm2.7 0a.5.5 0 0 1 .5-.5H7a.5.5 0 0 1 0 1H5.2a.5.5 0 0 1-.5-.5Zm3.6 0a.5.5 0 0 1 .5-.5h1.8a.5.5 0 0 1 0 1H8.8a.5.5 0 0 1-.5-.5Zm3.6 0a.5.5 0 0 1 .5-.5h1.8a.5.5 0 0 1 0 1h-1.8a.5.5 0 0 1-.5-.5Zm3.6 0A.5.5 0 0 1 16 2h1.8a.5.5 0 0 1 0 1H16a.5.5 0 0 1-.5-.5Zm3.6 0a.5.5 0 0 1 .5-.5h.9a.5.5 0 0 1 .5.5v1.25a.5.5 0 0 1-1 0V3h-.4a.5.5 0 0 1-.5-.5ZM2.5 4.7a.5.5 0 0 1 .5.5V7a.5.5 0 0 1-1 0V5.2a.5.5 0 0 1 .5-.5Zm18 1.05a.5.5 0 0 1 .5.5V7.5a.5.5 0 0 1-1 0V6.25a.5.5 0 0 1 .5-.5ZM2.5 8.3a.5.5 0 0 1 .5.5v1.8a.5.5 0 0 1-1 0V8.8a.5.5 0 0 1 .5-.5Zm0 3.6a.5.5 0 0 1 .5.5v1.8a.5.5 0 0 1-1 0v-1.8a.5.5 0 0 1 .5-.5ZM20 15.5a.5.5 0 0 1 .5-.5h1a.5.5 0 0 1 0 1H21v.75a.5.5 0 0 1-1 0V15.5Zm3 0a.5.5 0 0 1 .5-.5h2a.5.5 0 0 1 0 1h-2a.5.5 0 0 1-.5-.5Zm4 0a.5.5 0 0 1 .5-.5h1a.5.5 0 0 1 0 1h-1a.5.5 0 0 1-.5-.5Zm-24.5 0a.5.5 0 0 1 .5.5v1.8a.5.5 0 0 1-1 0V16a.5.5 0 0 1 .5-.5Zm18 3.25a.5.5 0 0 1 .5.5v2.5a.5.5 0 0 1-1 0V21h-.75a.5.5 0 0 1 0-1H20v-.75a.5.5 0 0 1 .5-.5Zm-18 .35a.5.5 0 0 1 .5.5v.4h.75a.5.5 0 0 1 0 1H3v.563a.5.5 0 0 1-1 0V19.6a.5.5 0 0 1 .5-.5Zm3.25 1.4a.5.5 0 0 1 .5-.5H7.5a.5.5 0 0 1 .5.5v1a.5.5 0 0 1-1 0V21h-.75a.5.5 0 0 1-.5-.5Zm9.25 0a.5.5 0 0 1 .5-.5h1.25a.5.5 0 0 1 0 1H15.5a.5.5 0 0 1-.5-.5ZM7.5 23a.5.5 0 0 1 .5.5v2a.5.5 0 0 1-1 0v-2a.5.5 0 0 1 .5-.5Zm-5 .188a.5.5 0 0 1 .5.5v2.125a.5.5 0 0 1-1 0v-2.125a.5.5 0 0 1 .5-.5Zm18 .562a.5.5 0 0 1 .5.5v1.25a.5.5 0 0 1-1 0v-1.25a.5.5 0 0 1 .5-.5ZM7.5 27a.5.5 0 0 1 .5.5v1a.5.5 0 0 1-1 0v-1a.5.5 0 0 1 .5-.5Zm-5 .438a.5.5 0 0 1 .5.5v2.125a.5.5 0 0 1-1 0v-2.125a.5.5 0 0 1 .5-.5Zm0 4.25a.5.5 0 0 1 .5.5v2.124a.5.5 0 0 1-1 0v-2.124a.5.5 0 0 1 .5-.5Zm18 .312a.5.5 0 0 1 .5.5v1.25a.5.5 0 0 1-1 0V32.5a.5.5 0 0 1 .5-.5Zm0 3.75a.5.5 0 0 1 .5.5v1.25a.5.5 0 0 1-.5.5h-.9a.5.5 0 0 1 0-1h.4v-.75a.5.5 0 0 1 .5-.5Zm-18 .188a.5.5 0 0 1 .5.5V37h.4a.5.5 0 0 1 0 1h-.9a.5.5 0 0 1-.5-.5v-1.063a.5.5 0 0 1 .5-.5ZM4.7 37.5a.5.5 0 0 1 .5-.5H7a.5.5 0 0 1 0 1H5.2a.5.5 0 0 1-.5-.5Zm3.6 0a.5.5 0 0 1 .5-.5h1.8a.5.5 0 0 1 0 1H8.8a.5.5 0 0 1-.5-.5Zm3.6 0a.5.5 0 0 1 .5-.5h1.8a.5.5 0 0 1 0 1h-1.8a.5.5 0 0 1-.5-.5Zm3.6 0a.5.5 0 0 1 .5-.5h1.8a.5.5 0 0 1 0 1H16a.5.5 0 0 1-.5-.5Z"/><path fill-rule="evenodd" clip-rule="evenodd" d="M20 20.5a.5.5 0 0 1 .5-.5h17a.5.5 0 0 1 .5.5v17a.5.5 0 0 1-.5.5h-17a.5.5 0 0 1-.5-.5v-5a.5.5 0 0 1 1 0V37h16V21H21v4.5a.5.5 0 0 1-1 0v-5ZM15.5 20a.5.5 0 0 1 .5.5c0 .384-.018.753-.054 1.107a.5.5 0 1 1-.995-.1c.032-.32.049-.655.049-1.007a.5.5 0 0 1 .5-.5Zm-.338 3.145a.5.5 0 0 1 .298.64 7.459 7.459 0 0 1-1.08 1.984.5.5 0 1 1-.794-.607c.374-.49.694-1.058.935-1.719a.5.5 0 0 1 .64-.298Zm-2.29 3.49a.5.5 0 0 1-.118.698 8.75 8.75 0 0 1-1.978 1.045.5.5 0 1 1-.353-.935 7.747 7.747 0 0 0 1.752-.925.5.5 0 0 1 .697.118ZM9.049 28.36a.5.5 0 0 1-.43.562c-.4.054-.778.078-1.119.078a.5.5 0 0 1 0-1c.294 0 .628-.021.987-.07a.5.5 0 0 1 .562.43ZM20.003 7.5a.5.5 0 0 1 .5-.5c.384 0 .753.018 1.107.054a.5.5 0 0 1-.1.995C21.19 8.017 20.855 8 20.503 8a.5.5 0 0 1-.5-.5Zm3.145.338a.5.5 0 0 1 .64-.298 7.458 7.458 0 0 1 1.984 1.08.5.5 0 1 1-.607.794 6.46 6.46 0 0 0-1.719-.935.5.5 0 0 1-.298-.64Zm3.49 2.29a.5.5 0 0 1 .698.118c.451.634.793 1.31 1.045 1.978a.5.5 0 1 1-.936.353 7.75 7.75 0 0 0-.924-1.752.5.5 0 0 1 .117-.697Zm1.725 3.823a.5.5 0 0 1 .562.43c.054.4.078.778.078 1.119a.5.5 0 1 1-1 0c0-.294-.021-.628-.07-.987a.5.5 0 0 1 .43-.562Z"/></svg>