<svg width="40" height="40" xmlns="http://www.w3.org/2000/svg"><path fill-rule="evenodd" clip-rule="evenodd" d="M22.616 3.045c.511-1.236 2.262-1.236 2.773 0L39.39 36.927A1.5 1.5 0 0 1 38.005 39H9.995a1.5 1.5 0 0 1-1.386-2.073L22.616 3.045Zm1.849.382a.5.5 0 0 0-.925 0L9.533 37.309a.5.5 0 0 0 .462.691H20V26.5a1.5 1.5 0 0 1 1.5-1.5h5a1.5 1.5 0 0 1 1.5 1.5V38h10.005a.5.5 0 0 0 .462-.69L24.465 3.426ZM27 38V26.5a.5.5 0 0 0-.5-.5h-5a.5.5 0 0 0-.5.5V38h6ZM3.4 13.33c.417-1.034 1.392-1.83 2.94-1.83 1.547 0 2.521.796 2.939 1.83a3.384 3.384 0 0 1-.01 2.51c.759.446 1.412 1.036 1.724 1.848.346.9.227 1.956-.41 3.185.509.508 1.04 1.356 1.282 2.325.309 1.233.163 2.716-1.111 3.985-1.018 1.014-2.428 1.382-3.722 1.308-.019 1.04-.03 2.192-.036 3.333-.013 2.468-.001 4.879.004 6.035l.003.641a.5.5 0 1 1-1 0L6 37.875c-.005-1.15-.017-3.58-.004-6.056.006-1.19.018-2.394.039-3.476-.862-.208-1.65-.62-2.187-1.213-.801-.127-1.733-.334-2.478-.873-.846-.612-1.384-1.599-1.367-3.138.013-1.172.364-1.995.897-2.562a3.23 3.23 0 0 1 1.158-.773c-.281-.822-.24-1.595.042-2.28.274-.66.758-1.205 1.327-1.624a3.38 3.38 0 0 1-.028-2.55Zm3.654 14.16h.006c1.09.07 2.21-.241 2.988-1.015.978-.974 1.087-2.074.847-3.034-.25-.996-.864-1.786-1.233-2.044a.5.5 0 0 1-.144-.662c.726-1.242.772-2.09.541-2.69-.238-.62-.825-1.125-1.686-1.553a.5.5 0 0 1-.193-.726c.355-.53.453-1.366.172-2.062-.264-.652-.869-1.204-2.013-1.204s-1.749.552-2.012 1.204c-.282.696-.184 1.532.171 2.062a.5.5 0 0 1-.158.707c-.61.366-1.084.855-1.315 1.414-.224.541-.24 1.198.15 1.977a.5.5 0 0 1-.32.708c-.435.115-.884.306-1.226.67-.334.355-.615.923-.626 1.889-.014 1.266.41 1.923.953 2.316.586.424 1.383.597 2.226.723a.5.5 0 0 1 .318.184c.332.42.889.763 1.559.961.027-.978.064-1.821.12-2.365-.556-.28-.884-.654-1.149-1.054-.104-.158-.191-.304-.275-.445-.178-.299-.34-.57-.619-.871a.5.5 0 0 1 .734-.68c.353.382.601.797.799 1.127.07.118.135.226.195.317.139.21.284.39.49.544.082-.501.105-.802.096-1.068-.01-.275-.052-.513-.122-.906-.028-.155-.06-.335-.096-.552-.26-1.55-.143-2.33-.018-3.022l.015-.084c.108-.59.201-1.103.005-2.165a.5.5 0 0 1 .983-.182c.23 1.241.112 1.89-.006 2.536l-.013.073a6.04 6.04 0 0 0-.1 1.726c.148-.16.263-.305.361-.447.21-.305.35-.61.563-1.068l.027-.06a.5.5 0 1 1 .908.421l-.04.087c-.2.432-.375.81-.634 1.186-.245.356-.555.7-1.017 1.11l.036.2c.076.428.136.761.148 1.112.017.49-.054 1.018-.234 1.95-.069.358-.122 1.32-.158 2.637l-.004.118Zm15.562-14.435c.51-1.238 2.264-1.238 2.774 0l2.007 4.874A1.5 1.5 0 0 1 26.01 20h-4.014a1.5 1.5 0 0 1-1.387-2.071l2.007-4.874Zm1.85.381a.5.5 0 0 0-.925 0l-2.007 4.874a.5.5 0 0 0 .462.69h4.014a.5.5 0 0 0 .462-.69l-2.007-4.874ZM14 32.5a1.5 1.5 0 0 1 1.5-1.5h1a1.5 1.5 0 0 1 1.5 1.5v1a1.5 1.5 0 0 1-1.5 1.5h-1a1.5 1.5 0 0 1-1.5-1.5v-1Zm1.5-.5a.5.5 0 0 0-.5.5v1a.5.5 0 0 0 .5.5h1a.5.5 0 0 0 .5-.5v-1a.5.5 0 0 0-.5-.5h-1Zm16 0a.5.5 0 0 0-.5.5v1a.5.5 0 0 0 .5.5h1a.5.5 0 0 0 .5-.5v-1a.5.5 0 0 0-.5-.5h-1Zm-1.5.5a1.5 1.5 0 0 1 1.5-1.5h1a1.5 1.5 0 0 1 1.5 1.5v1a1.5 1.5 0 0 1-1.5 1.5h-1a1.5 1.5 0 0 1-1.5-1.5v-1Zm-4.497-.5a.5.5 0 0 1 .5.5v1.025a.5.5 0 1 1-1 0V32.5a.5.5 0 0 1 .5-.5Z"/></svg>