<svg width="40" height="40" xmlns="http://www.w3.org/2000/svg"><path fill-rule="evenodd" clip-rule="evenodd" d="M19.003 2c-9.389 0-17 7.611-17 17 0 8.898 6.836 16.2 15.542 16.938l-.084.997C8.24 36.152 1.003 28.422 1.003 19c0-9.941 8.059-18 18-18s18 8.059 18 18c0 2.794-.957 5.417-2.048 7.715a.5.5 0 0 1-.904-.43c1.069-2.248 1.952-4.711 1.952-7.285 0-9.389-7.611-17-17-17Z"/><path fill-rule="evenodd" clip-rule="evenodd" d="M19.003 6c-7.18 0-13 5.82-13 13 0 7.157 6.296 13 13.5 13a.5.5 0 1 1 0 1c-7.708 0-14.5-6.245-14.5-14 0-7.732 6.268-14 14-14s14 6.268 14 14c0 2.877-.869 5.553-2.358 7.778l-.83-.556A12.938 12.938 0 0 0 32.002 19c0-7.18-5.82-13-13-13Z"/><path fill-rule="evenodd" clip-rule="evenodd" d="M19.003 26.5a.5.5 0 0 1 .5-.5h15a.5.5 0 0 1 .5.5v1h-1V27h-14v4.533c0 .76.356 2.317 1.463 3.647l-.77.64c-1.265-1.522-1.693-3.308-1.693-4.287V26.5Zm15.18 6.534a.5.5 0 0 1 .286.647c-.31.8-.768 1.422-1.365 2.139l-.768-.64c.579-.695.95-1.215 1.2-1.86a.5.5 0 0 1 .648-.286Z"/><path fill-rule="evenodd" clip-rule="evenodd" d="M35.702 28h-1.199a.5.5 0 0 1 0-1H35.7c.663 0 1.483.212 2.146.766.68.569 1.154 1.464 1.154 2.734 0 1.415-.46 2.33-1.172 2.873-.686.522-1.517.627-2.127.627h-1.699a.5.5 0 0 1 0-1H35.7c.523 0 1.092-.095 1.523-.423.404-.308.778-.892.778-2.077 0-.997-.36-1.602-.796-1.967A2.402 2.402 0 0 0 35.7 28Zm-1.7 1.5a.5.5 0 0 1 .5-.5h.633c.322 0 .76.05 1.135.255.41.224.731.63.731 1.245 0 .615-.322 1.02-.734 1.24-.376.202-.813.249-1.132.249h-.632a.5.5 0 0 1-.5-.5v-1.99Zm1 .5v.989h.133c.248 0 .494-.04.66-.13.129-.069.206-.159.206-.36 0-.201-.078-.294-.21-.366-.166-.091-.412-.133-.656-.133h-.132ZM17.003 35.5a.5.5 0 0 1 .5-.5h19a.5.5 0 0 1 .5.5c0 .52-.052 1.355-.371 2.077a2.466 2.466 0 0 1-.762.995c-.364.273-.82.428-1.366.428h-15c-.5 0-1.14-.2-1.65-.765-.514-.566-.851-1.45-.851-2.735Zm1.021.5c.073.805.318 1.285.57 1.565.304.335.664.435.91.435h15c.347 0 .589-.095.767-.228.184-.139.332-.341.446-.6.16-.36.235-.786.267-1.172h-17.96Z"/></svg>