<svg width="13" height="16" viewBox="0 0 13 16" fill="none" xmlns="http://www.w3.org/2000/svg">
<path d="M3.00293 10C2.45064 10 2.00293 10.4477 2.00293 11C2.00293 11.5523 2.45064 12 3.00293 12C3.55521 12 4.00293 11.5523 4.00293 11C4.00293 10.4477 3.55521 10 3.00293 10Z" fill="#5B6473"/>
<path d="M9.00293 10C8.45065 10 8.00293 10.4477 8.00293 11C8.00293 11.5523 8.45065 12 9.00293 12C9.55521 12 10.0029 11.5523 10.0029 11C10.0029 10.4477 9.55521 10 9.00293 10Z" fill="#5B6473"/>
<path fill-rule="evenodd" clip-rule="evenodd" d="M11.5029 14H10.5029V15C10.5029 15.4079 10.2092 15.6676 9.95757 15.7977C9.69237 15.9348 9.35797 16 9.00293 16C8.64789 16 8.31349 15.9348 8.04829 15.7977C7.79665 15.6676 7.50293 15.4079 7.50293 15V14H4.50293V15C4.50293 15.4062 4.21235 15.6663 3.95938 15.7975C3.6941 15.935 3.35931 16 3.00293 16C2.64654 16 2.31176 15.935 2.04647 15.7975C1.79351 15.6663 1.50293 15.4062 1.50293 15V14H0.50293C0.226787 14 0.00292969 13.7761 0.00292969 13.5V2.5C0.00292969 1.11929 1.12222 0 2.50293 0H9.50293C10.8836 0 12.0029 1.11929 12.0029 2.5V13.5C12.0029 13.7761 11.7791 14 11.5029 14ZM1.00293 2.5C1.00293 1.67157 1.6745 1 2.50293 1H9.50293C10.3314 1 11.0029 1.67157 11.0029 2.5V8H1.00293V2.5ZM1.00293 9H11.0029V13H1.00293V9ZM8.50293 14.907V14H9.50293V14.907L9.49829 14.9094C9.41349 14.9533 9.24789 15 9.00293 15C8.75797 15 8.59237 14.9533 8.50757 14.9094L8.50293 14.907ZM2.50293 14H3.50293V14.9077L3.49917 14.9096C3.41535 14.9531 3.25014 15 3.00293 15C2.75572 15 2.59051 14.9531 2.50669 14.9096L2.50293 14.9077V14Z" fill="#5B6473"/>
</svg>
