<svg width="13" height="14" viewBox="0 0 13 14" fill="none" xmlns="http://www.w3.org/2000/svg">
<path fill-rule="evenodd" clip-rule="evenodd" d="M5.29582 0.792893C5.68635 0.402369 6.31951 0.402369 6.71004 0.792893L11.71 5.79289C12.1006 6.18342 12.1006 6.81658 11.71 7.20711C11.3195 7.59763 10.6863 7.59763 10.2958 7.20711L6.00293 2.91421L1.71004 7.20711C1.31951 7.59763 0.686347 7.59763 0.295823 7.20711C-0.0947014 6.81658 -0.0947014 6.18342 0.295823 5.79289L5.29582 0.792893ZM6.00293 8.91421L1.71004 13.2071C1.31951 13.5976 0.686347 13.5976 0.295823 13.2071C-0.0947014 12.8166 -0.0947014 12.1834 0.295823 11.7929L5.29582 6.79289C5.68635 6.40237 6.31951 6.40237 6.71004 6.79289L11.71 11.7929C12.1006 12.1834 12.1006 12.8166 11.71 13.2071C11.3195 13.5976 10.6863 13.5976 10.2958 13.2071L6.00293 8.91421Z" fill="#1D2126"/>
</svg>
