<svg width="16" height="14" viewBox="0 0 16 14" fill="none" xmlns="http://www.w3.org/2000/svg">
<path fill-rule="evenodd" clip-rule="evenodd" d="M8.97893 1.01453C8.32653 0.99098 7.67307 0.994095 7.02243 1.02644C5.52952 1.10066 4.39277 1.32908 3.53505 1.68466C2.7245 2.02068 2.16531 2.46898 1.78181 3.01286C1.39597 3.56006 1.16546 4.23608 1.06501 5.0605C0.987835 5.69385 0.966866 6.32563 1.07282 6.9109C1.36954 8.54992 2.62588 9.32917 3.93708 9.70286C4.5881 9.8884 5.22469 9.96358 5.70193 9.99162C5.93948 10.0056 6.13489 10.0077 6.26945 10.0064C6.33667 10.0058 6.38853 10.0043 6.42266 10.003L6.46022 10.0014L6.46844 10.001L6.46961 10.0009L6.93788 9.97195L7.17688 11.8838C7.41661 11.8259 7.68492 11.7604 7.87387 11.7123C8.93328 11.4421 10.4847 11.0165 11.8226 10.5327C13.012 10.0558 13.7917 9.4813 14.2798 8.78948C14.7667 8.0995 15.0008 7.24007 15.0008 6.12269C15.0008 5.00707 14.8611 4.10577 14.5221 3.3909C14.1908 2.69233 13.6536 2.13857 12.7857 1.73685C11.9072 1.3302 10.6808 1.07598 8.97893 1.01453ZM6.86597 12.9865L7.00124 12.9543C7.08493 12.9344 7.20101 12.9066 7.33053 12.8754C7.58871 12.8132 7.90328 12.7367 8.12081 12.6813C9.19234 12.408 10.7849 11.9718 12.1706 11.4701L12.1784 11.4673L12.1861 11.4642C13.4926 10.9417 14.4607 10.2672 15.0965 9.36616C15.7347 8.46181 16.0005 7.3826 16.0005 6.12269C16.0005 4.93934 15.8551 3.8686 15.4253 2.96229C14.9877 2.03967 14.2724 1.32311 13.2055 0.829299C12.1589 0.344862 10.7847 0.0790797 9.01498 0.0151844C8.33543 -0.00935011 7.65335 -0.00615936 6.97281 0.0276748C5.41241 0.105252 4.15213 0.346371 3.15233 0.760848C2.19342 1.15837 1.47271 1.71631 0.964909 2.43647C0.459451 3.15331 0.187265 3.99915 0.0726845 4.9395C-0.0104202 5.62154 -0.0419597 6.36487 0.0891518 7.0891C0.484581 9.27337 2.18783 10.2441 3.66317 10.6646C4.40544 10.8761 5.11886 10.9591 5.64331 10.9899C5.79918 10.9991 5.9393 11.0037 6.05964 11.0056L6.1917 12.062C6.21242 12.2277 6.2282 12.353 6.23882 12.4369L6.25483 12.563L6.32546 13.1147L6.86597 12.9865ZM3.00003 4.49835C3.00003 4.22221 3.22381 3.99835 3.49986 3.99835H12.477C12.7531 3.99835 12.9769 4.22221 12.9769 4.49835C12.9769 4.77449 12.7531 4.99835 12.477 4.99835H3.49986C3.22381 4.99835 3.00003 4.77449 3.00003 4.49835ZM3.00002 6.49998C3.00002 6.22384 3.2238 5.99998 3.49985 5.99998H9.50024C9.77629 5.99998 10.0001 6.22384 10.0001 6.49998C10.0001 6.77612 9.77629 6.99998 9.50024 6.99998H3.49985C3.2238 6.99998 3.00002 6.77612 3.00002 6.49998Z" fill="#1D2126"/>
</svg>
