<svg width="13" height="12" viewBox="0 0 13 12" fill="none" xmlns="http://www.w3.org/2000/svg">
<path fill-rule="evenodd" clip-rule="evenodd" d="M0.00292969 2C0.00292969 0.89543 0.89836 0 2.00293 0H8.00293C9.1075 0 10.0029 0.895431 10.0029 2C11.1075 2 12.0029 2.89543 12.0029 4V10C12.0029 11.1046 11.1075 12 10.0029 12H4.00293C2.89836 12 2.00293 11.1046 2.00293 10C0.89836 10 0.00292969 9.10457 0.00292969 8V2ZM2.00293 1H8.00293C8.55521 1 9.00293 1.44772 9.00293 2V8C9.00293 8.55229 8.55521 9 8.00293 9H2.00293C1.45064 9 1.00293 8.55229 1.00293 8V2C1.00293 1.44772 1.45064 1 2.00293 1ZM3.00293 10C3.00293 10.5523 3.45064 11 4.00293 11H10.0029C10.5552 11 11.0029 10.5523 11.0029 10V4C11.0029 3.44772 10.5552 3 10.0029 3V8C10.0029 9.10457 9.1075 10 8.00293 10H3.00293Z" fill="black"/>
</svg>
