<svg width="17" height="16" viewBox="0 0 17 16" fill="none" xmlns="http://www.w3.org/2000/svg">
<path fill-rule="evenodd" clip-rule="evenodd" d="M16.0029 5C16.0029 7.76142 13.7644 10 11.0029 10C8.24151 10 6.00293 7.76142 6.00293 5C6.00293 2.23858 8.24151 0 11.0029 0C13.7644 0 16.0029 2.23858 16.0029 5ZM12.9654 7.82589C12.9904 7.79911 13.0029 7.75893 13.0029 7.70536L12.8904 7.11607C12.8779 7.07589 12.8529 7.03571 12.8154 7.00893C12.7779 6.98214 12.7404 6.98214 12.7029 6.98214C12.5029 7.03571 12.3154 7.0625 12.1404 7.0625C11.7904 7.0625 11.4779 6.96875 11.2029 6.75446C10.9279 6.54018 10.7404 6.25893 10.6154 5.91071H12.0404C12.0654 5.91071 12.1029 5.91071 12.1279 5.88393C12.1529 5.85714 12.1779 5.83036 12.1904 5.79018L12.2654 5.41518C12.2654 5.36161 12.2529 5.32143 12.2279 5.28125C12.2029 5.24107 12.1654 5.21429 12.1154 5.21429H10.4404C10.4154 5.01339 10.4154 4.82589 10.4404 4.65179H12.2779C12.3029 4.65179 12.3404 4.63839 12.3654 4.61161C12.3904 4.58482 12.4154 4.55804 12.4279 4.51786L12.5029 4.12946C12.5029 4.07589 12.4904 4.03571 12.4654 3.99554C12.4404 3.95536 12.4029 3.92857 12.3529 3.92857H10.6279C10.7529 3.62054 10.9529 3.37946 11.2154 3.19196C11.4654 3.01786 11.7654 2.92411 12.1029 2.92411C12.2298 2.92411 12.3779 2.94691 12.5375 2.97147L12.5779 2.97768C12.6029 2.99107 12.6404 2.99107 12.6779 2.96429C12.7029 2.9375 12.7279 2.91071 12.7529 2.85714L12.9029 2.26786C12.9029 2.22768 12.9029 2.1875 12.8779 2.14732C12.8529 2.10714 12.8154 2.08036 12.7779 2.06696C12.5529 2.02679 12.3279 2 12.1279 2C11.5279 2 10.9904 2.1875 10.5279 2.53571C10.0654 2.89732 9.74043 3.36607 9.56543 3.92857H9.15293C9.10293 3.92857 9.06543 3.95536 9.04043 3.98214C9.01543 4.00893 9.00293 4.04911 9.00293 4.08929V4.49107C9.00293 4.54464 9.01543 4.58482 9.04043 4.61161C9.06543 4.63839 9.10293 4.65179 9.15293 4.65179H9.42793C9.40293 4.85268 9.40293 5.04018 9.41543 5.21429H9.15293C9.10293 5.21429 9.06543 5.24107 9.04043 5.26786C9.01543 5.29464 9.00293 5.33482 9.00293 5.375V5.75C9.00293 5.80357 9.01543 5.84375 9.04043 5.87054C9.06543 5.89732 9.10293 5.91071 9.15293 5.91071H9.52793C9.67793 6.54018 9.99043 7.03571 10.4529 7.41071C10.9279 7.8125 11.4779 8 12.1279 8C12.3779 8 12.6404 7.97321 12.8904 7.89286C12.9154 7.89286 12.9404 7.86607 12.9654 7.82589Z" fill="black"/>
<path fill-rule="evenodd" clip-rule="evenodd" d="M5.086 6.00068C5.05836 6.00023 5.03067 6 5.00293 6C2.24151 6 0.00292969 8.23858 0.00292969 11C0.00292969 13.7614 2.24151 16 5.00293 16C7.76435 16 10.0029 13.7614 10.0029 11C10.0029 10.9723 10.0027 10.9446 10.0023 10.9169C7.49029 10.4952 5.50772 8.51263 5.086 6.00068ZM6.59445 11.6094C6.39994 11.418 6.17764 11.2676 5.91366 11.1855L4.41314 10.7617C4.32978 10.7344 4.26031 10.6934 4.20474 10.6113C4.14916 10.543 4.12137 10.4609 4.12137 10.3789C4.12137 10.2695 4.14916 10.1738 4.23252 10.0918C4.31589 10.0098 4.41314 9.96875 4.52429 9.96875H5.45517C5.62189 9.96875 5.78862 10.0234 5.92756 10.1191C5.96924 10.1465 6.01092 10.1602 6.06649 10.1465C6.12207 10.1465 6.16375 10.1191 6.20543 10.0918L6.67782 9.61328C6.73339 9.57227 6.74729 9.51758 6.74729 9.44922C6.73339 9.39453 6.7056 9.33984 6.65003 9.28516C6.28879 9.01172 5.89977 8.875 5.45517 8.875V8.21875C5.45517 8.16406 5.42738 8.10938 5.3857 8.06836C5.34402 8.02734 5.28845 8 5.23287 8H4.78827C4.7188 8 4.66323 8.02734 4.62155 8.06836C4.57987 8.10938 4.56597 8.16406 4.56597 8.21875V8.875H4.53819C4.23252 8.875 3.96854 8.95703 3.73235 9.10742C3.48226 9.25781 3.30164 9.46289 3.1766 9.70898C3.03766 9.95508 2.98209 10.2285 3.00988 10.5156C3.03766 10.8301 3.16271 11.1035 3.38501 11.3359C3.59341 11.582 3.85739 11.7461 4.17695 11.8281L5.608 12.2383C5.69136 12.2656 5.76083 12.3203 5.81641 12.3887C5.87198 12.4707 5.89977 12.5391 5.89977 12.6211C5.89977 12.7441 5.85809 12.8398 5.77473 12.9219C5.69136 13.0039 5.608 13.0312 5.49685 13.0312H4.56597C4.38535 13.0312 4.23252 12.9902 4.09359 12.8945C4.03801 12.8672 3.99633 12.8535 3.94076 12.8535C3.88518 12.8672 3.8435 12.8809 3.81571 12.9082L3.34333 13.373C3.28775 13.4277 3.25996 13.4961 3.27386 13.5508C3.27386 13.6191 3.30164 13.6738 3.35722 13.7148C3.71846 13.9883 4.12137 14.125 4.56597 14.125V14.7812C4.56597 14.8496 4.57987 14.9043 4.62155 14.9453C4.66323 14.9863 4.7188 15 4.78827 15H5.23287C5.28845 15 5.34402 14.9863 5.3857 14.9453C5.42738 14.9043 5.45517 14.8496 5.45517 14.7812V14.125C5.78862 14.125 6.08039 14.0293 6.35826 13.8516C6.62224 13.6738 6.81675 13.4277 6.9279 13.127C7.01127 12.8535 7.02516 12.5938 6.96958 12.3203C6.91401 12.0469 6.78897 11.8145 6.59445 11.6094Z" fill="black"/>
</svg>
