<svg width="11" height="10" viewBox="0 0 11 10" fill="none" xmlns="http://www.w3.org/2000/svg">
<path fill-rule="evenodd" clip-rule="evenodd" d="M9.90776 5.97581L8.92677 5.78174C8.97663 5.52971 9.00293 5.26842 9.00293 5C9.00293 4.73158 8.97663 4.47029 8.92677 4.21826L9.90776 4.02419C9.97019 4.33979 10.0029 4.66607 10.0029 5C10.0029 5.33393 9.97019 5.66021 9.90776 5.97581ZM9.16076 2.22192L8.32979 2.77824C8.03747 2.3416 7.66133 1.96546 7.22469 1.67314L7.78101 0.842173C8.32626 1.20721 8.79572 1.67666 9.16076 2.22192ZM5.97874 0.0951702L5.78467 1.07616C5.53264 1.0263 5.27135 1 5.00293 1C4.73451 1 4.47322 1.0263 4.22119 1.07616L4.02712 0.0951702C4.34272 0.0327347 4.669 0 5.00293 0C5.33686 0 5.66314 0.0327347 5.97874 0.0951702ZM2.22485 0.842173L2.78117 1.67314C2.34453 1.96546 1.96839 2.3416 1.67607 2.77824L0.845102 2.22192C1.21014 1.67666 1.67959 1.20721 2.22485 0.842173ZM0.0980999 4.02419C0.0356644 4.33979 0.00292969 4.66607 0.00292969 5C0.00292969 5.33393 0.0356644 5.66021 0.0980999 5.97581L1.07909 5.78174C1.02923 5.52971 1.00293 5.26842 1.00293 5C1.00293 4.73158 1.02923 4.47029 1.07909 4.21826L0.0980999 4.02419ZM0.845103 7.77808L1.67607 7.22176C1.96839 7.6584 2.34453 8.03454 2.78117 8.32686L2.22485 9.15783C1.67959 8.79279 1.21014 8.32334 0.845103 7.77808ZM4.02712 9.90483L4.22119 8.92384C4.47322 8.9737 4.73451 9 5.00293 9C5.27135 9 5.53264 8.9737 5.78467 8.92384L5.97874 9.90483C5.66314 9.96727 5.33686 10 5.00293 10C4.669 10 4.34272 9.96727 4.02712 9.90483ZM7.78101 9.15783L7.22469 8.32686C7.66133 8.03454 8.03747 7.6584 8.32979 7.22176L9.16076 7.77808C8.79572 8.32333 8.32627 8.79279 7.78101 9.15783Z" fill="black"/>
</svg>
