<svg width="17" height="16" viewBox="0 0 17 16" fill="none" xmlns="http://www.w3.org/2000/svg">
<path d="M8.00293 9L3.00293 4V12L5.00293 11V9L8.00293 12L11.0029 9V11L13.0029 12V4L8.00293 9Z" fill="black"/>
<path fill-rule="evenodd" clip-rule="evenodd" d="M16.0029 8C16.0029 12.4183 12.4212 16 8.00293 16C3.58465 16 0.00292969 12.4183 0.00292969 8C0.00292969 3.58172 3.58465 0 8.00293 0C12.4212 0 16.0029 3.58172 16.0029 8ZM15.0029 8C15.0029 11.866 11.8689 15 8.00293 15C4.13694 15 1.00293 11.866 1.00293 8C1.00293 4.13401 4.13694 1 8.00293 1C11.8689 1 15.0029 4.13401 15.0029 8Z" fill="black"/>
</svg>
