<svg width="4" height="16" viewBox="0 0 4 16" fill="none" xmlns="http://www.w3.org/2000/svg">
<path d="M3.50293 2C3.50293 2.82843 2.83136 3.5 2.00293 3.5C1.1745 3.5 0.50293 2.82843 0.50293 2C0.50293 1.17157 1.1745 0.5 2.00293 0.5C2.83136 0.5 3.50293 1.17157 3.50293 2Z" fill="#1D2126"/>
<path d="M3.50293 8C3.50293 8.82843 2.83136 9.5 2.00293 9.5C1.1745 9.5 0.50293 8.82843 0.50293 8C0.50293 7.17157 1.1745 6.5 2.00293 6.5C2.83136 6.5 3.50293 7.17157 3.50293 8Z" fill="#1D2126"/>
<path d="M3.50293 14C3.50293 14.8284 2.83136 15.5 2.00293 15.5C1.1745 15.5 0.50293 14.8284 0.50293 14C0.50293 13.1716 1.1745 12.5 2.00293 12.5C2.83136 12.5 3.50293 13.1716 3.50293 14Z" fill="#1D2126"/>
</svg>
