<svg width="11" height="10" viewBox="0 0 11 10" fill="none" xmlns="http://www.w3.org/2000/svg">
<path d="M5.00293 2.5C5.00293 2.22386 4.77907 2 4.50293 2C4.22679 2 4.00293 2.22386 4.00293 2.5V5.5C4.00293 5.68939 4.10993 5.86252 4.27932 5.94721L6.27932 6.94721C6.52631 7.07071 6.82665 6.9706 6.95014 6.72361C7.07364 6.47662 6.97353 6.17628 6.72654 6.05279L5.00293 5.19098V2.5Z" fill="black"/>
<path fill-rule="evenodd" clip-rule="evenodd" d="M10.0029 5C10.0029 7.76142 7.76435 10 5.00293 10C2.24151 10 0.00292969 7.76142 0.00292969 5C0.00292969 2.23858 2.24151 0 5.00293 0C7.76435 0 10.0029 2.23858 10.0029 5ZM9.00293 5C9.00293 7.20914 7.21207 9 5.00293 9C2.79379 9 1.00293 7.20914 1.00293 5C1.00293 2.79086 2.79379 1 5.00293 1C7.21207 1 9.00293 2.79086 9.00293 5Z" fill="black"/>
</svg>
