<svg width="17" height="16" viewBox="0 0 17 16" fill="none" xmlns="http://www.w3.org/2000/svg">
<g clip-path="url(#clip0_6249:37769)">
<path d="M16.0028 0.496L15.5068 0V10.28L16.0028 9.968V0.496ZM12.1868 5.04L11.3228 4.92C12.0386 4.60001 12.7217 4.21153 13.3628 3.76V4.44C12.9933 4.68107 12.6023 4.88729 12.1948 5.056L12.1868 5.04Z" fill="black"/>
<path d="M13.7228 0.24C13.5288 0.817236 13.2146 1.34675 12.8009 1.79357C12.3872 2.24038 11.8834 2.59432 11.3228 2.832V4.92C12.0386 4.60001 12.7217 4.21153 13.3628 3.76V10.104L15.5228 10.288V0L13.7308 0.24H13.7228Z" fill="url(#paint0_linear_6249:37769)"/>
<path d="M8.98673 14.768L9.90673 15.08L9.17073 12.496L8.33873 12.544L8.98673 14.768ZM7.63473 10.16L6.80273 6.99205L7.26673 5.47205L8.55473 10.144H7.63473V10.16Z" fill="#790000"/>
<path d="M4.56293 2.33597L5.72293 1.71997L0.80293 16L0.00292969 15.44L4.56293 2.34397V2.33597Z" fill="#B40302"/>
<path fill-rule="evenodd" clip-rule="evenodd" d="M0.802734 16L5.72273 1.71997L8.73873 2.27997L12.4987 14.768L9.90673 15.08L9.17073 12.496L5.17073 12.736L4.30673 15.632L0.802734 16ZM7.26673 5.47997L8.55473 10.152H5.85073L7.26673 5.47997Z" fill="url(#paint1_linear_6249:37769)"/>
</g>
<defs>
<linearGradient id="paint0_linear_6249:37769" x1="13.4188" y1="0" x2="13.4188" y2="10.28" gradientUnits="userSpaceOnUse">
<stop stop-color="#5B5B5B"/>
<stop offset="1" stop-color="#141414"/>
</linearGradient>
<linearGradient id="paint1_linear_6249:37769" x1="3.63473" y1="5.41597" x2="11.2667" y2="15.2" gradientUnits="userSpaceOnUse">
<stop stop-color="#FA0100"/>
<stop offset="1" stop-color="#9B0000"/>
</linearGradient>
<clipPath id="clip0_6249:37769">
<rect width="16" height="16" fill="white" transform="translate(0.00292969)"/>
</clipPath>
</defs>
</svg>
