<svg width="17" height="16" viewBox="0 0 17 16" fill="none" xmlns="http://www.w3.org/2000/svg">
<path d="M6.66042 11.0949C6.66042 11.6052 6.24637 12.0199 5.73212 12.0199C5.21818 12.0199 4.80371 11.6051 4.80371 11.0949C4.80371 10.5845 5.21851 10.169 5.73212 10.169C6.24598 10.169 6.66042 10.5842 6.66042 11.0949ZM6.66042 4.9049C6.66042 5.4153 6.24598 5.83061 5.73212 5.83061C5.21855 5.83061 4.80371 5.41523 4.80371 4.9049C4.80371 4.39489 5.21856 3.97918 5.73212 3.97918C6.24593 3.97918 6.66042 4.39467 6.66042 4.9049ZM8.30989 1.01316L8.754 0.68488C10.2852 2.64964 11.2037 5.36209 11.2037 7.99971C11.2037 10.6375 10.2852 13.3505 8.75407 15.3151L8.30989 14.9866C9.46898 12.8354 10.0553 10.7697 10.0553 7.99983C10.0553 5.23079 9.46896 3.16496 8.30989 1.01316Z" fill="#03278F" stroke="#03278F"/>
</svg>
