<svg width="17" height="16" viewBox="0 0 17 16" fill="none" xmlns="http://www.w3.org/2000/svg">
<g clip-path="url(#clip0_6249:37767)">
<path fill-rule="evenodd" clip-rule="evenodd" d="M2.35566 0.102455C3.6791 -0.296215 4.86318 0.523408 5.62266 1.28878C6.28459 1.95585 6.81193 2.7107 6.93578 3.51585L6.93617 3.51834C7.05613 4.32523 6.77878 5.14278 5.98013 5.94675C5.76914 6.15998 5.55314 6.33969 5.33373 6.48604C5.49129 6.698 5.65626 6.91048 5.8284 7.12277C6.62949 8.11068 7.53049 9.02855 8.50068 9.8547C8.84042 10.144 9.18172 10.4152 9.52175 10.6674C9.66636 10.448 9.84417 10.2312 10.0566 10.0182C10.8549 9.21482 11.6715 8.9316 12.4794 9.05231C13.2693 9.17071 14.0043 9.67104 14.6671 10.3324C15.0813 10.7457 15.4286 11.185 15.6654 11.6463C15.9351 12.1718 16.0733 12.735 15.9703 13.3453C15.8743 13.9138 15.5722 14.4657 15.0455 14.9959C14.3023 15.7443 13.5074 16.0479 12.7131 15.9946C11.5774 16.0007 10.2196 15.5575 8.82522 14.7953C7.41254 14.0232 5.92092 12.9013 4.52041 11.5019C2.28893 9.27685 0.743276 6.80034 0.212238 4.7669C0.0353423 4.08954 -0.0986871 3.26738 0.0937844 2.48366C0.231369 1.92344 0.530661 1.43884 0.996772 0.969487C1.19917 0.765732 1.40511 0.594905 1.61479 0.456113C1.85778 0.29527 2.10504 0.177952 2.35566 0.102455Z" fill="#A4AAB4"/>
</g>
<defs>
<clipPath id="clip0_6249:37767">
<rect width="16" height="16" fill="white" transform="translate(0.00292969)"/>
</clipPath>
</defs>
</svg>
