<svg width="12" height="16" viewBox="0 0 12 16" fill="none" xmlns="http://www.w3.org/2000/svg">
<path d="M2.73629 3.32806L2.73629 3.32806L2.73762 3.32582C3.28412 2.3983 3.88099 1.67931 4.46185 1.198C5.04886 0.711599 5.57904 0.5 6.00283 0.5C6.42542 0.5 6.95336 0.712479 7.54145 1.2007C8.12296 1.68346 8.72226 2.40314 9.27729 3.32792C10.4196 5.25801 11.1028 7.64229 11.1028 9.688C11.1028 11.176 10.6909 12.6387 9.8564 13.717C9.03425 14.7794 7.78036 15.5 6.00283 15.5C4.22104 15.5 2.96737 14.7792 2.14642 13.7172C1.3141 12.6405 0.903873 11.1802 0.902834 9.69366C0.954948 7.44924 1.58653 5.2564 2.73629 3.32806Z" fill="#E30613" stroke="#E30613"/>
</svg>
