<svg width="11" height="10" viewBox="0 0 11 10" fill="none" xmlns="http://www.w3.org/2000/svg">
<path fill-rule="evenodd" clip-rule="evenodd" d="M10.0029 5C10.0029 7.76142 7.76435 10 5.00293 10C2.24151 10 0.00292969 7.76142 0.00292969 5C0.00292969 2.23858 2.24151 0 5.00293 0C7.76435 0 10.0029 2.23858 10.0029 5ZM9.00293 5C9.00293 7.20914 7.21207 9 5.00293 9C2.79379 9 1.00293 7.20914 1.00293 5C1.00293 2.79086 2.79379 1 5.00293 1C6.18202 1 7.24195 1.51016 7.97403 2.32179L4.50293 5.79289L2.85648 4.14645C2.66122 3.95118 2.34464 3.95118 2.14938 4.14645C1.95411 4.34171 1.95411 4.65829 2.14938 4.85355L4.14938 6.85355C4.34464 7.04882 4.66122 7.04882 4.85648 6.85355L8.55366 3.15638C8.8407 3.70808 9.00293 4.33509 9.00293 5Z" fill="black"/>
</svg>
