<svg width="13" height="16" viewBox="0 0 13 16" fill="none" xmlns="http://www.w3.org/2000/svg">
<path fill-rule="evenodd" clip-rule="evenodd" d="M6.00677 1C5.17785 1 4.50587 1.67157 4.50587 2.5C4.50587 3.01088 4.76097 3.46231 5.15307 3.73394C5.39528 3.90174 5.68879 4 6.00677 4C6.32475 4 6.61826 3.90174 6.86048 3.73394C7.25258 3.46231 7.50767 3.01088 7.50767 2.5C7.50767 1.67157 6.8357 1 6.00677 1ZM3.50527 2.5C3.50527 1.11929 4.62523 0 6.00677 0C7.38832 0 8.50828 1.11929 8.50828 2.5C8.50828 3.10383 8.29384 3.65756 7.93773 4.08931L11.26 6.41419C12.0522 6.96855 12.2447 8.05975 11.69 8.85146C11.1362 9.64195 10.0468 9.83499 9.25492 9.28376L8.00798 8.44145V8.96916L10.2907 11.2277C10.3929 11.3288 10.4862 11.4386 10.5695 11.5557L10.6968 11.7347C10.8998 12.0205 11.0194 12.3707 11.0194 12.747V14.247C11.0194 15.2135 10.2355 15.997 9.26839 15.997C8.30132 15.997 7.51734 15.2135 7.51734 14.247V13.3946L6.47665 12.3299L3.92931 15.3638C3.30768 16.1042 2.2032 16.2008 1.46237 15.5795C0.721661 14.9584 0.624945 13.8548 1.24625 13.1144C1.24634 13.1143 1.24615 13.1145 1.24625 13.1144L4.00556 9.81843L4.00547 8.4179L2.7624 9.28122C2.76214 9.2814 2.76266 9.28103 2.7624 9.28122C1.97028 9.8349 0.878171 9.64291 0.32366 8.85146C-0.231025 8.05976 -0.0385152 6.96858 0.753639 6.41421C0.753651 6.4142 0.753626 6.41422 0.753639 6.41421L4.07563 4.08908C3.71963 3.65737 3.50527 3.10373 3.50527 2.5ZM4.89202 4.73852L1.32763 7.23331C0.988126 7.47089 0.905579 7.93858 1.1433 8.27788C1.38103 8.61719 1.84897 8.69965 2.18848 8.46206L2.18994 8.46105L4.2202 7.05101C4.37314 6.94479 4.57245 6.93226 4.73749 7.0185C4.90253 7.10473 5.00599 7.27544 5.006 7.46156L5.00617 9.99997C5.00618 10.1173 4.96491 10.2309 4.88958 10.3208L2.0135 13.7563C1.74709 14.0736 1.78805 14.5472 2.10554 14.8135C2.42304 15.0797 2.89639 15.0384 3.1628 14.7211L6.06525 11.2641C6.15607 11.156 6.28842 11.0912 6.42961 11.0859C6.57079 11.0805 6.70766 11.1351 6.80639 11.2361L8.37553 12.8415C8.46683 12.9349 8.51794 13.0603 8.51794 13.1909V14.247C8.51794 14.6612 8.85393 14.997 9.26839 14.997C9.68286 14.997 10.0188 14.6612 10.0188 14.247V12.747C10.0188 12.5848 9.9679 12.436 9.88108 12.3138L9.75401 12.1351C9.70401 12.0649 9.64804 11.999 9.58671 11.9383L7.15569 9.53306C7.06078 9.43916 7.00737 9.31122 7.00737 9.17774V7.5C7.00737 7.31503 7.10955 7.14517 7.27301 7.05841C7.43647 6.97166 7.6345 6.98217 7.78784 7.08575L9.82523 8.46201C10.1647 8.69959 10.6326 8.61719 10.8704 8.27788C11.1081 7.93858 11.0256 7.47092 10.6861 7.23334L7.1212 4.73869C6.78538 4.90592 6.40664 5 6.00677 5C5.60678 5 5.22793 4.90585 4.89202 4.73852Z" fill="#5B6473"/>
</svg>
