<svg width="11" height="10" viewBox="0 0 11 10" fill="none" xmlns="http://www.w3.org/2000/svg">
<path d="M1.11744 1.91649L0.937586 1.14126C0.887922 0.90993 0.68335 0.74914 0.453362 0.760708C0.154204 0.775398 -0.056556 1.06868 0.0180207 1.36709L0.48841 3.37117C0.549475 3.63131 0.803487 3.79168 1.05657 3.72987L3.00546 3.24968C3.61911 3.09654 3.39591 2.14961 2.78225 2.3027L1.84516 2.53514C2.49391 1.69229 3.44993 1.10334 4.57342 0.979928C6.7951 0.735854 8.77814 2.3845 9.01538 4.67018C9.0664 5.33635 10.0444 5.22786 9.95615 4.5659C9.68293 1.93353 7.50485 -0.0267354 4.73068 0.000275767C3.10207 0.165905 1.91819 0.884737 1.11744 1.91649ZM6.9927 6.73596C6.35378 6.87055 6.58436 7.86014 7.21314 7.68204L8.1493 7.44954C7.50055 8.29212 6.54465 8.87852 5.42104 9.00196C3.19936 9.24603 1.21725 7.60116 0.980013 5.31546C0.95726 5.06103 0.746846 4.86817 0.498556 4.87421C0.21957 4.88156 0.0076027 5.13492 0.0420012 5.41985C0.33344 8.22771 2.79235 10.2706 5.52158 9.97079C6.89469 9.82004 8.07722 9.09875 8.87795 8.06825L9.06057 8.84443C9.17557 9.52395 10.174 9.27801 9.97737 8.6186L9.50974 6.61357C9.45657 6.3823 9.2486 6.22453 8.97802 6.24776L6.9927 6.73596Z" fill="black"/>
</svg>
