<svg viewBox="0 0 24 24" xmlns="http://www.w3.org/2000/svg"><path d="M10.5 3.5H10V4h.5zm-3 0V4H8v-.5zm-2 0V3a.5.5 0 0 0-.5.5zm0 3H5a.5.5 0 0 0 .5.5zm7 0V7a.5.5 0 0 0 .5-.5zm0-3h.5a.5.5 0 0 0-.5-.5zM16 13a.5.5 0 0 0 1 0zm-6.5 8a.5.5 0 0 0 0-1zm-5-11a.5.5 0 0 0 0 1zm9 1a.5.5 0 0 0 0-1zm-9 2a.5.5 0 0 0 0 1zm7 1a.5.5 0 0 0 0-1zm-7 2a.5.5 0 0 0 0 1zm5 1a.5.5 0 0 0 0-1zM11 3.5c0-.39-.085-.977-.36-1.488C10.353 1.481 9.831 1 9 1v1c.369 0 .597.186.76.488.175.323.24.735.24 1.012zM9 1c-.831 0-1.353.48-1.64 1.012C7.085 2.522 7 3.111 7 3.5h1c0-.277.065-.69.24-1.012C8.403 2.186 8.63 2 9 2zM7.5 3h-2v1h2zm-2 4h7V6h-7zm7-4h-2v1h2zm.5 3.5v-2h-1v2zm0-2v-1h-1v1zm-.5.5h3V4h-3zm3 0c.087 0 .228.03.333.106.08.057.167.157.167.394h1c0-.563-.246-.963-.583-1.206A1.617 1.617 0 0 0 15.5 4zm.5.5V13h1V5.5zm-11-2v1h1v-1zm0 1v2h1v-2zm.5-.5h-3v1h3zm-3 0c-.247 0-.606.07-.917.294C1.246 4.537 1 4.937 1 5.5h1c0-.237.088-.337.167-.394A.62.62 0 0 1 2.5 5zM1 5.5v14h1v-14zm0 14c0 .247.07.606.294.917.243.337.643.583 1.206.583v-1c-.237 0-.337-.088-.394-.167A.619.619 0 0 1 2 19.5zM2.5 21h7v-1h-7zm2-10h9v-1h-9zm0 3h7v-1h-7zm0 3h5v-1h-5z" fill="#1d2126"/><path clip-rule="evenodd" d="M20.038 15.88c-.864-.513-1.89-.88-3.038-.88-1.52 0-2.828.644-3.829 1.417-1 .77-1.728 1.695-2.102 2.33a.5.5 0 0 0-.018.473c.249.507.651 1.082 1.18 1.627l.865-.55a6.082 6.082 0 0 1-1.018-1.277 7.96 7.96 0 0 1 1.704-1.812C14.672 16.522 15.77 16 17 16c.745 0 1.44.191 2.072.494zm-2.115 1.345a2 2 0 0 0-2.921 1.86zm-1.85 3.548 2.925-1.861L19 19a2 2 0 0 1-2.926 1.773zm-1.19.757c.64.29 1.351.47 2.117.47 1.244 0 2.345-.475 3.226-1.127.775-.574 1.358-1.27 1.696-1.853a7.811 7.811 0 0 0-1.085-1.279l.866-.55c.556.56.974 1.124 1.228 1.555a.5.5 0 0 1 .018.474c-.381.776-1.123 1.712-2.128 2.457C19.811 22.425 18.506 23 17 23c-1.166 0-2.212-.345-3.094-.848z" fill="#1d2126" fill-rule="evenodd"/><path d="m11.497 22.5 11-7" stroke-linecap="round" stroke-linejoin="round"/></svg>