<svg viewBox="0 0 24 24" fill="none" xmlns="http://www.w3.org/2000/svg"><g clip-path="url(#a)"><path d="M20.997 8.556h-7l-6 11h5v5h6l5-10h-3v-6Z" fill="#FFD02F"/><path d="m22.264 2.728.5.015a.5.5 0 0 0-.515-.515l.015.5ZM3.879 13.04l-.444-.23a.5.5 0 0 0 .797.584l-.353-.354Zm7.117-5.318.4.3-.4-.3Zm.954 13.389-.354-.354a.5.5 0 0 0 .592.793l-.238-.44Zm5.318-7.117-.3-.4.3.4ZM3.171 21.82l-.474-.158a.5.5 0 0 0 .633.632l-.159-.474Zm6.011-10.253-.474.159v.002l.002.003a.661.661 0 0 0 .015.043l.044.116a8.465 8.465 0 0 0 .934 1.692c.703.983 1.842 2.128 3.564 2.702l.316-.949c-1.46-.486-2.443-1.462-3.066-2.335a7.48 7.48 0 0 1-.667-1.133 5.755 5.755 0 0 1-.185-.434l-.007-.02-.002-.004-.474.158Zm-.055-.497c-.237.027-.558.027-.996.04-.42.01-.914.033-1.433.108-1.039.15-2.219.517-3.173 1.47l.707.708c.743-.744 1.685-1.055 2.609-1.189.461-.066.909-.087 1.317-.098.391-.01.787-.012 1.08-.045l-.11-.994ZM22.25 2.229c-6.383.193-9.832 2.775-11.653 5.194l.8.602c1.635-2.175 4.8-4.612 10.883-4.797l-.03-1ZM10.596 7.422a11.193 11.193 0 0 0-1.54 2.799 9.003 9.003 0 0 0-.347 1.16 3.499 3.499 0 0 0-.02.102l.493.083.493.083a2.754 2.754 0 0 1 .063-.277 8.02 8.02 0 0 1 .254-.802c.252-.674.684-1.59 1.403-2.546l-.799-.602Zm-6.274 5.85C4.9 12.16 5.942 10.75 7.171 9.69c1.246-1.077 2.568-1.696 3.732-1.476l.186-.982c-1.628-.309-3.26.568-4.572 1.7-1.33 1.15-2.45 2.663-3.082 3.878l.887.462Zm8.603 2.537c0 1.062.466 3.154-1.329 4.95l.707.706c2.165-2.164 1.622-4.833 1.622-5.656h-1Zm.5 0 .082.493h.004l.006-.002a2.569 2.569 0 0 0 .093-.018c.061-.013.148-.032.258-.06a9 9 0 0 0 .902-.286 11.191 11.191 0 0 0 2.799-1.541l-.602-.8A10.192 10.192 0 0 1 14.421 15a7.997 7.997 0 0 1-1.016.304c-.023.005-.04.009-.051.01l-.011.003h-.002.001l.083.493Zm4.144-1.414c2.42-1.82 5-5.27 5.195-11.652l-1-.03c-.184 6.082-2.622 9.247-4.797 10.883l.602.799Zm-5.38 7.156c1.268-.688 2.85-1.877 4.019-3.227.585-.675 1.083-1.41 1.38-2.16.298-.753.405-1.553.156-2.323l-.952.308c.157.485.108 1.037-.134 1.646-.242.612-.665 1.25-1.206 1.875-1.082 1.25-2.566 2.365-3.74 3.002l.476.88Zm-8.543.426c.464-1.393 1.292-3.314 2.258-4.595.489-.647.964-1.065 1.388-1.218a.935.935 0 0 1 .56-.04c.18.046.389.158.623.392l.707-.707c-.332-.332-.694-.556-1.086-.654a1.933 1.933 0 0 0-1.144.069c-.7.253-1.322.86-1.846 1.556-1.061 1.407-1.93 3.445-2.409 4.88l.949.317Zm4.829-5.461c.233.234.346.443.391.622a.935.935 0 0 1-.04.56c-.153.424-.57.9-1.218 1.388-1.28.966-3.202 1.794-4.595 2.259l.317.948c1.435-.478 3.474-1.347 4.88-2.408.696-.525 1.304-1.146 1.557-1.847.13-.362.168-.75.069-1.144-.099-.391-.322-.753-.654-1.085l-.707.707Z" fill="#1D2126"/><circle cx="16.253" cy="8.738" r="2" transform="rotate(45 16.253 8.738)" stroke="#1D2126" fill="none"/></g><defs><clipPath id="a"><path fill="#fff" transform="translate(0 .556)" d="M0 0h24v24H0z"/></clipPath></defs></svg>