<svg viewBox="0 0 17 16" xmlns="http://www.w3.org/2000/svg">
  <path d="M8 13.75c1.2 0 2-1.25 4-4.25l3.5 2.5L8 15.5.5 12 4 9.5c2 3 2.8 4.25 4 4.25z"/>
  <path d="m12 9.5.3-.4a.5.5 0 0 0-.71.12l.41.28zm-8 0 .42-.28a.5.5 0 0 0-.7-.13L4 9.5zM.5 12l-.29-.4a.5.5 0 0 0 .08.85L.5 12zM8 15.5l-.2.45a.5.5 0 0 0 .41 0l-.2-.45zm7.5-3.5.21.45a.5.5 0 0 0 .08-.86l-.29.41zm-3.9-2.78a38.47 38.47 0 0 1-2.26 3.2c-.57.65-.94.83-1.33.83v1c.82 0 1.45-.44 2.08-1.17.63-.72 1.35-1.82 2.34-3.3l-.83-.56zM8 13.25c-.38 0-.75-.18-1.32-.83a36.2 36.2 0 0 1-2.26-3.2l-.83.56c.99 1.48 1.7 2.58 2.34 3.3.63.73 1.26 1.17 2.07 1.17v-1zM3.71 9.09l-3.5 2.5.58.82 3.5-2.5-.58-.82zM.3 12.45l7.5 3.5.42-.9-7.5-3.5-.42.9zm7.92 3.5 7.5-3.5-.42-.9-7.5 3.5.42.9zm7.58-4.36-3.5-2.5-.58.82 3.5 2.5.58-.82z"/>
  <path fill-rule="evenodd" clip-rule="evenodd" d="M11.5 4.5c0-2-1-4-3.5-4s-3.5 2-3.5 4 3 7 3.5 7 3.5-5 3.5-7zM8 6a2 2 0 1 0 0-4 2 2 0 0 0 0 4z"/>
  <path d="M8 1c1.1 0 1.83.43 2.29 1.05.48.64.71 1.52.71 2.45h1a5.1 5.1 0 0 0-.91-3.05A3.68 3.68 0 0 0 8 0v1zM5 4.5c0-.93.24-1.81.72-2.45A2.69 2.69 0 0 1 8 1V0C6.6 0 5.58.57 4.92 1.45A5.1 5.1 0 0 0 4 4.5h1zM8 11c.15 0 .22.07.18.04a.92.92 0 0 1-.1-.1 5.53 5.53 0 0 1-.43-.54c-.33-.48-.75-1.15-1.14-1.89a19.9 19.9 0 0 1-1.06-2.25A5.53 5.53 0 0 1 5 4.5H4c0 .6.22 1.36.51 2.12.3.77.7 1.6 1.12 2.37a20.97 20.97 0 0 0 1.2 1.98 6.5 6.5 0 0 0 .75.87A.7.7 0 0 0 8 12v-1zm3-6.5c0 .4-.15 1.02-.44 1.76a20.08 20.08 0 0 1-2.63 4.68.92.92 0 0 1-.1.1c-.04.03.03-.04.17-.04v1a.71.71 0 0 0 .43-.16 2 2 0 0 0 .24-.22 6.48 6.48 0 0 0 .5-.64c.37-.52.8-1.23 1.21-2a21.12 21.12 0 0 0 1.11-2.36c.3-.76.51-1.52.51-2.12h-1zM9.5 4A1.5 1.5 0 0 1 8 5.5v1A2.5 2.5 0 0 0 10.5 4h-1zM8 2.5A1.5 1.5 0 0 1 9.5 4h1A2.5 2.5 0 0 0 8 1.5v1zM6.5 4A1.5 1.5 0 0 1 8 2.5v-1A2.5 2.5 0 0 0 5.5 4h1zM8 5.5A1.5 1.5 0 0 1 6.5 4h-1A2.5 2.5 0 0 0 8 6.5v-1z"/>
</svg>
