<svg viewBox="0 0 25 24" xmlns="http://www.w3.org/2000/svg">
  <path fill-rule="evenodd" clip-rule="evenodd" d="M9.06 2.94a2.2 2.2 0 1 0 0 4.4 2.2 2.2 0 0 0 0-4.4zm-.73 2.2a.73.73 0 1 1 1.47 0 .73.73 0 0 1-1.47 0z"/>
  <path fill-rule="evenodd" clip-rule="evenodd" d="M6.61 0C6 0 5.48.16 5.07.43c-.4.27-.66.62-.83.96a3.14 3.14 0 0 0-.32 1.26v12.78c0 .6.15 1.27.6 1.81a2.6 2.6 0 0 0 2.1.88H21.3c.64 0 1.18-.15 1.6-.42.42-.28.68-.64.84-.99a2.86 2.86 0 0 0 .25-1.3V2.65a3.13 3.13 0 0 0-.04-.38 3.14 3.14 0 0 0-.28-.88 2.45 2.45 0 0 0-.83-.96A2.73 2.73 0 0 0 21.3 0H6.6zM5.9 1.65c.14-.1.36-.18.72-.18h14.7c.36 0 .58.09.72.18a.99.99 0 0 1 .33.4 1.68 1.68 0 0 1 .17.65v8.78l-4.58-5.35a.73.73 0 0 0-1.16.06l-4.4 6.15L10.08 10a.73.73 0 0 0-1.04 0L5.4 13.65V2.66a1.68 1.68 0 0 1 .17-.62.99.99 0 0 1 .33-.39zm7.2 12.25 4.35-6.1 5.1 5.94v1.78a1.47 1.47 0 0 1-.12.58.83.83 0 0 1-.31.36c-.14.1-.39.2-.8.2H6.6c-.55 0-.82-.18-.96-.36a1.18 1.18 0 0 1-.24-.59l4.14-4.14 2.42 2.42a.73.73 0 0 0 1.12-.1z"/>
  <path d="M2.56 10.56a.73.73 0 0 0-.9.52L.09 16.95a2.5 2.5 0 0 0 1.77 3.06l14.57 3.9a2.5 2.5 0 0 0 3.06-1.76l.55-2.08a.73.73 0 0 0-1.42-.39l-.55 2.09a1.03 1.03 0 0 1-1.26.72L2.23 18.6a1.03 1.03 0 0 1-.73-1.26l1.57-5.86a.73.73 0 0 0-.52-.9z"/>
</svg>
