<svg viewBox="0 0 14 14" xmlns="http://www.w3.org/2000/svg"><path fill-rule="evenodd" clip-rule="evenodd" d="M7.003 3.5c-1.871 0-3.564.724-5.049 2.428l-.007.008c-.124.137-.29.296-.437.438l-.012.012c-.16.154-.296.284-.381.38a.497.497 0 0 0-.103.153.215.215 0 0 0-.011.081c0 .039.003.06.011.08a.497.497 0 0 0 .103.154c.085.096.22.226.38.38l.013.012c.147.142.313.301.437.438l.007.007C3.439 9.777 5.132 10.5 7.003 10.5c1.87 0 3.564-.724 5.049-2.428l.007-.008c.124-.137.29-.296.437-.438l.012-.012a8.48 8.48 0 0 0 .381-.38.518.518 0 0 0 .104-.15.221.221 0 0 0 .01-.084.221.221 0 0 0-.01-.084.518.518 0 0 0-.104-.15 8.042 8.042 0 0 0-.38-.38l-.013-.012a9.88 9.88 0 0 1-.437-.438l-.007-.007C10.567 4.223 8.874 3.5 7.002 3.5Zm-5.8 1.768C2.868 3.359 4.83 2.5 7.004 2.5s4.135.86 5.8 2.768c.099.109.241.246.398.397l.008.007c.147.142.312.3.427.43.133.15.232.3.294.463.062.167.073.316.073.435 0 .12-.01.268-.073.435-.062.164-.16.314-.294.463-.115.13-.28.288-.427.43l-.008.007c-.157.151-.3.288-.399.397-1.664 1.909-3.626 2.768-5.8 2.768-2.172 0-4.135-.86-5.798-2.768a9.5 9.5 0 0 0-.4-.397l-.007-.007a8.62 8.62 0 0 1-.427-.43 1.478 1.478 0 0 1-.295-.475A1.209 1.209 0 0 1 .003 7c0-.114.012-.259.072-.423.059-.163.156-.32.295-.475.115-.13.28-.288.427-.43l.007-.007a9.5 9.5 0 0 0 .4-.397Zm5.8.188C6.19 5.456 5.51 6.135 5.51 7s.68 1.544 1.493 1.544c.813 0 1.493-.679 1.493-1.544s-.68-1.544-1.493-1.544ZM4.51 7c0-1.393 1.104-2.544 2.493-2.544 1.389 0 2.493 1.15 2.493 2.544 0 1.393-1.104 2.544-2.493 2.544C5.614 9.544 4.51 8.394 4.51 7Z"/></svg>