<svg width="17" height="16" viewBox="0 0 17 16" fill="none" xmlns="http://www.w3.org/2000/svg">
<path fill-rule="evenodd" clip-rule="evenodd" d="M4.50293 0C4.77907 0 5.00293 0.223858 5.00293 0.5V1H11.0029V0.5C11.0029 0.223858 11.2268 0 11.5029 0C11.7791 0 12.0029 0.223858 12.0029 0.5V1H13.5029C14.8836 1 16.0029 2.11929 16.0029 3.5V13.5C16.0029 14.8807 14.8836 16 13.5029 16H2.50293C1.12222 16 0.00292969 14.8807 0.00292969 13.5V3.5C0.00292969 2.11929 1.12222 1 2.50293 1H4.00293V0.5C4.00293 0.223858 4.22679 0 4.50293 0ZM4.00293 2H2.50293C1.6745 2 1.00293 2.67157 1.00293 3.5V5H15.0029V3.5C15.0029 2.67157 14.3314 2 13.5029 2H12.0029V2.5C12.0029 2.77614 11.7791 3 11.5029 3C11.2268 3 11.0029 2.77614 11.0029 2.5V2H5.00293V2.5C5.00293 2.77614 4.77907 3 4.50293 3C4.22679 3 4.00293 2.77614 4.00293 2.5V2ZM15.0029 6H1.00293V13.5C1.00293 14.3284 1.6745 15 2.50293 15H13.5029C14.3314 15 15.0029 14.3284 15.0029 13.5V6Z" fill="black"/>
</svg>
