<svg width="17" height="16" viewBox="0 0 17 16" fill="none" xmlns="http://www.w3.org/2000/svg">
<path fill-rule="evenodd" clip-rule="evenodd" d="M0.295824 0.292893C0.686348 -0.0976311 1.31951 -0.097631 1.71004 0.292893L8.00293 6.58579L14.2958 0.292893C14.6863 -0.0976309 15.3195 -0.0976309 15.71 0.292893C16.1006 0.683418 16.1006 1.31658 15.71 1.70711L9.41714 8L15.71 14.2929C16.1006 14.6834 16.1006 15.3166 15.71 15.7071C15.3195 16.0976 14.6863 16.0976 14.2958 15.7071L8.00293 9.41421L1.71004 15.7071C1.31951 16.0976 0.686347 16.0976 0.295823 15.7071C-0.0947014 15.3166 -0.0947014 14.6834 0.295823 14.2929L6.58872 8L0.295824 1.70711C-0.0947004 1.31658 -0.0947002 0.683417 0.295824 0.292893Z" fill="black"/>
</svg>
