<svg width="17" height="16" viewBox="0 0 17 16" fill="none" xmlns="http://www.w3.org/2000/svg">
<path d="M7.24341 9.49736V9.15873C7.24341 8.77072 7.30518 8.44797 7.4292 8.19048C7.55298 7.93298 7.76978 7.66667 8.07959 7.39153C8.44824 7.05996 8.68506 6.80247 8.79028 6.61905C8.89868 6.43563 8.95288 6.21693 8.95288 5.96296C8.95288 5.66667 8.86621 5.43915 8.69287 5.28042C8.51929 5.12169 8.27002 5.04233 7.94482 5.04233C7.65063 5.04233 7.37817 5.08995 7.1272 5.18518C6.87622 5.28042 6.63159 5.39506 6.39307 5.5291L6.00293 4.59789C6.63159 4.1993 7.30518 4 8.02393 4C8.63086 4 9.11255 4.16931 9.46875 4.50794C9.82495 4.84656 10.0029 5.31393 10.0029 5.91005C10.0029 6.1746 9.96875 6.41093 9.90063 6.61905C9.83252 6.82364 9.72876 7.0194 9.58936 7.20635C9.45312 7.3933 9.21631 7.63668 8.87866 7.93651C8.59058 8.194 8.39697 8.40741 8.29785 8.57672C8.2019 8.74603 8.15381 8.97355 8.15381 9.25926V9.49736H7.24341Z" fill="black"/>
<path d="M7.05298 11.1852C7.05298 10.6526 7.28052 10.3862 7.73584 10.3862C7.95874 10.3862 8.12915 10.4568 8.24683 10.5979C8.3645 10.7355 8.42334 10.9312 8.42334 11.1852C8.42334 11.4356 8.36304 11.6349 8.24219 11.7831C8.12451 11.9277 7.95581 12 7.73584 12C7.51587 12 7.34717 11.9295 7.22949 11.7884C7.11182 11.6437 7.05298 11.4427 7.05298 11.1852Z" fill="black"/>
<path fill-rule="evenodd" clip-rule="evenodd" d="M16.0029 8C16.0029 12.4183 12.4212 16 8.00293 16C3.58465 16 0.00292969 12.4183 0.00292969 8C0.00292969 3.58172 3.58465 0 8.00293 0C12.4212 0 16.0029 3.58172 16.0029 8ZM15.0029 8C15.0029 11.866 11.8689 15 8.00293 15C4.13694 15 1.00293 11.866 1.00293 8C1.00293 4.13401 4.13694 1 8.00293 1C11.8689 1 15.0029 4.13401 15.0029 8Z" fill="black"/>
</svg>
