<svg width="21" height="16" viewBox="0 0 21 16" fill="none" xmlns="http://www.w3.org/2000/svg">
<path d="M13.5127 2.36892C12.3933 1.98374 11.2211 1.79999 10.0029 1.79999C6.90041 1.79999 4.09553 2.99199 1.70338 5.66796C1.55155 5.83046 1.33687 6.03186 1.10809 6.24637L1.10201 6.25208C0.883207 6.45723 0.647871 6.67789 0.484931 6.85641C0.29722 7.06207 0.171284 7.26278 0.0953473 7.46587C0.0185402 7.67128 0.00292969 7.8526 0.00292969 7.99999C0.00292969 8.14738 0.0185403 8.3287 0.0953476 8.53411C0.171284 8.7372 0.297221 8.93791 0.484931 9.14357C0.647869 9.32209 0.883201 9.54274 1.102 9.74789L1.10809 9.75361C1.33686 9.96811 1.55153 10.1695 1.70336 10.332C2.34251 11.047 3.01267 11.6579 3.71269 12.1689L4.42919 11.4524C4.4086 11.4379 4.38803 11.4232 4.36748 11.4084C3.70444 10.9322 3.06298 10.353 2.44551 9.66175L2.43842 9.65397C2.26232 9.465 2.02464 9.24215 1.80722 9.03831L1.79209 9.02412C1.56062 8.80709 1.35573 8.61427 1.22353 8.46943C1.10484 8.33939 1.05512 8.2457 1.03201 8.18388C1.00977 8.1244 1.00293 8.07031 1.00293 7.99999C1.00293 7.92966 1.00977 7.87558 1.03201 7.81609C1.05513 7.75428 1.10484 7.66059 1.22353 7.53055C1.35573 7.38571 1.56062 7.19289 1.79209 6.97586L1.80723 6.96166C2.02464 6.75782 2.26232 6.53498 2.43842 6.34601L2.44551 6.33823C4.65552 3.86419 7.19364 2.79999 10.0029 2.79999C10.9378 2.79999 11.8426 2.91784 12.7153 3.16627L13.5127 2.36892Z" fill="black"/>
<path d="M15.5767 4.54753L16.2931 3.83111C16.9911 4.34062 17.6616 4.95103 18.3025 5.66795C18.4543 5.83045 18.669 6.03186 18.8978 6.24637L18.9038 6.25207C19.1226 6.45722 19.358 6.67788 19.5209 6.85641C19.7027 7.05558 19.8308 7.24762 19.9089 7.45067C19.9885 7.65781 20.0029 7.84282 20.0029 7.99999C20.0029 8.15716 19.9885 8.34217 19.9089 8.54931C19.8308 8.75236 19.7027 8.9444 19.5209 9.14357C19.358 9.32209 19.1226 9.54275 18.9038 9.74791L18.8978 9.75361C18.669 9.96812 18.4543 10.1695 18.3025 10.332C15.9103 13.008 13.1054 14.2 10.0029 14.2C8.88481 14.2 7.7999 14.0452 6.75504 13.7172C6.66744 13.6897 6.58016 13.661 6.49319 13.6311L7.29054 12.8337C8.15908 13.0809 9.06356 13.2 10.0029 13.2C12.8122 13.2 15.3503 12.1358 17.5603 9.66175L17.5674 9.65389C17.7434 9.46494 17.9812 9.24221 18.1986 9.03839L18.2138 9.02412C18.4452 8.80709 18.6501 8.61427 18.7823 8.46943C18.9069 8.3329 18.9545 8.24506 18.9755 8.19047C18.9949 8.13996 19.0029 8.08957 19.0029 7.99999C19.0029 7.9104 18.9949 7.86001 18.9755 7.80951C18.9545 7.75492 18.9069 7.66708 18.7823 7.53055C18.6501 7.38571 18.4452 7.19289 18.2138 6.97586L18.1986 6.96166C17.9812 6.75782 17.7435 6.53498 17.5674 6.34601L17.5603 6.3383C16.9257 5.62789 16.2641 5.03364 15.5767 4.54753Z" fill="black"/>
<path d="M11.1111 4.77055C10.7636 4.65136 10.3908 4.58665 10.0029 4.58665C8.1178 4.58665 6.5896 6.11486 6.5896 7.99999C6.5896 8.38788 6.6543 8.76065 6.7735 9.10811L7.60525 8.27636C7.59491 8.18567 7.5896 8.09345 7.5896 7.99999C7.5896 6.66714 8.67008 5.58665 10.0029 5.58665C10.0964 5.58665 10.1886 5.59197 10.2793 5.60231L11.1111 4.77055Z" fill="black"/>
<path d="M12.4006 7.72364L13.2324 6.89188C13.3516 7.23934 13.4163 7.61211 13.4163 7.99999C13.4163 9.88512 11.8881 11.4133 10.0029 11.4133C9.61505 11.4133 9.24228 11.3486 8.89482 11.2294L9.72658 10.3977C9.81727 10.408 9.90948 10.4133 10.0029 10.4133C11.3358 10.4133 12.4163 9.33284 12.4163 7.99999C12.4163 7.90654 12.411 7.81432 12.4006 7.72364Z" fill="black"/>
<path d="M17.8565 0.853554C18.0517 0.658292 18.0517 0.341709 17.8565 0.146447C17.6612 -0.0488155 17.3446 -0.0488155 17.1494 0.146447L2.14938 15.1464C1.95411 15.3417 1.95411 15.6583 2.14938 15.8536C2.34464 16.0488 2.66122 16.0488 2.85648 15.8536L17.8565 0.853554Z" fill="black"/>
</svg>
