<svg width="8" height="10" viewBox="0 0 8 10" fill="none" xmlns="http://www.w3.org/2000/svg">
<path d="M4.3565 0.146447C4.16124 -0.0488155 3.84465 -0.0488155 3.64939 0.146447L0.649391 3.14645C0.506392 3.28945 0.463614 3.5045 0.541005 3.69134C0.618395 3.87818 0.800713 4 1.00294 4L7.00294 4C7.20518 4 7.38749 3.87818 7.46488 3.69134C7.54227 3.5045 7.4995 3.28945 7.3565 3.14645L4.3565 0.146447Z" fill="black"/>
<path d="M1.00294 6C0.800713 6 0.618395 6.12182 0.541005 6.30866C0.463614 6.4955 0.506392 6.71055 0.649391 6.85355L3.64939 9.85355C3.84465 10.0488 4.16124 10.0488 4.3565 9.85355L7.3565 6.85355C7.4995 6.71055 7.54227 6.4955 7.46488 6.30866C7.38749 6.12182 7.20518 6 7.00294 6H1.00294Z" fill="black"/>
</svg>
