<svg width="13" height="16" viewBox="0 0 13 16" fill="none" xmlns="http://www.w3.org/2000/svg">
<path fill-rule="evenodd" clip-rule="evenodd" d="M1.87339 0.843817C2.99382 0.181197 4.4827 0 6.00283 0C7.52295 0 9.01188 0.181197 10.1324 0.843812C11.3033 1.53626 12.0029 2.7117 12.0029 4.5C12.0029 5.61637 11.7462 6.64349 11.4483 7.22725C10.7162 8.66211 9.45295 10.6819 8.38299 12.3291C7.84602 13.1558 7.35427 13.8939 6.99676 14.4254C6.81798 14.6911 6.67269 14.9053 6.57201 15.0532L6.45583 15.2235L6.41558 15.2822L6 15.87L5.58743 15.2789L5.55685 15.2365C5.53009 15.1993 5.4908 15.1447 5.44037 15.0741C5.33951 14.9329 5.19406 14.7282 5.01511 14.4729C4.65729 13.9625 4.16508 13.2495 3.62737 12.4388C2.55678 10.8248 1.28836 8.79778 0.549645 7.21103C0.286247 6.64525 0.00292969 5.6159 0.00292969 4.5C0.00292969 2.71172 0.70253 1.53627 1.87339 0.843817ZM5.9931 14.1252C6.04666 14.0459 6.10479 13.9597 6.16703 13.8672C6.52237 13.339 7.01105 12.6055 7.54437 11.7844C8.615 10.1361 9.85183 8.15585 10.5576 6.77275C10.7699 6.35651 11.0029 5.49146 11.0029 4.5C11.0029 3.01946 10.4525 2.19491 9.62333 1.70456C8.74372 1.18439 7.48259 1 6.00283 1C4.52306 1 3.26199 1.18439 2.38244 1.70456C1.55333 2.1949 1.00293 3.01945 1.00293 4.5C1.00293 5.46939 1.25406 6.35475 1.45621 6.78897C2.16059 8.30197 3.39212 10.275 4.46071 11.886C4.99258 12.6879 5.47977 13.3937 5.83395 13.8989C5.89052 13.9796 5.94369 14.0552 5.9931 14.1252ZM5.72815 3C4.72288 3 4.00293 3.71945 4.00293 4.47254V4.52746C4.00293 5.28055 4.72288 6 5.72815 6H6.27771C7.28298 6 8.00293 5.28055 8.00293 4.52746V4.47254C8.00293 3.71945 7.28298 3 6.27771 3H5.72815ZM3.00293 4.47254C3.00293 3.05727 4.28729 2 5.72815 2H6.27771C7.71856 2 9.00293 3.05727 9.00293 4.47254V4.52746C9.00293 5.94273 7.71856 7 6.27771 7H5.72815C4.28729 7 3.00293 5.94273 3.00293 4.52746V4.47254Z" fill="black"/>
</svg>
