<svg width="17" height="16" viewBox="0 0 17 16" fill="none" xmlns="http://www.w3.org/2000/svg">
<path fill-rule="evenodd" clip-rule="evenodd" d="M2.71265 2.06454C1.67845 2.78972 1.00293 3.96848 1.00293 5.875C1.00293 7.78386 1.68105 9.03245 2.72656 9.82058C3.79531 10.6262 5.31398 11 7.06729 11C8.82308 11 10.3057 10.6349 11.3394 9.83833C12.3502 9.0594 13.0029 7.81264 13.0029 5.875C13.0029 3.93922 12.3524 2.76285 11.3534 2.04706C10.3225 1.30836 8.83858 1 7.06729 1C5.29886 1 3.77874 1.31699 2.71265 2.06454ZM2.13852 1.24577C3.44826 0.327381 5.21032 0 7.06729 0C8.92138 0 10.6553 0.31664 11.9359 1.23419C13.2484 2.17465 14.0029 3.68578 14.0029 5.875C14.0029 8.06236 13.2505 9.6281 11.9498 10.6304C11.8344 10.7193 11.7153 10.8034 11.5927 10.8827L15.8565 15.1464C16.0517 15.3417 16.0517 15.6583 15.8565 15.8536C15.6612 16.0488 15.3446 16.0488 15.1494 15.8536L10.6648 11.369C9.60315 11.8138 8.36774 12 7.06729 12C5.1952 12 3.43169 11.6044 2.12461 10.6191C0.794293 9.6163 0.00292969 8.05239 0.00292969 5.875C0.00292969 3.69526 0.796888 2.18653 2.13852 1.24577Z" fill="#1D2126"/>
</svg>
