<svg width="13" height="10" viewBox="0 0 13 10" fill="none" xmlns="http://www.w3.org/2000/svg">
<path d="M0.00292969 9C0.00292969 8.44772 0.450645 8 1.00293 8H11.0029C11.5552 8 12.0029 8.44772 12.0029 9C12.0029 9.55228 11.5552 10 11.0029 10H1.00293C0.450645 10 0.00292969 9.55228 0.00292969 9Z" fill="black"/>
<path d="M0.00292969 5C0.00292969 4.44772 0.450645 4 1.00293 4H11.0029C11.5552 4 12.0029 4.44772 12.0029 5C12.0029 5.55228 11.5552 6 11.0029 6H1.00293C0.450645 6 0.00292969 5.55228 0.00292969 5Z" fill="black"/>
<path d="M0.00292969 1C0.00292969 0.447715 0.450645 0 1.00293 0H11.0029C11.5552 0 12.0029 0.447715 12.0029 1C12.0029 1.55228 11.5552 2 11.0029 2H1.00293C0.450645 2 0.00292969 1.55228 0.00292969 1Z" fill="black"/>
</svg>
