<svg width="21" height="14" viewBox="0 0 21 14" fill="none" xmlns="http://www.w3.org/2000/svg">
<path fill-rule="evenodd" clip-rule="evenodd" d="M10.5029 1.80005C7.69364 1.80005 5.15552 2.86425 2.94551 5.33829L2.9385 5.34614C2.7624 5.53512 2.52464 5.75788 2.30723 5.96172L2.29209 5.97592C2.06062 6.19295 1.85573 6.38577 1.72353 6.53061C1.60484 6.66065 1.55513 6.75434 1.53201 6.81616C1.50977 6.87564 1.50293 6.92973 1.50293 7.00005C1.50293 7.07037 1.50977 7.12446 1.53201 7.18394C1.55512 7.24576 1.60484 7.33945 1.72353 7.46949C1.85573 7.61433 2.06062 7.80715 2.29209 8.02418L2.30722 8.03837C2.52464 8.24221 2.76232 8.46506 2.93842 8.65403L2.9456 8.66173C5.1556 11.1358 7.69364 12.2 10.5029 12.2C13.3122 12.2 15.8503 11.1358 18.0603 8.66181L18.0674 8.65395C18.2435 8.46499 18.4812 8.24224 18.6986 8.0384L18.7138 8.02418C18.9452 7.80715 19.1501 7.61433 19.2823 7.46949C19.4069 7.33296 19.4545 7.24512 19.4755 7.19053C19.4949 7.14002 19.5029 7.08964 19.5029 7.00005C19.5029 6.91047 19.4949 6.86008 19.4755 6.80957C19.4545 6.75498 19.4069 6.66714 19.2823 6.53061C19.1501 6.38577 18.9452 6.19295 18.7138 5.97592L18.6986 5.96172C18.4812 5.75788 18.2435 5.53504 18.0674 5.34607L18.0603 5.33837C15.8503 2.86433 13.3122 1.80005 10.5029 1.80005ZM2.20338 4.66802C4.59553 1.99205 7.40041 0.800049 10.5029 0.800049C13.6054 0.800049 16.4103 1.99205 18.8025 4.66801C18.9543 4.83051 19.169 5.03192 19.3978 5.24643L19.4038 5.25213C19.6226 5.45728 19.858 5.67795 20.0209 5.85647C20.2027 6.05564 20.3308 6.24768 20.4089 6.45073C20.4885 6.65787 20.5029 6.84288 20.5029 7.00005C20.5029 7.15722 20.4885 7.34223 20.4089 7.54937C20.3308 7.75242 20.2027 7.94446 20.0209 8.14363C19.858 8.32215 19.6226 8.54281 19.4038 8.74797L19.3978 8.75367C19.169 8.96818 18.9543 9.16959 18.8025 9.33209C16.4103 12.008 13.6054 13.2 10.5029 13.2C7.40041 13.2 4.59552 12.008 2.20336 9.33206C2.05153 9.16957 1.83686 8.96817 1.60809 8.75367L1.60201 8.74796C1.38321 8.54281 1.14787 8.32215 0.984931 8.14363C0.797221 7.93797 0.671284 7.73726 0.595348 7.53417C0.51854 7.32876 0.50293 7.14744 0.50293 7.00005C0.50293 6.85267 0.51854 6.67134 0.595347 6.46593C0.671284 6.26284 0.79722 6.06213 0.984931 5.85647C1.14787 5.67795 1.38321 5.45729 1.60201 5.25214L1.60809 5.24643C1.83687 5.03192 2.05155 4.83052 2.20338 4.66802ZM10.5029 4.58672C9.17008 4.58672 8.0896 5.6672 8.0896 7.00005C8.0896 8.3329 9.17008 9.41338 10.5029 9.41338C11.8358 9.41338 12.9163 8.3329 12.9163 7.00005C12.9163 5.6672 11.8358 4.58672 10.5029 4.58672ZM7.0896 7.00005C7.0896 5.11492 8.6178 3.58672 10.5029 3.58672C12.3881 3.58672 13.9163 5.11492 13.9163 7.00005C13.9163 8.88518 12.3881 10.4134 10.5029 10.4134C8.6178 10.4134 7.0896 8.88518 7.0896 7.00005Z" fill="black"/>
</svg>
