<svg width="19" height="18" viewBox="0 0 19 18" fill="none" xmlns="http://www.w3.org/2000/svg">
<path d="M9.71004 1.70711C10.1006 1.31658 10.1006 0.683417 9.71004 0.292893C9.31951 -0.0976311 8.68635 -0.0976311 8.29582 0.292893L9.71004 1.70711ZM1.00293 9L0.295823 8.29289C-0.0947014 8.68342 -0.0947014 9.31658 0.295823 9.70711L1.00293 9ZM8.29582 17.7071C8.68635 18.0976 9.31951 18.0976 9.71004 17.7071C10.1006 17.3166 10.1006 16.6834 9.71004 16.2929L8.29582 17.7071ZM17.71 1.70711C18.1006 1.31658 18.1006 0.683417 17.71 0.292893C17.3195 -0.0976311 16.6863 -0.0976311 16.2958 0.292893L17.71 1.70711ZM9.00293 9L8.29582 8.29289C7.9053 8.68342 7.9053 9.31658 8.29582 9.70711L9.00293 9ZM16.2958 17.7071C16.6863 18.0976 17.3195 18.0976 17.71 17.7071C18.1006 17.3166 18.1006 16.6834 17.71 16.2929L16.2958 17.7071ZM8.29582 0.292893L0.295823 8.29289L1.71004 9.70711L9.71004 1.70711L8.29582 0.292893ZM0.295823 9.70711L8.29582 17.7071L9.71004 16.2929L1.71004 8.29289L0.295823 9.70711ZM16.2958 0.292893L8.29582 8.29289L9.71004 9.70711L17.71 1.70711L16.2958 0.292893ZM8.29582 9.70711L16.2958 17.7071L17.71 16.2929L9.71004 8.29289L8.29582 9.70711Z" fill="#1D2126"/>
</svg>
