<svg width="17" height="16" viewBox="0 0 17 16" fill="none" xmlns="http://www.w3.org/2000/svg">
<path d="M0.00292969 8C0.00292969 3.58172 3.58465 0 8.00293 0C12.4212 0 16.0029 3.58172 16.0029 8C16.0029 12.4183 12.4212 16 8.00293 16C3.58465 16 0.00292969 12.4183 0.00292969 8Z" fill="white"/>
<path d="M11.5699 5.31694C11.814 5.07286 11.814 4.67714 11.5699 4.43306C11.3258 4.18898 10.9301 4.18898 10.686 4.43306L8.00293 7.11612L5.31987 4.43306C5.07579 4.18898 4.68007 4.18898 4.43599 4.43306C4.19191 4.67714 4.19191 5.07286 4.43599 5.31694L7.11905 8L4.43599 10.6831C4.19191 10.9271 4.19191 11.3229 4.43599 11.5669C4.68007 11.811 5.07579 11.811 5.31987 11.5669L8.00293 8.88388L10.686 11.5669C10.9301 11.811 11.3258 11.811 11.5699 11.5669C11.814 11.3229 11.814 10.9271 11.5699 10.6831L8.88681 8L11.5699 5.31694Z" fill="black"/>
</svg>
