<svg width="25" height="24" viewBox="0 0 25 24" fill="none" xmlns="http://www.w3.org/2000/svg">
<path d="M0.00292969 12C0.00292969 5.37258 5.37551 0 12.0029 0C18.6303 0 24.0029 5.37258 24.0029 12C24.0029 18.6274 18.6303 24 12.0029 24C5.37551 24 0.00292969 18.6274 0.00292969 12Z" fill="#E94649"/>
<path d="M16.7589 8.42259C17.0843 8.09715 17.0843 7.56951 16.7589 7.24408C16.4334 6.91864 15.9058 6.91864 15.5803 7.24408L12.0029 10.8215L8.42552 7.24408C8.10008 6.91864 7.57244 6.91864 7.24701 7.24408C6.92157 7.56951 6.92157 8.09715 7.24701 8.42259L10.8244 12L7.24701 15.5774C6.92157 15.9028 6.92157 16.4305 7.24701 16.7559C7.57244 17.0814 8.10008 17.0814 8.42552 16.7559L12.0029 13.1785L15.5803 16.7559C15.9058 17.0814 16.4334 17.0814 16.7589 16.7559C17.0843 16.4305 17.0843 15.9028 16.7589 15.5774L13.1814 12L16.7589 8.42259Z" fill="white"/>
</svg>
