<svg width="22" height="24" viewBox="0 0 22 24" fill="none" xmlns="http://www.w3.org/2000/svg">
<path fill-rule="evenodd" clip-rule="evenodd" d="M1.86157 4.97878C4.10389 3.29763 7.12388 2.22705 10.1138 2.11552C13.1016 2.00406 16.0013 2.84985 18.0757 4.92427C18.31 5.15859 18.6899 5.15859 18.9242 4.92427C19.1585 4.68996 19.1585 4.31006 18.9242 4.07574C16.556 1.70751 13.2989 0.795864 10.069 0.916349C6.84192 1.03673 3.58397 2.18698 1.13994 4.02001C0.874841 4.21883 0.821115 4.59491 1.01994 4.86001C1.13751 5.01677 1.31707 5.09962 1.49901 5.10004C1.6256 5.10095 1.75351 5.06196 1.86263 4.9802L1.86157 4.97878ZM7.61911 7.90201C7.46501 7.63077 7.1641 7.27413 6.7258 7.06637C6.25136 6.84148 5.65699 6.81399 5.03955 7.17625C4.42313 7.53791 4.15471 8.06978 4.10995 8.59039C4.06836 9.0742 4.22005 9.51461 4.37442 9.78634L8.42538 16.9166L5.69393 16.8486C5.0614 16.8105 4.5983 17.1821 4.33263 17.5225C4.1941 17.7 4.08779 17.8934 4.01609 18.0768C3.94919 18.2479 3.89271 18.4605 3.90442 18.6684C3.90515 18.6813 3.90568 18.6964 3.90629 18.7137C3.91301 18.9043 3.92885 19.3537 4.31078 19.816C4.69884 20.2857 5.40103 20.7035 6.61689 21.0532C7.22561 21.2284 8.73475 21.6059 10.2182 21.9769C11.7171 22.3519 13.1908 22.7205 13.7625 22.8849C16.0621 23.5465 18.3278 22.6175 19.7092 21.0284C21.0969 19.4321 21.6522 17.0935 20.4221 14.9283L20.4216 14.9273L18.8203 12.114C18.0056 10.6827 17.1641 9.20397 17.0553 9.0125C16.9012 8.74125 16.6003 8.38462 16.162 8.17685C15.6875 7.95196 15.0932 7.92447 14.4757 8.28674C14.1894 8.45476 13.9781 8.65951 13.8295 8.8828C13.7368 8.81542 13.6352 8.75373 13.5249 8.70146C13.0505 8.47657 12.4561 8.44908 11.8387 8.81135C11.5523 8.97936 11.3411 9.18411 11.1924 9.4074C11.0997 9.34002 10.9981 9.27834 10.8879 9.22607C10.4134 9.00118 9.81908 8.97369 9.20163 9.33595C8.98706 9.46185 8.81465 9.60837 8.67916 9.76786L7.61911 7.90201ZM17.7774 12.7076L19.3787 15.5209C20.3116 17.1631 19.9222 18.9542 18.8035 20.2412C17.6784 21.5354 15.8765 22.2444 14.0942 21.7317C13.5021 21.5614 12.0219 21.1911 10.5523 20.8235L10.552 20.8235L10.5094 20.8128C9.01068 20.4379 7.53135 20.0676 6.94864 19.9C5.82549 19.5769 5.39784 19.2477 5.23591 19.0517C5.117 18.9078 5.11274 18.8161 5.10553 18.6611L5.10326 18.6145C5.10341 18.6142 5.10364 18.613 5.10404 18.611C5.10607 18.6006 5.11241 18.5682 5.1337 18.5137C5.16488 18.434 5.21453 18.3429 5.27858 18.2609C5.41593 18.0849 5.5391 18.0406 5.62489 18.0466L5.63849 18.0476L9.4563 18.1427C9.67252 18.1481 9.8749 18.0367 9.98601 17.8511C10.0971 17.6656 10.0998 17.4346 9.99293 17.2465L5.41779 9.19357C5.3543 9.08182 5.28927 8.88244 5.30554 8.69318C5.31865 8.54072 5.38269 8.36622 5.6468 8.21126C5.90989 8.0569 6.08371 8.09 6.2118 8.15072C6.37603 8.22856 6.51198 8.38256 6.57574 8.49479L10.2794 15.0138C10.4431 15.3019 10.8094 15.4028 11.0975 15.2391C11.3856 15.0754 11.4865 14.7092 11.3228 14.4211L9.57988 11.3533C9.51639 11.2415 9.45136 11.0421 9.46763 10.8529C9.48074 10.7004 9.54478 10.5259 9.80889 10.371C10.072 10.2166 10.2458 10.2497 10.3739 10.3104C10.5381 10.3883 10.6741 10.5423 10.7378 10.6545L12.4807 13.7223C12.6444 14.0104 13.0107 14.1113 13.2988 13.9476C13.5869 13.7839 13.6878 13.4176 13.5241 13.1295L12.2169 10.8287C12.1534 10.7169 12.0884 10.5175 12.1047 10.3283C12.1178 10.1758 12.1818 10.0013 12.4459 9.84635C12.709 9.692 12.8828 9.72509 13.0109 9.78581C13.1752 9.86366 13.3111 10.0177 13.3749 10.1299L14.6821 12.4307C14.8457 12.7188 15.212 12.8197 15.5001 12.656C15.7882 12.4923 15.8891 12.1261 15.7254 11.8379L14.854 10.3041C14.7905 10.1923 14.7254 9.99293 14.7417 9.80367C14.7548 9.6512 14.8189 9.4767 15.083 9.32174C15.3461 9.16739 15.5199 9.20048 15.648 9.2612C15.8122 9.33905 15.9482 9.49304 16.0119 9.60527C16.121 9.79727 16.963 11.2767 17.7774 12.7076Z" fill="#1D2126"/>
</svg>
