<svg width="21" height="20" viewBox="0 0 21 20" fill="none" xmlns="http://www.w3.org/2000/svg">
<path fill-rule="evenodd" clip-rule="evenodd" d="M0.596989 0H5.54748C5.87557 0 6.14154 0.265969 6.14154 0.594059C6.14154 0.922149 5.87557 1.18812 5.54748 1.18812H2.03118L7.94775 7.10469C8.17974 7.33668 8.17974 7.71282 7.94775 7.94482C7.71575 8.17681 7.33961 8.17681 7.10762 7.94482L1.19105 2.02825V5.54455C1.19105 5.87264 0.925079 6.13861 0.596989 6.13861C0.268899 6.13861 0.00292969 5.87264 0.00292969 5.54455V0.594059C0.00292969 0.265969 0.268899 0 0.596989 0ZM13.8643 0.594059C13.8643 0.265969 14.1303 0 14.4584 0H19.4089C19.737 0 20.0029 0.265969 20.0029 0.594059V5.54455C20.0029 5.87264 19.737 6.13861 19.4089 6.13861C19.0808 6.13861 18.8148 5.87264 18.8148 5.54455V2.02825L12.8982 7.94482C12.6662 8.17681 12.2901 8.17681 12.0581 7.94482C11.8261 7.71282 11.8261 7.33668 12.0581 7.10469L17.9747 1.18812H14.4584C14.1303 1.18812 13.8643 0.922149 13.8643 0.594059ZM7.94775 12.0552C8.17974 12.2872 8.17974 12.6633 7.94775 12.8953L2.03118 18.8119H5.54748C5.87557 18.8119 6.14154 19.0779 6.14154 19.4059C6.14154 19.734 5.87557 20 5.54748 20H0.596989C0.268899 20 0.00292969 19.734 0.00292969 19.4059V14.4554C0.00292969 14.1274 0.268899 13.8614 0.596989 13.8614C0.925079 13.8614 1.19105 14.1274 1.19105 14.4554V17.9718L7.10762 12.0552C7.33961 11.8232 7.71575 11.8232 7.94775 12.0552ZM12.0581 12.0552C12.2901 11.8232 12.6662 11.8232 12.8982 12.0552L18.8148 17.9718V14.4554C18.8148 14.1274 19.0808 13.8614 19.4089 13.8614C19.737 13.8614 20.0029 14.1274 20.0029 14.4554V19.4059C20.0029 19.734 19.737 20 19.4089 20H14.4584C14.1303 20 13.8643 19.734 13.8643 19.4059C13.8643 19.0779 14.1303 18.8119 14.4584 18.8119H17.9747L12.0581 12.8953C11.8261 12.6633 11.8261 12.2872 12.0581 12.0552Z" fill="#1D2126"/>
</svg>
