<svg width="22" height="20" viewBox="0 0 22 20" fill="none" xmlns="http://www.w3.org/2000/svg">
<path fill-rule="evenodd" clip-rule="evenodd" d="M11.1634 1.35007C11.0595 1.30232 10.9408 1.30232 10.8369 1.35007L2.22789 5.30641C1.91727 5.44916 1.91726 5.89057 2.22789 6.03332L10.8369 9.98967C10.9408 10.0374 11.0595 10.0374 11.1634 9.98967L19.7724 6.03332C20.083 5.89057 20.083 5.44916 19.7724 5.30641L11.1634 1.35007ZM11.7698 0.308076L20.2735 4.21604C21.516 4.78704 21.516 6.55269 20.2735 7.12369L19.0364 7.6922L20.2735 8.2607C21.516 8.8317 21.516 10.5973 20.2735 11.1684L19.037 11.7366L20.2735 12.3048C21.516 12.8758 21.516 14.6415 20.2735 15.2125L11.6645 19.1688C11.2425 19.3627 10.7578 19.3627 10.3358 19.1688L1.7268 15.2125C0.484296 14.6415 0.484296 12.8758 1.7268 12.3048L2.96328 11.7366L1.7268 11.1684C0.484295 10.5973 0.484297 8.8317 1.7268 8.2607L2.96386 7.6922L1.7268 7.12369C0.484297 6.55269 0.484294 4.78704 1.7268 4.21604L10.3358 0.259695C10.7249 0.0808778 11.1674 0.0669546 11.5648 0.217925C11.6346 0.244442 11.702 0.276916 11.7698 0.308076ZM4.40073 8.35252L2.22789 9.35107C1.91727 9.49382 1.91727 9.93523 2.22789 10.078L10.8369 14.0343C10.9408 14.0821 11.0595 14.0821 11.1634 14.0343L19.7724 10.078C20.083 9.93523 20.083 9.49382 19.7724 9.35107L17.5996 8.35252L11.6645 11.08C11.2425 11.274 10.7578 11.274 10.3358 11.08L4.40073 8.35252ZM4.40014 12.3969L2.22789 13.3952C1.91727 13.5379 1.91727 13.9794 2.22789 14.1221L10.8369 18.0784C10.9408 18.1262 11.0595 18.1262 11.1634 18.0784L19.7724 14.1221C20.083 13.9794 20.083 13.5379 19.7724 13.3952L17.6001 12.3969L11.6645 15.1247C11.2425 15.3186 10.7578 15.3186 10.3358 15.1247L4.40014 12.3969Z" fill="#1D2126"/>
</svg>
