<svg width="17" height="16" viewBox="0 0 17 16" fill="none" xmlns="http://www.w3.org/2000/svg">
<path d="M9.46658 1.53104C9.46658 2.37526 8.80997 3.06208 8.00287 3.06208C7.19577 3.06208 6.53929 2.37526 6.53929 1.53104C6.53929 0.68682 7.19577 0 8.00287 0C8.80997 0 9.46658 0.68682 9.46658 1.53104Z" fill="#1D2126"/>
<path d="M9.79836 3.78804L10.9841 7.6309C11.0192 7.74493 11.0049 7.86022 10.9441 7.9474C10.8833 8.03457 10.783 8.08459 10.6684 8.08459H10.3645C10.1578 8.08459 9.94627 7.92352 9.88279 7.7178L9.54482 6.62222V8.06177C11.0548 8.18449 12.4176 8.48472 13.4919 8.91444C14.2054 9.19983 14.8163 9.55217 15.2571 9.96899C15.6989 10.3868 16.0029 10.904 16.0029 11.5C16.0029 12.4895 15.1841 13.2521 14.1721 13.7762C13.1224 14.3198 11.6829 14.7097 10.0578 14.8891C9.40247 14.9615 8.71347 15 8.00293 15C7.72679 15 7.50293 14.7761 7.50293 14.5C7.50293 14.2239 7.72679 14 8.00293 14C8.6776 14 9.32995 13.9634 9.94806 13.8952C11.4941 13.7245 12.8046 13.3582 13.7122 12.8882C14.6573 12.3988 15.0029 11.8903 15.0029 11.5C15.0029 11.2676 14.8872 10.9956 14.57 10.6955C14.2517 10.3945 13.7643 10.1004 13.1205 9.84292C12.1726 9.46375 10.9392 9.18523 9.54482 9.06525V12.2935C9.54482 12.6831 9.24184 13 8.86942 13H8.82188C8.44946 13 8.14648 12.6831 8.14648 12.2935V9.00055C8.09875 9.00019 8.0509 9 8.00293 9C7.95489 9 7.90697 9.00019 7.85917 9.00055V12.2935C7.85917 12.6831 7.55619 13 7.18377 13H7.13623C6.76382 13 6.46083 12.6831 6.46083 12.2935V9.06527C5.06649 9.18526 3.83319 9.46377 2.88532 9.84292C2.24157 10.1004 1.75416 10.3945 1.43587 10.6955C1.11864 10.9956 1.00293 11.2676 1.00293 11.5C1.00293 11.7214 1.10742 11.9775 1.39088 12.2607C1.67624 12.5458 2.11535 12.828 2.70093 13.0805C2.83429 13.138 3.05566 13.2047 3.32481 13.2755L2.60102 12.2974C2.43675 12.0755 2.48353 11.7624 2.7055 11.5981C2.92747 11.4338 3.24057 11.4806 3.40484 11.7026L4.94766 13.7873C5.04169 13.9144 5.0701 14.0784 5.02428 14.2297C4.97846 14.381 4.86381 14.5017 4.71508 14.5552L2.17226 15.4705C1.91244 15.564 1.626 15.4292 1.53248 15.1693C1.43896 14.9095 1.57377 14.6231 1.8336 14.5295L2.8207 14.1743C2.62555 14.1182 2.44485 14.0591 2.30493 13.9988C1.64934 13.716 1.08845 13.3722 0.684094 12.9682C0.277847 12.5623 0.00292969 12.0663 0.00292969 11.5C0.00292969 10.904 0.306957 10.3868 0.748763 9.96899C1.18951 9.55217 1.80045 9.19983 2.51393 8.91444C3.58818 8.48474 4.95098 8.18452 6.46083 8.06179V6.62279L6.12314 7.7178C6.05965 7.92352 5.84812 8.08459 5.64145 8.08459H5.33752C5.22297 8.08459 5.12247 8.03457 5.06182 7.9474C5.00117 7.86022 4.98658 7.74493 5.0217 7.6309L6.20716 3.78804C6.27064 3.58232 6.48218 3.42125 6.68885 3.42125H9.31667C9.52334 3.42125 9.73487 3.58232 9.79836 3.78804Z" fill="#1D2126"/>
</svg>
