<svg width="16" height="16" viewBox="0 0 16 16" fill="none" xmlns="http://www.w3.org/2000/svg">
<path fill-rule="evenodd" clip-rule="evenodd" d="M8.00283 0.400024C8.3342 0.400024 8.60283 0.668654 8.60283 1.00002V7.40002H15.0028C15.3342 7.40002 15.6028 7.66865 15.6028 8.00002C15.6028 8.3314 15.3342 8.60002 15.0028 8.60002H8.60283V15C8.60283 15.3314 8.3342 15.6 8.00283 15.6C7.67146 15.6 7.40283 15.3314 7.40283 15V8.60002H1.00283C0.671461 8.60002 0.402832 8.3314 0.402832 8.00002C0.402832 7.66865 0.671461 7.40002 1.00283 7.40002H7.40283V1.00002C7.40283 0.668654 7.67146 0.400024 8.00283 0.400024Z" fill="#1D2126"/>
</svg>
