<svg viewBox="0 0 17 16" xmlns="http://www.w3.org/2000/svg">
  <path fill-rule="evenodd" clip-rule="evenodd" d="M3.85 5.5a.3.3 0 0 1 .3.35A16.06 16.06 0 0 0 4 8c0 .72.05 1.43.15 2.15a.3.3 0 0 1-.3.35H.62a.3.3 0 0 1-.28-.2A8 8 0 0 1 0 8a8 8 0 0 1 .34-2.3.3.3 0 0 1 .28-.2h3.23zM1.03 4.08a.29.29 0 0 0 .26.42h2.85a.3.3 0 0 0 .3-.24 26.31 26.31 0 0 1 1-3.33c.09-.24-.13-.47-.36-.38a8.03 8.03 0 0 0-4.05 3.52zM7.01.06a.3.3 0 0 0-.23.18c-.57 1.4-1 2.69-1.29 3.9a.3.3 0 0 0 .3.36h4.43a.3.3 0 0 0 .3-.36 28.7 28.7 0 0 0-1.3-3.9A.3.3 0 0 0 9 .06a8.08 8.08 0 0 0-1.98 0zm3.92.5c-.24-.1-.45.13-.37.37a26.3 26.3 0 0 1 1.01 3.33.3.3 0 0 0 .3.24h2.85a.29.29 0 0 0 .26-.42A8.03 8.03 0 0 0 10.93.55zm4.74 5.15a.3.3 0 0 0-.28-.21h-3.23a.3.3 0 0 0-.3.35 16.16 16.16 0 0 1 0 4.3.3.3 0 0 0 .3.35h3.23a.3.3 0 0 0 .28-.2A8 8 0 0 0 16 8c0-.8-.11-1.57-.33-2.3zm-.7 6.21a.29.29 0 0 0-.25-.42h-2.86a.3.3 0 0 0-.29.24 26.31 26.31 0 0 1-1 3.33c-.1.24.12.47.36.38a8.03 8.03 0 0 0 4.05-3.52zM9 15.95a.3.3 0 0 0 .24-.18c.56-1.4.99-2.69 1.28-3.9a.3.3 0 0 0-.29-.36H5.78a.3.3 0 0 0-.29.36c.3 1.21.72 2.5 1.29 3.9a.29.29 0 0 0 .23.18 8.07 8.07 0 0 0 1.98 0zm-3.91-.5c.23.1.45-.13.36-.36a26.31 26.31 0 0 1-1-3.34.3.3 0 0 0-.3-.24H1.3a.29.29 0 0 0-.26.42 8.03 8.03 0 0 0 4.05 3.53zM11 8c0 .74-.05 1.49-.17 2.25a.3.3 0 0 1-.3.25H5.48a.3.3 0 0 1-.3-.25A15.16 15.16 0 0 1 5 8c0-.74.06-1.49.17-2.25a.3.3 0 0 1 .3-.25h5.07c.15 0 .27.1.3.25.1.76.16 1.5.16 2.25z"/>
</svg>
