<svg viewBox="0 0 25 22" xmlns="http://www.w3.org/2000/svg">
  <path d="m3.44 16.97.4.31-.4-.31zM13 13.63l.07-.5-.07.5zm0 5.8.04.5-.04-.5zm.5-.05.05.5a.49.49 0 0 0 .02-.01l-.07-.5zm.32-5.09a.5.5 0 0 0 .23-.97l-.23.97zm7.12-2.37a.5.5 0 1 0 1 .08l-1-.08zm-6.89 7.88a.5.5 0 1 0-.14-.99l.14 1zm.7.57-.34.37.34-.37zm7.52.03.33.37-.33-.37zm-5.42-6.25a.5.5 0 0 0-.7.7l.7-.7zm3.3 4.7a.5.5 0 0 0 .7-.7l-.7.7zm-4-.7a.5.5 0 0 0 .7.7l-.7-.7zm4.7-3.3a.5.5 0 0 0-.7-.7l.7.7zm-7.2-7.49c0 1.1-1.1 2.14-2.65 2.14v1c1.93 0 3.65-1.33 3.65-3.14h-1zM11 9.5c-1.55 0-2.65-1.04-2.65-2.14h-1c0 1.81 1.72 3.14 3.65 3.14v-1zM8.35 7.36c0-1.1 1.1-2.14 2.65-2.14v-1c-1.93 0-3.65 1.33-3.65 3.14h1zM11 5.22c1.55 0 2.65 1.04 2.65 2.14h1c0-1.81-1.72-3.14-3.65-3.14v1zM3.83 17.28a8.4 8.4 0 0 1 2.4-2.23C7.3 14.44 8.76 14 11 14v-1c-2.38 0-4.03.47-5.27 1.18a9.37 9.37 0 0 0-2.68 2.48l.78.62zM1 10.5c0-3.53.65-5.85 2.16-7.32C4.68 1.72 7.2 1 11.21 1V0C7.12 0 4.28.72 2.47 2.47.65 4.22 0 6.9 0 10.5h1zM11.2 1c4.03 0 6.43.72 7.84 2.17C20.45 4.63 21 6.96 21 10.5h1c0-3.58-.54-6.26-2.25-8.02C18.05.72 15.3 0 11.21 0v1zM11 19c-3.42 0-5.92-.66-7.55-2.03l-.64.77C4.7 19.33 7.49 20 11 20v-1zm-7.55-2.03C1.87 15.64 1 13.57 1 10.5H0c0 3.26.93 5.66 2.8 7.24l.65-.77zm-.4-.32-.3.39.77.63.31-.39-.77-.63zM11 14c.72 0 1.36.04 1.93.13l.14-1A14.73 14.73 0 0 0 11 13v1zm1.96 4.92A24.3 24.3 0 0 1 11 19v1c.71 0 1.4-.03 2.04-.08l-.08-1zm.49-.04a18 18 0 0 1-.5.05l.1 1 .5-.06-.1-1zm-.52-4.75c.31.04.62.1.9.16l.22-.97a11.15 11.15 0 0 0-.98-.18l-.14.99zM21 10.5a16 16 0 0 1-.06 1.42l1 .09c.04-.46.06-1 .06-1.5h-1zm-7.43 9.37.48-.07-.14-.99-.48.07.14 1zm.43-3.1c0-1.85.31-3 .97-3.7.65-.7 1.75-1.07 3.63-1.07v-1c-1.97 0-3.43.38-4.36 1.38-.93 1-1.24 2.48-1.24 4.39h1zM18.6 12c1.89 0 2.93.37 3.52 1.05.62.7.88 1.85.88 3.71h1c0-1.89-.25-3.37-1.12-4.37-.9-1-2.3-1.39-4.28-1.39v1zm-.1 9c-1.6 0-2.7-.34-3.4-1l-.69.74c.98.9 2.38 1.26 4.09 1.26v-1zm-3.4-1c-.7-.63-1.1-1.65-1.1-3.24h-1c0 1.75.45 3.08 1.41 3.98l.68-.74zm7.9-3.24c0 1.64-.4 2.65-1.07 3.27l.67.74c.97-.88 1.4-2.22 1.4-4h-1zm-1.07 3.27c-.7.65-1.81.97-3.43.97v1c1.72 0 3.13-.33 4.1-1.23l-.67-.73zm-5.78-5.18 2 2 .7-.7-2-2-.7.7zm2 2 2 2 .7-.7-2-2-.7.7zm-1.3 2 2-2-.7-.7-2 2 .7.7zm2-2 2-2-.7-.7-2 2 .7.7z"/>
</svg>
