<svg width="13" height="16" viewBox="0 0 13 16" fill="none" xmlns="http://www.w3.org/2000/svg">
<path fill-rule="evenodd" clip-rule="evenodd" d="M2.00293 0C0.89836 0 0.00292969 0.895431 0.00292969 2V14C0.00292969 15.1046 0.89836 16 2.00293 16H10.0029C11.1075 16 12.0029 15.1046 12.0029 14V2C12.0029 0.895431 11.1075 0 10.0029 0H2.00293ZM3.50293 3C3.22679 3 3.00293 3.22386 3.00293 3.5C3.00293 3.77614 3.22679 4 3.50293 4H8.50293C8.77907 4 9.00293 3.77614 9.00293 3.5C9.00293 3.22386 8.77907 3 8.50293 3H3.50293ZM3.00293 7.5C3.00293 7.22386 3.22679 7 3.50293 7H8.50293C8.77907 7 9.00293 7.22386 9.00293 7.5C9.00293 7.77614 8.77907 8 8.50293 8H3.50293C3.22679 8 3.00293 7.77614 3.00293 7.5ZM3.50293 11C3.22679 11 3.00293 11.2239 3.00293 11.5C3.00293 11.7761 3.22679 12 3.50293 12H6.50293C6.77907 12 7.00293 11.7761 7.00293 11.5C7.00293 11.2239 6.77907 11 6.50293 11H3.50293Z" fill="black"/>
</svg>
