<svg width="17" height="16" viewBox="0 0 17 16" fill="none" xmlns="http://www.w3.org/2000/svg">
<path fill-rule="evenodd" clip-rule="evenodd" d="M13.1494 0.646447C13.3446 0.451184 13.6612 0.451184 13.8565 0.646447L15.3565 2.14645C15.5517 2.34171 15.5517 2.65829 15.3565 2.85355L13.8565 4.35355C13.6612 4.54882 13.3446 4.54882 13.1494 4.35355C12.9541 4.15829 12.9541 3.84171 13.1494 3.64645L13.7958 3H9.00293C8.72679 3 8.50293 2.77614 8.50293 2.5C8.50293 2.22386 8.72679 2 9.00293 2H13.7958L13.1494 1.35355C12.9541 1.15829 12.9541 0.841709 13.1494 0.646447ZM10.8565 4.64645C11.0517 4.84171 11.0517 5.15829 10.8565 5.35355L10.21 6H15.0029C15.2791 6 15.5029 6.22386 15.5029 6.5C15.5029 6.77614 15.2791 7 15.0029 7H10.21L10.8565 7.64645C11.0517 7.84171 11.0517 8.15829 10.8565 8.35355C10.6612 8.54882 10.3446 8.54882 10.1494 8.35355L8.64938 6.85355C8.45411 6.65829 8.45411 6.34171 8.64938 6.14645L10.1494 4.64645C10.3446 4.45118 10.6612 4.45118 10.8565 4.64645Z" fill="#1D2126"/>
<path fill-rule="evenodd" clip-rule="evenodd" d="M2.35566 0.102455C3.6791 -0.296215 4.86318 0.523408 5.62266 1.28878C6.28459 1.95585 6.81193 2.7107 6.93578 3.51585L6.93617 3.51834C7.05613 4.32523 6.77878 5.14278 5.98013 5.94675C5.76914 6.15998 5.55314 6.33969 5.33373 6.48604C5.49129 6.698 5.65626 6.91048 5.8284 7.12277C6.62949 8.11068 7.53049 9.02855 8.50068 9.8547C8.84042 10.144 9.18172 10.4152 9.52175 10.6674C9.66636 10.448 9.84417 10.2312 10.0566 10.0182C10.8549 9.21482 11.6715 8.9316 12.4794 9.05231C13.2693 9.17071 14.0043 9.67104 14.6671 10.3324C15.0813 10.7457 15.4286 11.185 15.6654 11.6463C15.9351 12.1718 16.0733 12.735 15.9703 13.3453C15.8743 13.9138 15.5722 14.4657 15.0455 14.9959C14.3023 15.7443 13.5074 16.0479 12.7131 15.9946C11.5774 16.0007 10.2196 15.5575 8.82522 14.7953C7.41254 14.0232 5.92092 12.9013 4.52041 11.5019C2.28893 9.27685 0.743276 6.80034 0.212238 4.7669C0.0353423 4.08954 -0.0986871 3.26738 0.0937844 2.48366C0.231369 1.92344 0.530661 1.43884 0.996772 0.969487C1.19917 0.765732 1.40511 0.594905 1.61479 0.456113C1.85778 0.29527 2.10504 0.177952 2.35566 0.102455Z" fill="#1D2126"/>
</svg>
