<svg width="17" height="16" viewBox="0 0 17 16" fill="none" xmlns="http://www.w3.org/2000/svg">
<path fill-rule="evenodd" clip-rule="evenodd" d="M7.76764 0.558824C7.91469 0.480392 8.09117 0.480392 8.23822 0.558824L15.7382 4.55882C15.9012 4.64572 16.0029 4.81534 16.0029 5C16.0029 5.18466 15.9012 5.35428 15.7382 5.44118L8.23822 9.44118C8.09117 9.51961 7.91469 9.51961 7.76764 9.44118L0.267636 5.44118C0.104704 5.35428 0.00292969 5.18466 0.00292969 5C0.00292969 4.81534 0.104704 4.64572 0.267636 4.55882L7.76764 0.558824ZM15.0029 7C15.2791 7 15.5029 7.22386 15.5029 7.5V14C15.5029 14.2761 15.2791 14.5 15.0029 14.5C14.7268 14.5 14.5029 14.2761 14.5029 14V7.5C14.5029 7.22386 14.7268 7 15.0029 7ZM2.7501 8.06864C2.9032 7.9789 3.09239 7.97704 3.24723 8.06375L8.00293 10.7269L12.7586 8.06375C12.9135 7.97704 13.1027 7.9789 13.2558 8.06864C13.4089 8.15837 13.5029 8.32254 13.5029 8.5V12C13.5029 12.0776 13.4849 12.1542 13.4501 12.2236C12.9104 13.3032 11.4753 15.5 8.00293 15.5C4.53055 15.5 3.0955 13.3032 2.55572 12.2236C2.521 12.1542 2.50293 12.0776 2.50293 12V8.5C2.50293 8.32254 2.59699 8.15837 2.7501 8.06864Z" fill="black"/>
<path d="M16.0029 14C16.0029 14.5523 15.5552 15 15.0029 15C14.4506 15 14.0029 14.5523 14.0029 14C14.0029 13.4477 14.4506 13 15.0029 13C15.5552 13 16.0029 13.4477 16.0029 14Z" fill="black"/>
</svg>
