<svg width="17" height="16" viewBox="0 0 17 16" fill="none" xmlns="http://www.w3.org/2000/svg">
<path fill-rule="evenodd" clip-rule="evenodd" d="M16.0029 8C16.0029 12.4183 12.4212 16 8.00293 16C3.58465 16 0.00292973 12.4183 0.00292969 8C0.0029296 3.58172 3.58465 5.90056e-07 8.00293 0C12.4212 6.7435e-07 16.0029 3.58172 16.0029 8ZM14.0029 8C14.0029 11.3137 11.3166 14 8.00293 14C6.7071 14 5.50721 13.5892 4.5264 12.8907L12.8937 4.52347C13.5921 5.50429 14.0029 6.70417 14.0029 8ZM11.4795 3.10925L3.11218 11.4765C2.41372 10.4957 2.00293 9.29583 2.00293 8C2.00293 4.68629 4.68922 2 8.00293 2C9.29876 2 10.4986 2.41079 11.4795 3.10925Z" fill="#D20000"/>
</svg>
