<svg width="17" height="16" viewBox="0 0 17 16" fill="none" xmlns="http://www.w3.org/2000/svg">
<path fill-rule="evenodd" clip-rule="evenodd" d="M3.8498 5.50006C4.03385 5.50006 4.17431 5.66426 4.14971 5.84665C4.05209 6.57065 4.00293 7.28457 4.00293 8.00006C4.00293 8.71555 4.05209 9.42947 4.14972 10.1535C4.17431 10.3359 4.03386 10.5001 3.84981 10.5001H0.61851C0.488919 10.5001 0.373426 10.417 0.336344 10.2928C0.119436 9.56651 0.00292969 8.79686 0.00292969 8C0.00292969 7.20319 0.119423 6.43358 0.336307 5.70728C0.373388 5.58311 0.488882 5.50006 0.618475 5.50006H3.8498ZM1.03023 4.07519C0.921321 4.26827 1.06537 4.50006 1.28705 4.50006H4.14084C4.28257 4.50006 4.40474 4.40083 4.43577 4.26253C4.6744 3.19912 5.0109 2.09809 5.44325 0.925535C5.52985 0.690649 5.31184 0.459704 5.07883 0.551246C3.35858 1.22708 1.92916 2.48162 1.03023 4.07519ZM7.01278 0.0606722C6.90706 0.0737215 6.81765 0.144224 6.77798 0.243078C6.2137 1.64936 5.78628 2.92732 5.49241 4.1355C5.44702 4.32212 5.58968 4.50006 5.78174 4.50006H10.2241C10.4162 4.50006 10.5588 4.32212 10.5134 4.1355C10.2196 2.92732 9.79216 1.64936 9.22788 0.243078C9.18821 0.144223 9.0988 0.0737215 8.99308 0.0606722C8.66865 0.0206239 8.3382 0 8.00293 0C7.66766 0 7.33721 0.0206239 7.01278 0.0606722ZM10.927 0.551247C10.694 0.459706 10.476 0.690651 10.5626 0.925536C10.995 2.09809 11.3315 3.19912 11.5701 4.26253C11.6011 4.40083 11.7233 4.50006 11.865 4.50006H14.7188C14.9405 4.50006 15.0845 4.26827 14.9756 4.07519C14.0767 2.48162 12.6473 1.22708 10.927 0.551247ZM15.6696 5.70728C15.6325 5.58311 15.517 5.50006 15.3874 5.50006H12.1561C11.972 5.50006 11.8316 5.66426 11.8561 5.84665C11.9538 6.57065 12.0029 7.28457 12.0029 8.00006C12.0029 8.71555 11.9538 9.42947 11.8561 10.1535C11.8315 10.3359 11.972 10.5001 12.156 10.5001H15.3873C15.5169 10.5001 15.6324 10.417 15.6695 10.2928C15.8864 9.56651 16.0029 8.79686 16.0029 8C16.0029 7.20319 15.8864 6.43358 15.6696 5.70728ZM14.9756 11.9249C15.0845 11.7319 14.9404 11.5001 14.7187 11.5001H11.865C11.7233 11.5001 11.6011 11.5993 11.5701 11.7376C11.3314 12.801 10.995 13.902 10.5626 15.0745C10.476 15.3093 10.694 15.5403 10.927 15.4487C12.6472 14.7729 14.0766 13.5184 14.9756 11.9249ZM8.9931 15.9393C9.09882 15.9263 9.18823 15.8558 9.2279 15.7569C9.79216 14.3507 10.2196 13.0728 10.5134 11.8646C10.5588 11.678 10.4162 11.5001 10.2241 11.5001H5.78176C5.5897 11.5001 5.44703 11.678 5.49243 11.8646C5.78629 13.0728 6.2137 14.3507 6.77796 15.7569C6.81763 15.8558 6.90704 15.9263 7.01275 15.9393C7.3372 15.9794 7.66765 16 8.00293 16C8.3382 16 8.66866 15.9794 8.9931 15.9393ZM5.07881 15.4487C5.31182 15.5403 5.52983 15.3093 5.44323 15.0745C5.0109 13.902 4.67441 12.801 4.43578 11.7376C4.40475 11.5993 4.28258 11.5001 4.14085 11.5001H1.28711C1.06543 11.5001 0.921386 11.7319 1.0303 11.9249C1.92923 13.5184 3.35861 14.7729 5.07881 15.4487ZM11.0029 8.00006C11.0029 8.74203 10.9465 9.48593 10.8326 10.2485C10.811 10.3938 10.6854 10.5001 10.5385 10.5001H5.46732C5.32047 10.5001 5.1949 10.3938 5.17322 10.2485C5.05938 9.48593 5.00293 8.74203 5.00293 8.00006C5.00293 7.25809 5.05937 6.51419 5.17321 5.75158C5.19489 5.60634 5.32046 5.50006 5.46731 5.50006H10.5385C10.6854 5.50006 10.811 5.60633 10.8327 5.75158C10.9465 6.51419 11.0029 7.25809 11.0029 8.00006Z" fill="black"/>
</svg>
