<svg width="16" height="16" viewBox="0 0 16 16" fill="none" xmlns="http://www.w3.org/2000/svg">
<path d="M4.00313 4C4.00313 1.79086 5.79399 0 8.00313 0C10.2123 0 12.0031 1.79086 12.0031 4C12.0031 6.20914 10.2123 8 8.00313 8C5.79399 8 4.00313 6.20914 4.00313 4Z" fill="black"/>
<path d="M0.10504 15.007C0.578862 12.5514 2.76898 9 8.00313 9L6.50313 13L8.00313 15L9.50313 13L8.00313 9C13.2373 9 15.4274 12.5514 15.9012 15.007C16.0058 15.5493 15.5554 16 15.0031 16H1.00313C0.450842 16 0.000405654 15.5493 0.10504 15.007Z" fill="black"/>
</svg>
