<svg width="25" height="22" viewBox="0 0 25 22" fill="none" xmlns="http://www.w3.org/2000/svg">
<path d="M0.50293 9.5H0.00292969C0.00292969 9.77614 0.226787 10 0.50293 10L0.50293 9.5ZM23.5029 9.5V10C23.7791 10 24.0029 9.77614 24.0029 9.5H23.5029ZM5.78028 12.916C6.01004 12.7628 6.07213 12.4524 5.91895 12.2226C5.76578 11.9929 5.45534 11.9308 5.22558 12.084L5.78028 12.916ZM4.77932 20.5528C4.53233 20.6763 4.43222 20.9766 4.55572 21.2236C4.67921 21.4706 4.97955 21.5707 5.22654 21.4472L4.77932 20.5528ZM10.2803 12.916C10.51 12.7628 10.5721 12.4524 10.419 12.2226C10.2658 11.9929 9.95534 11.9308 9.72558 12.084L10.2803 12.916ZM9.27932 20.5528C9.03233 20.6763 8.93222 20.9766 9.05572 21.2236C9.17921 21.4706 9.47955 21.5707 9.72654 21.4472L9.27932 20.5528ZM14.7803 12.916C15.01 12.7628 15.0721 12.4524 14.919 12.2226C14.7658 11.9929 14.4553 11.9308 14.2256 12.084L14.7803 12.916ZM13.7793 20.5528C13.5323 20.6763 13.4322 20.9766 13.5557 21.2236C13.6792 21.4706 13.9795 21.5707 14.2265 21.4472L13.7793 20.5528ZM19.2803 12.916C19.51 12.7628 19.5721 12.4524 19.419 12.2226C19.2658 11.9929 18.9553 11.9308 18.7256 12.084L19.2803 12.916ZM18.2793 20.5528C18.0323 20.6763 17.9322 20.9766 18.0557 21.2236C18.1792 21.4706 18.4795 21.5707 18.7265 21.4472L18.2793 20.5528ZM24.0029 9.5V2.5H23.0029V9.5H24.0029ZM24.0029 2.5C24.0029 2.13454 23.862 1.63123 23.4636 1.21623C23.0531 0.788584 22.4137 0.5 21.5029 0.5V1.5C22.1922 1.5 22.5528 1.71142 22.7422 1.90877C22.9438 2.11877 23.0029 2.36546 23.0029 2.5H24.0029ZM21.5029 0.5C21.4998 0.5 21.4966 0.5 21.4934 0.5C21.4902 0.5 21.487 0.5 21.4837 0.5C21.4804 0.5 21.4771 0.5 21.4738 0.5C21.4704 0.5 21.467 0.5 21.4636 0.5C21.4601 0.5 21.4567 0.5 21.4532 0.5C21.4497 0.5 21.4461 0.5 21.4425 0.5C21.4389 0.5 21.4353 0.5 21.4317 0.5C21.428 0.5 21.4243 0.5 21.4206 0.5C21.4168 0.5 21.4131 0.5 21.4093 0.5C21.4054 0.5 21.4016 0.5 21.3977 0.5C21.3938 0.5 21.3899 0.5 21.3859 0.5C21.382 0.5 21.378 0.5 21.3739 0.5C21.3699 0.5 21.3658 0.5 21.3617 0.5C21.3576 0.5 21.3535 0.5 21.3493 0.5C21.3451 0.5 21.3409 0.5 21.3366 0.5C21.3324 0.5 21.3281 0.5 21.3237 0.5C21.3194 0.5 21.315 0.5 21.3106 0.5C21.3062 0.5 21.3018 0.5 21.2973 0.5C21.2928 0.5 21.2883 0.5 21.2838 0.5C21.2792 0.5 21.2746 0.5 21.27 0.5C21.2654 0.5 21.2607 0.5 21.256 0.5C21.2513 0.5 21.2466 0.5 21.2418 0.5C21.2371 0.5 21.2323 0.5 21.2274 0.5C21.2226 0.5 21.2177 0.5 21.2128 0.5C21.2079 0.5 21.2029 0.5 21.198 0.5C21.193 0.5 21.188 0.5 21.1829 0.5C21.1779 0.5 21.1728 0.5 21.1676 0.5C21.1625 0.5 21.1574 0.5 21.1522 0.5C21.147 0.5 21.1417 0.5 21.1365 0.5C21.1312 0.5 21.1259 0.5 21.1206 0.5C21.1152 0.5 21.1099 0.5 21.1045 0.5C21.0991 0.5 21.0936 0.5 21.0881 0.5C21.0827 0.5 21.0771 0.5 21.0716 0.5C21.0661 0.5 21.0605 0.5 21.0549 0.5C21.0493 0.5 21.0436 0.5 21.0379 0.5C21.0322 0.5 21.0265 0.5 21.0208 0.5C21.015 0.5 21.0092 0.5 21.0034 0.5C20.9976 0.5 20.9917 0.5 20.9858 0.5C20.98 0.5 20.974 0.5 20.9681 0.5C20.9621 0.5 20.9561 0.5 20.9501 0.5C20.9441 0.5 20.938 0.5 20.9319 0.5C20.9258 0.5 20.9197 0.5 20.9136 0.5C20.9074 0.5 20.9012 0.5 20.895 0.5C20.8888 0.5 20.8825 0.5 20.8762 0.5C20.8699 0.5 20.8636 0.5 20.8572 0.5C20.8509 0.5 20.8445 0.5 20.838 0.5C20.8316 0.5 20.8252 0.5 20.8187 0.5C20.8122 0.5 20.8056 0.5 20.7991 0.5C20.7925 0.5 20.7859 0.5 20.7793 0.5C20.7727 0.5 20.766 0.5 20.7593 0.5C20.7527 0.5 20.7459 0.5 20.7392 0.5C20.7324 0.5 20.7256 0.5 20.7188 0.5C20.712 0.5 20.7052 0.5 20.6983 0.5C20.6914 0.5 20.6845 0.5 20.6775 0.5C20.6706 0.5 20.6636 0.5 20.6566 0.5C20.6496 0.5 20.6425 0.5 20.6355 0.5C20.6284 0.5 20.6213 0.5 20.6141 0.5C20.607 0.5 20.5998 0.5 20.5926 0.5C20.5854 0.5 20.5782 0.5 20.5709 0.5C20.5636 0.5 20.5563 0.5 20.549 0.5C20.5417 0.5 20.5343 0.5 20.5269 0.5C20.5195 0.5 20.5121 0.5 20.5047 0.5C20.4972 0.5 20.4897 0.5 20.4822 0.5C20.4747 0.5 20.4671 0.5 20.4596 0.5C20.452 0.5 20.4444 0.5 20.4367 0.5C20.4291 0.5 20.4214 0.5 20.4137 0.5C20.406 0.5 20.3983 0.5 20.3905 0.5C20.3828 0.5 20.375 0.5 20.3672 0.5C20.3593 0.5 20.3515 0.5 20.3436 0.5C20.3357 0.5 20.3278 0.5 20.3198 0.5C20.3119 0.5 20.3039 0.5 20.2959 0.5C20.2879 0.5 20.2799 0.5 20.2718 0.5C20.2637 0.5 20.2556 0.5 20.2475 0.5C20.2394 0.5 20.2312 0.5 20.2231 0.5C20.2149 0.5 20.2067 0.5 20.1984 0.5C20.1902 0.5 20.1819 0.5 20.1736 0.5C20.1653 0.5 20.157 0.5 20.1486 0.5C20.1402 0.5 20.1318 0.5 20.1234 0.5C20.115 0.5 20.1065 0.5 20.0981 0.5C20.0896 0.5 20.0811 0.5 20.0725 0.5C20.064 0.5 20.0554 0.5 20.0468 0.5C20.0382 0.5 20.0296 0.5 20.021 0.5C20.0123 0.5 20.0036 0.5 19.9949 0.5C19.9862 0.5 19.9775 0.5 19.9687 0.5C19.9599 0.5 19.9511 0.5 19.9423 0.5C19.9335 0.5 19.9246 0.5 19.9158 0.5C19.9069 0.5 19.898 0.5 19.889 0.5C19.8801 0.5 19.8711 0.5 19.8621 0.5C19.8531 0.5 19.8441 0.5 19.8351 0.5C19.826 0.5 19.8169 0.5 19.8078 0.5C19.7987 0.5 19.7896 0.5 19.7804 0.5C19.7713 0.5 19.7621 0.5 19.7529 0.5C19.7437 0.5 19.7344 0.5 19.7251 0.5C19.7159 0.5 19.7066 0.5 19.6972 0.5C19.6879 0.5 19.6786 0.5 19.6692 0.5C19.6598 0.5 19.6504 0.5 19.641 0.5C19.6315 0.5 19.6221 0.5 19.6126 0.5C19.6031 0.5 19.5936 0.5 19.584 0.5C19.5745 0.5 19.5649 0.5 19.5553 0.5C19.5457 0.5 19.5361 0.5 19.5265 0.5C19.5168 0.5 19.5071 0.5 19.4974 0.5C19.4877 0.5 19.478 0.5 19.4682 0.5C19.4585 0.5 19.4487 0.5 19.4389 0.5C19.4291 0.5 19.4193 0.5 19.4094 0.5C19.3995 0.5 19.3897 0.5 19.3797 0.5C19.3698 0.5 19.3599 0.5 19.3499 0.5C19.34 0.5 19.33 0.5 19.32 0.5C19.3099 0.5 19.2999 0.5 19.2898 0.5C19.2798 0.5 19.2697 0.5 19.2596 0.5C19.2494 0.5 19.2393 0.5 19.2291 0.5C19.219 0.5 19.2088 0.5 19.1985 0.5C19.1883 0.5 19.1781 0.5 19.1678 0.5C19.1575 0.5 19.1473 0.5 19.1369 0.5C19.1266 0.5 19.1163 0.5 19.1059 0.5C19.0955 0.5 19.0851 0.5 19.0747 0.5C19.0643 0.5 19.0538 0.5 19.0434 0.5C19.0329 0.5 19.0224 0.5 19.0119 0.5C19.0014 0.5 18.9908 0.5 18.9803 0.5C18.9697 0.5 18.9591 0.5 18.9485 0.5C18.9379 0.5 18.9272 0.5 18.9166 0.5C18.9059 0.5 18.8952 0.5 18.8845 0.5C18.8738 0.5 18.8631 0.5 18.8523 0.5C18.8415 0.5 18.8308 0.5 18.8199 0.5C18.8091 0.5 18.7983 0.5 18.7875 0.5C18.7766 0.5 18.7657 0.5 18.7548 0.5C18.7439 0.5 18.733 0.5 18.722 0.5C18.7111 0.5 18.7001 0.5 18.6891 0.5C18.6781 0.5 18.6671 0.5 18.6561 0.5C18.645 0.5 18.6339 0.5 18.6229 0.5C18.6118 0.5 18.6007 0.5 18.5895 0.5C18.5784 0.5 18.5672 0.5 18.556 0.5C18.5449 0.5 18.5337 0.5 18.5224 0.5C18.5112 0.5 18.5 0.5 18.4887 0.5C18.4774 0.5 18.4661 0.5 18.4548 0.5C18.4435 0.5 18.4321 0.5 18.4208 0.5C18.4094 0.5 18.398 0.5 18.3866 0.5C18.3752 0.5 18.3638 0.5 18.3523 0.5C18.3409 0.5 18.3294 0.5 18.3179 0.5C18.3064 0.5 18.2949 0.5 18.2834 0.5C18.2718 0.5 18.2603 0.5 18.2487 0.5C18.2371 0.5 18.2255 0.5 18.2139 0.5C18.2022 0.5 18.1906 0.5 18.1789 0.5C18.1673 0.5 18.1556 0.5 18.1439 0.5C18.1321 0.5 18.1204 0.5 18.1086 0.5C18.0969 0.5 18.0851 0.5 18.0733 0.5C18.0615 0.5 18.0497 0.5 18.0379 0.5C18.026 0.5 18.0142 0.5 18.0023 0.5C17.9904 0.5 17.9785 0.5 17.9666 0.5C17.9547 0.5 17.9427 0.5 17.9307 0.5C17.9188 0.5 17.9068 0.5 17.8948 0.5C17.8828 0.5 17.8708 0.5 17.8587 0.5C17.8467 0.5 17.8346 0.5 17.8225 0.5C17.8104 0.5 17.7983 0.5 17.7862 0.5C17.7741 0.5 17.7619 0.5 17.7497 0.5C17.7376 0.5 17.7254 0.5 17.7132 0.5C17.701 0.5 17.6887 0.5 17.6765 0.5C17.6642 0.5 17.652 0.5 17.6397 0.5C17.6274 0.5 17.6151 0.5 17.6028 0.5C17.5904 0.5 17.5781 0.5 17.5657 0.5C17.5534 0.5 17.541 0.5 17.5286 0.5C17.5162 0.5 17.5037 0.5 17.4913 0.5C17.4788 0.5 17.4664 0.5 17.4539 0.5C17.4414 0.5 17.4289 0.5 17.4164 0.5C17.4039 0.5 17.3913 0.5 17.3788 0.5C17.3662 0.5 17.3537 0.5 17.3411 0.5C17.3285 0.5 17.3158 0.5 17.3032 0.5C17.2906 0.5 17.2779 0.5 17.2653 0.5C17.2526 0.5 17.2399 0.5 17.2272 0.5C17.2145 0.5 17.2018 0.5 17.189 0.5C17.1763 0.5 17.1635 0.5 17.1507 0.5C17.138 0.5 17.1252 0.5 17.1123 0.5C17.0995 0.5 17.0867 0.5 17.0738 0.5C17.061 0.5 17.0481 0.5 17.0352 0.5C17.0223 0.5 17.0094 0.5 16.9965 0.5C16.9836 0.5 16.9707 0.5 16.9577 0.5C16.9447 0.5 16.9318 0.5 16.9188 0.5C16.9058 0.5 16.8928 0.5 16.8797 0.5C16.8667 0.5 16.8537 0.5 16.8406 0.5C16.8275 0.5 16.8145 0.5 16.8014 0.5C16.7883 0.5 16.7752 0.5 16.762 0.5C16.7489 0.5 16.7357 0.5 16.7226 0.5C16.7094 0.5 16.6962 0.5 16.683 0.5C16.6698 0.5 16.6566 0.5 16.6434 0.5C16.6302 0.5 16.6169 0.5 16.6037 0.5C16.5904 0.5 16.5771 0.5 16.5638 0.5C16.5505 0.5 16.5372 0.5 16.5239 0.5C16.5105 0.5 16.4972 0.5 16.4838 0.5C16.4705 0.5 16.4571 0.5 16.4437 0.5C16.4303 0.5 16.4169 0.5 16.4035 0.5C16.3901 0.5 16.3766 0.5 16.3632 0.5C16.3497 0.5 16.3362 0.5 16.3227 0.5C16.3092 0.5 16.2957 0.5 16.2822 0.5C16.2687 0.5 16.2552 0.5 16.2416 0.5C16.2281 0.5 16.2145 0.5 16.2009 0.5C16.1873 0.5 16.1737 0.5 16.1601 0.5C16.1465 0.5 16.1329 0.5 16.1193 0.5C16.1056 0.5 16.092 0.5 16.0783 0.5C16.0646 0.5 16.0509 0.5 16.0372 0.5C16.0235 0.5 16.0098 0.5 15.9961 0.5C15.9824 0.5 15.9686 0.5 15.9549 0.5C15.9411 0.5 15.9273 0.5 15.9135 0.5C15.8997 0.5 15.8859 0.5 15.8721 0.5C15.8583 0.5 15.8445 0.5 15.8306 0.5C15.8168 0.5 15.8029 0.5 15.7891 0.5C15.7752 0.5 15.7613 0.5 15.7474 0.5C15.7335 0.5 15.7196 0.5 15.7056 0.5C15.6917 0.5 15.6778 0.5 15.6638 0.5C15.6499 0.5 15.6359 0.5 15.6219 0.5C15.6079 0.5 15.5939 0.5 15.5799 0.5C15.5659 0.5 15.5519 0.5 15.5378 0.5C15.5238 0.5 15.5098 0.5 15.4957 0.5C15.4816 0.5 15.4675 0.5 15.4535 0.5C15.4394 0.5 15.4253 0.5 15.4111 0.5C15.397 0.5 15.3829 0.5 15.3688 0.5C15.3546 0.5 15.3405 0.5 15.3263 0.5C15.3121 0.5 15.2979 0.5 15.2838 0.5C15.2696 0.5 15.2554 0.5 15.2411 0.5C15.2269 0.5 15.2127 0.5 15.1984 0.5C15.1842 0.5 15.1699 0.5 15.1557 0.5C15.1414 0.5 15.1271 0.5 15.1128 0.5C15.0986 0.5 15.0842 0.5 15.0699 0.5C15.0556 0.5 15.0413 0.5 15.0269 0.5C15.0126 0.5 14.9983 0.5 14.9839 0.5C14.9695 0.5 14.9552 0.5 14.9408 0.5C14.9264 0.5 14.912 0.5 14.8976 0.5C14.8832 0.5 14.8687 0.5 14.8543 0.5C14.8399 0.5 14.8254 0.5 14.811 0.5C14.7965 0.5 14.7821 0.5 14.7676 0.5C14.7531 0.5 14.7386 0.5 14.7241 0.5C14.7096 0.5 14.6951 0.5 14.6806 0.5C14.6661 0.5 14.6515 0.5 14.637 0.5C14.6224 0.5 14.6079 0.5 14.5933 0.5C14.5788 0.5 14.5642 0.5 14.5496 0.5C14.535 0.5 14.5204 0.5 14.5058 0.5C14.4912 0.5 14.4766 0.5 14.462 0.5C14.4473 0.5 14.4327 0.5 14.418 0.5C14.4034 0.5 14.3887 0.5 14.3741 0.5C14.3594 0.5 14.3447 0.5 14.33 0.5C14.3153 0.5 14.3007 0.5 14.2859 0.5C14.2712 0.5 14.2565 0.5 14.2418 0.5C14.2271 0.5 14.2123 0.5 14.1976 0.5C14.1828 0.5 14.1681 0.5 14.1533 0.5C14.1385 0.5 14.1238 0.5 14.109 0.5C14.0942 0.5 14.0794 0.5 14.0646 0.5C14.0498 0.5 14.035 0.5 14.0202 0.5C14.0053 0.5 13.9905 0.5 13.9757 0.5C13.9608 0.5 13.946 0.5 13.9311 0.5C13.9163 0.5 13.9014 0.5 13.8865 0.5C13.8717 0.5 13.8568 0.5 13.8419 0.5C13.827 0.5 13.8121 0.5 13.7972 0.5C13.7823 0.5 13.7674 0.5 13.7524 0.5C13.7375 0.5 13.7226 0.5 13.7076 0.5C13.6927 0.5 13.6777 0.5 13.6628 0.5C13.6478 0.5 13.6328 0.5 13.6179 0.5C13.6029 0.5 13.5879 0.5 13.5729 0.5C13.5579 0.5 13.5429 0.5 13.5279 0.5C13.5129 0.5 13.4979 0.5 13.4829 0.5C13.4679 0.5 13.4528 0.5 13.4378 0.5C13.4228 0.5 13.4077 0.5 13.3927 0.5C13.3776 0.5 13.3626 0.5 13.3475 0.5C13.3324 0.5 13.3173 0.5 13.3023 0.5C13.2872 0.5 13.2721 0.5 13.257 0.5C13.2419 0.5 13.2268 0.5 13.2117 0.5C13.1966 0.5 13.1815 0.5 13.1663 0.5C13.1512 0.5 13.1361 0.5 13.121 0.5C13.1058 0.5 13.0907 0.5 13.0755 0.5C13.0604 0.5 13.0452 0.5 13.0301 0.5C13.0149 0.5 12.9997 0.5 12.9846 0.5C12.9694 0.5 12.9542 0.5 12.939 0.5C12.9238 0.5 12.9086 0.5 12.8934 0.5C12.8782 0.5 12.863 0.5 12.8478 0.5C12.8326 0.5 12.8174 0.5 12.8022 0.5C12.7869 0.5 12.7717 0.5 12.7565 0.5C12.7412 0.5 12.726 0.5 12.7107 0.5C12.6955 0.5 12.6802 0.5 12.665 0.5C12.6497 0.5 12.6345 0.5 12.6192 0.5C12.6039 0.5 12.5887 0.5 12.5734 0.5C12.5581 0.5 12.5428 0.5 12.5275 0.5C12.5122 0.5 12.4969 0.5 12.4816 0.5C12.4663 0.5 12.451 0.5 12.4357 0.5C12.4204 0.5 12.4051 0.5 12.3898 0.5C12.3745 0.5 12.3591 0.5 12.3438 0.5C12.3285 0.5 12.3132 0.5 12.2978 0.5C12.2825 0.5 12.2671 0.5 12.2518 0.5C12.2364 0.5 12.2211 0.5 12.2057 0.5C12.1904 0.5 12.175 0.5 12.1597 0.5C12.1443 0.5 12.1289 0.5 12.1136 0.5C12.0982 0.5 12.0828 0.5 12.0674 0.5C12.0521 0.5 12.0367 0.5 12.0213 0.5C12.0059 0.5 11.9905 0.5 11.9751 0.5C11.9597 0.5 11.9443 0.5 11.9289 0.5C11.9135 0.5 11.8981 0.5 11.8827 0.5C11.8673 0.5 11.8519 0.5 11.8365 0.5C11.821 0.5 11.8056 0.5 11.7902 0.5C11.7748 0.5 11.7594 0.5 11.7439 0.5C11.7285 0.5 11.7131 0.5 11.6976 0.5C11.6822 0.5 11.6668 0.5 11.6513 0.5C11.6359 0.5 11.6204 0.5 11.605 0.5C11.5896 0.5 11.5741 0.5 11.5587 0.5C11.5432 0.5 11.5278 0.5 11.5123 0.5C11.4968 0.5 11.4814 0.5 11.4659 0.5C11.4505 0.5 11.435 0.5 11.4195 0.5C11.4041 0.5 11.3886 0.5 11.3731 0.5C11.3577 0.5 11.3422 0.5 11.3267 0.5C11.3113 0.5 11.2958 0.5 11.2803 0.5C11.2648 0.5 11.2493 0.5 11.2339 0.5C11.2184 0.5 11.2029 0.5 11.1874 0.5C11.1719 0.5 11.1565 0.5 11.141 0.5C11.1255 0.5 11.11 0.5 11.0945 0.5C11.079 0.5 11.0635 0.5 11.048 0.5C11.0325 0.5 11.017 0.5 11.0015 0.5C10.9861 0.5 10.9706 0.5 10.9551 0.5C10.9396 0.5 10.9241 0.5 10.9086 0.5C10.8931 0.5 10.8776 0.5 10.8621 0.5C10.8466 0.5 10.8311 0.5 10.8156 0.5C10.8001 0.5 10.7846 0.5 10.7691 0.5C10.7536 0.5 10.7381 0.5 10.7225 0.5C10.707 0.5 10.6915 0.5 10.676 0.5C10.6605 0.5 10.645 0.5 10.6295 0.5C10.614 0.5 10.5985 0.5 10.583 0.5C10.5675 0.5 10.552 0.5 10.5365 0.5C10.521 0.5 10.5055 0.5 10.49 0.5C10.4745 0.5 10.459 0.5 10.4435 0.5C10.428 0.5 10.4125 0.5 10.397 0.5C10.3815 0.5 10.3659 0.5 10.3504 0.5C10.3349 0.5 10.3194 0.5 10.3039 0.5C10.2884 0.5 10.2729 0.5 10.2574 0.5C10.2419 0.5 10.2264 0.5 10.2109 0.5C10.1954 0.5 10.1799 0.5 10.1645 0.5C10.149 0.5 10.1335 0.5 10.118 0.5C10.1025 0.5 10.087 0.5 10.0715 0.5C10.056 0.5 10.0405 0.5 10.025 0.5C10.0095 0.5 9.99405 0.5 9.97856 0.5C9.96308 0.5 9.94759 0.5 9.93211 0.5C9.91663 0.5 9.90115 0.5 9.88567 0.5C9.87019 0.5 9.85471 0.5 9.83924 0.5C9.82376 0.5 9.80829 0.5 9.79282 0.5C9.77735 0.5 9.76188 0.5 9.74641 0.5C9.73095 0.5 9.71548 0.5 9.70002 0.5C9.68456 0.5 9.6691 0.5 9.65364 0.5C9.63818 0.5 9.62272 0.5 9.60727 0.5C9.59182 0.5 9.57637 0.5 9.56092 0.5C9.54547 0.5 9.53003 0.5 9.51458 0.5C9.49914 0.5 9.4837 0.5 9.46826 0.5C9.45283 0.5 9.43739 0.5 9.42196 0.5C9.40653 0.5 9.3911 0.5 9.37568 0.5C9.36025 0.5 9.34483 0.5 9.32941 0.5C9.31399 0.5 9.29858 0.5 9.28317 0.5C9.26775 0.5 9.25235 0.5 9.23694 0.5C9.22153 0.5 9.20613 0.5 9.19073 0.5C9.17534 0.5 9.15994 0.5 9.14455 0.5C9.12916 0.5 9.11377 0.5 9.09839 0.5C9.083 0.5 9.06763 0.5 9.05225 0.5C9.03687 0.5 9.0215 0.5 9.00613 0.5C8.99077 0.5 8.9754 0.5 8.96004 0.5C8.94468 0.5 8.92933 0.5 8.91398 0.5C8.89863 0.5 8.88328 0.5 8.86794 0.5C8.8526 0.5 8.83726 0.5 8.82193 0.5C8.80659 0.5 8.79127 0.5 8.77594 0.5C8.76062 0.5 8.7453 0.5 8.72998 0.5C8.71467 0.5 8.69936 0.5 8.68406 0.5C8.66875 0.5 8.65345 0.5 8.63816 0.5C8.62286 0.5 8.60757 0.5 8.59229 0.5C8.577 0.5 8.56172 0.5 8.54645 0.5C8.53118 0.5 8.51591 0.5 8.50064 0.5C8.48538 0.5 8.47012 0.5 8.45487 0.5C8.43962 0.5 8.42437 0.5 8.40913 0.5C8.39389 0.5 8.37865 0.5 8.36342 0.5C8.34819 0.5 8.33297 0.5 8.31775 0.5C8.30253 0.5 8.28732 0.5 8.27211 0.5C8.25691 0.5 8.24171 0.5 8.22651 0.5C8.21132 0.5 8.19613 0.5 8.18095 0.5C8.16576 0.5 8.15059 0.5 8.13542 0.5C8.12025 0.5 8.10509 0.5 8.08993 0.5C8.07477 0.5 8.05962 0.5 8.04448 0.5C8.02934 0.5 8.0142 0.5 7.99907 0.5C7.98394 0.5 7.96882 0.5 7.9537 0.5C7.93859 0.5 7.92348 0.5 7.90837 0.5C7.89327 0.5 7.87817 0.5 7.86309 0.5C7.848 0.5 7.83292 0.5 7.81784 0.5C7.80277 0.5 7.7877 0.5 7.77264 0.5C7.75758 0.5 7.74253 0.5 7.72748 0.5C7.71244 0.5 7.6974 0.5 7.68237 0.5C7.66734 0.5 7.65232 0.5 7.6373 0.5C7.62229 0.5 7.60728 0.5 7.59228 0.5C7.57728 0.5 7.56229 0.5 7.54731 0.5C7.53233 0.5 7.51735 0.5 7.50238 0.5C7.48742 0.5 7.47246 0.5 7.45751 0.5C7.44255 0.5 7.42761 0.5 7.41268 0.5C7.39774 0.5 7.38282 0.5 7.3679 0.5C7.35298 0.5 7.33807 0.5 7.32317 0.5C7.30827 0.5 7.29338 0.5 7.27849 0.5C7.26361 0.5 7.24873 0.5 7.23387 0.5C7.219 0.5 7.20414 0.5 7.18929 0.5C7.17445 0.5 7.15961 0.5 7.14477 0.5C7.12994 0.5 7.11512 0.5 7.10031 0.5C7.0855 0.5 7.07069 0.5 7.0559 0.5C7.0411 0.5 7.02632 0.5 7.01154 0.5C6.99677 0.5 6.982 0.5 6.96725 0.5C6.95249 0.5 6.93774 0.5 6.923 0.5C6.90827 0.5 6.89354 0.5 6.87882 0.5C6.8641 0.5 6.84939 0.5 6.83469 0.5C6.82 0.5 6.80531 0.5 6.79063 0.5C6.77595 0.5 6.76128 0.5 6.74662 0.5C6.73196 0.5 6.71732 0.5 6.70268 0.5C6.68804 0.5 6.67341 0.5 6.65879 0.5C6.64418 0.5 6.62957 0.5 6.61497 0.5C6.60037 0.5 6.58579 0.5 6.57121 0.5C6.55664 0.5 6.54207 0.5 6.52752 0.5C6.51296 0.5 6.49842 0.5 6.48388 0.5C6.46935 0.5 6.45483 0.5 6.44032 0.5C6.42581 0.5 6.41131 0.5 6.39682 0.5C6.38233 0.5 6.36785 0.5 6.35338 0.5C6.33892 0.5 6.32446 0.5 6.31002 0.5C6.29557 0.5 6.28114 0.5 6.26672 0.5C6.2523 0.5 6.23788 0.5 6.22349 0.5C6.20909 0.5 6.1947 0.5 6.18033 0.5C6.16595 0.5 6.15159 0.5 6.13723 0.5C6.12288 0.5 6.10854 0.5 6.09421 0.5C6.07989 0.5 6.06557 0.5 6.05126 0.5C6.03696 0.5 6.02267 0.5 6.00839 0.5C5.99411 0.5 5.97984 0.5 5.96558 0.5C5.95133 0.5 5.93708 0.5 5.92285 0.5C5.90862 0.5 5.8944 0.5 5.8802 0.5C5.86599 0.5 5.8518 0.5 5.83762 0.5C5.82344 0.5 5.80927 0.5 5.79511 0.5C5.78096 0.5 5.76681 0.5 5.75268 0.5C5.73855 0.5 5.72444 0.5 5.71033 0.5C5.69623 0.5 5.68214 0.5 5.66806 0.5C5.65398 0.5 5.63992 0.5 5.62587 0.5C5.61181 0.5 5.59778 0.5 5.58375 0.5C5.56973 0.5 5.55572 0.5 5.54172 0.5C5.52772 0.5 5.51373 0.5 5.49976 0.5C5.48579 0.5 5.47184 0.5 5.45789 0.5C5.44395 0.5 5.43002 0.5 5.4161 0.5C5.40219 0.5 5.38828 0.5 5.3744 0.5C5.36051 0.5 5.34663 0.5 5.33277 0.5C5.31891 0.5 5.30507 0.5 5.29124 0.5C5.2774 0.5 5.26359 0.5 5.24978 0.5C5.23598 0.5 5.22219 0.5 5.20842 0.5C5.19464 0.5 5.18088 0.5 5.16714 0.5C5.15339 0.5 5.13966 0.5 5.12594 0.5C5.11223 0.5 5.09853 0.5 5.08484 0.5C5.07115 0.5 5.05748 0.5 5.04382 0.5C5.03017 0.5 5.01652 0.5 5.0029 0.5C4.98927 0.5 4.97566 0.5 4.96206 0.5C4.94846 0.5 4.93488 0.5 4.92132 0.5C4.90775 0.5 4.8942 0.5 4.88066 0.5C4.86713 0.5 4.85361 0.5 4.8401 0.5C4.8266 0.5 4.81311 0.5 4.79964 0.5C4.78616 0.5 4.77271 0.5 4.75926 0.5C4.74582 0.5 4.7324 0.5 4.71899 0.5C4.70557 0.5 4.69218 0.5 4.6788 0.5C4.66542 0.5 4.65206 0.5 4.63872 0.5C4.62537 0.5 4.61204 0.5 4.59872 0.5C4.58541 0.5 4.57211 0.5 4.55883 0.5C4.54555 0.5 4.53229 0.5 4.51904 0.5C4.50579 0.5 4.49256 0.5 4.47934 0.5C4.46613 0.5 4.45293 0.5 4.43975 0.5C4.42657 0.5 4.4134 0.5 4.40025 0.5C4.3871 0.5 4.37397 0.5 4.36086 0.5C4.34774 0.5 4.33465 0.5 4.32157 0.5C4.30849 0.5 4.29542 0.5 4.28238 0.5C4.26933 0.5 4.2563 0.5 4.24329 0.5C4.23028 0.5 4.21729 0.5 4.20431 0.5C4.19133 0.5 4.17838 0.5 4.16543 0.5C4.15249 0.5 4.13957 0.5 4.12666 0.5C4.11376 0.5 4.10087 0.5 4.088 0.5C4.07513 0.5 4.06227 0.5 4.04944 0.5C4.0366 0.5 4.02379 0.5 4.01099 0.5C3.99819 0.5 3.98541 0.5 3.97265 0.5C3.95988 0.5 3.94714 0.5 3.93441 0.5C3.92169 0.5 3.90898 0.5 3.89629 0.5C3.8836 0.5 3.87093 0.5 3.85828 0.5C3.84563 0.5 3.83299 0.5 3.82038 0.5C3.80776 0.5 3.79517 0.5 3.78259 0.5C3.77001 0.5 3.75745 0.5 3.74491 0.5C3.73237 0.5 3.71985 0.5 3.70735 0.5C3.69485 0.5 3.68237 0.5 3.6699 0.5C3.65744 0.5 3.64499 0.5 3.63257 0.5C3.62014 0.5 3.60774 0.5 3.59535 0.5C3.58296 0.5 3.5706 0.5 3.55825 0.5C3.5459 0.5 3.53357 0.5 3.52127 0.5C3.50896 0.5 3.49667 0.5 3.4844 0.5C3.47213 0.5 3.45988 0.5 3.44765 0.5C3.43542 0.5 3.42321 0.5 3.41102 0.5C3.39883 0.5 3.38666 0.5 3.37451 0.5C3.36236 0.5 3.35024 0.5 3.33813 0.5C3.32602 0.5 3.31393 0.5 3.30186 0.5C3.28979 0.5 3.27774 0.5 3.26572 0.5C3.25369 0.5 3.24168 0.5 3.2297 0.5C3.21771 0.5 3.20574 0.5 3.1938 0.5C3.18185 0.5 3.16993 0.5 3.15802 0.5C3.14612 0.5 3.13424 0.5 3.12238 0.5C3.11051 0.5 3.09867 0.5 3.08685 0.5C3.07503 0.5 3.06324 0.5 3.05146 0.5C3.03968 0.5 3.02793 0.5 3.01619 0.5C3.00446 0.5 2.99274 0.5 2.98105 0.5C2.96936 0.5 2.95769 0.5 2.94604 0.5C2.93439 0.5 2.92276 0.5 2.91116 0.5C2.89955 0.5 2.88797 0.5 2.8764 0.5C2.86484 0.5 2.8533 0.5 2.84178 0.5C2.83026 0.5 2.81877 0.5 2.80729 0.5C2.79582 0.5 2.78437 0.5 2.77294 0.5C2.76151 0.5 2.7501 0.5 2.73871 0.5C2.72733 0.5 2.71596 0.5 2.70462 0.5C2.69328 0.5 2.68196 0.5 2.67067 0.5C2.65937 0.5 2.6481 0.5 2.63685 0.5C2.62559 0.5 2.61437 0.5 2.60316 0.5C2.59196 0.5 2.58077 0.5 2.56961 0.5C2.55845 0.5 2.54732 0.5 2.5362 0.5C2.52509 0.5 2.514 0.5 2.50293 0.5V1.5C2.514 1.5 2.52509 1.5 2.5362 1.5C2.54732 1.5 2.55845 1.5 2.56961 1.5C2.58077 1.5 2.59196 1.5 2.60316 1.5C2.61437 1.5 2.62559 1.5 2.63685 1.5C2.6481 1.5 2.65937 1.5 2.67067 1.5C2.68196 1.5 2.69328 1.5 2.70462 1.5C2.71596 1.5 2.72733 1.5 2.73871 1.5C2.7501 1.5 2.76151 1.5 2.77294 1.5C2.78437 1.5 2.79582 1.5 2.80729 1.5C2.81877 1.5 2.83026 1.5 2.84178 1.5C2.8533 1.5 2.86484 1.5 2.8764 1.5C2.88797 1.5 2.89955 1.5 2.91116 1.5C2.92276 1.5 2.93439 1.5 2.94604 1.5C2.95769 1.5 2.96936 1.5 2.98105 1.5C2.99274 1.5 3.00446 1.5 3.01619 1.5C3.02793 1.5 3.03968 1.5 3.05146 1.5C3.06324 1.5 3.07503 1.5 3.08685 1.5C3.09867 1.5 3.11051 1.5 3.12238 1.5C3.13424 1.5 3.14612 1.5 3.15802 1.5C3.16993 1.5 3.18185 1.5 3.1938 1.5C3.20574 1.5 3.21771 1.5 3.2297 1.5C3.24168 1.5 3.25369 1.5 3.26572 1.5C3.27774 1.5 3.28979 1.5 3.30186 1.5C3.31393 1.5 3.32602 1.5 3.33813 1.5C3.35024 1.5 3.36236 1.5 3.37451 1.5C3.38666 1.5 3.39883 1.5 3.41102 1.5C3.42321 1.5 3.43542 1.5 3.44765 1.5C3.45988 1.5 3.47213 1.5 3.4844 1.5C3.49667 1.5 3.50896 1.5 3.52127 1.5C3.53357 1.5 3.5459 1.5 3.55825 1.5C3.5706 1.5 3.58296 1.5 3.59535 1.5C3.60774 1.5 3.62014 1.5 3.63257 1.5C3.64499 1.5 3.65744 1.5 3.6699 1.5C3.68237 1.5 3.69485 1.5 3.70735 1.5C3.71985 1.5 3.73237 1.5 3.74491 1.5C3.75745 1.5 3.77001 1.5 3.78259 1.5C3.79517 1.5 3.80776 1.5 3.82038 1.5C3.83299 1.5 3.84563 1.5 3.85828 1.5C3.87093 1.5 3.8836 1.5 3.89629 1.5C3.90898 1.5 3.92169 1.5 3.93441 1.5C3.94714 1.5 3.95988 1.5 3.97265 1.5C3.98541 1.5 3.99819 1.5 4.01099 1.5C4.02379 1.5 4.0366 1.5 4.04944 1.5C4.06227 1.5 4.07513 1.5 4.088 1.5C4.10087 1.5 4.11376 1.5 4.12666 1.5C4.13957 1.5 4.15249 1.5 4.16543 1.5C4.17838 1.5 4.19133 1.5 4.20431 1.5C4.21729 1.5 4.23028 1.5 4.24329 1.5C4.2563 1.5 4.26933 1.5 4.28238 1.5C4.29542 1.5 4.30849 1.5 4.32157 1.5C4.33465 1.5 4.34774 1.5 4.36086 1.5C4.37397 1.5 4.3871 1.5 4.40025 1.5C4.4134 1.5 4.42657 1.5 4.43975 1.5C4.45293 1.5 4.46613 1.5 4.47934 1.5C4.49256 1.5 4.50579 1.5 4.51904 1.5C4.53229 1.5 4.54555 1.5 4.55883 1.5C4.57211 1.5 4.58541 1.5 4.59872 1.5C4.61204 1.5 4.62537 1.5 4.63872 1.5C4.65206 1.5 4.66542 1.5 4.6788 1.5C4.69218 1.5 4.70557 1.5 4.71899 1.5C4.7324 1.5 4.74582 1.5 4.75926 1.5C4.77271 1.5 4.78616 1.5 4.79964 1.5C4.81311 1.5 4.8266 1.5 4.8401 1.5C4.85361 1.5 4.86713 1.5 4.88066 1.5C4.8942 1.5 4.90775 1.5 4.92132 1.5C4.93488 1.5 4.94846 1.5 4.96206 1.5C4.97566 1.5 4.98927 1.5 5.0029 1.5C5.01652 1.5 5.03017 1.5 5.04382 1.5C5.05748 1.5 5.07115 1.5 5.08484 1.5C5.09853 1.5 5.11223 1.5 5.12594 1.5C5.13966 1.5 5.15339 1.5 5.16714 1.5C5.18088 1.5 5.19464 1.5 5.20842 1.5C5.22219 1.5 5.23598 1.5 5.24978 1.5C5.26359 1.5 5.2774 1.5 5.29124 1.5C5.30507 1.5 5.31891 1.5 5.33277 1.5C5.34663 1.5 5.36051 1.5 5.3744 1.5C5.38828 1.5 5.40219 1.5 5.4161 1.5C5.43002 1.5 5.44395 1.5 5.45789 1.5C5.47184 1.5 5.48579 1.5 5.49976 1.5C5.51373 1.5 5.52772 1.5 5.54172 1.5C5.55572 1.5 5.56973 1.5 5.58375 1.5C5.59778 1.5 5.61181 1.5 5.62587 1.5C5.63992 1.5 5.65398 1.5 5.66806 1.5C5.68214 1.5 5.69623 1.5 5.71033 1.5C5.72444 1.5 5.73855 1.5 5.75268 1.5C5.76681 1.5 5.78096 1.5 5.79511 1.5C5.80927 1.5 5.82344 1.5 5.83762 1.5C5.8518 1.5 5.86599 1.5 5.8802 1.5C5.8944 1.5 5.90862 1.5 5.92285 1.5C5.93708 1.5 5.95133 1.5 5.96558 1.5C5.97984 1.5 5.99411 1.5 6.00839 1.5C6.02267 1.5 6.03696 1.5 6.05126 1.5C6.06557 1.5 6.07989 1.5 6.09421 1.5C6.10854 1.5 6.12288 1.5 6.13723 1.5C6.15159 1.5 6.16595 1.5 6.18033 1.5C6.1947 1.5 6.20909 1.5 6.22349 1.5C6.23788 1.5 6.2523 1.5 6.26672 1.5C6.28114 1.5 6.29557 1.5 6.31002 1.5C6.32446 1.5 6.33892 1.5 6.35338 1.5C6.36785 1.5 6.38233 1.5 6.39682 1.5C6.41131 1.5 6.42581 1.5 6.44032 1.5C6.45483 1.5 6.46935 1.5 6.48388 1.5C6.49842 1.5 6.51296 1.5 6.52752 1.5C6.54207 1.5 6.55664 1.5 6.57121 1.5C6.58579 1.5 6.60037 1.5 6.61497 1.5C6.62957 1.5 6.64418 1.5 6.65879 1.5C6.67341 1.5 6.68804 1.5 6.70268 1.5C6.71732 1.5 6.73196 1.5 6.74662 1.5C6.76128 1.5 6.77595 1.5 6.79063 1.5C6.80531 1.5 6.82 1.5 6.83469 1.5C6.84939 1.5 6.8641 1.5 6.87882 1.5C6.89354 1.5 6.90827 1.5 6.923 1.5C6.93774 1.5 6.95249 1.5 6.96725 1.5C6.982 1.5 6.99677 1.5 7.01154 1.5C7.02632 1.5 7.0411 1.5 7.0559 1.5C7.07069 1.5 7.0855 1.5 7.10031 1.5C7.11512 1.5 7.12994 1.5 7.14477 1.5C7.15961 1.5 7.17445 1.5 7.18929 1.5C7.20414 1.5 7.219 1.5 7.23387 1.5C7.24873 1.5 7.26361 1.5 7.27849 1.5C7.29338 1.5 7.30827 1.5 7.32317 1.5C7.33807 1.5 7.35298 1.5 7.3679 1.5C7.38282 1.5 7.39774 1.5 7.41268 1.5C7.42761 1.5 7.44255 1.5 7.45751 1.5C7.47246 1.5 7.48742 1.5 7.50238 1.5C7.51735 1.5 7.53233 1.5 7.54731 1.5C7.56229 1.5 7.57728 1.5 7.59228 1.5C7.60728 1.5 7.62229 1.5 7.6373 1.5C7.65232 1.5 7.66734 1.5 7.68237 1.5C7.6974 1.5 7.71244 1.5 7.72748 1.5C7.74253 1.5 7.75758 1.5 7.77264 1.5C7.7877 1.5 7.80277 1.5 7.81784 1.5C7.83292 1.5 7.848 1.5 7.86309 1.5C7.87817 1.5 7.89327 1.5 7.90837 1.5C7.92348 1.5 7.93859 1.5 7.9537 1.5C7.96882 1.5 7.98394 1.5 7.99907 1.5C8.0142 1.5 8.02934 1.5 8.04448 1.5C8.05962 1.5 8.07477 1.5 8.08993 1.5C8.10509 1.5 8.12025 1.5 8.13542 1.5C8.15059 1.5 8.16576 1.5 8.18095 1.5C8.19613 1.5 8.21132 1.5 8.22651 1.5C8.24171 1.5 8.25691 1.5 8.27211 1.5C8.28732 1.5 8.30253 1.5 8.31775 1.5C8.33297 1.5 8.34819 1.5 8.36342 1.5C8.37865 1.5 8.39389 1.5 8.40913 1.5C8.42437 1.5 8.43962 1.5 8.45487 1.5C8.47012 1.5 8.48538 1.5 8.50064 1.5C8.51591 1.5 8.53118 1.5 8.54645 1.5C8.56172 1.5 8.577 1.5 8.59229 1.5C8.60757 1.5 8.62286 1.5 8.63816 1.5C8.65345 1.5 8.66875 1.5 8.68406 1.5C8.69936 1.5 8.71467 1.5 8.72998 1.5C8.7453 1.5 8.76062 1.5 8.77594 1.5C8.79127 1.5 8.80659 1.5 8.82193 1.5C8.83726 1.5 8.8526 1.5 8.86794 1.5C8.88328 1.5 8.89863 1.5 8.91398 1.5C8.92933 1.5 8.94468 1.5 8.96004 1.5C8.9754 1.5 8.99077 1.5 9.00613 1.5C9.0215 1.5 9.03687 1.5 9.05225 1.5C9.06763 1.5 9.083 1.5 9.09839 1.5C9.11377 1.5 9.12916 1.5 9.14455 1.5C9.15994 1.5 9.17534 1.5 9.19073 1.5C9.20613 1.5 9.22153 1.5 9.23694 1.5C9.25235 1.5 9.26775 1.5 9.28317 1.5C9.29858 1.5 9.31399 1.5 9.32941 1.5C9.34483 1.5 9.36025 1.5 9.37568 1.5C9.3911 1.5 9.40653 1.5 9.42196 1.5C9.43739 1.5 9.45283 1.5 9.46826 1.5C9.4837 1.5 9.49914 1.5 9.51458 1.5C9.53003 1.5 9.54547 1.5 9.56092 1.5C9.57637 1.5 9.59182 1.5 9.60727 1.5C9.62272 1.5 9.63818 1.5 9.65364 1.5C9.6691 1.5 9.68456 1.5 9.70002 1.5C9.71548 1.5 9.73095 1.5 9.74641 1.5C9.76188 1.5 9.77735 1.5 9.79282 1.5C9.80829 1.5 9.82376 1.5 9.83924 1.5C9.85471 1.5 9.87019 1.5 9.88567 1.5C9.90115 1.5 9.91663 1.5 9.93211 1.5C9.94759 1.5 9.96308 1.5 9.97856 1.5C9.99405 1.5 10.0095 1.5 10.025 1.5C10.0405 1.5 10.056 1.5 10.0715 1.5C10.087 1.5 10.1025 1.5 10.118 1.5C10.1335 1.5 10.149 1.5 10.1645 1.5C10.1799 1.5 10.1954 1.5 10.2109 1.5C10.2264 1.5 10.2419 1.5 10.2574 1.5C10.2729 1.5 10.2884 1.5 10.3039 1.5C10.3194 1.5 10.3349 1.5 10.3504 1.5C10.3659 1.5 10.3815 1.5 10.397 1.5C10.4125 1.5 10.428 1.5 10.4435 1.5C10.459 1.5 10.4745 1.5 10.49 1.5C10.5055 1.5 10.521 1.5 10.5365 1.5C10.552 1.5 10.5675 1.5 10.583 1.5C10.5985 1.5 10.614 1.5 10.6295 1.5C10.645 1.5 10.6605 1.5 10.676 1.5C10.6915 1.5 10.707 1.5 10.7225 1.5C10.7381 1.5 10.7536 1.5 10.7691 1.5C10.7846 1.5 10.8001 1.5 10.8156 1.5C10.8311 1.5 10.8466 1.5 10.8621 1.5C10.8776 1.5 10.8931 1.5 10.9086 1.5C10.9241 1.5 10.9396 1.5 10.9551 1.5C10.9706 1.5 10.9861 1.5 11.0015 1.5C11.017 1.5 11.0325 1.5 11.048 1.5C11.0635 1.5 11.079 1.5 11.0945 1.5C11.11 1.5 11.1255 1.5 11.141 1.5C11.1565 1.5 11.1719 1.5 11.1874 1.5C11.2029 1.5 11.2184 1.5 11.2339 1.5C11.2493 1.5 11.2648 1.5 11.2803 1.5C11.2958 1.5 11.3113 1.5 11.3267 1.5C11.3422 1.5 11.3577 1.5 11.3731 1.5C11.3886 1.5 11.4041 1.5 11.4195 1.5C11.435 1.5 11.4505 1.5 11.4659 1.5C11.4814 1.5 11.4968 1.5 11.5123 1.5C11.5278 1.5 11.5432 1.5 11.5587 1.5C11.5741 1.5 11.5896 1.5 11.605 1.5C11.6204 1.5 11.6359 1.5 11.6513 1.5C11.6668 1.5 11.6822 1.5 11.6976 1.5C11.7131 1.5 11.7285 1.5 11.7439 1.5C11.7594 1.5 11.7748 1.5 11.7902 1.5C11.8056 1.5 11.821 1.5 11.8365 1.5C11.8519 1.5 11.8673 1.5 11.8827 1.5C11.8981 1.5 11.9135 1.5 11.9289 1.5C11.9443 1.5 11.9597 1.5 11.9751 1.5C11.9905 1.5 12.0059 1.5 12.0213 1.5C12.0367 1.5 12.0521 1.5 12.0674 1.5C12.0828 1.5 12.0982 1.5 12.1136 1.5C12.1289 1.5 12.1443 1.5 12.1597 1.5C12.175 1.5 12.1904 1.5 12.2057 1.5C12.2211 1.5 12.2364 1.5 12.2518 1.5C12.2671 1.5 12.2825 1.5 12.2978 1.5C12.3132 1.5 12.3285 1.5 12.3438 1.5C12.3591 1.5 12.3745 1.5 12.3898 1.5C12.4051 1.5 12.4204 1.5 12.4357 1.5C12.451 1.5 12.4663 1.5 12.4816 1.5C12.4969 1.5 12.5122 1.5 12.5275 1.5C12.5428 1.5 12.5581 1.5 12.5734 1.5C12.5887 1.5 12.6039 1.5 12.6192 1.5C12.6345 1.5 12.6497 1.5 12.665 1.5C12.6802 1.5 12.6955 1.5 12.7107 1.5C12.726 1.5 12.7412 1.5 12.7565 1.5C12.7717 1.5 12.7869 1.5 12.8022 1.5C12.8174 1.5 12.8326 1.5 12.8478 1.5C12.863 1.5 12.8782 1.5 12.8934 1.5C12.9086 1.5 12.9238 1.5 12.939 1.5C12.9542 1.5 12.9694 1.5 12.9846 1.5C12.9997 1.5 13.0149 1.5 13.0301 1.5C13.0452 1.5 13.0604 1.5 13.0755 1.5C13.0907 1.5 13.1058 1.5 13.121 1.5C13.1361 1.5 13.1512 1.5 13.1663 1.5C13.1815 1.5 13.1966 1.5 13.2117 1.5C13.2268 1.5 13.2419 1.5 13.257 1.5C13.2721 1.5 13.2872 1.5 13.3023 1.5C13.3173 1.5 13.3324 1.5 13.3475 1.5C13.3626 1.5 13.3776 1.5 13.3927 1.5C13.4077 1.5 13.4228 1.5 13.4378 1.5C13.4528 1.5 13.4679 1.5 13.4829 1.5C13.4979 1.5 13.5129 1.5 13.5279 1.5C13.5429 1.5 13.5579 1.5 13.5729 1.5C13.5879 1.5 13.6029 1.5 13.6179 1.5C13.6328 1.5 13.6478 1.5 13.6628 1.5C13.6777 1.5 13.6927 1.5 13.7076 1.5C13.7226 1.5 13.7375 1.5 13.7524 1.5C13.7674 1.5 13.7823 1.5 13.7972 1.5C13.8121 1.5 13.827 1.5 13.8419 1.5C13.8568 1.5 13.8717 1.5 13.8865 1.5C13.9014 1.5 13.9163 1.5 13.9311 1.5C13.946 1.5 13.9608 1.5 13.9757 1.5C13.9905 1.5 14.0053 1.5 14.0202 1.5C14.035 1.5 14.0498 1.5 14.0646 1.5C14.0794 1.5 14.0942 1.5 14.109 1.5C14.1238 1.5 14.1385 1.5 14.1533 1.5C14.1681 1.5 14.1828 1.5 14.1976 1.5C14.2123 1.5 14.2271 1.5 14.2418 1.5C14.2565 1.5 14.2712 1.5 14.2859 1.5C14.3007 1.5 14.3153 1.5 14.33 1.5C14.3447 1.5 14.3594 1.5 14.3741 1.5C14.3887 1.5 14.4034 1.5 14.418 1.5C14.4327 1.5 14.4473 1.5 14.462 1.5C14.4766 1.5 14.4912 1.5 14.5058 1.5C14.5204 1.5 14.535 1.5 14.5496 1.5C14.5642 1.5 14.5788 1.5 14.5933 1.5C14.6079 1.5 14.6224 1.5 14.637 1.5C14.6515 1.5 14.6661 1.5 14.6806 1.5C14.6951 1.5 14.7096 1.5 14.7241 1.5C14.7386 1.5 14.7531 1.5 14.7676 1.5C14.7821 1.5 14.7965 1.5 14.811 1.5C14.8254 1.5 14.8399 1.5 14.8543 1.5C14.8687 1.5 14.8832 1.5 14.8976 1.5C14.912 1.5 14.9264 1.5 14.9408 1.5C14.9552 1.5 14.9695 1.5 14.9839 1.5C14.9983 1.5 15.0126 1.5 15.0269 1.5C15.0413 1.5 15.0556 1.5 15.0699 1.5C15.0842 1.5 15.0986 1.5 15.1128 1.5C15.1271 1.5 15.1414 1.5 15.1557 1.5C15.1699 1.5 15.1842 1.5 15.1984 1.5C15.2127 1.5 15.2269 1.5 15.2411 1.5C15.2554 1.5 15.2696 1.5 15.2838 1.5C15.2979 1.5 15.3121 1.5 15.3263 1.5C15.3405 1.5 15.3546 1.5 15.3688 1.5C15.3829 1.5 15.397 1.5 15.4111 1.5C15.4253 1.5 15.4394 1.5 15.4535 1.5C15.4675 1.5 15.4816 1.5 15.4957 1.5C15.5098 1.5 15.5238 1.5 15.5378 1.5C15.5519 1.5 15.5659 1.5 15.5799 1.5C15.5939 1.5 15.6079 1.5 15.6219 1.5C15.6359 1.5 15.6499 1.5 15.6638 1.5C15.6778 1.5 15.6917 1.5 15.7056 1.5C15.7196 1.5 15.7335 1.5 15.7474 1.5C15.7613 1.5 15.7752 1.5 15.7891 1.5C15.8029 1.5 15.8168 1.5 15.8306 1.5C15.8445 1.5 15.8583 1.5 15.8721 1.5C15.8859 1.5 15.8997 1.5 15.9135 1.5C15.9273 1.5 15.9411 1.5 15.9549 1.5C15.9686 1.5 15.9824 1.5 15.9961 1.5C16.0098 1.5 16.0235 1.5 16.0372 1.5C16.0509 1.5 16.0646 1.5 16.0783 1.5C16.092 1.5 16.1056 1.5 16.1193 1.5C16.1329 1.5 16.1465 1.5 16.1601 1.5C16.1737 1.5 16.1873 1.5 16.2009 1.5C16.2145 1.5 16.2281 1.5 16.2416 1.5C16.2552 1.5 16.2687 1.5 16.2822 1.5C16.2957 1.5 16.3092 1.5 16.3227 1.5C16.3362 1.5 16.3497 1.5 16.3632 1.5C16.3766 1.5 16.3901 1.5 16.4035 1.5C16.4169 1.5 16.4303 1.5 16.4437 1.5C16.4571 1.5 16.4705 1.5 16.4838 1.5C16.4972 1.5 16.5105 1.5 16.5239 1.5C16.5372 1.5 16.5505 1.5 16.5638 1.5C16.5771 1.5 16.5904 1.5 16.6037 1.5C16.6169 1.5 16.6302 1.5 16.6434 1.5C16.6566 1.5 16.6698 1.5 16.683 1.5C16.6962 1.5 16.7094 1.5 16.7226 1.5C16.7357 1.5 16.7489 1.5 16.762 1.5C16.7752 1.5 16.7883 1.5 16.8014 1.5C16.8145 1.5 16.8275 1.5 16.8406 1.5C16.8537 1.5 16.8667 1.5 16.8797 1.5C16.8928 1.5 16.9058 1.5 16.9188 1.5C16.9318 1.5 16.9447 1.5 16.9577 1.5C16.9707 1.5 16.9836 1.5 16.9965 1.5C17.0094 1.5 17.0223 1.5 17.0352 1.5C17.0481 1.5 17.061 1.5 17.0738 1.5C17.0867 1.5 17.0995 1.5 17.1123 1.5C17.1252 1.5 17.138 1.5 17.1507 1.5C17.1635 1.5 17.1763 1.5 17.189 1.5C17.2018 1.5 17.2145 1.5 17.2272 1.5C17.2399 1.5 17.2526 1.5 17.2653 1.5C17.2779 1.5 17.2906 1.5 17.3032 1.5C17.3158 1.5 17.3285 1.5 17.3411 1.5C17.3537 1.5 17.3662 1.5 17.3788 1.5C17.3913 1.5 17.4039 1.5 17.4164 1.5C17.4289 1.5 17.4414 1.5 17.4539 1.5C17.4664 1.5 17.4788 1.5 17.4913 1.5C17.5037 1.5 17.5162 1.5 17.5286 1.5C17.541 1.5 17.5534 1.5 17.5657 1.5C17.5781 1.5 17.5904 1.5 17.6028 1.5C17.6151 1.5 17.6274 1.5 17.6397 1.5C17.652 1.5 17.6642 1.5 17.6765 1.5C17.6887 1.5 17.701 1.5 17.7132 1.5C17.7254 1.5 17.7376 1.5 17.7497 1.5C17.7619 1.5 17.7741 1.5 17.7862 1.5C17.7983 1.5 17.8104 1.5 17.8225 1.5C17.8346 1.5 17.8467 1.5 17.8587 1.5C17.8708 1.5 17.8828 1.5 17.8948 1.5C17.9068 1.5 17.9188 1.5 17.9307 1.5C17.9427 1.5 17.9547 1.5 17.9666 1.5C17.9785 1.5 17.9904 1.5 18.0023 1.5C18.0142 1.5 18.026 1.5 18.0379 1.5C18.0497 1.5 18.0615 1.5 18.0733 1.5C18.0851 1.5 18.0969 1.5 18.1086 1.5C18.1204 1.5 18.1321 1.5 18.1439 1.5C18.1556 1.5 18.1673 1.5 18.1789 1.5C18.1906 1.5 18.2022 1.5 18.2139 1.5C18.2255 1.5 18.2371 1.5 18.2487 1.5C18.2603 1.5 18.2718 1.5 18.2834 1.5C18.2949 1.5 18.3064 1.5 18.3179 1.5C18.3294 1.5 18.3409 1.5 18.3523 1.5C18.3638 1.5 18.3752 1.5 18.3866 1.5C18.398 1.5 18.4094 1.5 18.4208 1.5C18.4321 1.5 18.4435 1.5 18.4548 1.5C18.4661 1.5 18.4774 1.5 18.4887 1.5C18.5 1.5 18.5112 1.5 18.5224 1.5C18.5337 1.5 18.5449 1.5 18.556 1.5C18.5672 1.5 18.5784 1.5 18.5895 1.5C18.6007 1.5 18.6118 1.5 18.6229 1.5C18.6339 1.5 18.645 1.5 18.6561 1.5C18.6671 1.5 18.6781 1.5 18.6891 1.5C18.7001 1.5 18.7111 1.5 18.722 1.5C18.733 1.5 18.7439 1.5 18.7548 1.5C18.7657 1.5 18.7766 1.5 18.7875 1.5C18.7983 1.5 18.8091 1.5 18.8199 1.5C18.8308 1.5 18.8415 1.5 18.8523 1.5C18.8631 1.5 18.8738 1.5 18.8845 1.5C18.8952 1.5 18.9059 1.5 18.9166 1.5C18.9272 1.5 18.9379 1.5 18.9485 1.5C18.9591 1.5 18.9697 1.5 18.9803 1.5C18.9908 1.5 19.0014 1.5 19.0119 1.5C19.0224 1.5 19.0329 1.5 19.0434 1.5C19.0538 1.5 19.0643 1.5 19.0747 1.5C19.0851 1.5 19.0955 1.5 19.1059 1.5C19.1163 1.5 19.1266 1.5 19.1369 1.5C19.1473 1.5 19.1575 1.5 19.1678 1.5C19.1781 1.5 19.1883 1.5 19.1985 1.5C19.2088 1.5 19.219 1.5 19.2291 1.5C19.2393 1.5 19.2494 1.5 19.2596 1.5C19.2697 1.5 19.2798 1.5 19.2898 1.5C19.2999 1.5 19.3099 1.5 19.32 1.5C19.33 1.5 19.34 1.5 19.3499 1.5C19.3599 1.5 19.3698 1.5 19.3797 1.5C19.3897 1.5 19.3995 1.5 19.4094 1.5C19.4193 1.5 19.4291 1.5 19.4389 1.5C19.4487 1.5 19.4585 1.5 19.4682 1.5C19.478 1.5 19.4877 1.5 19.4974 1.5C19.5071 1.5 19.5168 1.5 19.5265 1.5C19.5361 1.5 19.5457 1.5 19.5553 1.5C19.5649 1.5 19.5745 1.5 19.584 1.5C19.5936 1.5 19.6031 1.5 19.6126 1.5C19.6221 1.5 19.6315 1.5 19.641 1.5C19.6504 1.5 19.6598 1.5 19.6692 1.5C19.6786 1.5 19.6879 1.5 19.6972 1.5C19.7066 1.5 19.7159 1.5 19.7251 1.5C19.7344 1.5 19.7437 1.5 19.7529 1.5C19.7621 1.5 19.7713 1.5 19.7804 1.5C19.7896 1.5 19.7987 1.5 19.8078 1.5C19.8169 1.5 19.826 1.5 19.8351 1.5C19.8441 1.5 19.8531 1.5 19.8621 1.5C19.8711 1.5 19.8801 1.5 19.889 1.5C19.898 1.5 19.9069 1.5 19.9158 1.5C19.9246 1.5 19.9335 1.5 19.9423 1.5C19.9511 1.5 19.9599 1.5 19.9687 1.5C19.9775 1.5 19.9862 1.5 19.9949 1.5C20.0036 1.5 20.0123 1.5 20.021 1.5C20.0296 1.5 20.0382 1.5 20.0468 1.5C20.0554 1.5 20.064 1.5 20.0725 1.5C20.0811 1.5 20.0896 1.5 20.0981 1.5C20.1065 1.5 20.115 1.5 20.1234 1.5C20.1318 1.5 20.1402 1.5 20.1486 1.5C20.157 1.5 20.1653 1.5 20.1736 1.5C20.1819 1.5 20.1902 1.5 20.1984 1.5C20.2067 1.5 20.2149 1.5 20.2231 1.5C20.2312 1.5 20.2394 1.5 20.2475 1.5C20.2556 1.5 20.2637 1.5 20.2718 1.5C20.2799 1.5 20.2879 1.5 20.2959 1.5C20.3039 1.5 20.3119 1.5 20.3198 1.5C20.3278 1.5 20.3357 1.5 20.3436 1.5C20.3515 1.5 20.3593 1.5 20.3672 1.5C20.375 1.5 20.3828 1.5 20.3905 1.5C20.3983 1.5 20.406 1.5 20.4137 1.5C20.4214 1.5 20.4291 1.5 20.4367 1.5C20.4444 1.5 20.452 1.5 20.4596 1.5C20.4671 1.5 20.4747 1.5 20.4822 1.5C20.4897 1.5 20.4972 1.5 20.5047 1.5C20.5121 1.5 20.5195 1.5 20.5269 1.5C20.5343 1.5 20.5417 1.5 20.549 1.5C20.5563 1.5 20.5636 1.5 20.5709 1.5C20.5782 1.5 20.5854 1.5 20.5926 1.5C20.5998 1.5 20.607 1.5 20.6141 1.5C20.6213 1.5 20.6284 1.5 20.6355 1.5C20.6425 1.5 20.6496 1.5 20.6566 1.5C20.6636 1.5 20.6706 1.5 20.6775 1.5C20.6845 1.5 20.6914 1.5 20.6983 1.5C20.7052 1.5 20.712 1.5 20.7188 1.5C20.7256 1.5 20.7324 1.5 20.7392 1.5C20.7459 1.5 20.7527 1.5 20.7593 1.5C20.766 1.5 20.7727 1.5 20.7793 1.5C20.7859 1.5 20.7925 1.5 20.7991 1.5C20.8056 1.5 20.8122 1.5 20.8187 1.5C20.8252 1.5 20.8316 1.5 20.838 1.5C20.8445 1.5 20.8509 1.5 20.8572 1.5C20.8636 1.5 20.8699 1.5 20.8762 1.5C20.8825 1.5 20.8888 1.5 20.895 1.5C20.9012 1.5 20.9074 1.5 20.9136 1.5C20.9197 1.5 20.9258 1.5 20.9319 1.5C20.938 1.5 20.9441 1.5 20.9501 1.5C20.9561 1.5 20.9621 1.5 20.9681 1.5C20.974 1.5 20.98 1.5 20.9858 1.5C20.9917 1.5 20.9976 1.5 21.0034 1.5C21.0092 1.5 21.015 1.5 21.0208 1.5C21.0265 1.5 21.0322 1.5 21.0379 1.5C21.0436 1.5 21.0493 1.5 21.0549 1.5C21.0605 1.5 21.0661 1.5 21.0716 1.5C21.0771 1.5 21.0827 1.5 21.0881 1.5C21.0936 1.5 21.0991 1.5 21.1045 1.5C21.1099 1.5 21.1152 1.5 21.1206 1.5C21.1259 1.5 21.1312 1.5 21.1365 1.5C21.1417 1.5 21.147 1.5 21.1522 1.5C21.1574 1.5 21.1625 1.5 21.1676 1.5C21.1728 1.5 21.1779 1.5 21.1829 1.5C21.188 1.5 21.193 1.5 21.198 1.5C21.2029 1.5 21.2079 1.5 21.2128 1.5C21.2177 1.5 21.2226 1.5 21.2274 1.5C21.2323 1.5 21.2371 1.5 21.2418 1.5C21.2466 1.5 21.2513 1.5 21.256 1.5C21.2607 1.5 21.2654 1.5 21.27 1.5C21.2746 1.5 21.2792 1.5 21.2838 1.5C21.2883 1.5 21.2928 1.5 21.2973 1.5C21.3018 1.5 21.3062 1.5 21.3106 1.5C21.315 1.5 21.3194 1.5 21.3237 1.5C21.3281 1.5 21.3324 1.5 21.3366 1.5C21.3409 1.5 21.3451 1.5 21.3493 1.5C21.3535 1.5 21.3576 1.5 21.3617 1.5C21.3658 1.5 21.3699 1.5 21.3739 1.5C21.378 1.5 21.382 1.5 21.3859 1.5C21.3899 1.5 21.3938 1.5 21.3977 1.5C21.4016 1.5 21.4054 1.5 21.4093 1.5C21.4131 1.5 21.4168 1.5 21.4206 1.5C21.4243 1.5 21.428 1.5 21.4317 1.5C21.4353 1.5 21.4389 1.5 21.4425 1.5C21.4461 1.5 21.4497 1.5 21.4532 1.5C21.4567 1.5 21.4601 1.5 21.4636 1.5C21.467 1.5 21.4704 1.5 21.4738 1.5C21.4771 1.5 21.4804 1.5 21.4837 1.5C21.487 1.5 21.4902 1.5 21.4934 1.5C21.4966 1.5 21.4998 1.5 21.5029 1.5V0.5ZM2.50293 0.5C2.11353 0.5 1.52548 0.584581 1.01536 0.860047C0.483568 1.14721 0.00292969 1.66882 0.00292969 2.5H1.00293C1.00293 2.13118 1.18896 1.90279 1.4905 1.73995C1.81371 1.56542 2.22566 1.5 2.50293 1.5V0.5ZM0.00292969 2.5C0.00292969 2.50234 0.00292969 2.5047 0.00292969 2.50706C0.00292969 2.50943 0.00292969 2.5118 0.00292969 2.51419C0.00292969 2.51657 0.00292969 2.51897 0.00292969 2.52138C0.00292969 2.52378 0.00292969 2.5262 0.00292969 2.52863C0.00292969 2.53106 0.00292969 2.53349 0.00292969 2.53594C0.00292969 2.53839 0.00292969 2.54085 0.00292969 2.54332C0.00292969 2.54579 0.00292969 2.54827 0.00292969 2.55076C0.00292969 2.55325 0.00292969 2.55575 0.00292969 2.55826C0.00292969 2.56077 0.00292969 2.56329 0.00292969 2.56582C0.00292969 2.56835 0.00292969 2.57089 0.00292969 2.57344C0.00292969 2.57599 0.00292969 2.57855 0.00292969 2.58113C0.00292969 2.5837 0.00292969 2.58628 0.00292969 2.58887C0.00292969 2.59146 0.00292969 2.59406 0.00292969 2.59668C0.00292969 2.59929 0.00292969 2.60191 0.00292969 2.60454C0.00292969 2.60718 0.00292969 2.60982 0.00292969 2.61247C0.00292969 2.61512 0.00292969 2.61778 0.00292969 2.62046C0.00292969 2.62313 0.00292969 2.62581 0.00292969 2.6285C0.00292969 2.63119 0.00292969 2.6339 0.00292969 2.63661C0.00292969 2.63932 0.00292969 2.64204 0.00292969 2.64477C0.00292969 2.6475 0.00292969 2.65025 0.00292969 2.653C0.00292969 2.65575 0.00292969 2.65851 0.00292969 2.66128C0.00292969 2.66405 0.00292969 2.66683 0.00292969 2.66962C0.00292969 2.67241 0.00292969 2.67521 0.00292969 2.67802C0.00292969 2.68083 0.00292969 2.68365 0.00292969 2.68648C0.00292969 2.68931 0.00292969 2.69215 0.00292969 2.695C0.00292969 2.69785 0.00292969 2.70071 0.00292969 2.70357C0.00292969 2.70644 0.00292969 2.70932 0.00292969 2.71221C0.00292969 2.71509 0.00292969 2.71799 0.00292969 2.7209C0.00292969 2.7238 0.00292969 2.72672 0.00292969 2.72964C0.00292969 2.73257 0.00292969 2.7355 0.00292969 2.73845C0.00292969 2.74139 0.00292969 2.74435 0.00292969 2.74731C0.00292969 2.75027 0.00292969 2.75324 0.00292969 2.75623C0.00292969 2.75921 0.00292969 2.7622 0.00292969 2.7652C0.00292969 2.7682 0.00292969 2.77121 0.00292969 2.77423C0.00292969 2.77725 0.00292969 2.78028 0.00292969 2.78331C0.00292969 2.78635 0.00292969 2.7894 0.00292969 2.79246C0.00292969 2.79551 0.00292969 2.79858 0.00292969 2.80165C0.00292969 2.80473 0.00292969 2.80781 0.00292969 2.8109C0.00292969 2.814 0.00292969 2.8171 0.00292969 2.82021C0.00292969 2.82332 0.00292969 2.82644 0.00292969 2.82957C0.00292969 2.8327 0.00292969 2.83584 0.00292969 2.83899C0.00292969 2.84214 0.00292969 2.84529 0.00292969 2.84846C0.00292969 2.85163 0.00292969 2.8548 0.00292969 2.85798C0.00292969 2.86117 0.00292969 2.86436 0.00292969 2.86756C0.00292969 2.87076 0.00292969 2.87398 0.00292969 2.8772C0.00292969 2.88041 0.00292969 2.88364 0.00292969 2.88688C0.00292969 2.89012 0.00292969 2.89336 0.00292969 2.89662C0.00292969 2.89987 0.00292969 2.90314 0.00292969 2.90641C0.00292969 2.90968 0.00292969 2.91297 0.00292969 2.91626C0.00292969 2.91955 0.00292969 2.92285 0.00292969 2.92615C0.00292969 2.92946 0.00292969 2.93278 0.00292969 2.9361C0.00292969 2.93943 0.00292969 2.94276 0.00292969 2.94611C0.00292969 2.94945 0.00292969 2.9528 0.00292969 2.95616C0.00292969 2.95952 0.00292969 2.96289 0.00292969 2.96627C0.00292969 2.96964 0.00292969 2.97303 0.00292969 2.97642C0.00292969 2.97982 0.00292969 2.98322 0.00292969 2.98663C0.00292969 2.99004 0.00292969 2.99346 0.00292969 2.99689C0.00292969 3.00032 0.00292969 3.00376 0.00292969 3.0072C0.00292969 3.01065 0.00292969 3.0141 0.00292969 3.01756C0.00292969 3.02102 0.00292969 3.02449 0.00292969 3.02797C0.00292969 3.03145 0.00292969 3.03494 0.00292969 3.03843C0.00292969 3.04193 0.00292969 3.04543 0.00292969 3.04895C0.00292969 3.05246 0.00292969 3.05598 0.00292969 3.05951C0.00292969 3.06304 0.00292969 3.06657 0.00292969 3.07012C0.00292969 3.07366 0.00292969 3.07722 0.00292969 3.08078C0.00292969 3.08434 0.00292969 3.08791 0.00292969 3.09149C0.00292969 3.09506 0.00292969 3.09865 0.00292969 3.10224C0.00292969 3.10584 0.00292969 3.10944 0.00292969 3.11305C0.00292969 3.11666 0.00292969 3.12028 0.00292969 3.12391C0.00292969 3.12753 0.00292969 3.13117 0.00292969 3.13481C0.00292969 3.13845 0.00292969 3.1421 0.00292969 3.14576C0.00292969 3.14942 0.00292969 3.15308 0.00292969 3.15676C0.00292969 3.16043 0.00292969 3.16412 0.00292969 3.16781C0.00292969 3.1715 0.00292969 3.17519 0.00292969 3.1789C0.00292969 3.18261 0.00292969 3.18632 0.00292969 3.19004C0.00292969 3.19376 0.00292969 3.19749 0.00292969 3.20123C0.00292969 3.20497 0.00292969 3.20871 0.00292969 3.21246C0.00292969 3.21622 0.00292969 3.21998 0.00292969 3.22374C0.00292969 3.22751 0.00292969 3.23129 0.00292969 3.23507C0.00292969 3.23885 0.00292969 3.24265 0.00292969 3.24644C0.00292969 3.25024 0.00292969 3.25405 0.00292969 3.25786C0.00292969 3.26168 0.00292969 3.2655 0.00292969 3.26933C0.00292969 3.27316 0.00292969 3.27699 0.00292969 3.28084C0.00292969 3.28468 0.00292969 3.28853 0.00292969 3.29239C0.00292969 3.29625 0.00292969 3.30012 0.00292969 3.30399C0.00292969 3.30787 0.00292969 3.31175 0.00292969 3.31564C0.00292969 3.31953 0.00292969 3.32342 0.00292969 3.32733C0.00292969 3.33123 0.00292969 3.33514 0.00292969 3.33906C0.00292969 3.34298 0.00292969 3.34691 0.00292969 3.35084C0.00292969 3.35477 0.00292969 3.35871 0.00292969 3.36266C0.00292969 3.36661 0.00292969 3.37056 0.00292969 3.37453C0.00292969 3.37849 0.00292969 3.38246 0.00292969 3.38643C0.00292969 3.39041 0.00292969 3.39439 0.00292969 3.39839C0.00292969 3.40238 0.00292969 3.40637 0.00292969 3.41038C0.00292969 3.41439 0.00292969 3.4184 0.00292969 3.42242C0.00292969 3.42644 0.00292969 3.43046 0.00292969 3.4345C0.00292969 3.43853 0.00292969 3.44257 0.00292969 3.44662C0.00292969 3.45067 0.00292969 3.45472 0.00292969 3.45878C0.00292969 3.46285 0.00292969 3.46691 0.00292969 3.47099C0.00292969 3.47506 0.00292969 3.47915 0.00292969 3.48324C0.00292969 3.48733 0.00292969 3.49142 0.00292969 3.49553C0.00292969 3.49963 0.00292969 3.50374 0.00292969 3.50786C0.00292969 3.51197 0.00292969 3.5161 0.00292969 3.52023C0.00292969 3.52436 0.00292969 3.5285 0.00292969 3.53264C0.00292969 3.53678 0.00292969 3.54093 0.00292969 3.54509C0.00292969 3.54925 0.00292969 3.55341 0.00292969 3.55759C0.00292969 3.56176 0.00292969 3.56593 0.00292969 3.57012C0.00292969 3.5743 0.00292969 3.57849 0.00292969 3.58269C0.00292969 3.58689 0.00292969 3.59109 0.00292969 3.5953C0.00292969 3.59951 0.00292969 3.60373 0.00292969 3.60796C0.00292969 3.61218 0.00292969 3.61641 0.00292969 3.62065C0.00292969 3.62488 0.00292969 3.62913 0.00292969 3.63338C0.00292969 3.63763 0.00292969 3.64188 0.00292969 3.64615C0.00292969 3.65041 0.00292969 3.65468 0.00292969 3.65895C0.00292969 3.66323 0.00292969 3.66751 0.00292969 3.6718C0.00292969 3.67609 0.00292969 3.68038 0.00292969 3.68468C0.00292969 3.68898 0.00292969 3.69329 0.00292969 3.69761C0.00292969 3.70192 0.00292969 3.70624 0.00292969 3.71057C0.00292969 3.71489 0.00292969 3.71922 0.00292969 3.72356C0.00292969 3.7279 0.00292969 3.73225 0.00292969 3.7366C0.00292969 3.74095 0.00292969 3.74531 0.00292969 3.74967C0.00292969 3.75403 0.00292969 3.7584 0.00292969 3.76278C0.00292969 3.76715 0.00292969 3.77153 0.00292969 3.77592C0.00292969 3.78031 0.00292969 3.7847 0.00292969 3.7891C0.00292969 3.7935 0.00292969 3.79791 0.00292969 3.80232C0.00292969 3.80673 0.00292969 3.81115 0.00292969 3.81557C0.00292969 3.82 0.00292969 3.82443 0.00292969 3.82886C0.00292969 3.8333 0.00292969 3.83774 0.00292969 3.84219C0.00292969 3.84663 0.00292969 3.85109 0.00292969 3.85555C0.00292969 3.86001 0.00292969 3.86447 0.00292969 3.86894C0.00292969 3.87341 0.00292969 3.87789 0.00292969 3.88237C0.00292969 3.88685 0.00292969 3.89134 0.00292969 3.89584C0.00292969 3.90033 0.00292969 3.90483 0.00292969 3.90934C0.00292969 3.91384 0.00292969 3.91835 0.00292969 3.92287C0.00292969 3.92739 0.00292969 3.93191 0.00292969 3.93644C0.00292969 3.94096 0.00292969 3.9455 0.00292969 3.95004C0.00292969 3.95458 0.00292969 3.95912 0.00292969 3.96367C0.00292969 3.96822 0.00292969 3.97278 0.00292969 3.97734C0.00292969 3.9819 0.00292969 3.98647 0.00292969 3.99104C0.00292969 3.99561 0.00292969 4.00019 0.00292969 4.00477C0.00292969 4.00936 0.00292969 4.01394 0.00292969 4.01854C0.00292969 4.02313 0.00292969 4.02773 0.00292969 4.03234C0.00292969 4.03694 0.00292969 4.04155 0.00292969 4.04617C0.00292969 4.05078 0.00292969 4.0554 0.00292969 4.06003C0.00292969 4.06466 0.00292969 4.06929 0.00292969 4.07393C0.00292969 4.07856 0.00292969 4.0832 0.00292969 4.08785C0.00292969 4.0925 0.00292969 4.09715 0.00292969 4.10181C0.00292969 4.10647 0.00292969 4.11113 0.00292969 4.1158C0.00292969 4.12047 0.00292969 4.12514 0.00292969 4.12982C0.00292969 4.1345 0.00292969 4.13918 0.00292969 4.14387C0.00292969 4.14856 0.00292969 4.15325 0.00292969 4.15795C0.00292969 4.16265 0.00292969 4.16735 0.00292969 4.17206C0.00292969 4.17677 0.00292969 4.18148 0.00292969 4.1862C0.00292969 4.19092 0.00292969 4.19564 0.00292969 4.20037C0.00292969 4.2051 0.00292969 4.20983 0.00292969 4.21457C0.00292969 4.21931 0.00292969 4.22405 0.00292969 4.2288C0.00292969 4.23355 0.00292969 4.2383 0.00292969 4.24306C0.00292969 4.24782 0.00292969 4.25258 0.00292969 4.25735C0.00292969 4.26212 0.00292969 4.26689 0.00292969 4.27167C0.00292969 4.27644 0.00292969 4.28122 0.00292969 4.28601C0.00292969 4.2908 0.00292969 4.29559 0.00292969 4.30038C0.00292969 4.30518 0.00292969 4.30998 0.00292969 4.31479C0.00292969 4.31959 0.00292969 4.3244 0.00292969 4.32921C0.00292969 4.33403 0.00292969 4.33885 0.00292969 4.34367C0.00292969 4.3485 0.00292969 4.35332 0.00292969 4.35816C0.00292969 4.36299 0.00292969 4.36783 0.00292969 4.37267C0.00292969 4.37751 0.00292969 4.38236 0.00292969 4.38721C0.00292969 4.39206 0.00292969 4.39691 0.00292969 4.40177C0.00292969 4.40663 0.00292969 4.41149 0.00292969 4.41636C0.00292969 4.42123 0.00292969 4.4261 0.00292969 4.43098C0.00292969 4.43586 0.00292969 4.44074 0.00292969 4.44563C0.00292969 4.45051 0.00292969 4.4554 0.00292969 4.46029C0.00292969 4.46519 0.00292969 4.47009 0.00292969 4.47499C0.00292969 4.47989 0.00292969 4.4848 0.00292969 4.48971C0.00292969 4.49462 0.00292969 4.49954 0.00292969 4.50446C0.00292969 4.50938 0.00292969 4.5143 0.00292969 4.51923C0.00292969 4.52416 0.00292969 4.52909 0.00292969 4.53403C0.00292969 4.53896 0.00292969 4.5439 0.00292969 4.54885C0.00292969 4.55379 0.00292969 4.55874 0.00292969 4.56369C0.00292969 4.56864 0.00292969 4.5736 0.00292969 4.57856C0.00292969 4.58352 0.00292969 4.58848 0.00292969 4.59345C0.00292969 4.59842 0.00292969 4.60339 0.00292969 4.60837C0.00292969 4.61335 0.00292969 4.61833 0.00292969 4.62331C0.00292969 4.62829 0.00292969 4.63328 0.00292969 4.63827C0.00292969 4.64326 0.00292969 4.64826 0.00292969 4.65326C0.00292969 4.65826 0.00292969 4.66326 0.00292969 4.66827C0.00292969 4.67327 0.00292969 4.67829 0.00292969 4.6833C0.00292969 4.68831 0.00292969 4.69333 0.00292969 4.69835C0.00292969 4.70338 0.00292969 4.7084 0.00292969 4.71343C0.00292969 4.71846 0.00292969 4.72349 0.00292969 4.72853C0.00292969 4.73356 0.00292969 4.7386 0.00292969 4.74365C0.00292969 4.74869 0.00292969 4.75374 0.00292969 4.75879C0.00292969 4.76384 0.00292969 4.76889 0.00292969 4.77395C0.00292969 4.77901 0.00292969 4.78407 0.00292969 4.78914C0.00292969 4.7942 0.00292969 4.79927 0.00292969 4.80434C0.00292969 4.80941 0.00292969 4.81449 0.00292969 4.81956C0.00292969 4.82464 0.00292969 4.82973 0.00292969 4.83481C0.00292969 4.8399 0.00292969 4.84498 0.00292969 4.85008C0.00292969 4.85517 0.00292969 4.86026 0.00292969 4.86536C0.00292969 4.87046 0.00292969 4.87556 0.00292969 4.88067C0.00292969 4.88577 0.00292969 4.89088 0.00292969 4.89599C0.00292969 4.9011 0.00292969 4.90622 0.00292969 4.91134C0.00292969 4.91645 0.00292969 4.92157 0.00292969 4.9267C0.00292969 4.93182 0.00292969 4.93695 0.00292969 4.94208C0.00292969 4.94721 0.00292969 4.95234 0.00292969 4.95748C0.00292969 4.96262 0.00292969 4.96776 0.00292969 4.9729C0.00292969 4.97804 0.00292969 4.98319 0.00292969 4.98834C0.00292969 4.99349 0.00292969 4.99864 0.00292969 5.00379C0.00292969 5.00895 0.00292969 5.01411 0.00292969 5.01927C0.00292969 5.02443 0.00292969 5.02959 0.00292969 5.03476C0.00292969 5.03992 0.00292969 5.04509 0.00292969 5.05026C0.00292969 5.05544 0.00292969 5.06061 0.00292969 5.06579C0.00292969 5.07097 0.00292969 5.07615 0.00292969 5.08133C0.00292969 5.08652 0.00292969 5.0917 0.00292969 5.09689C0.00292969 5.10208 0.00292969 5.10727 0.00292969 5.11247C0.00292969 5.11766 0.00292969 5.12286 0.00292969 5.12806C0.00292969 5.13326 0.00292969 5.13846 0.00292969 5.14366C0.00292969 5.14887 0.00292969 5.15408 0.00292969 5.15929C0.00292969 5.1645 0.00292969 5.16971 0.00292969 5.17493C0.00292969 5.18014 0.00292969 5.18536 0.00292969 5.19058C0.00292969 5.1958 0.00292969 5.20102 0.00292969 5.20625C0.00292969 5.21147 0.00292969 5.2167 0.00292969 5.22193C0.00292969 5.22716 0.00292969 5.2324 0.00292969 5.23763C0.00292969 5.24287 0.00292969 5.2481 0.00292969 5.25334C0.00292969 5.25858 0.00292969 5.26383 0.00292969 5.26907C0.00292969 5.27432 0.00292969 5.27956 0.00292969 5.28481C0.00292969 5.29006 0.00292969 5.29531 0.00292969 5.30057C0.00292969 5.30582 0.00292969 5.31108 0.00292969 5.31634C0.00292969 5.3216 0.00292969 5.32686 0.00292969 5.33212C0.00292969 5.33738 0.00292969 5.34265 0.00292969 5.34792C0.00292969 5.35318 0.00292969 5.35845 0.00292969 5.36372C0.00292969 5.369 0.00292969 5.37427 0.00292969 5.37955C0.00292969 5.38482 0.00292969 5.3901 0.00292969 5.39538C0.00292969 5.40066 0.00292969 5.40594 0.00292969 5.41122C0.00292969 5.41651 0.00292969 5.42179 0.00292969 5.42708C0.00292969 5.43237 0.00292969 5.43766 0.00292969 5.44295C0.00292969 5.44824 0.00292969 5.45354 0.00292969 5.45883C0.00292969 5.46413 0.00292969 5.46943 0.00292969 5.47473C0.00292969 5.48003 0.00292969 5.48533 0.00292969 5.49063C0.00292969 5.49593 0.00292969 5.50124 0.00292969 5.50655C0.00292969 5.51185 0.00292969 5.51716 0.00292969 5.52247C0.00292969 5.52778 0.00292969 5.53309 0.00292969 5.53841C0.00292969 5.54372 0.00292969 5.54904 0.00292969 5.55435C0.00292969 5.55967 0.00292969 5.56499 0.00292969 5.57031C0.00292969 5.57563 0.00292969 5.58095 0.00292969 5.58628C0.00292969 5.5916 0.00292969 5.59693 0.00292969 5.60225C0.00292969 5.60758 0.00292969 5.61291 0.00292969 5.61824C0.00292969 5.62357 0.00292969 5.6289 0.00292969 5.63423C0.00292969 5.63957 0.00292969 5.6449 0.00292969 5.65024C0.00292969 5.65558 0.00292969 5.66091 0.00292969 5.66625C0.00292969 5.67159 0.00292969 5.67693 0.00292969 5.68227C0.00292969 5.68761 0.00292969 5.69296 0.00292969 5.6983C0.00292969 5.70365 0.00292969 5.70899 0.00292969 5.71434C0.00292969 5.71969 0.00292969 5.72504 0.00292969 5.73039C0.00292969 5.73574 0.00292969 5.74109 0.00292969 5.74644C0.00292969 5.75179 0.00292969 5.75715 0.00292969 5.7625C0.00292969 5.76785 0.00292969 5.77321 0.00292969 5.77857C0.00292969 5.78393 0.00292969 5.78928 0.00292969 5.79464C0.00292969 5.8 0.00292969 5.80536 0.00292969 5.81073C0.00292969 5.81609 0.00292969 5.82145 0.00292969 5.82681C0.00292969 5.83218 0.00292969 5.83754 0.00292969 5.84291C0.00292969 5.84827 0.00292969 5.85364 0.00292969 5.85901C0.00292969 5.86438 0.00292969 5.86975 0.00292969 5.87512C0.00292969 5.88049 0.00292969 5.88586 0.00292969 5.89123C0.00292969 5.8966 0.00292969 5.90197 0.00292969 5.90735C0.00292969 5.91272 0.00292969 5.9181 0.00292969 5.92347C0.00292969 5.92885 0.00292969 5.93422 0.00292969 5.9396C0.00292969 5.94498 0.00292969 5.95035 0.00292969 5.95573C0.00292969 5.96111 0.00292969 5.96649 0.00292969 5.97187C0.00292969 5.97725 0.00292969 5.98263 0.00292969 5.98801C0.00292969 5.99339 0.00292969 5.99878 0.00292969 6.00416C0.00292969 6.00954 0.00292969 6.01493 0.00292969 6.02031C0.00292969 6.02569 0.00292969 6.03108 0.00292969 6.03646C0.00292969 6.04185 0.00292969 6.04724 0.00292969 6.05262C0.00292969 6.05801 0.00292969 6.0634 0.00292969 6.06878C0.00292969 6.07417 0.00292969 6.07956 0.00292969 6.08495C0.00292969 6.09033 0.00292969 6.09572 0.00292969 6.10111C0.00292969 6.1065 0.00292969 6.11189 0.00292969 6.11728C0.00292969 6.12267 0.00292969 6.12806 0.00292969 6.13346C0.00292969 6.13885 0.00292969 6.14424 0.00292969 6.14963C0.00292969 6.15502 0.00292969 6.16041 0.00292969 6.16581C0.00292969 6.1712 0.00292969 6.17659 0.00292969 6.18198C0.00292969 6.18738 0.00292969 6.19277 0.00292969 6.19816C0.00292969 6.20356 0.00292969 6.20895 0.00292969 6.21434C0.00292969 6.21974 0.00292969 6.22513 0.00292969 6.23053C0.00292969 6.23592 0.00292969 6.24131 0.00292969 6.24671C0.00292969 6.2521 0.00292969 6.2575 0.00292969 6.26289C0.00292969 6.26829 0.00292969 6.27368 0.00292969 6.27908C0.00292969 6.28447 0.00292969 6.28987 0.00292969 6.29526C0.00292969 6.30066 0.00292969 6.30605 0.00292969 6.31145C0.00292969 6.31684 0.00292969 6.32224 0.00292969 6.32763C0.00292969 6.33302 0.00292969 6.33842 0.00292969 6.34381C0.00292969 6.34921 0.00292969 6.3546 0.00292969 6.36C0.00292969 6.36539 0.00292969 6.37079 0.00292969 6.37618C0.00292969 6.38157 0.00292969 6.38697 0.00292969 6.39236C0.00292969 6.39775 0.00292969 6.40315 0.00292969 6.40854C0.00292969 6.41393 0.00292969 6.41933 0.00292969 6.42472C0.00292969 6.43011 0.00292969 6.4355 0.00292969 6.4409C0.00292969 6.44629 0.00292969 6.45168 0.00292969 6.45707C0.00292969 6.46246 0.00292969 6.46785 0.00292969 6.47324C0.00292969 6.47863 0.00292969 6.48402 0.00292969 6.48941C0.00292969 6.4948 0.00292969 6.50019 0.00292969 6.50558C0.00292969 6.51097 0.00292969 6.51636 0.00292969 6.52174C0.00292969 6.52713 0.00292969 6.53252 0.00292969 6.53791C0.00292969 6.54329 0.00292969 6.54868 0.00292969 6.55406C0.00292969 6.55945 0.00292969 6.56483 0.00292969 6.57022C0.00292969 6.5756 0.00292969 6.58099 0.00292969 6.58637C0.00292969 6.59175 0.00292969 6.59714 0.00292969 6.60252C0.00292969 6.6079 0.00292969 6.61328 0.00292969 6.61866C0.00292969 6.62404 0.00292969 6.62942 0.00292969 6.6348C0.00292969 6.64018 0.00292969 6.64556 0.00292969 6.65093C0.00292969 6.65631 0.00292969 6.66169 0.00292969 6.66706C0.00292969 6.67244 0.00292969 6.67781 0.00292969 6.68319C0.00292969 6.68856 0.00292969 6.69393 0.00292969 6.69931C0.00292969 6.70468 0.00292969 6.71005 0.00292969 6.71542C0.00292969 6.72079 0.00292969 6.72616 0.00292969 6.73153C0.00292969 6.7369 0.00292969 6.74226 0.00292969 6.74763C0.00292969 6.753 0.00292969 6.75836 0.00292969 6.76373C0.00292969 6.76909 0.00292969 6.77445 0.00292969 6.77982C0.00292969 6.78518 0.00292969 6.79054 0.00292969 6.7959C0.00292969 6.80126 0.00292969 6.80662 0.00292969 6.81197C0.00292969 6.81733 0.00292969 6.82269 0.00292969 6.82804C0.00292969 6.8334 0.00292969 6.83875 0.00292969 6.84411C0.00292969 6.84946 0.00292969 6.85481 0.00292969 6.86016C0.00292969 6.86551 0.00292969 6.87086 0.00292969 6.87621C0.00292969 6.88156 0.00292969 6.8869 0.00292969 6.89225C0.00292969 6.89759 0.00292969 6.90294 0.00292969 6.90828C0.00292969 6.91362 0.00292969 6.91896 0.00292969 6.9243C0.00292969 6.92964 0.00292969 6.93498 0.00292969 6.94031C0.00292969 6.94565 0.00292969 6.95099 0.00292969 6.95632C0.00292969 6.96165 0.00292969 6.96699 0.00292969 6.97232C0.00292969 6.97765 0.00292969 6.98298 0.00292969 6.9883C0.00292969 6.99363 0.00292969 6.99896 0.00292969 7.00428C0.00292969 7.00961 0.00292969 7.01493 0.00292969 7.02025C0.00292969 7.02557 0.00292969 7.03089 0.00292969 7.03621C0.00292969 7.04153 0.00292969 7.04684 0.00292969 7.05216C0.00292969 7.05747 0.00292969 7.06278 0.00292969 7.0681C0.00292969 7.07341 0.00292969 7.07872 0.00292969 7.08402C0.00292969 7.08933 0.00292969 7.09464 0.00292969 7.09994C0.00292969 7.10524 0.00292969 7.11055 0.00292969 7.11585C0.00292969 7.12115 0.00292969 7.12644 0.00292969 7.13174C0.00292969 7.13704 0.00292969 7.14233 0.00292969 7.14762C0.00292969 7.15292 0.00292969 7.15821 0.00292969 7.1635C0.00292969 7.16879 0.00292969 7.17407 0.00292969 7.17936C0.00292969 7.18464 0.00292969 7.18992 0.00292969 7.1952C0.00292969 7.20049 0.00292969 7.20576 0.00292969 7.21104C0.00292969 7.21632 0.00292969 7.22159 0.00292969 7.22686C0.00292969 7.23214 0.00292969 7.23741 0.00292969 7.24267C0.00292969 7.24794 0.00292969 7.25321 0.00292969 7.25847C0.00292969 7.26374 0.00292969 7.269 0.00292969 7.27426C0.00292969 7.27952 0.00292969 7.28477 0.00292969 7.29003C0.00292969 7.29528 0.00292969 7.30054 0.00292969 7.30579C0.00292969 7.31104 0.00292969 7.31628 0.00292969 7.32153C0.00292969 7.32678 0.00292969 7.33202 0.00292969 7.33726C0.00292969 7.3425 0.00292969 7.34774 0.00292969 7.35298C0.00292969 7.35821 0.00292969 7.36345 0.00292969 7.36868C0.00292969 7.37391 0.00292969 7.37914 0.00292969 7.38436C0.00292969 7.38959 0.00292969 7.39481 0.00292969 7.40004C0.00292969 7.40526 0.00292969 7.41048 0.00292969 7.41569C0.00292969 7.42091 0.00292969 7.42612 0.00292969 7.43133C0.00292969 7.43654 0.00292969 7.44175 0.00292969 7.44696C0.00292969 7.45217 0.00292969 7.45737 0.00292969 7.46257C0.00292969 7.46777 0.00292969 7.47297 0.00292969 7.47816C0.00292969 7.48336 0.00292969 7.48855 0.00292969 7.49374C0.00292969 7.49893 0.00292969 7.50412 0.00292969 7.5093C0.00292969 7.51449 0.00292969 7.51967 0.00292969 7.52485C0.00292969 7.53003 0.00292969 7.5352 0.00292969 7.54038C0.00292969 7.54555 0.00292969 7.55072 0.00292969 7.55589C0.00292969 7.56105 0.00292969 7.56622 0.00292969 7.57138C0.00292969 7.57654 0.00292969 7.5817 0.00292969 7.58686C0.00292969 7.59201 0.00292969 7.59717 0.00292969 7.60231C0.00292969 7.60746 0.00292969 7.61261 0.00292969 7.61776C0.00292969 7.6229 0.00292969 7.62804 0.00292969 7.63318C0.00292969 7.63832 0.00292969 7.64345 0.00292969 7.64858C0.00292969 7.65371 0.00292969 7.65884 0.00292969 7.66397C0.00292969 7.66909 0.00292969 7.67421 0.00292969 7.67933C0.00292969 7.68445 0.00292969 7.68957 0.00292969 7.69468C0.00292969 7.69979 0.00292969 7.7049 0.00292969 7.71001C0.00292969 7.71512 0.00292969 7.72022 0.00292969 7.72532C0.00292969 7.73042 0.00292969 7.73551 0.00292969 7.74061C0.00292969 7.7457 0.00292969 7.75079 0.00292969 7.75588C0.00292969 7.76096 0.00292969 7.76605 0.00292969 7.77113C0.00292969 7.77621 0.00292969 7.78128 0.00292969 7.78635C0.00292969 7.79143 0.00292969 7.7965 0.00292969 7.80156C0.00292969 7.80663 0.00292969 7.81169 0.00292969 7.81675C0.00292969 7.82181 0.00292969 7.82686 0.00292969 7.83192C0.00292969 7.83697 0.00292969 7.84202 0.00292969 7.84706C0.00292969 7.85211 0.00292969 7.85715 0.00292969 7.86219C0.00292969 7.86722 0.00292969 7.87226 0.00292969 7.87729C0.00292969 7.88232 0.00292969 7.88734 0.00292969 7.89237C0.00292969 7.89739 0.00292969 7.90241 0.00292969 7.90742C0.00292969 7.91244 0.00292969 7.91745 0.00292969 7.92246C0.00292969 7.92747 0.00292969 7.93247 0.00292969 7.93747C0.00292969 7.94247 0.00292969 7.94747 0.00292969 7.95246C0.00292969 7.95746 0.00292969 7.96245 0.00292969 7.96743C0.00292969 7.97242 0.00292969 7.9774 0.00292969 7.98238C0.00292969 7.98735 0.00292969 7.99233 0.00292969 7.9973C0.00292969 8.00227 0.00292969 8.00723 0.00292969 8.01219C0.00292969 8.01716 0.00292969 8.02211 0.00292969 8.02707C0.00292969 8.03202 0.00292969 8.03697 0.00292969 8.04192C0.00292969 8.04686 0.00292969 8.0518 0.00292969 8.05674C0.00292969 8.06168 0.00292969 8.06661 0.00292969 8.07154C0.00292969 8.07647 0.00292969 8.0814 0.00292969 8.08632C0.00292969 8.09124 0.00292969 8.09615 0.00292969 8.10107C0.00292969 8.10598 0.00292969 8.11089 0.00292969 8.11579C0.00292969 8.1207 0.00292969 8.1256 0.00292969 8.13049C0.00292969 8.13539 0.00292969 8.14028 0.00292969 8.14517C0.00292969 8.15005 0.00292969 8.15494 0.00292969 8.15982C0.00292969 8.16469 0.00292969 8.16957 0.00292969 8.17444C0.00292969 8.17931 0.00292969 8.18417 0.00292969 8.18904C0.00292969 8.1939 0.00292969 8.19875 0.00292969 8.20361C0.00292969 8.20846 0.00292969 8.2133 0.00292969 8.21815C0.00292969 8.22299 0.00292969 8.22783 0.00292969 8.23266C0.00292969 8.2375 0.00292969 8.24233 0.00292969 8.24715C0.00292969 8.25198 0.00292969 8.2568 0.00292969 8.26162C0.00292969 8.26643 0.00292969 8.27124 0.00292969 8.27605C0.00292969 8.28086 0.00292969 8.28566 0.00292969 8.29046C0.00292969 8.29525 0.00292969 8.30005 0.00292969 8.30483C0.00292969 8.30962 0.00292969 8.31441 0.00292969 8.31918C0.00292969 8.32396 0.00292969 8.32874 0.00292969 8.33351C0.00292969 8.33828 0.00292969 8.34304 0.00292969 8.3478C0.00292969 8.35256 0.00292969 8.35731 0.00292969 8.36206C0.00292969 8.36681 0.00292969 8.37156 0.00292969 8.3763C0.00292969 8.38104 0.00292969 8.38577 0.00292969 8.3905C0.00292969 8.39523 0.00292969 8.39996 0.00292969 8.40468C0.00292969 8.4094 0.00292969 8.41412 0.00292969 8.41883C0.00292969 8.42354 0.00292969 8.42824 0.00292969 8.43294C0.00292969 8.43764 0.00292969 8.44234 0.00292969 8.44703C0.00292969 8.45172 0.00292969 8.4564 0.00292969 8.46108C0.00292969 8.46576 0.00292969 8.47044 0.00292969 8.47511C0.00292969 8.47978 0.00292969 8.48444 0.00292969 8.4891C0.00292969 8.49376 0.00292969 8.49842 0.00292969 8.50307C0.00292969 8.50772 0.00292969 8.51236 0.00292969 8.517C0.00292969 8.52164 0.00292969 8.52627 0.00292969 8.5309C0.00292969 8.53553 0.00292969 8.54015 0.00292969 8.54477C0.00292969 8.54939 0.00292969 8.554 0.00292969 8.5586C0.00292969 8.56321 0.00292969 8.56781 0.00292969 8.57241C0.00292969 8.577 0.00292969 8.5816 0.00292969 8.58618C0.00292969 8.59077 0.00292969 8.59535 0.00292969 8.59992C0.00292969 8.60449 0.00292969 8.60906 0.00292969 8.61363C0.00292969 8.61819 0.00292969 8.62275 0.00292969 8.6273C0.00292969 8.63185 0.00292969 8.6364 0.00292969 8.64094C0.00292969 8.64548 0.00292969 8.65002 0.00292969 8.65455C0.00292969 8.65908 0.00292969 8.6636 0.00292969 8.66812C0.00292969 8.67264 0.00292969 8.67715 0.00292969 8.68166C0.00292969 8.68617 0.00292969 8.69067 0.00292969 8.69516C0.00292969 8.69966 0.00292969 8.70415 0.00292969 8.70863C0.00292969 8.71312 0.00292969 8.7176 0.00292969 8.72207C0.00292969 8.72654 0.00292969 8.73101 0.00292969 8.73547C0.00292969 8.73993 0.00292969 8.74439 0.00292969 8.74884C0.00292969 8.75329 0.00292969 8.75773 0.00292969 8.76217C0.00292969 8.76661 0.00292969 8.77104 0.00292969 8.77546C0.00292969 8.77989 0.00292969 8.78431 0.00292969 8.78872C0.00292969 8.79314 0.00292969 8.79755 0.00292969 8.80195C0.00292969 8.80635 0.00292969 8.81075 0.00292969 8.81514C0.00292969 8.81952 0.00292969 8.82391 0.00292969 8.82829C0.00292969 8.83266 0.00292969 8.83704 0.00292969 8.8414C0.00292969 8.84577 0.00292969 8.85013 0.00292969 8.85448C0.00292969 8.85883 0.00292969 8.86318 0.00292969 8.86752C0.00292969 8.87186 0.00292969 8.8762 0.00292969 8.88052C0.00292969 8.88485 0.00292969 8.88917 0.00292969 8.89349C0.00292969 8.89781 0.00292969 8.90212 0.00292969 8.90642C0.00292969 8.91072 0.00292969 8.91502 0.00292969 8.91931C0.00292969 8.9236 0.00292969 8.92788 0.00292969 8.93216C0.00292969 8.93644 0.00292969 8.94071 0.00292969 8.94498C0.00292969 8.94924 0.00292969 8.9535 0.00292969 8.95775C0.00292969 8.96201 0.00292969 8.96625 0.00292969 8.97049C0.00292969 8.97473 0.00292969 8.97896 0.00292969 8.98319C0.00292969 8.98741 0.00292969 8.99163 0.00292969 8.99585C0.00292969 9.00006 0.00292969 9.00427 0.00292969 9.00847C0.00292969 9.01267 0.00292969 9.01686 0.00292969 9.02105C0.00292969 9.02523 0.00292969 9.02941 0.00292969 9.03359C0.00292969 9.03776 0.00292969 9.04193 0.00292969 9.04609C0.00292969 9.05025 0.00292969 9.0544 0.00292969 9.05855C0.00292969 9.06269 0.00292969 9.06683 0.00292969 9.07097C0.00292969 9.0751 0.00292969 9.07922 0.00292969 9.08334C0.00292969 9.08746 0.00292969 9.09158 0.00292969 9.09568C0.00292969 9.09979 0.00292969 9.10389 0.00292969 9.10798C0.00292969 9.11207 0.00292969 9.11615 0.00292969 9.12023C0.00292969 9.12431 0.00292969 9.12838 0.00292969 9.13245C0.00292969 9.13651 0.00292969 9.14057 0.00292969 9.14462C0.00292969 9.14867 0.00292969 9.15271 0.00292969 9.15675C0.00292969 9.16078 0.00292969 9.16481 0.00292969 9.16883C0.00292969 9.17286 0.00292969 9.17687 0.00292969 9.18088C0.00292969 9.18489 0.00292969 9.18889 0.00292969 9.19288C0.00292969 9.19688 0.00292969 9.20086 0.00292969 9.20484C0.00292969 9.20882 0.00292969 9.21279 0.00292969 9.21676C0.00292969 9.22072 0.00292969 9.22468 0.00292969 9.22863C0.00292969 9.23258 0.00292969 9.23652 0.00292969 9.24046C0.00292969 9.24439 0.00292969 9.24832 0.00292969 9.25224C0.00292969 9.25617 0.00292969 9.26008 0.00292969 9.26399C0.00292969 9.26789 0.00292969 9.27179 0.00292969 9.27568C0.00292969 9.27957 0.00292969 9.28346 0.00292969 9.28734C0.00292969 9.29121 0.00292969 9.29508 0.00292969 9.29894C0.00292969 9.3028 0.00292969 9.30666 0.00292969 9.31051C0.00292969 9.31435 0.00292969 9.31819 0.00292969 9.32202C0.00292969 9.32586 0.00292969 9.32968 0.00292969 9.3335C0.00292969 9.33731 0.00292969 9.34112 0.00292969 9.34492C0.00292969 9.34873 0.00292969 9.35252 0.00292969 9.35631C0.00292969 9.36009 0.00292969 9.36387 0.00292969 9.36764C0.00292969 9.37141 0.00292969 9.37518 0.00292969 9.37893C0.00292969 9.38269 0.00292969 9.38643 0.00292969 9.39017C0.00292969 9.39391 0.00292969 9.39764 0.00292969 9.40137C0.00292969 9.40509 0.00292969 9.40881 0.00292969 9.41252C0.00292969 9.41623 0.00292969 9.41993 0.00292969 9.42362C0.00292969 9.42731 0.00292969 9.431 0.00292969 9.43468C0.00292969 9.43835 0.00292969 9.44202 0.00292969 9.44568C0.00292969 9.44934 0.00292969 9.453 0.00292969 9.45664C0.00292969 9.46029 0.00292969 9.46393 0.00292969 9.46756C0.00292969 9.47118 0.00292969 9.4748 0.00292969 9.47842C0.00292969 9.48203 0.00292969 9.48564 0.00292969 9.48923C0.00292969 9.49283 0.00292969 9.49642 0.00292969 9.5H1.00293C1.00293 9.49642 1.00293 9.49283 1.00293 9.48923C1.00293 9.48564 1.00293 9.48203 1.00293 9.47842C1.00293 9.4748 1.00293 9.47118 1.00293 9.46756C1.00293 9.46393 1.00293 9.46029 1.00293 9.45664C1.00293 9.453 1.00293 9.44934 1.00293 9.44568C1.00293 9.44202 1.00293 9.43835 1.00293 9.43468C1.00293 9.431 1.00293 9.42731 1.00293 9.42362C1.00293 9.41993 1.00293 9.41623 1.00293 9.41252C1.00293 9.40881 1.00293 9.40509 1.00293 9.40137C1.00293 9.39764 1.00293 9.39391 1.00293 9.39017C1.00293 9.38643 1.00293 9.38269 1.00293 9.37893C1.00293 9.37518 1.00293 9.37141 1.00293 9.36764C1.00293 9.36387 1.00293 9.36009 1.00293 9.35631C1.00293 9.35252 1.00293 9.34873 1.00293 9.34492C1.00293 9.34112 1.00293 9.33731 1.00293 9.3335C1.00293 9.32968 1.00293 9.32586 1.00293 9.32202C1.00293 9.31819 1.00293 9.31435 1.00293 9.31051C1.00293 9.30666 1.00293 9.3028 1.00293 9.29894C1.00293 9.29508 1.00293 9.29121 1.00293 9.28734C1.00293 9.28346 1.00293 9.27957 1.00293 9.27568C1.00293 9.27179 1.00293 9.26789 1.00293 9.26399C1.00293 9.26008 1.00293 9.25617 1.00293 9.25224C1.00293 9.24832 1.00293 9.24439 1.00293 9.24046C1.00293 9.23652 1.00293 9.23258 1.00293 9.22863C1.00293 9.22468 1.00293 9.22072 1.00293 9.21676C1.00293 9.21279 1.00293 9.20882 1.00293 9.20484C1.00293 9.20086 1.00293 9.19688 1.00293 9.19288C1.00293 9.18889 1.00293 9.18489 1.00293 9.18088C1.00293 9.17687 1.00293 9.17286 1.00293 9.16883C1.00293 9.16481 1.00293 9.16078 1.00293 9.15675C1.00293 9.15271 1.00293 9.14867 1.00293 9.14462C1.00293 9.14057 1.00293 9.13651 1.00293 9.13245C1.00293 9.12838 1.00293 9.12431 1.00293 9.12023C1.00293 9.11615 1.00293 9.11207 1.00293 9.10798C1.00293 9.10389 1.00293 9.09979 1.00293 9.09568C1.00293 9.09158 1.00293 9.08746 1.00293 9.08334C1.00293 9.07922 1.00293 9.0751 1.00293 9.07097C1.00293 9.06683 1.00293 9.06269 1.00293 9.05855C1.00293 9.0544 1.00293 9.05025 1.00293 9.04609C1.00293 9.04193 1.00293 9.03776 1.00293 9.03359C1.00293 9.02941 1.00293 9.02523 1.00293 9.02105C1.00293 9.01686 1.00293 9.01267 1.00293 9.00847C1.00293 9.00427 1.00293 9.00006 1.00293 8.99585C1.00293 8.99163 1.00293 8.98741 1.00293 8.98319C1.00293 8.97896 1.00293 8.97473 1.00293 8.97049C1.00293 8.96625 1.00293 8.96201 1.00293 8.95775C1.00293 8.9535 1.00293 8.94924 1.00293 8.94498C1.00293 8.94071 1.00293 8.93644 1.00293 8.93216C1.00293 8.92788 1.00293 8.9236 1.00293 8.91931C1.00293 8.91502 1.00293 8.91072 1.00293 8.90642C1.00293 8.90212 1.00293 8.89781 1.00293 8.89349C1.00293 8.88917 1.00293 8.88485 1.00293 8.88052C1.00293 8.8762 1.00293 8.87186 1.00293 8.86752C1.00293 8.86318 1.00293 8.85883 1.00293 8.85448C1.00293 8.85013 1.00293 8.84577 1.00293 8.8414C1.00293 8.83704 1.00293 8.83266 1.00293 8.82829C1.00293 8.82391 1.00293 8.81952 1.00293 8.81514C1.00293 8.81075 1.00293 8.80635 1.00293 8.80195C1.00293 8.79755 1.00293 8.79314 1.00293 8.78872C1.00293 8.78431 1.00293 8.77989 1.00293 8.77546C1.00293 8.77104 1.00293 8.76661 1.00293 8.76217C1.00293 8.75773 1.00293 8.75329 1.00293 8.74884C1.00293 8.74439 1.00293 8.73993 1.00293 8.73547C1.00293 8.73101 1.00293 8.72654 1.00293 8.72207C1.00293 8.7176 1.00293 8.71312 1.00293 8.70863C1.00293 8.70415 1.00293 8.69966 1.00293 8.69516C1.00293 8.69067 1.00293 8.68617 1.00293 8.68166C1.00293 8.67715 1.00293 8.67264 1.00293 8.66812C1.00293 8.6636 1.00293 8.65908 1.00293 8.65455C1.00293 8.65002 1.00293 8.64548 1.00293 8.64094C1.00293 8.6364 1.00293 8.63185 1.00293 8.6273C1.00293 8.62275 1.00293 8.61819 1.00293 8.61363C1.00293 8.60906 1.00293 8.60449 1.00293 8.59992C1.00293 8.59535 1.00293 8.59077 1.00293 8.58618C1.00293 8.5816 1.00293 8.577 1.00293 8.57241C1.00293 8.56781 1.00293 8.56321 1.00293 8.5586C1.00293 8.554 1.00293 8.54939 1.00293 8.54477C1.00293 8.54015 1.00293 8.53553 1.00293 8.5309C1.00293 8.52627 1.00293 8.52164 1.00293 8.517C1.00293 8.51236 1.00293 8.50772 1.00293 8.50307C1.00293 8.49842 1.00293 8.49376 1.00293 8.4891C1.00293 8.48444 1.00293 8.47978 1.00293 8.47511C1.00293 8.47044 1.00293 8.46576 1.00293 8.46108C1.00293 8.4564 1.00293 8.45172 1.00293 8.44703C1.00293 8.44234 1.00293 8.43764 1.00293 8.43294C1.00293 8.42824 1.00293 8.42354 1.00293 8.41883C1.00293 8.41412 1.00293 8.4094 1.00293 8.40468C1.00293 8.39996 1.00293 8.39523 1.00293 8.3905C1.00293 8.38577 1.00293 8.38104 1.00293 8.3763C1.00293 8.37156 1.00293 8.36681 1.00293 8.36206C1.00293 8.35731 1.00293 8.35256 1.00293 8.3478C1.00293 8.34304 1.00293 8.33828 1.00293 8.33351C1.00293 8.32874 1.00293 8.32396 1.00293 8.31918C1.00293 8.31441 1.00293 8.30962 1.00293 8.30483C1.00293 8.30005 1.00293 8.29525 1.00293 8.29046C1.00293 8.28566 1.00293 8.28086 1.00293 8.27605C1.00293 8.27124 1.00293 8.26643 1.00293 8.26162C1.00293 8.2568 1.00293 8.25198 1.00293 8.24715C1.00293 8.24233 1.00293 8.2375 1.00293 8.23266C1.00293 8.22783 1.00293 8.22299 1.00293 8.21815C1.00293 8.2133 1.00293 8.20846 1.00293 8.20361C1.00293 8.19875 1.00293 8.1939 1.00293 8.18904C1.00293 8.18417 1.00293 8.17931 1.00293 8.17444C1.00293 8.16957 1.00293 8.16469 1.00293 8.15982C1.00293 8.15494 1.00293 8.15005 1.00293 8.14517C1.00293 8.14028 1.00293 8.13539 1.00293 8.13049C1.00293 8.1256 1.00293 8.1207 1.00293 8.11579C1.00293 8.11089 1.00293 8.10598 1.00293 8.10107C1.00293 8.09615 1.00293 8.09124 1.00293 8.08632C1.00293 8.0814 1.00293 8.07647 1.00293 8.07154C1.00293 8.06661 1.00293 8.06168 1.00293 8.05674C1.00293 8.0518 1.00293 8.04686 1.00293 8.04192C1.00293 8.03697 1.00293 8.03202 1.00293 8.02707C1.00293 8.02211 1.00293 8.01716 1.00293 8.01219C1.00293 8.00723 1.00293 8.00227 1.00293 7.9973C1.00293 7.99233 1.00293 7.98735 1.00293 7.98238C1.00293 7.9774 1.00293 7.97242 1.00293 7.96743C1.00293 7.96245 1.00293 7.95746 1.00293 7.95246C1.00293 7.94747 1.00293 7.94247 1.00293 7.93747C1.00293 7.93247 1.00293 7.92747 1.00293 7.92246C1.00293 7.91745 1.00293 7.91244 1.00293 7.90742C1.00293 7.90241 1.00293 7.89739 1.00293 7.89237C1.00293 7.88734 1.00293 7.88232 1.00293 7.87729C1.00293 7.87226 1.00293 7.86722 1.00293 7.86219C1.00293 7.85715 1.00293 7.85211 1.00293 7.84706C1.00293 7.84202 1.00293 7.83697 1.00293 7.83192C1.00293 7.82686 1.00293 7.82181 1.00293 7.81675C1.00293 7.81169 1.00293 7.80663 1.00293 7.80156C1.00293 7.7965 1.00293 7.79143 1.00293 7.78635C1.00293 7.78128 1.00293 7.77621 1.00293 7.77113C1.00293 7.76605 1.00293 7.76096 1.00293 7.75588C1.00293 7.75079 1.00293 7.7457 1.00293 7.74061C1.00293 7.73551 1.00293 7.73042 1.00293 7.72532C1.00293 7.72022 1.00293 7.71512 1.00293 7.71001C1.00293 7.7049 1.00293 7.69979 1.00293 7.69468C1.00293 7.68957 1.00293 7.68445 1.00293 7.67933C1.00293 7.67421 1.00293 7.66909 1.00293 7.66397C1.00293 7.65884 1.00293 7.65371 1.00293 7.64858C1.00293 7.64345 1.00293 7.63832 1.00293 7.63318C1.00293 7.62804 1.00293 7.6229 1.00293 7.61776C1.00293 7.61261 1.00293 7.60746 1.00293 7.60231C1.00293 7.59717 1.00293 7.59201 1.00293 7.58686C1.00293 7.5817 1.00293 7.57654 1.00293 7.57138C1.00293 7.56622 1.00293 7.56105 1.00293 7.55589C1.00293 7.55072 1.00293 7.54555 1.00293 7.54038C1.00293 7.5352 1.00293 7.53003 1.00293 7.52485C1.00293 7.51967 1.00293 7.51449 1.00293 7.5093C1.00293 7.50412 1.00293 7.49893 1.00293 7.49374C1.00293 7.48855 1.00293 7.48336 1.00293 7.47816C1.00293 7.47297 1.00293 7.46777 1.00293 7.46257C1.00293 7.45737 1.00293 7.45217 1.00293 7.44696C1.00293 7.44175 1.00293 7.43654 1.00293 7.43133C1.00293 7.42612 1.00293 7.42091 1.00293 7.41569C1.00293 7.41048 1.00293 7.40526 1.00293 7.40004C1.00293 7.39481 1.00293 7.38959 1.00293 7.38436C1.00293 7.37914 1.00293 7.37391 1.00293 7.36868C1.00293 7.36345 1.00293 7.35821 1.00293 7.35298C1.00293 7.34774 1.00293 7.3425 1.00293 7.33726C1.00293 7.33202 1.00293 7.32678 1.00293 7.32153C1.00293 7.31628 1.00293 7.31104 1.00293 7.30579C1.00293 7.30054 1.00293 7.29528 1.00293 7.29003C1.00293 7.28477 1.00293 7.27952 1.00293 7.27426C1.00293 7.269 1.00293 7.26374 1.00293 7.25847C1.00293 7.25321 1.00293 7.24794 1.00293 7.24267C1.00293 7.23741 1.00293 7.23214 1.00293 7.22686C1.00293 7.22159 1.00293 7.21632 1.00293 7.21104C1.00293 7.20576 1.00293 7.20049 1.00293 7.1952C1.00293 7.18992 1.00293 7.18464 1.00293 7.17936C1.00293 7.17407 1.00293 7.16879 1.00293 7.1635C1.00293 7.15821 1.00293 7.15292 1.00293 7.14762C1.00293 7.14233 1.00293 7.13704 1.00293 7.13174C1.00293 7.12644 1.00293 7.12115 1.00293 7.11585C1.00293 7.11055 1.00293 7.10524 1.00293 7.09994C1.00293 7.09464 1.00293 7.08933 1.00293 7.08402C1.00293 7.07872 1.00293 7.07341 1.00293 7.0681C1.00293 7.06278 1.00293 7.05747 1.00293 7.05216C1.00293 7.04684 1.00293 7.04153 1.00293 7.03621C1.00293 7.03089 1.00293 7.02557 1.00293 7.02025C1.00293 7.01493 1.00293 7.00961 1.00293 7.00428C1.00293 6.99896 1.00293 6.99363 1.00293 6.9883C1.00293 6.98298 1.00293 6.97765 1.00293 6.97232C1.00293 6.96699 1.00293 6.96165 1.00293 6.95632C1.00293 6.95099 1.00293 6.94565 1.00293 6.94031C1.00293 6.93498 1.00293 6.92964 1.00293 6.9243C1.00293 6.91896 1.00293 6.91362 1.00293 6.90828C1.00293 6.90294 1.00293 6.89759 1.00293 6.89225C1.00293 6.8869 1.00293 6.88156 1.00293 6.87621C1.00293 6.87086 1.00293 6.86551 1.00293 6.86016C1.00293 6.85481 1.00293 6.84946 1.00293 6.84411C1.00293 6.83875 1.00293 6.8334 1.00293 6.82804C1.00293 6.82269 1.00293 6.81733 1.00293 6.81197C1.00293 6.80662 1.00293 6.80126 1.00293 6.7959C1.00293 6.79054 1.00293 6.78518 1.00293 6.77982C1.00293 6.77445 1.00293 6.76909 1.00293 6.76373C1.00293 6.75836 1.00293 6.753 1.00293 6.74763C1.00293 6.74226 1.00293 6.7369 1.00293 6.73153C1.00293 6.72616 1.00293 6.72079 1.00293 6.71542C1.00293 6.71005 1.00293 6.70468 1.00293 6.69931C1.00293 6.69393 1.00293 6.68856 1.00293 6.68319C1.00293 6.67781 1.00293 6.67244 1.00293 6.66706C1.00293 6.66169 1.00293 6.65631 1.00293 6.65093C1.00293 6.64556 1.00293 6.64018 1.00293 6.6348C1.00293 6.62942 1.00293 6.62404 1.00293 6.61866C1.00293 6.61328 1.00293 6.6079 1.00293 6.60252C1.00293 6.59714 1.00293 6.59175 1.00293 6.58637C1.00293 6.58099 1.00293 6.5756 1.00293 6.57022C1.00293 6.56483 1.00293 6.55945 1.00293 6.55406C1.00293 6.54868 1.00293 6.54329 1.00293 6.53791C1.00293 6.53252 1.00293 6.52713 1.00293 6.52174C1.00293 6.51636 1.00293 6.51097 1.00293 6.50558C1.00293 6.50019 1.00293 6.4948 1.00293 6.48941C1.00293 6.48402 1.00293 6.47863 1.00293 6.47324C1.00293 6.46785 1.00293 6.46246 1.00293 6.45707C1.00293 6.45168 1.00293 6.44629 1.00293 6.4409C1.00293 6.4355 1.00293 6.43011 1.00293 6.42472C1.00293 6.41933 1.00293 6.41393 1.00293 6.40854C1.00293 6.40315 1.00293 6.39775 1.00293 6.39236C1.00293 6.38697 1.00293 6.38157 1.00293 6.37618C1.00293 6.37079 1.00293 6.36539 1.00293 6.36C1.00293 6.3546 1.00293 6.34921 1.00293 6.34381C1.00293 6.33842 1.00293 6.33302 1.00293 6.32763C1.00293 6.32224 1.00293 6.31684 1.00293 6.31145C1.00293 6.30605 1.00293 6.30066 1.00293 6.29526C1.00293 6.28987 1.00293 6.28447 1.00293 6.27908C1.00293 6.27368 1.00293 6.26829 1.00293 6.26289C1.00293 6.2575 1.00293 6.2521 1.00293 6.24671C1.00293 6.24131 1.00293 6.23592 1.00293 6.23053C1.00293 6.22513 1.00293 6.21974 1.00293 6.21434C1.00293 6.20895 1.00293 6.20356 1.00293 6.19816C1.00293 6.19277 1.00293 6.18738 1.00293 6.18198C1.00293 6.17659 1.00293 6.1712 1.00293 6.16581C1.00293 6.16041 1.00293 6.15502 1.00293 6.14963C1.00293 6.14424 1.00293 6.13885 1.00293 6.13346C1.00293 6.12806 1.00293 6.12267 1.00293 6.11728C1.00293 6.11189 1.00293 6.1065 1.00293 6.10111C1.00293 6.09572 1.00293 6.09033 1.00293 6.08495C1.00293 6.07956 1.00293 6.07417 1.00293 6.06878C1.00293 6.0634 1.00293 6.05801 1.00293 6.05262C1.00293 6.04724 1.00293 6.04185 1.00293 6.03646C1.00293 6.03108 1.00293 6.02569 1.00293 6.02031C1.00293 6.01493 1.00293 6.00954 1.00293 6.00416C1.00293 5.99878 1.00293 5.99339 1.00293 5.98801C1.00293 5.98263 1.00293 5.97725 1.00293 5.97187C1.00293 5.96649 1.00293 5.96111 1.00293 5.95573C1.00293 5.95035 1.00293 5.94498 1.00293 5.9396C1.00293 5.93422 1.00293 5.92885 1.00293 5.92347C1.00293 5.9181 1.00293 5.91272 1.00293 5.90735C1.00293 5.90197 1.00293 5.8966 1.00293 5.89123C1.00293 5.88586 1.00293 5.88049 1.00293 5.87512C1.00293 5.86975 1.00293 5.86438 1.00293 5.85901C1.00293 5.85364 1.00293 5.84827 1.00293 5.84291C1.00293 5.83754 1.00293 5.83218 1.00293 5.82681C1.00293 5.82145 1.00293 5.81609 1.00293 5.81073C1.00293 5.80536 1.00293 5.8 1.00293 5.79464C1.00293 5.78928 1.00293 5.78393 1.00293 5.77857C1.00293 5.77321 1.00293 5.76785 1.00293 5.7625C1.00293 5.75715 1.00293 5.75179 1.00293 5.74644C1.00293 5.74109 1.00293 5.73574 1.00293 5.73039C1.00293 5.72504 1.00293 5.71969 1.00293 5.71434C1.00293 5.70899 1.00293 5.70365 1.00293 5.6983C1.00293 5.69296 1.00293 5.68761 1.00293 5.68227C1.00293 5.67693 1.00293 5.67159 1.00293 5.66625C1.00293 5.66091 1.00293 5.65558 1.00293 5.65024C1.00293 5.6449 1.00293 5.63957 1.00293 5.63423C1.00293 5.6289 1.00293 5.62357 1.00293 5.61824C1.00293 5.61291 1.00293 5.60758 1.00293 5.60225C1.00293 5.59693 1.00293 5.5916 1.00293 5.58628C1.00293 5.58095 1.00293 5.57563 1.00293 5.57031C1.00293 5.56499 1.00293 5.55967 1.00293 5.55435C1.00293 5.54904 1.00293 5.54372 1.00293 5.53841C1.00293 5.53309 1.00293 5.52778 1.00293 5.52247C1.00293 5.51716 1.00293 5.51185 1.00293 5.50655C1.00293 5.50124 1.00293 5.49593 1.00293 5.49063C1.00293 5.48533 1.00293 5.48003 1.00293 5.47473C1.00293 5.46943 1.00293 5.46413 1.00293 5.45883C1.00293 5.45354 1.00293 5.44824 1.00293 5.44295C1.00293 5.43766 1.00293 5.43237 1.00293 5.42708C1.00293 5.42179 1.00293 5.41651 1.00293 5.41122C1.00293 5.40594 1.00293 5.40066 1.00293 5.39538C1.00293 5.3901 1.00293 5.38482 1.00293 5.37955C1.00293 5.37427 1.00293 5.369 1.00293 5.36372C1.00293 5.35845 1.00293 5.35318 1.00293 5.34792C1.00293 5.34265 1.00293 5.33738 1.00293 5.33212C1.00293 5.32686 1.00293 5.3216 1.00293 5.31634C1.00293 5.31108 1.00293 5.30582 1.00293 5.30057C1.00293 5.29531 1.00293 5.29006 1.00293 5.28481C1.00293 5.27956 1.00293 5.27432 1.00293 5.26907C1.00293 5.26383 1.00293 5.25858 1.00293 5.25334C1.00293 5.2481 1.00293 5.24287 1.00293 5.23763C1.00293 5.2324 1.00293 5.22716 1.00293 5.22193C1.00293 5.2167 1.00293 5.21147 1.00293 5.20625C1.00293 5.20102 1.00293 5.1958 1.00293 5.19058C1.00293 5.18536 1.00293 5.18014 1.00293 5.17493C1.00293 5.16971 1.00293 5.1645 1.00293 5.15929C1.00293 5.15408 1.00293 5.14887 1.00293 5.14366C1.00293 5.13846 1.00293 5.13326 1.00293 5.12806C1.00293 5.12286 1.00293 5.11766 1.00293 5.11247C1.00293 5.10727 1.00293 5.10208 1.00293 5.09689C1.00293 5.0917 1.00293 5.08652 1.00293 5.08133C1.00293 5.07615 1.00293 5.07097 1.00293 5.06579C1.00293 5.06061 1.00293 5.05544 1.00293 5.05026C1.00293 5.04509 1.00293 5.03992 1.00293 5.03476C1.00293 5.02959 1.00293 5.02443 1.00293 5.01927C1.00293 5.01411 1.00293 5.00895 1.00293 5.00379C1.00293 4.99864 1.00293 4.99349 1.00293 4.98834C1.00293 4.98319 1.00293 4.97804 1.00293 4.9729C1.00293 4.96776 1.00293 4.96262 1.00293 4.95748C1.00293 4.95234 1.00293 4.94721 1.00293 4.94208C1.00293 4.93695 1.00293 4.93182 1.00293 4.9267C1.00293 4.92157 1.00293 4.91645 1.00293 4.91134C1.00293 4.90622 1.00293 4.9011 1.00293 4.89599C1.00293 4.89088 1.00293 4.88577 1.00293 4.88067C1.00293 4.87556 1.00293 4.87046 1.00293 4.86536C1.00293 4.86026 1.00293 4.85517 1.00293 4.85008C1.00293 4.84498 1.00293 4.8399 1.00293 4.83481C1.00293 4.82973 1.00293 4.82464 1.00293 4.81956C1.00293 4.81449 1.00293 4.80941 1.00293 4.80434C1.00293 4.79927 1.00293 4.7942 1.00293 4.78914C1.00293 4.78407 1.00293 4.77901 1.00293 4.77395C1.00293 4.76889 1.00293 4.76384 1.00293 4.75879C1.00293 4.75374 1.00293 4.74869 1.00293 4.74365C1.00293 4.7386 1.00293 4.73356 1.00293 4.72853C1.00293 4.72349 1.00293 4.71846 1.00293 4.71343C1.00293 4.7084 1.00293 4.70338 1.00293 4.69835C1.00293 4.69333 1.00293 4.68831 1.00293 4.6833C1.00293 4.67829 1.00293 4.67327 1.00293 4.66827C1.00293 4.66326 1.00293 4.65826 1.00293 4.65326C1.00293 4.64826 1.00293 4.64326 1.00293 4.63827C1.00293 4.63328 1.00293 4.62829 1.00293 4.62331C1.00293 4.61833 1.00293 4.61335 1.00293 4.60837C1.00293 4.60339 1.00293 4.59842 1.00293 4.59345C1.00293 4.58848 1.00293 4.58352 1.00293 4.57856C1.00293 4.5736 1.00293 4.56864 1.00293 4.56369C1.00293 4.55874 1.00293 4.55379 1.00293 4.54885C1.00293 4.5439 1.00293 4.53896 1.00293 4.53403C1.00293 4.52909 1.00293 4.52416 1.00293 4.51923C1.00293 4.5143 1.00293 4.50938 1.00293 4.50446C1.00293 4.49954 1.00293 4.49462 1.00293 4.48971C1.00293 4.4848 1.00293 4.47989 1.00293 4.47499C1.00293 4.47009 1.00293 4.46519 1.00293 4.46029C1.00293 4.4554 1.00293 4.45051 1.00293 4.44563C1.00293 4.44074 1.00293 4.43586 1.00293 4.43098C1.00293 4.4261 1.00293 4.42123 1.00293 4.41636C1.00293 4.41149 1.00293 4.40663 1.00293 4.40177C1.00293 4.39691 1.00293 4.39206 1.00293 4.38721C1.00293 4.38236 1.00293 4.37751 1.00293 4.37267C1.00293 4.36783 1.00293 4.36299 1.00293 4.35816C1.00293 4.35332 1.00293 4.3485 1.00293 4.34367C1.00293 4.33885 1.00293 4.33403 1.00293 4.32921C1.00293 4.3244 1.00293 4.31959 1.00293 4.31479C1.00293 4.30998 1.00293 4.30518 1.00293 4.30038C1.00293 4.29559 1.00293 4.2908 1.00293 4.28601C1.00293 4.28122 1.00293 4.27644 1.00293 4.27167C1.00293 4.26689 1.00293 4.26212 1.00293 4.25735C1.00293 4.25258 1.00293 4.24782 1.00293 4.24306C1.00293 4.2383 1.00293 4.23355 1.00293 4.2288C1.00293 4.22405 1.00293 4.21931 1.00293 4.21457C1.00293 4.20983 1.00293 4.2051 1.00293 4.20037C1.00293 4.19564 1.00293 4.19092 1.00293 4.1862C1.00293 4.18148 1.00293 4.17677 1.00293 4.17206C1.00293 4.16735 1.00293 4.16265 1.00293 4.15795C1.00293 4.15325 1.00293 4.14856 1.00293 4.14387C1.00293 4.13918 1.00293 4.1345 1.00293 4.12982C1.00293 4.12514 1.00293 4.12047 1.00293 4.1158C1.00293 4.11113 1.00293 4.10647 1.00293 4.10181C1.00293 4.09715 1.00293 4.0925 1.00293 4.08785C1.00293 4.0832 1.00293 4.07856 1.00293 4.07393C1.00293 4.06929 1.00293 4.06466 1.00293 4.06003C1.00293 4.0554 1.00293 4.05078 1.00293 4.04617C1.00293 4.04155 1.00293 4.03694 1.00293 4.03234C1.00293 4.02773 1.00293 4.02313 1.00293 4.01854C1.00293 4.01394 1.00293 4.00936 1.00293 4.00477C1.00293 4.00019 1.00293 3.99561 1.00293 3.99104C1.00293 3.98647 1.00293 3.9819 1.00293 3.97734C1.00293 3.97278 1.00293 3.96822 1.00293 3.96367C1.00293 3.95912 1.00293 3.95458 1.00293 3.95004C1.00293 3.9455 1.00293 3.94096 1.00293 3.93644C1.00293 3.93191 1.00293 3.92739 1.00293 3.92287C1.00293 3.91835 1.00293 3.91384 1.00293 3.90934C1.00293 3.90483 1.00293 3.90033 1.00293 3.89584C1.00293 3.89134 1.00293 3.88685 1.00293 3.88237C1.00293 3.87789 1.00293 3.87341 1.00293 3.86894C1.00293 3.86447 1.00293 3.86001 1.00293 3.85555C1.00293 3.85109 1.00293 3.84663 1.00293 3.84219C1.00293 3.83774 1.00293 3.8333 1.00293 3.82886C1.00293 3.82443 1.00293 3.82 1.00293 3.81557C1.00293 3.81115 1.00293 3.80673 1.00293 3.80232C1.00293 3.79791 1.00293 3.7935 1.00293 3.7891C1.00293 3.7847 1.00293 3.78031 1.00293 3.77592C1.00293 3.77153 1.00293 3.76715 1.00293 3.76278C1.00293 3.7584 1.00293 3.75403 1.00293 3.74967C1.00293 3.74531 1.00293 3.74095 1.00293 3.7366C1.00293 3.73225 1.00293 3.7279 1.00293 3.72356C1.00293 3.71922 1.00293 3.71489 1.00293 3.71057C1.00293 3.70624 1.00293 3.70192 1.00293 3.69761C1.00293 3.69329 1.00293 3.68898 1.00293 3.68468C1.00293 3.68038 1.00293 3.67609 1.00293 3.6718C1.00293 3.66751 1.00293 3.66323 1.00293 3.65895C1.00293 3.65468 1.00293 3.65041 1.00293 3.64615C1.00293 3.64188 1.00293 3.63763 1.00293 3.63338C1.00293 3.62913 1.00293 3.62488 1.00293 3.62065C1.00293 3.61641 1.00293 3.61218 1.00293 3.60796C1.00293 3.60373 1.00293 3.59951 1.00293 3.5953C1.00293 3.59109 1.00293 3.58689 1.00293 3.58269C1.00293 3.57849 1.00293 3.5743 1.00293 3.57012C1.00293 3.56593 1.00293 3.56176 1.00293 3.55759C1.00293 3.55341 1.00293 3.54925 1.00293 3.54509C1.00293 3.54093 1.00293 3.53678 1.00293 3.53264C1.00293 3.5285 1.00293 3.52436 1.00293 3.52023C1.00293 3.5161 1.00293 3.51197 1.00293 3.50786C1.00293 3.50374 1.00293 3.49963 1.00293 3.49553C1.00293 3.49142 1.00293 3.48733 1.00293 3.48324C1.00293 3.47915 1.00293 3.47506 1.00293 3.47099C1.00293 3.46691 1.00293 3.46285 1.00293 3.45878C1.00293 3.45472 1.00293 3.45067 1.00293 3.44662C1.00293 3.44257 1.00293 3.43853 1.00293 3.4345C1.00293 3.43046 1.00293 3.42644 1.00293 3.42242C1.00293 3.4184 1.00293 3.41439 1.00293 3.41038C1.00293 3.40637 1.00293 3.40238 1.00293 3.39839C1.00293 3.39439 1.00293 3.39041 1.00293 3.38643C1.00293 3.38246 1.00293 3.37849 1.00293 3.37453C1.00293 3.37056 1.00293 3.36661 1.00293 3.36266C1.00293 3.35871 1.00293 3.35477 1.00293 3.35084C1.00293 3.34691 1.00293 3.34298 1.00293 3.33906C1.00293 3.33514 1.00293 3.33123 1.00293 3.32733C1.00293 3.32342 1.00293 3.31953 1.00293 3.31564C1.00293 3.31175 1.00293 3.30787 1.00293 3.30399C1.00293 3.30012 1.00293 3.29625 1.00293 3.29239C1.00293 3.28853 1.00293 3.28468 1.00293 3.28084C1.00293 3.27699 1.00293 3.27316 1.00293 3.26933C1.00293 3.2655 1.00293 3.26168 1.00293 3.25786C1.00293 3.25405 1.00293 3.25024 1.00293 3.24644C1.00293 3.24265 1.00293 3.23885 1.00293 3.23507C1.00293 3.23129 1.00293 3.22751 1.00293 3.22374C1.00293 3.21998 1.00293 3.21622 1.00293 3.21246C1.00293 3.20871 1.00293 3.20497 1.00293 3.20123C1.00293 3.19749 1.00293 3.19376 1.00293 3.19004C1.00293 3.18632 1.00293 3.18261 1.00293 3.1789C1.00293 3.17519 1.00293 3.1715 1.00293 3.16781C1.00293 3.16412 1.00293 3.16043 1.00293 3.15676C1.00293 3.15308 1.00293 3.14942 1.00293 3.14576C1.00293 3.1421 1.00293 3.13845 1.00293 3.13481C1.00293 3.13117 1.00293 3.12753 1.00293 3.12391C1.00293 3.12028 1.00293 3.11666 1.00293 3.11305C1.00293 3.10944 1.00293 3.10584 1.00293 3.10224C1.00293 3.09865 1.00293 3.09506 1.00293 3.09149C1.00293 3.08791 1.00293 3.08434 1.00293 3.08078C1.00293 3.07722 1.00293 3.07366 1.00293 3.07012C1.00293 3.06657 1.00293 3.06304 1.00293 3.05951C1.00293 3.05598 1.00293 3.05246 1.00293 3.04895C1.00293 3.04543 1.00293 3.04193 1.00293 3.03843C1.00293 3.03494 1.00293 3.03145 1.00293 3.02797C1.00293 3.02449 1.00293 3.02102 1.00293 3.01756C1.00293 3.0141 1.00293 3.01065 1.00293 3.0072C1.00293 3.00376 1.00293 3.00032 1.00293 2.99689C1.00293 2.99346 1.00293 2.99004 1.00293 2.98663C1.00293 2.98322 1.00293 2.97982 1.00293 2.97642C1.00293 2.97303 1.00293 2.96964 1.00293 2.96627C1.00293 2.96289 1.00293 2.95952 1.00293 2.95616C1.00293 2.9528 1.00293 2.94945 1.00293 2.94611C1.00293 2.94276 1.00293 2.93943 1.00293 2.9361C1.00293 2.93278 1.00293 2.92946 1.00293 2.92615C1.00293 2.92285 1.00293 2.91955 1.00293 2.91626C1.00293 2.91297 1.00293 2.90968 1.00293 2.90641C1.00293 2.90314 1.00293 2.89987 1.00293 2.89662C1.00293 2.89336 1.00293 2.89012 1.00293 2.88688C1.00293 2.88364 1.00293 2.88041 1.00293 2.8772C1.00293 2.87398 1.00293 2.87076 1.00293 2.86756C1.00293 2.86436 1.00293 2.86117 1.00293 2.85798C1.00293 2.8548 1.00293 2.85163 1.00293 2.84846C1.00293 2.84529 1.00293 2.84214 1.00293 2.83899C1.00293 2.83584 1.00293 2.8327 1.00293 2.82957C1.00293 2.82644 1.00293 2.82332 1.00293 2.82021C1.00293 2.8171 1.00293 2.814 1.00293 2.8109C1.00293 2.80781 1.00293 2.80473 1.00293 2.80165C1.00293 2.79858 1.00293 2.79551 1.00293 2.79246C1.00293 2.7894 1.00293 2.78635 1.00293 2.78331C1.00293 2.78028 1.00293 2.77725 1.00293 2.77423C1.00293 2.77121 1.00293 2.7682 1.00293 2.7652C1.00293 2.7622 1.00293 2.75921 1.00293 2.75623C1.00293 2.75324 1.00293 2.75027 1.00293 2.74731C1.00293 2.74435 1.00293 2.74139 1.00293 2.73845C1.00293 2.7355 1.00293 2.73257 1.00293 2.72964C1.00293 2.72672 1.00293 2.7238 1.00293 2.7209C1.00293 2.71799 1.00293 2.71509 1.00293 2.71221C1.00293 2.70932 1.00293 2.70644 1.00293 2.70357C1.00293 2.70071 1.00293 2.69785 1.00293 2.695C1.00293 2.69215 1.00293 2.68931 1.00293 2.68648C1.00293 2.68365 1.00293 2.68083 1.00293 2.67802C1.00293 2.67521 1.00293 2.67241 1.00293 2.66962C1.00293 2.66683 1.00293 2.66405 1.00293 2.66128C1.00293 2.65851 1.00293 2.65575 1.00293 2.653C1.00293 2.65025 1.00293 2.6475 1.00293 2.64477C1.00293 2.64204 1.00293 2.63932 1.00293 2.63661C1.00293 2.6339 1.00293 2.63119 1.00293 2.6285C1.00293 2.62581 1.00293 2.62313 1.00293 2.62046C1.00293 2.61778 1.00293 2.61512 1.00293 2.61247C1.00293 2.60982 1.00293 2.60718 1.00293 2.60454C1.00293 2.60191 1.00293 2.59929 1.00293 2.59668C1.00293 2.59406 1.00293 2.59146 1.00293 2.58887C1.00293 2.58628 1.00293 2.5837 1.00293 2.58113C1.00293 2.57855 1.00293 2.57599 1.00293 2.57344C1.00293 2.57089 1.00293 2.56835 1.00293 2.56582C1.00293 2.56329 1.00293 2.56077 1.00293 2.55826C1.00293 2.55575 1.00293 2.55325 1.00293 2.55076C1.00293 2.54827 1.00293 2.54579 1.00293 2.54332C1.00293 2.54085 1.00293 2.53839 1.00293 2.53594C1.00293 2.53349 1.00293 2.53106 1.00293 2.52863C1.00293 2.5262 1.00293 2.52378 1.00293 2.52138C1.00293 2.51897 1.00293 2.51657 1.00293 2.51419C1.00293 2.5118 1.00293 2.50943 1.00293 2.50706C1.00293 2.5047 1.00293 2.50234 1.00293 2.5H0.00292969ZM0.50293 10H3.50293V9H0.50293V10ZM4.00293 9.5V7.5H3.00293V9.5H4.00293ZM4.50293 7H19.5029V6H4.50293V7ZM3.50293 10H20.5029V9H3.50293V10ZM20.5029 10H23.5029V9H20.5029V10ZM20.0029 7.5V9.5H21.0029V7.5H20.0029ZM5.22558 12.084C4.94582 12.2705 4.53538 12.5987 4.1886 12.9964C3.85765 13.3759 3.50293 13.9108 3.50293 14.5H4.50293C4.50293 14.2892 4.64821 13.9908 4.94226 13.6536C5.22048 13.3346 5.56004 13.0629 5.78028 12.916L5.22558 12.084ZM3.50293 14.5C3.50293 15.1017 3.87174 15.5992 4.19855 15.9522C4.37072 16.1381 4.55643 16.3099 4.72216 16.4598C4.89496 16.6162 5.03602 16.7402 5.14938 16.8536L5.85648 16.1464C5.71984 16.0098 5.5484 15.8588 5.39307 15.7183C5.23067 15.5714 5.07264 15.4244 4.93231 15.2728C4.63412 14.9508 4.50293 14.6983 4.50293 14.5H3.50293ZM5.14938 16.8536C5.41901 17.1232 5.71042 17.3953 5.90712 17.737C6.08921 18.0533 6.17426 18.4049 6.02859 18.8419L6.97727 19.1581C7.23159 18.3951 7.06665 17.7467 6.77374 17.238C6.49544 16.7547 6.08685 16.3768 5.85648 16.1464L5.14938 16.8536ZM6.02859 18.8419C5.66966 19.9187 4.99164 20.4466 4.77932 20.5528L5.22654 21.4472C5.68088 21.22 6.53619 20.4813 6.97727 19.1581L6.02859 18.8419ZM9.72558 12.084C9.44582 12.2705 9.03538 12.5987 8.6886 12.9964C8.35765 13.3759 8.00293 13.9108 8.00293 14.5H9.00293C9.00293 14.2892 9.14821 13.9908 9.44226 13.6536C9.72048 13.3346 10.06 13.0629 10.2803 12.916L9.72558 12.084ZM8.00293 14.5C8.00293 15.1017 8.37174 15.5992 8.69855 15.9522C8.87072 16.1381 9.05643 16.3099 9.22216 16.4598C9.39496 16.6162 9.53602 16.7402 9.64938 16.8536L10.3565 16.1464C10.2198 16.0098 10.0484 15.8588 9.89307 15.7183C9.73067 15.5714 9.57264 15.4244 9.43231 15.2728C9.13412 14.9508 9.00293 14.6983 9.00293 14.5H8.00293ZM9.64938 16.8536C9.91901 17.1232 10.2104 17.3953 10.4071 17.737C10.5892 18.0533 10.6743 18.4049 10.5286 18.8419L11.4773 19.1581C11.7316 18.3951 11.5666 17.7467 11.2737 17.238C10.9954 16.7547 10.5868 16.3768 10.3565 16.1464L9.64938 16.8536ZM10.5286 18.8419C10.1697 19.9187 9.49164 20.4466 9.27932 20.5528L9.72654 21.4472C10.1809 21.22 11.0362 20.4813 11.4773 19.1581L10.5286 18.8419ZM14.2256 12.084C13.9458 12.2705 13.5354 12.5987 13.1886 12.9964C12.8577 13.3759 12.5029 13.9108 12.5029 14.5H13.5029C13.5029 14.2892 13.6482 13.9908 13.9423 13.6536C14.2205 13.3346 14.56 13.0629 14.7803 12.916L14.2256 12.084ZM12.5029 14.5C12.5029 15.1017 12.8717 15.5992 13.1985 15.9522C13.3707 16.1381 13.5564 16.3099 13.7222 16.4598C13.895 16.6162 14.036 16.7402 14.1494 16.8536L14.8565 16.1464C14.7198 16.0098 14.5484 15.8588 14.3931 15.7183C14.2307 15.5714 14.0726 15.4244 13.9323 15.2728C13.6341 14.9508 13.5029 14.6983 13.5029 14.5H12.5029ZM14.1494 16.8536C14.419 17.1232 14.7104 17.3953 14.9071 17.737C15.0892 18.0533 15.1743 18.4049 15.0286 18.8419L15.9773 19.1581C16.2316 18.3951 16.0666 17.7467 15.7737 17.238C15.4954 16.7547 15.0868 16.3768 14.8565 16.1464L14.1494 16.8536ZM15.0286 18.8419C14.6697 19.9187 13.9916 20.4466 13.7793 20.5528L14.2265 21.4472C14.6809 21.22 15.5362 20.4813 15.9773 19.1581L15.0286 18.8419ZM18.7256 12.084C18.4458 12.2705 18.0354 12.5987 17.6886 12.9964C17.3577 13.3759 17.0029 13.9108 17.0029 14.5H18.0029C18.0029 14.2892 18.1482 13.9908 18.4423 13.6536C18.7205 13.3346 19.06 13.0629 19.2803 12.916L18.7256 12.084ZM17.0029 14.5C17.0029 15.1017 17.3717 15.5992 17.6985 15.9522C17.8707 16.1381 18.0564 16.3099 18.2222 16.4598C18.395 16.6162 18.536 16.7402 18.6494 16.8536L19.3565 16.1464C19.2198 16.0098 19.0484 15.8588 18.8931 15.7183C18.7307 15.5714 18.5726 15.4244 18.4323 15.2728C18.1341 14.9508 18.0029 14.6983 18.0029 14.5H17.0029ZM18.6494 16.8536C18.919 17.1232 19.2104 17.3953 19.4071 17.737C19.5892 18.0533 19.6743 18.4049 19.5286 18.8419L20.4773 19.1581C20.7316 18.3951 20.5666 17.7467 20.2737 17.238C19.9954 16.7547 19.5868 16.3768 19.3565 16.1464L18.6494 16.8536ZM19.5286 18.8419C19.1697 19.9187 18.4916 20.4466 18.2793 20.5528L18.7265 21.4472C19.1809 21.22 20.0362 20.4813 20.4773 19.1581L19.5286 18.8419ZM19.5029 7C19.7791 7 20.0029 7.22386 20.0029 7.5H21.0029C21.0029 6.67157 20.3314 6 19.5029 6V7ZM4.00293 7.5C4.00293 7.22386 4.22679 7 4.50293 7V6C3.6745 6 3.00293 6.67157 3.00293 7.5H4.00293Z" fill="#1D2126"/>
</svg>
