<svg width="25" height="24" viewBox="0 0 25 24" fill="none" xmlns="http://www.w3.org/2000/svg">
<path fill-rule="evenodd" clip-rule="evenodd" d="M0.00292969 2.5C0.00292969 1.11929 1.12222 0 2.50293 0H21.5029C22.8836 0 24.0029 1.11929 24.0029 2.5V21.5C24.0029 22.8807 22.8836 24 21.5029 24H2.50293C1.12222 24 0.00292969 22.8807 0.00292969 21.5V2.5ZM2.50293 1C1.6745 1 1.00293 1.67157 1.00293 2.5V21.5C1.00293 22.3284 1.6745 23 2.50293 23H21.5029C22.3314 23 23.0029 22.3284 23.0029 21.5V2.5C23.0029 1.67157 22.3314 1 21.5029 1H2.50293ZM6.50293 4C5.12222 4 4.00293 5.11929 4.00293 6.5C4.00293 7.88071 5.12222 9 6.50293 9C7.88364 9 9.00293 7.88071 9.00293 6.5C9.00293 5.11929 7.88364 4 6.50293 4ZM3.00293 6.5C3.00293 4.567 4.56993 3 6.50293 3C8.43593 3 10.0029 4.567 10.0029 6.5C10.0029 8.433 8.43593 10 6.50293 10C4.56993 10 3.00293 8.433 3.00293 6.5ZM17.5029 4C16.1222 4 15.0029 5.11929 15.0029 6.5C15.0029 7.88071 16.1222 9 17.5029 9C18.8836 9 20.0029 7.88071 20.0029 6.5C20.0029 5.11929 18.8836 4 17.5029 4ZM14.0029 6.5C14.0029 4.567 15.5699 3 17.5029 3C19.4359 3 21.0029 4.567 21.0029 6.5C21.0029 8.433 19.4359 10 17.5029 10C15.5699 10 14.0029 8.433 14.0029 6.5ZM6.50293 15C5.12222 15 4.00293 16.1193 4.00293 17.5C4.00293 18.8807 5.12222 20 6.50293 20C7.88364 20 9.00293 18.8807 9.00293 17.5C9.00293 16.1193 7.88364 15 6.50293 15ZM3.00293 17.5C3.00293 15.567 4.56993 14 6.50293 14C8.43593 14 10.0029 15.567 10.0029 17.5C10.0029 19.433 8.43593 21 6.50293 21C4.56993 21 3.00293 19.433 3.00293 17.5ZM17.5029 15C16.1222 15 15.0029 16.1193 15.0029 17.5C15.0029 18.8807 16.1222 20 17.5029 20C18.8836 20 20.0029 18.8807 20.0029 17.5C20.0029 16.1193 18.8836 15 17.5029 15ZM14.0029 17.5C14.0029 15.567 15.5699 14 17.5029 14C19.4359 14 21.0029 15.567 21.0029 17.5C21.0029 19.433 19.4359 21 17.5029 21C15.5699 21 14.0029 19.433 14.0029 17.5Z" fill="#1D2126"/>
</svg>
