<svg width="19" height="24" viewBox="0 0 19 24" fill="none" xmlns="http://www.w3.org/2000/svg">
<path d="M8.50293 9.5C8.50293 9.77614 8.72679 10 9.00293 10C9.27907 10 9.50293 9.77614 9.50293 9.5H8.50293ZM9.50293 6.5C9.50293 6.22386 9.27907 6 9.00293 6C8.72679 6 8.50293 6.22386 8.50293 6.5H9.50293ZM4.23517 8.29289C4.03991 8.48815 4.03991 8.80474 4.23517 9C4.43043 9.19526 4.74701 9.19526 4.94228 9L4.23517 8.29289ZM7.0636 6.87868C7.25886 6.68342 7.25886 6.36684 7.0636 6.17157C6.86833 5.97631 6.55175 5.97631 6.35649 6.17157L7.0636 6.87868ZM13.0629 9.12109C13.2582 9.31636 13.5748 9.31636 13.77 9.12109C13.9653 8.92583 13.9653 8.60925 13.77 8.41399L13.0629 9.12109ZM11.6487 6.29267C11.4535 6.0974 11.1369 6.0974 10.9416 6.29267C10.7463 6.48793 10.7463 6.80451 10.9416 6.99977L11.6487 6.29267ZM10.7803 13.084C10.5505 12.9308 10.2401 12.9929 10.0869 13.2226C9.93373 13.4524 9.99582 13.7628 10.2256 13.916L10.7803 13.084ZM10.2256 19.084C9.99582 19.2372 9.93373 19.5476 10.0869 19.7773C10.2401 20.0071 10.5505 20.0692 10.7803 19.916L10.2256 19.084ZM13.2803 13.084C13.0505 12.9308 12.7401 12.9929 12.5869 13.2226C12.4337 13.4524 12.4958 13.7628 12.7256 13.916L13.2803 13.084ZM12.7256 19.084C12.4958 19.2372 12.4337 19.5476 12.5869 19.7773C12.7401 20.0071 13.0505 20.0692 13.2803 19.916L12.7256 19.084ZM2.50293 1H15.5029V0H2.50293V1ZM17.0029 2.5V4.5H18.0029V2.5H17.0029ZM17.0029 4.5V21.5H18.0029V4.5H17.0029ZM15.5029 23H2.50293V24H15.5029V23ZM1.00293 21.5V4.5H0.00292969V21.5H1.00293ZM1.00293 4.5V2.5H0.00292969V4.5H1.00293ZM2.50293 23C1.6745 23 1.00293 22.3284 1.00293 21.5H0.00292969C0.00292969 22.8807 1.12222 24 2.50293 24V23ZM17.0029 21.5C17.0029 22.3284 16.3314 23 15.5029 23V24C16.8836 24 18.0029 22.8807 18.0029 21.5H17.0029ZM15.5029 1C16.3314 1 17.0029 1.67157 17.0029 2.5H18.0029C18.0029 1.11929 16.8836 0 15.5029 0V1ZM2.50293 0C1.12222 0 0.00292969 1.11929 0.00292969 2.5H1.00293C1.00293 1.67157 1.6745 1 2.50293 1V0ZM0.50293 5H17.5029V4H0.50293V5ZM9.50293 9.5V6.5H8.50293V9.5H9.50293ZM4.94228 9L7.0636 6.87868L6.35649 6.17157L4.23517 8.29289L4.94228 9ZM13.77 8.41399L11.6487 6.29267L10.9416 6.99977L13.0629 9.12109L13.77 8.41399ZM9.00293 16.5C9.00293 17.8807 7.88364 19 6.50293 19V20C8.43593 20 10.0029 18.433 10.0029 16.5H9.00293ZM6.50293 19C5.12222 19 4.00293 17.8807 4.00293 16.5H3.00293C3.00293 18.433 4.56993 20 6.50293 20V19ZM4.00293 16.5C4.00293 15.1193 5.12222 14 6.50293 14V13C4.56993 13 3.00293 14.567 3.00293 16.5H4.00293ZM6.50293 14C7.88364 14 9.00293 15.1193 9.00293 16.5H10.0029C10.0029 14.567 8.43593 13 6.50293 13V14ZM10.2256 13.916C10.6262 14.1831 11.5029 15.1098 11.5029 16.5H12.5029C12.5029 14.6902 11.3797 13.4836 10.7803 13.084L10.2256 13.916ZM11.5029 16.5C11.5029 17.8902 10.6262 18.8169 10.2256 19.084L10.7803 19.916C11.3797 19.5164 12.5029 18.3098 12.5029 16.5H11.5029ZM12.7256 13.916C13.1262 14.1831 14.0029 15.1098 14.0029 16.5H15.0029C15.0029 14.6902 13.8797 13.4836 13.2803 13.084L12.7256 13.916ZM14.0029 16.5C14.0029 17.8902 13.1262 18.8169 12.7256 19.084L13.2803 19.916C13.8797 19.5164 15.0029 18.3098 15.0029 16.5H14.0029Z" fill="#1D2126"/>
</svg>
