<svg width="19" height="24" viewBox="0 0 19 24" fill="none" xmlns="http://www.w3.org/2000/svg">
<path d="M3.00293 23.5C3.00293 23.7761 3.22679 24 3.50293 24C3.77907 24 4.00293 23.7761 4.00293 23.5H3.00293ZM4.00293 10C4.00293 9.72386 3.77907 9.5 3.50293 9.5C3.22679 9.5 3.00293 9.72386 3.00293 10H4.00293ZM3.00293 14C3.00293 14.2761 3.22679 14.5 3.50293 14.5C3.77907 14.5 4.00293 14.2761 4.00293 14H3.00293ZM14.0029 23.5C14.0029 23.7761 14.2268 24 14.5029 24C14.7791 24 15.0029 23.7761 15.0029 23.5H14.0029ZM2.50293 1H15.5029V0H2.50293V1ZM17.0029 2.5V19.5H18.0029V2.5H17.0029ZM15.5029 21H2.50293V22H15.5029V21ZM1.00293 19.5V2.5H0.00292969V19.5H1.00293ZM0.50293 8H17.5029V7H0.50293V8ZM2.50293 21C1.6745 21 1.00293 20.3284 1.00293 19.5H0.00292969C0.00292969 20.8807 1.12222 22 2.50293 22V21ZM17.0029 19.5C17.0029 20.3284 16.3314 21 15.5029 21V22C16.8836 22 18.0029 20.8807 18.0029 19.5H17.0029ZM15.5029 1C16.3314 1 17.0029 1.67157 17.0029 2.5H18.0029C18.0029 1.11929 16.8836 0 15.5029 0V1ZM2.50293 0C1.12222 0 0.00292969 1.11929 0.00292969 2.5H1.00293C1.00293 1.67157 1.6745 1 2.50293 1V0ZM3.00293 22V23.5H4.00293V22H3.00293ZM3.00293 10V14H4.00293V10H3.00293ZM14.0029 22V23.5H15.0029V22H14.0029Z" fill="#1D2126"/>
</svg>
