<svg width="23" height="24" viewBox="0 0 23 24" fill="none" xmlns="http://www.w3.org/2000/svg">
<path d="M21.5029 23.5V24C21.7791 24 22.0029 23.7761 22.0029 23.5H21.5029ZM0.50293 23.5H0.00292969C0.00292969 23.7761 0.226787 24 0.50293 24L0.50293 23.5ZM10.5029 18.5C10.5029 18.7761 10.7268 19 11.0029 19C11.2791 19 11.5029 18.7761 11.5029 18.5H10.5029ZM5.85648 1.35355C6.05175 1.15829 6.05175 0.841709 5.85648 0.646447C5.66122 0.451184 5.34464 0.451184 5.14938 0.646447L5.85648 1.35355ZM5.14938 9.35355C5.34464 9.54882 5.66122 9.54882 5.85648 9.35355C6.05175 9.15829 6.05175 8.84171 5.85648 8.64645L5.14938 9.35355ZM7.85648 3.35355C8.05175 3.15829 8.05175 2.84171 7.85648 2.64645C7.66122 2.45118 7.34464 2.45118 7.14938 2.64645L7.85648 3.35355ZM7.14938 7.35355C7.34464 7.54882 7.66122 7.54882 7.85648 7.35355C8.05175 7.15829 8.05175 6.84171 7.85648 6.64645L7.14938 7.35355ZM14.8565 2.64645C14.6612 2.45118 14.3446 2.45118 14.1494 2.64645C13.9541 2.84171 13.9541 3.15829 14.1494 3.35355L14.8565 2.64645ZM14.1494 6.64645C13.9541 6.84171 13.9541 7.15829 14.1494 7.35355C14.3446 7.54882 14.6612 7.54882 14.8565 7.35355L14.1494 6.64645ZM16.8565 0.646447C16.6612 0.451184 16.3446 0.451184 16.1494 0.646447C15.9541 0.841709 15.9541 1.15829 16.1494 1.35355L16.8565 0.646447ZM16.1494 8.64645C15.9541 8.84171 15.9541 9.15829 16.1494 9.35355C16.3446 9.54882 16.6612 9.54882 16.8565 9.35355L16.1494 8.64645ZM8.51293 21.5C8.78907 21.5 9.01293 21.2761 9.01293 21C9.01293 20.7239 8.78907 20.5 8.51293 20.5V21.5ZM8.50293 20.5C8.22679 20.5 8.00293 20.7239 8.00293 21C8.00293 21.2761 8.22679 21.5 8.50293 21.5V20.5ZM11.0129 21.5C11.2891 21.5 11.5129 21.2761 11.5129 21C11.5129 20.7239 11.2891 20.5 11.0129 20.5V21.5ZM11.0029 20.5C10.7268 20.5 10.5029 20.7239 10.5029 21C10.5029 21.2761 10.7268 21.5 11.0029 21.5V20.5ZM13.5129 21.5C13.7891 21.5 14.0129 21.2761 14.0129 21C14.0129 20.7239 13.7891 20.5 13.5129 20.5V21.5ZM13.5029 20.5C13.2268 20.5 13.0029 20.7239 13.0029 21C13.0029 21.2761 13.2268 21.5 13.5029 21.5V20.5ZM3.50293 19H18.5029V18H3.50293V19ZM21.0029 21.5V23.5H22.0029V21.5H21.0029ZM21.5029 23H0.50293V24H21.5029V23ZM1.00293 23.5V21.5H0.00292969V23.5H1.00293ZM18.5029 19C19.8836 19 21.0029 20.1193 21.0029 21.5H22.0029C22.0029 19.567 20.4359 18 18.5029 18V19ZM3.50293 18C1.56993 18 0.00292969 19.567 0.00292969 21.5H1.00293C1.00293 20.1193 2.12222 19 3.50293 19V18ZM11.5029 18.5V7H10.5029V18.5H11.5029ZM12.5029 5C12.5029 5.82843 11.8314 6.5 11.0029 6.5V7.5C12.3836 7.5 13.5029 6.38071 13.5029 5H12.5029ZM11.0029 6.5C10.1745 6.5 9.50293 5.82843 9.50293 5H8.50293C8.50293 6.38071 9.62222 7.5 11.0029 7.5V6.5ZM9.50293 5C9.50293 4.17157 10.1745 3.5 11.0029 3.5V2.5C9.62222 2.5 8.50293 3.61929 8.50293 5H9.50293ZM11.0029 3.5C11.8314 3.5 12.5029 4.17157 12.5029 5H13.5029C13.5029 3.61929 12.3836 2.5 11.0029 2.5V3.5ZM5.14938 0.646447C4.66257 1.13326 3.00293 2.76876 3.00293 5H4.00293C4.00293 3.23124 5.34329 1.86674 5.85648 1.35355L5.14938 0.646447ZM3.00293 5C3.00293 7.23124 4.66257 8.86674 5.14938 9.35355L5.85648 8.64645C5.34329 8.13326 4.00293 6.76876 4.00293 5H3.00293ZM7.14938 2.64645C6.95461 2.84121 6.67738 3.17515 6.44568 3.57369C6.2181 3.96511 6.00293 4.47243 6.00293 5H7.00293C7.00293 4.72757 7.12109 4.40155 7.31018 4.07631C7.49514 3.75818 7.71792 3.49212 7.85648 3.35355L7.14938 2.64645ZM6.00293 5C6.00293 5.52757 6.2181 6.03489 6.44568 6.42631C6.67738 6.82485 6.95461 7.15879 7.14938 7.35355L7.85648 6.64645C7.71792 6.50788 7.49514 6.24182 7.31018 5.92369C7.12109 5.59845 7.00293 5.27243 7.00293 5H6.00293ZM14.1494 3.35355C14.2879 3.49212 14.5107 3.75818 14.6957 4.07631C14.8848 4.40155 15.0029 4.72757 15.0029 5H16.0029C16.0029 4.47243 15.7878 3.96511 15.5602 3.57369C15.3285 3.17515 15.0513 2.84121 14.8565 2.64645L14.1494 3.35355ZM15.0029 5C15.0029 5.27243 14.8848 5.59845 14.6957 5.92369C14.5107 6.24182 14.2879 6.50788 14.1494 6.64645L14.8565 7.35355C15.0513 7.15879 15.3285 6.82485 15.5602 6.42631C15.7878 6.03489 16.0029 5.52757 16.0029 5H15.0029ZM16.1494 1.35355C16.6626 1.86674 18.0029 3.23124 18.0029 5H19.0029C19.0029 2.76876 17.3433 1.13326 16.8565 0.646447L16.1494 1.35355ZM18.0029 5C18.0029 6.76876 16.6626 8.13326 16.1494 8.64645L16.8565 9.35355C17.3433 8.86674 19.0029 7.23124 19.0029 5H18.0029ZM8.51293 20.5H8.50293V21.5H8.51293V20.5ZM11.0129 20.5H11.0029V21.5H11.0129V20.5ZM13.5129 20.5H13.5029V21.5H13.5129V20.5Z" fill="black"/>
</svg>
