<svg width="25" height="19" viewBox="0 0 25 19" fill="none" xmlns="http://www.w3.org/2000/svg">
<path d="M10.0241 9.54602C10.0241 10.1902 10.3568 10.5338 10.6241 10.8098C10.8624 11.0559 11.0345 11.2336 11.0345 11.6329C11.0345 11.8357 11.2466 12 11.5082 12C11.7698 12 11.9818 11.8357 11.9818 11.6329C11.9818 10.9888 11.6491 10.6451 11.3818 10.3691C11.1435 10.1231 10.9714 9.9453 10.9714 9.54602C10.9714 9.1462 11.1436 8.96823 11.3819 8.72196C11.6491 8.44569 11.9818 8.10187 11.9818 7.45731C11.9818 6.8125 11.6492 6.46853 11.382 6.19206C11.1436 5.94555 10.9714 5.76738 10.9714 5.36712C10.9714 5.16432 10.7593 5 10.4977 5C10.2361 5 10.0241 5.16432 10.0241 5.36712C10.0241 6.01198 10.3567 6.35595 10.624 6.63241C10.8623 6.87892 11.0345 7.0571 11.0345 7.45731C11.0345 7.85712 10.8623 8.0351 10.624 8.28142C10.3568 8.55774 10.0241 8.90151 10.0241 9.54602Z" fill="#1D2126"/>
<path d="M12.5809 9.91272C12.7371 9.91272 12.8757 9.85408 12.9621 9.76362C13.3013 9.41309 14.0029 8.68561 14.0029 7.45732C14.0029 6.95833 13.8869 6.48778 13.6579 6.05893C13.5579 5.87155 13.2808 5.78246 13.0391 5.85995C12.7974 5.93749 12.6826 6.15223 12.7825 6.33956C12.9637 6.67902 13.0556 7.05505 13.0556 7.45727C13.0556 8.43827 12.5267 8.98973 12.2069 9.32024C12.1445 9.38245 12.1073 9.46062 12.1073 9.5456C12.1073 9.7484 12.3194 9.91272 12.5809 9.91272Z" fill="#1D2126"/>
<path d="M8.78125 11.1619C8.84118 11.1619 8.90212 11.153 8.96092 11.1344C9.20293 11.0574 9.31857 10.8429 9.21922 10.6553C9.04075 10.3183 8.95025 9.9451 8.95025 9.54607C8.95025 8.56038 9.48441 8.00833 9.80359 7.67851C9.81231 7.6695 9.82045 7.6602 9.82803 7.65065C9.92175 7.53269 9.92125 7.38114 9.82753 7.26317C9.69048 7.09048 9.39871 7.03664 9.1759 7.14286C9.1087 7.17492 9.0554 7.2179 9.01757 7.26704C8.66978 7.62736 8.00293 8.34882 8.00293 9.54607C8.00293 10.0412 8.1173 10.5083 8.34289 10.9342C8.41805 11.0761 8.59481 11.1619 8.78125 11.1619Z" fill="#1D2126"/>
<path fill-rule="evenodd" clip-rule="evenodd" d="M0.00292969 1.5C0.00292969 0.671573 0.674503 0 1.50293 0H22.5029C23.3314 0 24.0029 0.671573 24.0029 1.5V15.5C24.0029 16.3284 23.3314 17 22.5029 17H22.0029V17.5C22.0029 18.3284 21.3314 19 20.5029 19H19.5029C18.6745 19 18.0029 18.3284 18.0029 17.5V17H6.00293V17.5C6.00293 18.3284 5.33136 19 4.50293 19H3.50293C2.6745 19 2.00293 18.3284 2.00293 17.5V17H1.50293C0.674502 17 0.00292969 16.3284 0.00292969 15.5V1.5ZM22.5029 16C22.7791 16 23.0029 15.7761 23.0029 15.5V1.5C23.0029 1.22386 22.7791 1 22.5029 1H1.50293C1.22679 1 1.00293 1.22386 1.00293 1.5V15.5C1.00293 15.7761 1.22679 16 1.50293 16H22.5029ZM3.00293 17V17.5C3.00293 17.7761 3.22679 18 3.50293 18H4.50293C4.77907 18 5.00293 17.7761 5.00293 17.5V17H3.00293ZM19.0029 17V17.5C19.0029 17.7761 19.2268 18 19.5029 18H20.5029C20.7791 18 21.0029 17.7761 21.0029 17.5V17H19.0029ZM3.00293 4.5C3.00293 3.67157 3.6745 3 4.50293 3H16.5029C17.3314 3 18.0029 3.67157 18.0029 4.5V12.5C18.0029 13.3284 17.3314 14 16.5029 14H4.50293C3.6745 14 3.00293 13.3284 3.00293 12.5V4.5ZM4.50293 4C4.22679 4 4.00293 4.22386 4.00293 4.5V12.5C4.00293 12.7761 4.22679 13 4.50293 13H16.5029C16.7791 13 17.0029 12.7761 17.0029 12.5V4.5C17.0029 4.22386 16.7791 4 16.5029 4H4.50293ZM19.0029 4.5C19.0029 4.22386 19.2268 4 19.5029 4H21.5029C21.7791 4 22.0029 4.22386 22.0029 4.5V6.5C22.0029 6.77614 21.7791 7 21.5029 7H19.5029C19.2268 7 19.0029 6.77614 19.0029 6.5V4.5ZM20.0029 5V6H21.0029V5H20.0029ZM19.0029 10.5C19.0029 10.2239 19.2268 10 19.5029 10H21.5029C21.7791 10 22.0029 10.2239 22.0029 10.5C22.0029 10.7761 21.7791 11 21.5029 11H19.5029C19.2268 11 19.0029 10.7761 19.0029 10.5Z" fill="#1D2126"/>
</svg>
