<svg width="24" height="24" viewBox="0 0 24 24" fill="none" xmlns="http://www.w3.org/2000/svg">
<path fill-rule="evenodd" clip-rule="evenodd" d="M2.71262 0.865673C3.58381 0.316085 4.46531 0.16053 5.31284 0.296151L5.31298 0.296174C6.49019 0.484779 7.59383 1.22839 8.56728 2.20425C9.53608 3.17545 10.2742 4.25727 10.4532 5.42091L10.4537 5.42465L10.4537 5.42465C10.6305 6.6139 10.2213 7.81762 9.04749 8.9994C8.74169 9.30849 8.42861 9.56981 8.11045 9.7835C8.53785 10.3578 9.00233 10.9345 9.50156 11.5072C10.4258 12.5675 11.4301 13.5674 12.4926 14.4927C13.0686 14.9943 13.6487 15.4607 14.2263 15.8896C14.4374 15.5716 14.6958 15.2576 15.0035 14.949C15.7637 14.1839 16.5439 13.7284 17.3472 13.5612C17.7671 13.4738 18.1764 13.4689 18.5705 13.5278L18.5709 13.5279C19.0069 13.5932 19.4293 13.7375 19.8347 13.9396C20.517 14.2797 21.1693 14.7924 21.7879 15.4097C22.4145 16.0349 22.9378 16.7017 23.2866 17.4033C24.1676 19.1757 23.6306 20.9756 22.343 22.2719C21.2504 23.3721 20.0805 23.8197 18.9104 23.7413C17.241 23.7501 15.2472 23.0987 13.2011 21.9804C11.1277 20.8472 8.93881 19.2008 6.88381 17.1474C3.18948 13.4637 0.754578 9.28658 0.328776 6.09931C0.217764 5.26835 0.169205 4.25946 0.57303 3.31526C1.00662 2.30147 1.81766 1.43026 2.71262 0.865673ZM5.07568 1.77729C4.59509 1.70041 4.08148 1.77566 3.51296 2.13432C2.83821 2.55999 2.24998 3.20884 1.95219 3.90511C1.71279 4.46486 1.71361 5.1375 1.81557 5.90068C2.17938 8.62396 4.36075 12.5135 7.94348 16.0857L7.94406 16.0863C9.91045 18.0512 11.9867 19.6072 13.9205 20.6642C15.8689 21.7291 17.6122 22.2546 18.9264 22.2412C18.9478 22.241 18.9691 22.2417 18.9904 22.2433C19.6634 22.2939 20.4317 22.0677 21.2787 21.2148L21.2788 21.2148C22.2153 20.272 22.479 19.1486 21.9434 18.071C21.6887 17.5587 21.2799 17.0218 20.7284 16.4715C20.1817 15.926 19.6583 15.5277 19.1655 15.282C18.8765 15.138 18.6047 15.0497 18.3489 15.0114C18.1198 14.9771 17.8893 14.9805 17.6529 15.0297C17.2063 15.1227 16.6767 15.3931 16.0671 16.0067L16.066 16.0078C15.6106 16.4644 15.3332 16.8933 15.1767 17.2786C15.091 17.4897 14.914 17.6503 14.6957 17.7153C14.4774 17.7802 14.2414 17.7425 14.0542 17.6126C13.2058 17.0237 12.351 16.3584 11.5075 15.6239C10.3948 14.6549 9.34155 13.6064 8.37083 12.4928C7.63946 11.6538 6.97657 10.8037 6.38926 9.95986C6.25915 9.77294 6.22103 9.53703 6.28564 9.31864C6.35025 9.10026 6.51059 8.92306 6.72145 8.83701C7.10273 8.68141 7.52976 8.40083 7.98179 7.9438L7.98294 7.94264C8.89701 7.02249 9.06271 6.27229 8.97029 5.64704C8.86147 4.9438 8.38102 4.14148 7.5053 3.26359C6.63349 2.38962 5.80482 1.89415 5.07582 1.77731" fill="#1D2126"/>
</svg>
