<svg width="23" height="24" viewBox="0 0 23 24" fill="none" xmlns="http://www.w3.org/2000/svg">
<path fill-rule="evenodd" clip-rule="evenodd" d="M2.78028 0.584028C3.01004 0.737204 3.07213 1.04764 2.91895 1.2774C1.97089 2.69949 1.00293 5.26066 1.00293 8.00005C1.00293 10.7394 1.97089 13.3006 2.91895 14.7227C3.07213 14.9525 3.01004 15.2629 2.78028 15.4161C2.55052 15.5693 2.24008 15.5072 2.0869 15.2774C1.03497 13.6995 0.00292969 10.9468 0.00292969 8.00005C0.00292969 5.05332 1.03497 2.30061 2.0869 0.722703C2.24008 0.492939 2.55052 0.430852 2.78028 0.584028ZM19.2256 0.584028C19.4553 0.430852 19.7658 0.492939 19.919 0.722703C20.9709 2.30061 22.0029 5.05332 22.0029 8.00005C22.0029 10.9468 20.9709 13.6995 19.919 15.2774C19.7658 15.5072 19.4553 15.5693 19.2256 15.4161C18.9958 15.2629 18.9337 14.9525 19.0869 14.7227C20.035 13.3006 21.0029 10.7394 21.0029 8.00005C21.0029 5.26066 20.035 2.69949 19.0869 1.2774C18.9337 1.04764 18.9958 0.737204 19.2256 0.584028ZM5.32302 2.61594C5.53516 2.79272 5.56382 3.10801 5.38704 3.32015C4.64799 4.20701 4.00293 6.04404 4.00293 8.00005C4.00293 9.95606 4.64799 11.7931 5.38704 12.68C5.56382 12.8921 5.53516 13.2074 5.32302 13.3842C5.11088 13.5609 4.7956 13.5323 4.61882 13.3201C3.6912 12.207 3.00293 10.1212 3.00293 8.00005C3.00293 5.87887 3.6912 3.7931 4.61882 2.67996C4.7956 2.46782 5.11088 2.43916 5.32302 2.61594ZM16.6828 2.61594C16.895 2.43916 17.2103 2.46782 17.387 2.67996C18.3147 3.7931 19.0029 5.87887 19.0029 8.00005C19.0029 10.1212 18.3147 12.207 17.387 13.3201C17.2103 13.5323 16.895 13.5609 16.6828 13.3842C16.4707 13.2074 16.442 12.8921 16.6188 12.68C17.3579 11.7931 18.0029 9.95606 18.0029 8.00005C18.0029 6.04404 17.3579 4.20701 16.6188 3.32015C16.442 3.10801 16.4707 2.79272 16.6828 2.61594ZM7.85648 4.6465C8.05175 4.84176 8.05175 5.15834 7.85648 5.35361C7.68059 5.5295 7.46212 5.89271 7.28711 6.39034C7.11576 6.87753 7.00293 7.44639 7.00293 8.00005C7.00293 8.55372 7.11576 9.12257 7.28711 9.60977C7.46212 10.1074 7.68059 10.4706 7.85648 10.6465C8.05175 10.8418 8.05175 11.1583 7.85648 11.3536C7.66122 11.5489 7.34464 11.5489 7.14938 11.3536C6.82527 11.0295 6.54374 10.5102 6.34375 9.94155C6.1401 9.36248 6.00293 8.68134 6.00293 8.00005C6.00293 7.31877 6.1401 6.63763 6.34375 6.05856C6.54374 5.48993 6.82527 4.97061 7.14938 4.6465C7.34464 4.45124 7.66122 4.45124 7.85648 4.6465ZM14.1494 4.6465C14.3446 4.45124 14.6612 4.45124 14.8565 4.6465C15.1806 4.97061 15.4621 5.48993 15.6621 6.05856C15.8658 6.63763 16.0029 7.31877 16.0029 8.00005C16.0029 8.68134 15.8658 9.36248 15.6621 9.94155C15.4621 10.5102 15.1806 11.0295 14.8565 11.3536C14.6612 11.5489 14.3446 11.5489 14.1494 11.3536C13.9541 11.1583 13.9541 10.8418 14.1494 10.6465C14.3253 10.4706 14.5437 10.1074 14.7188 9.60977C14.8901 9.12257 15.0029 8.55372 15.0029 8.00005C15.0029 7.44639 14.8901 6.87753 14.7188 6.39034C14.5437 5.89271 14.3253 5.5295 14.1494 5.35361C13.9541 5.15834 13.9541 4.84176 14.1494 4.6465ZM11.0029 7.00005C10.4506 7.00005 10.0029 7.44777 10.0029 8.00005C10.0029 8.55234 10.4506 9.00005 11.0029 9.00005C11.5552 9.00005 12.0029 8.55234 12.0029 8.00005C12.0029 7.44777 11.5552 7.00005 11.0029 7.00005ZM9.00293 8.00005C9.00293 6.89548 9.89836 6.00005 11.0029 6.00005C12.1075 6.00005 13.0029 6.89548 13.0029 8.00005C13.0029 8.93197 12.3655 9.71502 11.5029 9.93705V18.0001H18.5029C20.4359 18.0001 22.0029 19.5671 22.0029 21.5001V23.5001C22.0029 23.7762 21.7791 24.0001 21.5029 24.0001H0.50293C0.226787 24.0001 0.00292969 23.7762 0.00292969 23.5001V21.5001C0.00292969 19.5671 1.56993 18.0001 3.50293 18.0001H10.5029V9.93705C9.64032 9.71502 9.00293 8.93197 9.00293 8.00005ZM3.50293 19.0001C2.12222 19.0001 1.00293 20.1193 1.00293 21.5001V23.0001H21.0029V21.5001C21.0029 20.1193 19.8836 19.0001 18.5029 19.0001H3.50293ZM8.00293 21.0001C8.00293 20.7239 8.22679 20.5001 8.50293 20.5001H8.51293C8.78907 20.5001 9.01293 20.7239 9.01293 21.0001C9.01293 21.2762 8.78907 21.5001 8.51293 21.5001H8.50293C8.22679 21.5001 8.00293 21.2762 8.00293 21.0001ZM10.5029 21.0001C10.5029 20.7239 10.7268 20.5001 11.0029 20.5001H11.0129C11.2891 20.5001 11.5129 20.7239 11.5129 21.0001C11.5129 21.2762 11.2891 21.5001 11.0129 21.5001H11.0029C10.7268 21.5001 10.5029 21.2762 10.5029 21.0001ZM13.0029 21.0001C13.0029 20.7239 13.2268 20.5001 13.5029 20.5001H13.5129C13.7891 20.5001 14.0129 20.7239 14.0129 21.0001C14.0129 21.2762 13.7891 21.5001 13.5129 21.5001H13.5029C13.2268 21.5001 13.0029 21.2762 13.0029 21.0001Z" fill="black"/>
</svg>
