<svg width="25" height="18" viewBox="0 0 25 18" fill="none" xmlns="http://www.w3.org/2000/svg">
<path d="M6.50293 17C6.22679 17 6.00293 17.2239 6.00293 17.5C6.00293 17.7761 6.22679 18 6.50293 18V17ZM17.5029 18C17.7791 18 18.0029 17.7761 18.0029 17.5C18.0029 17.2239 17.7791 17 17.5029 17V18ZM2.50293 1H21.5029V0H2.50293V1ZM23.0029 2.5V12.5H24.0029V2.5H23.0029ZM21.5029 14H2.50293V15H21.5029V14ZM1.00293 12.5V2.5H0.00292969V12.5H1.00293ZM2.50293 14C1.6745 14 1.00293 13.3284 1.00293 12.5H0.00292969C0.00292969 13.8807 1.12222 15 2.50293 15V14ZM23.0029 12.5C23.0029 13.3284 22.3314 14 21.5029 14V15C22.8836 15 24.0029 13.8807 24.0029 12.5H23.0029ZM21.5029 1C22.3314 1 23.0029 1.67157 23.0029 2.5H24.0029C24.0029 1.11929 22.8836 0 21.5029 0V1ZM2.50293 0C1.12222 0 0.00292969 1.11929 0.00292969 2.5H1.00293C1.00293 1.67157 1.6745 1 2.50293 1V0ZM8.00293 15V17H9.00293V15H8.00293ZM15.0029 15V17H16.0029V15H15.0029ZM6.50293 18H17.5029V17H6.50293V18Z" fill="#1D2126"/>
</svg>
