<svg width="19" height="24" viewBox="0 0 19 24" fill="none" xmlns="http://www.w3.org/2000/svg">
<path d="M15.0029 3C15.2791 3 15.5029 2.77614 15.5029 2.5C15.5029 2.22386 15.2791 2 15.0029 2V3ZM12.0029 2C11.7268 2 11.5029 2.22386 11.5029 2.5C11.5029 2.77614 11.7268 3 12.0029 3V2ZM2.50293 1H15.5029V0H2.50293V1ZM17.0029 2.5V21.5H18.0029V2.5H17.0029ZM15.5029 23H2.50293V24H15.5029V23ZM1.00293 21.5V2.5H0.00292969V21.5H1.00293ZM2.50293 23C1.6745 23 1.00293 22.3284 1.00293 21.5H0.00292969C0.00292969 22.8807 1.12222 24 2.50293 24V23ZM17.0029 21.5C17.0029 22.3284 16.3314 23 15.5029 23V24C16.8836 24 18.0029 22.8807 18.0029 21.5H17.0029ZM15.5029 1C16.3314 1 17.0029 1.67157 17.0029 2.5H18.0029C18.0029 1.11929 16.8836 0 15.5029 0V1ZM2.50293 0C1.12222 0 0.00292969 1.11929 0.00292969 2.5H1.00293C1.00293 1.67157 1.6745 1 2.50293 1V0ZM14.0029 14C14.0029 16.7614 11.7644 19 9.00293 19V20C12.3166 20 15.0029 17.3137 15.0029 14H14.0029ZM9.00293 19C6.24151 19 4.00293 16.7614 4.00293 14H3.00293C3.00293 17.3137 5.68922 20 9.00293 20V19ZM4.00293 14C4.00293 11.2386 6.24151 9 9.00293 9V8C5.68922 8 3.00293 10.6863 3.00293 14H4.00293ZM9.00293 9C11.7644 9 14.0029 11.2386 14.0029 14H15.0029C15.0029 10.6863 12.3166 8 9.00293 8V9ZM0.50293 5H17.5029V4H0.50293V5ZM15.0029 2C14.9772 2 14.9736 2 14.9475 2C14.9382 2 14.9289 2 14.9195 2C14.9172 2 14.9148 2 14.9125 2C14.9101 2 14.9078 2 14.9054 2C14.8916 2 14.9051 2 14.8912 2C14.8534 2 14.815 2 14.7762 2C14.7281 2 14.589 2 14.5377 2C14.4988 2 14.5461 2 14.5072 2C14.4765 2 14.5226 2 14.4919 2C14.4894 2 14.4868 2 14.4843 2C14.4817 2 14.4792 2 14.4766 2C14.451 2 14.4716 2 14.4459 2C14.3977 2 14.4634 2 14.4151 2C14.4083 2 14.4065 2 14.3997 2C14.3971 2 14.3945 2 14.392 2C14.3894 2 14.3868 2 14.3842 2C14.3621 2 14.3754 2 14.3532 2C14.3481 2 14.3429 2 14.3377 2C14.3351 2 14.3325 2 14.3299 2C14.3274 2 14.3248 2 14.3222 2C14.306 2 14.3228 2 14.3066 2C14.304 2 14.3014 2 14.2988 2C14.2962 2 14.2936 2 14.291 2C14.2891 2 14.2617 2 14.2598 2C14.2383 2 14.25 2 14.2285 2C14.2233 2 14.2181 2 14.2129 2C14.2122 2 14.1979 2 14.1972 2C14.1946 2 14.192 2 14.1893 2C14.1867 2 14.1841 2 14.1815 2C14.1443 2 14.203 2 14.1658 2C14.1388 2 14.1614 2 14.1344 2C14.1019 2 14.1354 2 14.1029 2C14.087 2 14.0559 2 14.0399 2C14.0189 2 13.9979 2 13.9769 2C13.9623 2 13.9599 2 13.9453 2C13.9299 2 13.9293 2 13.9138 2C13.8695 2 13.8951 2 13.8509 2C13.8404 2 13.8299 2 13.8194 2C13.8168 2 13.8142 2 13.8115 2C13.8089 2 13.8063 2 13.8037 2C13.7719 2 13.8198 2 13.788 2C13.7507 2 13.7625 2 13.7253 2C13.6788 2 13.7093 2 13.6628 2C13.6289 2 13.6345 2 13.6007 2C13.58 2 13.5594 2 13.5389 2C13.4079 2 13.1811 2 13.0636 2C12.9127 2 12.771 2 12.6432 2C12.6245 2 12.6381 2 12.6195 2C12.5938 2 12.6215 2 12.596 2C12.5838 2 12.5619 2 12.5501 2C12.5353 2 12.4756 2 12.4628 2C12.4297 2 12.4539 2 12.4213 2C12.3991 2 12.4032 2 12.3815 2C12.3746 2 12.3116 2 12.3069 2C12.3036 2 12.2925 2 12.2894 2C12.2879 2 12.2865 2 12.285 2C12.2836 2 12.2822 2 12.2807 2C12.2793 2 12.2779 2 12.2765 2C12.2751 2 12.2737 2 12.2722 2C12.2708 2 12.2694 2 12.268 2C12.2666 2 12.2652 2 12.2639 2C12.2625 2 12.2611 2 12.2597 2C12.2583 2 12.257 2 12.2556 2C12.251 2 12.252 2 12.2474 2C12.2128 2 12.274 2 12.2394 2C12.2181 2 12.1981 2 12.1794 2C12.142 2 12.1099 2 12.0838 2C12.0805 2 12.0773 2 12.0743 2C12.0734 2 12.066 2 12.0653 2C12.0631 2 12.0632 2 12.061 2C12.0603 2 12.0596 2 12.059 2C12.0583 2 12.0576 2 12.0569 2C12.0515 2 12.0543 2 12.0491 2C12.0391 2 12.0306 2 12.0237 2C12.012 2 12.0166 2 12.0082 2C11.9838 2 12.0301 2 12.0059 2C12.0057 2 12.0056 2 12.0054 2C12.0053 2 12.0051 2 12.005 2C12.0046 2 12.0046 2 12.0043 2C12.0034 2 12.0039 2 12.0033 2C12.003 2 12.0032 2 12.003 2C12.003 2 12.003 2 12.003 2C12.0029 2 12.0029 2 12.0029 2.5C12.0029 3 12.0029 3 12.003 3C12.003 3 12.003 3 12.003 3C12.003 3 12.0032 3 12.0033 3C12.0054 3 12.0015 3 12.0037 3C12.0045 3 12.0034 3 12.0043 3C12.0082 3 12.0034 3 12.0082 3C12.0263 3 12.0023 3 12.0238 3C12.0306 3 12.0391 3 12.0491 3C12.0756 3 12.0303 3 12.0569 3C12.0583 3 12.0596 3 12.061 3C12.0663 3 12.06 3 12.0653 3C12.0757 3 12.0592 3 12.0697 3C12.0703 3 12.0736 3 12.0743 3C12.0833 3 12.0699 3 12.079 3C12.0797 3 12.0805 3 12.0813 3C12.0822 3 12.083 3 12.0838 3C12.1099 3 12.142 3 12.1794 3C12.1981 3 12.2181 3 12.2394 3C12.2514 3 12.2434 3 12.2556 3C12.2583 3 12.2611 3 12.2639 3C12.2652 3 12.2666 3 12.268 3C12.2694 3 12.2708 3 12.2722 3C12.2737 3 12.2751 3 12.2765 3C12.2779 3 12.2793 3 12.2807 3C12.2822 3 12.2836 3 12.285 3C12.2865 3 12.2879 3 12.2894 3C12.2925 3 12.3036 3 12.3069 3C12.3093 3 12.3224 3 12.3249 3C12.3455 3 12.3226 3 12.3434 3C12.3558 3 12.3685 3 12.3815 3C12.4231 3 12.419 3 12.4628 3C12.4768 3 12.4911 3 12.5057 3C12.5244 3 12.4979 3 12.5167 3C12.5204 3 12.524 3 12.5277 3C12.538 3 12.5397 3 12.5501 3C12.5619 3 12.5838 3 12.596 3C12.604 3 12.5997 3 12.6077 3C12.6295 3 12.5976 3 12.6195 3C12.6381 3 12.6245 3 12.6432 3C12.771 3 12.9127 3 13.0636 3C13.1811 3 13.4079 3 13.5389 3C13.5594 3 13.58 3 13.6007 3C13.6345 3 13.6289 3 13.6628 3C13.6667 3 13.6902 3 13.694 3C13.7146 3 13.7048 3 13.7253 3C13.7268 3 13.7551 3 13.7566 3C13.7775 3 13.7514 3 13.7723 3C13.7775 3 13.7828 3 13.788 3C13.8198 3 13.7719 3 13.8037 3C13.8275 3 13.7956 3 13.8194 3C13.822 3 13.8246 3 13.8273 3C13.8299 3 13.8325 3 13.8351 3C13.8377 3 13.8404 3 13.843 3C13.8456 3 13.8482 3 13.8509 3C13.8641 3 13.9006 3 13.9138 3C13.9359 3 13.9075 3 13.9296 3C13.9322 3 13.9348 3 13.9375 3C13.9401 3 13.9427 3 13.9453 3C13.9599 3 13.9623 3 13.9769 3C13.9821 3 13.9874 3 13.9926 3C13.9945 3 14.0066 3 14.0084 3C14.0099 3 14.0227 3 14.0242 3C14.0294 3 14.0347 3 14.0399 3C14.0559 3 14.087 3 14.1029 3C14.1354 3 14.1019 3 14.1344 3C14.1614 3 14.1388 3 14.1658 3C14.1774 3 14.1699 3 14.1815 3C14.1841 3 14.1867 3 14.1893 3C14.192 3 14.1946 3 14.1972 3C14.1998 3 14.2024 3 14.205 3C14.2076 3 14.2103 3 14.2129 3C14.2155 3 14.2181 3 14.2207 3C14.2233 3 14.2259 3 14.2285 3C14.25 3 14.2383 3 14.2598 3C14.2617 3 14.2891 3 14.291 3C14.2953 3 14.3179 3 14.3222 3C14.3248 3 14.3274 3 14.3299 3C14.3325 3 14.3351 3 14.3377 3C14.3429 3 14.3481 3 14.3532 3C14.3754 3 14.3621 3 14.3842 3C14.3868 3 14.3894 3 14.392 3C14.3945 3 14.3971 3 14.3997 3C14.4065 3 14.4083 3 14.4151 3C14.4269 3 14.4188 3 14.4305 3C14.4331 3 14.4357 3 14.4382 3C14.4408 3 14.4434 3 14.4459 3C14.4716 3 14.451 3 14.4766 3C14.4792 3 14.4817 3 14.4843 3C14.4868 3 14.4894 3 14.4919 3C14.5226 3 14.4765 3 14.5072 3C14.5097 3 14.5123 3 14.5148 3C14.5174 3 14.5199 3 14.5224 3C14.5296 3 14.5305 3 14.5377 3C14.589 3 14.7281 3 14.7762 3C14.7956 3 14.8149 3 14.8341 3C14.8437 3 14.8533 3 14.8628 3C14.9041 3 14.85 3 14.8912 3C14.9337 3 14.9054 3 14.9475 3C14.9736 3 14.9772 3 15.0029 3V2Z" fill="#1D2126"/>
</svg>
