<svg
  width="15"
  height="12"
  viewBox="0 0 15 12"
  fill="none"
  xmlns="http://www.w3.org/2000/svg"
>
  <path
    fill="#fff"
    fill-rule="evenodd"
    clip-rule="evenodd"
    d="M13.7576 0.442536C14.0618 0.71963 14.0865 1.19385 13.8127 1.50173L4.91855 11.5017C4.77909 11.6585 4.58081 11.7486 4.37234 11.75C4.16387 11.7513 3.96449 11.6638 3.82307 11.5088L0.199541 7.53734C-0.0781365 7.233 -0.0594267 6.7585 0.24133 6.47752C0.542087 6.19654 1.011 6.21547 1.28868 6.51981L4.36065 9.88672L12.7108 0.498283C12.9847 0.1904 13.4533 0.165442 13.7576 0.442536ZM13.7576 5.77587C14.0618 6.05296 14.0865 6.52718 13.8127 6.83506L9.66207 11.5017C9.52261 11.6585 9.32434 11.7487 9.11587 11.75C8.9074 11.7513 8.70801 11.6638 8.56659 11.5088L7.66071 10.5159C7.38303 10.2116 7.40175 9.73707 7.7025 9.45609C8.00326 9.17511 8.47217 9.19404 8.74985 9.49838L9.10417 9.88673L12.7108 5.83162C12.9847 5.52373 13.4533 5.49878 13.7576 5.77587Z"
  />
</svg>
