<svg width="17" height="16" viewBox="0 0 17 16" fill="none" xmlns="http://www.w3.org/2000/svg">
<path fill-rule="evenodd" clip-rule="evenodd" d="M0.185958 0.113332C0.338455 -0.011684 0.550187 -0.0353949 0.72656 0.0527927L15.7266 7.5529C15.896 7.6376 16.003 7.81073 16.003 8.00011C16.0029 8.1895 15.8959 8.36263 15.7266 8.44733L0.726555 15.9472C0.550181 16.0354 0.33845 16.0117 0.185954 15.8867C0.0334587 15.7617 -0.0313161 15.5587 0.020569 15.3684L2.03014 8.00011L0.0205681 0.631562C-0.0313157 0.441319 0.0334608 0.238349 0.185958 0.113332ZM2.9303 8.50011L1.27958 14.5527L13.3849 8.50011H2.9303ZM13.3849 7.50011H2.9303L1.27957 1.44734L13.3849 7.50011Z" fill="black"/>
</svg>
