<svg width="20" height="19" viewBox="0 0 20 19" fill="none" xmlns="http://www.w3.org/2000/svg">
<path fill-rule="evenodd" clip-rule="evenodd" d="M11.1795 0.712552C10.6988 -0.236611 9.34286 -0.237766 8.8606 0.710583L0.667678 16.8218C0.160538 17.819 0.885536 19 2.0049 19H17.9997C19.118 19 19.843 17.8212 19.3381 16.824L11.1795 0.712552ZM9.75208 1.16336C9.86337 0.944513 10.1763 0.944777 10.2872 1.16382L18.4459 17.2753C18.6142 17.6077 18.3725 18.0006 17.9997 18.0006H2.0049C1.63178 18.0006 1.39011 17.607 1.55916 17.2745L9.75208 1.16336ZM9.36663 6.7636C9.53541 6.59482 9.76433 6.5 10.003 6.5C10.2417 6.5 10.4706 6.59482 10.6394 6.7636C10.8082 6.93238 10.903 7.1613 10.903 7.4V12.2C10.903 12.4387 10.8082 12.6676 10.6394 12.8364C10.4706 13.0052 10.2417 13.1 10.003 13.1C9.76433 13.1 9.53541 13.0052 9.36663 12.8364C9.19785 12.6676 9.10303 12.4387 9.10303 12.2V7.4C9.10303 7.16131 9.19785 6.93239 9.36663 6.7636ZM9.36663 13.9636C9.53541 13.7948 9.76433 13.7 10.003 13.7C10.2417 13.7 10.4706 13.7948 10.6394 13.9636C10.8082 14.1324 10.903 14.3613 10.903 14.6C10.903 14.8387 10.8082 15.0676 10.6394 15.2364C10.4706 15.4052 10.2417 15.5 10.003 15.5C9.76433 15.5 9.53541 15.4052 9.36663 15.2364C9.19785 15.0676 9.10303 14.8387 9.10303 14.6C9.10303 14.3613 9.19785 14.1324 9.36663 13.9636Z" fill="#1D2126"/>
</svg>
