<svg width="33" height="32" viewBox="0 0 33 32" fill="none" xmlns="http://www.w3.org/2000/svg">
<path fill-rule="evenodd" clip-rule="evenodd" d="M16.0029 0C7.16637 0 0.00292969 7.16344 0.00292969 16C0.00292969 24.8366 7.16637 32 16.0029 32C24.8395 32 32.0029 24.8366 32.0029 16C32.0029 7.16344 24.8395 0 16.0029 0ZM1.00293 16C1.00293 7.71573 7.71866 1 16.0029 1C24.2872 1 31.0029 7.71573 31.0029 16C31.0029 20.4961 29.0248 24.5302 25.8914 27.2794C25.0648 26.693 24.1949 26.2306 23.3223 25.8119C22.8868 25.6029 22.4653 25.4111 22.0476 25.2211C21.4931 24.9688 20.9453 24.7196 20.3805 24.4372C19.9105 24.2027 19.6128 23.7214 19.6128 23.1952V21.3795L19.619 21.3706C19.6552 21.3196 19.7085 21.2599 19.7817 21.1809C19.9264 21.0245 20.0435 20.8642 20.1497 20.706C20.7317 19.8391 21.1868 18.9033 21.5211 17.9283C22.2245 17.6054 22.724 16.899 22.724 16.0672V13.9931C22.724 13.4618 22.5178 12.9836 22.1913 12.6229L22.103 11.3862C21.9743 9.58339 21.6882 7.96445 20.7772 6.804C19.8371 5.60646 18.3224 5 16.0028 5C13.6849 5 12.1686 5.60605 11.2269 6.80302C10.314 7.96343 10.0265 9.58246 9.90035 11.387L9.81388 12.6234C9.4882 12.9838 9.28145 13.4617 9.28145 13.9931V16.0672C9.28145 16.7181 9.58817 17.2937 10.0556 17.6684C10.4599 19.2737 11.2476 20.5445 11.6773 21.1562C11.7157 21.2108 11.7613 21.2629 11.7896 21.2952L11.7906 21.2963L11.8018 21.3091C11.8305 21.3418 11.8511 21.3654 11.87 21.3891L11.8738 21.3941V23.1472C11.8738 23.5956 11.6576 24.0124 11.3003 24.2716C11.189 24.3523 11.0703 24.4142 10.9174 24.4941C10.87 24.5188 10.819 24.5455 10.7641 24.5748C10.3579 24.7919 9.94649 25.0054 9.53289 25.2201C8.35437 25.8317 7.15804 26.4526 6.0144 27.1908C2.939 24.4439 1.00293 20.448 1.00293 16ZM6.82146 27.8626C9.35879 29.8293 12.5442 31 16.0029 31C19.4172 31 22.565 29.8593 25.0861 27.9382C24.392 27.4704 23.6559 27.0811 22.8896 26.7134C22.5001 26.5265 22.0883 26.3388 21.6697 26.148C21.0904 25.884 20.4978 25.6139 19.9336 25.3318C19.1238 24.9277 18.6128 24.0997 18.6128 23.1952V21.3164C18.6128 21.0791 18.7349 20.8887 18.8031 20.7924C18.8827 20.68 18.9803 20.5745 19.0478 20.5016C19.1437 20.398 19.2283 20.2844 19.3194 20.1487C19.8914 19.2965 20.3317 18.3676 20.6449 17.394C20.6949 17.2386 20.8175 17.1174 20.9735 17.0693C21.4105 16.9345 21.724 16.5334 21.724 16.0672V13.9931C21.724 13.6893 21.59 13.413 21.3706 13.2147C21.2748 13.1282 21.2163 13.008 21.2071 12.8793L21.1055 11.4575C20.9776 9.66515 20.6985 8.32316 19.9906 7.42148C19.3119 6.55689 18.1543 6 16.0028 6C13.853 6 12.6932 6.55654 12.0129 7.42133C11.3038 8.32268 11.0232 9.66458 10.8979 11.4567L10.7985 12.8786C10.7895 13.0074 10.731 13.1277 10.6353 13.2144C10.4157 13.4131 10.2814 13.6897 10.2814 13.9931V16.0672C10.2814 16.4337 10.4739 16.7607 10.7702 16.9524C10.8794 17.0231 10.9568 17.1336 10.9859 17.2604C11.3336 18.7758 12.0867 19.9992 12.4956 20.5814C12.4956 20.5814 12.4988 20.5858 12.5079 20.5968C12.5168 20.6076 12.5278 20.6203 12.5429 20.6375L12.5531 20.6492C12.5801 20.6798 12.6179 20.7229 12.6532 20.7674C12.6934 20.8181 12.7443 20.8875 12.7862 20.9698C12.8276 21.051 12.8738 21.1709 12.8738 21.3164V23.1472C12.8738 23.9189 12.5018 24.6355 11.8874 25.0811C11.7102 25.2096 11.5055 25.316 11.343 25.4004C11.3045 25.4204 11.2683 25.4392 11.2355 25.4567C10.8055 25.6865 10.379 25.9079 9.95657 26.1272C8.8826 26.6847 7.83464 27.2288 6.82146 27.8626Z" fill="#1D2126"/>
</svg>
