<svg width="12" height="12" viewBox="0 0 12 12" fill="none" xmlns="http://www.w3.org/2000/svg">
<path d="M9.12598 7.93824C8.73394 7.55119 8.24451 7.55119 7.85496 7.93824C7.55781 8.2329 7.26066 8.52755 6.9685 8.8272C6.88859 8.90961 6.82117 8.92708 6.72378 8.87215C6.53151 8.76727 6.32675 8.68237 6.14197 8.5675C5.28047 8.02564 4.55881 7.32895 3.91956 6.54487C3.60243 6.15532 3.32026 5.73831 3.12299 5.26886C3.08304 5.17397 3.09053 5.11154 3.16794 5.03413C3.46509 4.74697 3.75475 4.45231 4.04691 4.15766C4.45394 3.74814 4.45394 3.2687 4.04442 2.85668C3.81219 2.62195 3.57996 2.39222 3.34773 2.15749C3.10801 1.91777 2.87079 1.67556 2.62857 1.43833C2.23653 1.05628 1.7471 1.05628 1.35755 1.44083C1.0579 1.73549 0.770739 2.03763 0.466095 2.32729C0.183925 2.59448 0.0415911 2.9216 0.0116261 3.30365C-0.0358185 3.92543 0.116504 4.51224 0.331253 5.08407C0.770739 6.26769 1.43996 7.31896 2.25151 8.28284C3.34773 9.58632 4.6562 10.6176 6.18691 11.3617C6.87611 11.6964 7.59027 11.9535 8.36687 11.996C8.90124 12.026 9.3657 11.8911 9.73776 11.4741C9.99247 11.1894 10.2796 10.9297 10.5493 10.6576C10.9488 10.253 10.9513 9.76361 10.5543 9.36407C10.0799 8.88713 9.60292 8.41269 9.12598 7.93824Z" fill="#1D2126"/>
<path d="M8.53757 5.49499C8.61746 5.74034 8.85553 5.91287 9.10988 5.86945C9.36447 5.82598 9.53823 5.58318 9.46628 5.33513C9.27313 4.6693 8.91565 4.06628 8.41975 3.56833C7.88967 3.03825 7.24375 2.67002 6.53122 2.48756C6.28092 2.42346 6.04342 2.60456 6.00756 2.86044C5.9717 3.11629 6.15153 3.34935 6.39955 3.42171C6.91098 3.57092 7.37548 3.84502 7.76052 4.23006C8.119 4.58854 8.38283 5.01982 8.53757 5.49499Z" fill="#1D2126"/>
<path d="M10.09 1.94273C9.13731 0.990033 7.95828 0.35179 6.65517 0.0800209C6.40233 0.0272903 6.1655 0.20726 6.12965 0.463038C6.09378 0.718949 6.27277 0.9536 6.52513 1.00922C7.62622 1.25191 8.62304 1.79892 9.43077 2.60446C10.1914 3.36507 10.7237 4.30068 10.9847 5.3316C11.048 5.58159 11.2874 5.75307 11.5416 5.70967C11.7961 5.6662 11.9687 5.4238 11.9077 5.17283C11.6108 3.95064 10.9879 2.84284 10.09 1.94273Z" fill="#1D2126"/>
</svg>
