<svg width="17" height="16" viewBox="0 0 17 16" fill="none" xmlns="http://www.w3.org/2000/svg">
<path d="M7.31925 0.45761C7.37516 0.322192 7.47 0.206416 7.59177 0.124952C7.71354 0.0434872 7.85675 0 8.00325 0C8.14976 0 8.29296 0.0434872 8.41473 0.124952C8.5365 0.206416 8.63134 0.322192 8.68725 0.45761L10.4833 4.53261C10.5933 4.78161 10.8193 4.95261 11.0793 4.98561L15.3373 5.51361C15.9763 5.59361 16.2323 6.41861 15.7603 6.87561L12.6133 9.92161C12.5177 10.0155 12.4468 10.1315 12.407 10.2594C12.3672 10.3873 12.3598 10.5231 12.3853 10.6546L13.2213 15.0556C13.3463 15.7156 12.6753 16.2256 12.1143 15.8976L8.37225 13.7056C8.26078 13.6398 8.1337 13.6051 8.00425 13.6051C7.87481 13.6051 7.74773 13.6398 7.63625 13.7056L3.89325 15.8976C3.33225 16.2256 2.66125 15.7156 2.78625 15.0556L3.62225 10.6546C3.64783 10.5231 3.64039 10.3873 3.6006 10.2594C3.56081 10.1315 3.48991 10.0154 3.39425 9.92161L0.246252 6.87561C-0.226748 6.41861 0.0302516 5.59261 0.669252 5.51361L4.92725 4.98561C5.05734 4.96825 5.18068 4.91736 5.28517 4.83794C5.38966 4.75852 5.4717 4.65331 5.52325 4.53261L7.31925 0.45761Z" fill="#1D2126"/>
</svg>
