<svg width="49" height="48" viewBox="0 0 49 48" fill="none" xmlns="http://www.w3.org/2000/svg">
<path d="M33.648 18.4689C34.1832 17.8365 34.1043 16.8901 33.4719 16.355C32.8395 15.8198 31.893 15.8987 31.3579 16.5311L21.3195 28.3946L16.4632 24.3477C15.8268 23.8174 14.881 23.9033 14.3506 24.5398C13.8203 25.1762 13.9063 26.122 14.5427 26.6524L20.5427 31.6524C21.1757 32.1799 22.1158 32.098 22.648 31.4689L33.648 18.4689Z" fill="#1D2126"/>
<path fill-rule="evenodd" clip-rule="evenodd" d="M48.0029 24C48.0029 37.2548 37.2578 48 24.0029 48C10.7481 48 0.00292969 37.2548 0.00292969 24C0.00292969 10.7452 10.7481 0 24.0029 0C37.2578 0 48.0029 10.7452 48.0029 24ZM45.0029 24C45.0029 35.598 35.6009 45 24.0029 45C12.4049 45 3.00293 35.598 3.00293 24C3.00293 12.402 12.4049 3 24.0029 3C35.6009 3 45.0029 12.402 45.0029 24Z" fill="#1D2126"/>
</svg>
